<svg width="200" height="200" viewBox="0 0 200 200" fill="none" xmlns="http://www.w3.org/2000/svg">
<path d="M67.9543 124.153C70.951 126.903 73.3313 130.257 74.9387 133.993C76.5613 137.738 77.3947 141.778 77.3867 145.859V147.594C75.9983 147.828 74.7107 148.469 73.6876 149.437C72.6644 150.404 71.9519 151.654 71.6405 153.027C71.3292 154.4 71.433 155.835 71.9388 157.149C72.4446 158.463 73.3295 159.597 74.4813 160.407C73.5275 161.946 73.1985 163.791 73.5616 165.565C73.9248 167.339 74.9526 168.906 76.4344 169.947C75.7673 171.024 75.4003 172.259 75.3713 173.526C75.3423 174.792 75.6524 176.043 76.2694 177.149C76.8865 178.255 77.7881 179.177 78.8808 179.817C79.9735 180.458 81.2177 180.795 82.4844 180.793H82.6645L85.0008 190.338C85.1255 190.848 85.4176 191.301 85.8304 191.625C86.2431 191.949 86.7526 192.125 87.2773 192.125H112.723C113.247 192.125 113.757 191.949 114.17 191.625C114.582 191.301 114.875 190.848 114.999 190.338L117.336 180.793H117.516C118.782 180.796 120.026 180.459 121.119 179.819C122.211 179.179 123.113 178.258 123.73 177.152C124.347 176.046 124.656 174.795 124.627 173.529C124.597 172.263 124.23 171.028 123.562 169.952C123.898 169.717 124.214 169.454 124.505 169.165C125.636 168.034 126.352 166.554 126.535 164.965C126.719 163.376 126.359 161.772 125.515 160.413C125.851 160.178 126.167 159.915 126.458 159.626C127.379 158.703 128.029 157.544 128.336 156.277C128.642 155.01 128.595 153.682 128.198 152.44C127.801 151.198 127.07 150.089 126.085 149.234C125.1 148.38 123.899 147.813 122.613 147.595V145.828C122.643 141.708 123.518 137.638 125.184 133.869C126.849 130.101 129.27 126.714 132.297 123.918C139.22 117.453 144.048 109.063 146.159 99.8282C148.269 90.5938 147.565 80.939 144.138 72.1084C140.71 63.2779 134.716 55.6765 126.928 50.2843C119.14 44.8921 109.915 41.9563 100.443 41.8554C100.295 41.8554 100.149 41.8535 100.002 41.8535C90.4565 41.8538 81.134 44.7365 73.2547 50.1241C65.3755 55.5116 59.3068 63.153 55.8433 72.0475C52.3798 80.942 51.6829 90.6751 53.8439 99.9723C56.0049 109.27 60.923 117.698 67.9543 124.153ZM110.884 187.437H89.1168L87.4906 180.793H112.509L110.884 187.437ZM119.234 175.393C119.009 175.62 118.741 175.799 118.446 175.922C118.151 176.044 117.835 176.106 117.516 176.105H82.4844C81.841 176.105 81.224 175.85 80.7691 175.395C80.3142 174.94 80.0586 174.323 80.0586 173.68C80.0586 173.036 80.3142 172.419 80.7691 171.964C81.224 171.509 81.841 171.254 82.4844 171.254H117.516C117.996 171.253 118.465 171.395 118.864 171.662C119.263 171.928 119.575 172.307 119.758 172.75C119.942 173.193 119.991 173.681 119.898 174.152C119.804 174.622 119.573 175.055 119.234 175.394V175.393ZM123.848 154.602C123.848 154.92 123.785 155.236 123.664 155.53C123.542 155.825 123.363 156.092 123.138 156.317C122.912 156.543 122.645 156.721 122.35 156.843C122.056 156.965 121.74 157.028 121.422 157.027H98.0391C97.4175 157.027 96.8213 157.274 96.3818 157.714C95.9422 158.153 95.6953 158.749 95.6953 159.371C95.6953 159.993 95.9422 160.589 96.3818 161.028C96.8213 161.468 97.4175 161.715 98.0391 161.715H119.469C120.112 161.715 120.729 161.97 121.184 162.425C121.639 162.88 121.895 163.497 121.895 164.141C121.895 164.784 121.639 165.401 121.184 165.856C120.729 166.311 120.112 166.566 119.469 166.566H80.5313C79.8879 166.566 79.2709 166.311 78.816 165.856C78.361 165.401 78.1055 164.784 78.1055 164.141C78.1055 163.497 78.361 162.88 78.816 162.425C79.2709 161.97 79.8879 161.715 80.5313 161.715H87.8516C88.4732 161.715 89.0693 161.468 89.5088 161.028C89.9484 160.589 90.1953 159.993 90.1953 159.371C90.1953 158.749 89.9484 158.153 89.5088 157.714C89.0693 157.274 88.4732 157.027 87.8516 157.027H78.5781C77.9348 157.027 77.3178 156.772 76.8628 156.317C76.4079 155.862 76.1523 155.245 76.1523 154.602C76.1523 153.958 76.4079 153.341 76.8628 152.886C77.3178 152.431 77.9348 152.176 78.5781 152.176H121.422C122.065 152.176 122.682 152.432 123.136 152.887C123.591 153.342 123.847 153.958 123.848 154.602ZM69.9449 58.9109C73.8954 54.9738 78.5838 51.8546 83.7415 49.732C88.8992 47.6094 94.425 46.525 100.002 46.541C100.135 46.541 100.268 46.541 100.4 46.5429C108.94 46.6233 117.259 49.2627 124.284 54.1199C131.308 58.9772 136.715 65.8292 139.805 73.7908C142.896 81.7524 143.527 90.4577 141.619 98.7821C139.711 107.106 135.351 114.667 129.102 120.488C125.602 123.727 122.804 127.65 120.882 132.014C118.959 136.379 117.953 141.091 117.926 145.859V147.488H101.953V108.672C102.913 109.95 104.313 111.311 106.668 111.311C109.637 111.311 111.092 109.146 112.054 107.714C112.887 106.474 113.167 106.19 113.551 106.19C114.172 106.19 114.769 105.943 115.208 105.504C115.648 105.064 115.895 104.468 115.895 103.846C115.895 103.225 115.648 102.629 115.208 102.189C114.769 101.75 114.172 101.503 113.551 101.503C110.582 101.503 109.127 103.668 108.164 105.1C107.332 106.339 107.052 106.623 106.668 106.623C106.284 106.623 106.004 106.339 105.171 105.1C104.209 103.668 102.755 101.503 99.7852 101.503C96.8156 101.503 95.3637 103.668 94.402 105.101C93.5703 106.339 93.2914 106.625 92.9102 106.625C92.5289 106.625 92.2461 106.34 91.4145 105.101C90.4516 103.668 88.9969 101.504 86.0273 101.504C85.4057 101.504 84.8096 101.751 84.3701 102.19C83.9305 102.63 83.6836 103.226 83.6836 103.848C83.6836 104.469 83.9305 105.065 84.3701 105.505C84.8096 105.944 85.4057 106.191 86.0273 106.191C86.4113 106.191 86.6914 106.476 87.5234 107.715C88.4859 109.148 89.9406 111.312 92.9102 111.312C94.9875 111.312 96.3215 110.252 97.2656 109.125V147.488H82.0742V145.859C82.0829 141.137 81.118 136.463 79.2398 132.13C77.372 127.79 74.6061 123.894 71.1242 120.7C66.8683 116.792 63.4495 112.062 61.0748 106.795C58.7001 101.528 57.4188 95.8341 57.3086 90.0577C57.1983 84.2812 58.2614 78.5424 60.4334 73.1887C62.6054 67.835 65.8412 62.9778 69.9449 58.9109Z" fill="white"/>
<path d="M100 29.711C100.622 29.711 101.218 29.464 101.657 29.0245C102.097 28.5849 102.344 27.9888 102.344 27.3672V10.2188C102.344 9.59716 102.097 9.00102 101.657 8.56148C101.218 8.12195 100.622 7.87502 100 7.87502C99.3784 7.87502 98.7823 8.12195 98.3427 8.56148C97.9032 9.00102 97.6562 9.59716 97.6562 10.2188V27.3672C97.6562 27.9888 97.9032 28.5849 98.3427 29.0245C98.7823 29.464 99.3784 29.711 100 29.711Z" fill="white"/>
<path d="M181.715 89.5899H164.566C163.945 89.5899 163.349 89.8368 162.909 90.2763C162.47 90.7159 162.223 91.312 162.223 91.9336C162.223 92.5552 162.47 93.1514 162.909 93.5909C163.349 94.0304 163.945 94.2774 164.566 94.2774H181.715C182.336 94.2774 182.933 94.0304 183.372 93.5909C183.812 93.1514 184.059 92.5552 184.059 91.9336C184.059 91.312 183.812 90.7159 183.372 90.2763C182.933 89.8368 182.336 89.5899 181.715 89.5899Z" fill="white"/>
<path d="M37.7773 91.9336C37.7773 91.312 37.5304 90.7159 37.0909 90.2763C36.6513 89.8368 36.0552 89.5899 35.4336 89.5899H18.2852C17.6636 89.5899 17.0674 89.8368 16.6279 90.2763C16.1883 90.7159 15.9414 91.312 15.9414 91.9336C15.9414 92.5552 16.1883 93.1514 16.6279 93.5909C17.0674 94.0304 17.6636 94.2774 18.2852 94.2774H35.4336C36.0552 94.2774 36.6513 94.0304 37.0909 93.5909C37.5304 93.1514 37.7773 92.5552 37.7773 91.9336Z" fill="white"/>
<path d="M146.91 47.3672C147.218 47.3675 147.523 47.3071 147.807 47.1892C148.092 47.0714 148.35 46.8985 148.567 46.6804L161.95 33.298C162.168 33.0804 162.34 32.822 162.458 32.5377C162.576 32.2533 162.637 31.9485 162.637 31.6407C162.637 31.3329 162.576 31.0282 162.458 30.7438C162.34 30.4594 162.168 30.201 161.95 29.9834C161.733 29.7657 161.474 29.5931 161.19 29.4752C160.905 29.3574 160.601 29.2968 160.293 29.2968C159.985 29.2968 159.68 29.3574 159.396 29.4751C159.112 29.5929 158.853 29.7655 158.636 29.9832L145.253 43.366C144.925 43.6937 144.702 44.1113 144.612 44.566C144.521 45.0206 144.567 45.4919 144.745 45.9202C144.922 46.3485 145.223 46.7145 145.608 46.9721C145.993 47.2296 146.447 47.3671 146.91 47.3672Z" fill="white"/>
<path d="M51.4328 46.6797C51.6494 46.9021 51.9079 47.0794 52.1936 47.2011C52.4792 47.3228 52.7861 47.3865 53.0966 47.3886C53.407 47.3907 53.7148 47.3311 54.002 47.2133C54.2893 47.0954 54.5502 46.9217 54.7697 46.7021C54.9892 46.4826 55.1629 46.2216 55.2808 45.9344C55.3986 45.6471 55.4582 45.3393 55.456 45.0289C55.4539 44.7184 55.3901 44.4115 55.2684 44.1259C55.1466 43.8403 54.9694 43.5817 54.7469 43.3652L41.3645 29.9824C41.1468 29.7648 40.8884 29.5921 40.604 29.4744C40.3197 29.3566 40.0149 29.296 39.7071 29.296C39.3993 29.296 39.0945 29.3567 38.8102 29.4745C38.5258 29.5923 38.2674 29.7649 38.0498 29.9826C37.8322 30.2003 37.6595 30.4586 37.5418 30.743C37.424 31.0274 37.3634 31.3322 37.3634 31.64C37.3634 31.9478 37.4241 32.2525 37.5419 32.5369C37.6597 32.8213 37.8323 33.0796 38.05 33.2973L51.4328 46.6797Z" fill="white"/>
<path d="M64.2656 93.2227C64.8872 93.2227 65.4834 92.9757 65.9229 92.5362C66.3624 92.0967 66.6094 91.5005 66.6094 90.8789C66.6174 84.4601 68.4651 78.1781 71.9336 72.7772C75.4021 67.3762 80.346 63.0826 86.1797 60.4051C86.4616 60.2784 86.7157 60.0972 86.9274 59.872C87.139 59.6467 87.304 59.3818 87.4128 59.0925C87.5217 58.8032 87.5722 58.4952 87.5616 58.1863C87.5509 57.8774 87.4792 57.5736 87.3507 57.2925C87.2222 57.0114 87.0393 56.7585 86.8126 56.5484C86.586 56.3383 86.32 56.175 86.0299 56.0681C85.7399 55.9612 85.4316 55.9127 85.1228 55.9254C84.814 55.9381 84.5107 56.0118 84.2305 56.1422C77.5797 59.1929 71.9431 64.0868 67.9891 70.2436C64.0351 76.4003 61.9295 83.5618 61.9219 90.8789C61.9219 91.5005 62.1688 92.0967 62.6083 92.5362C63.0479 92.9757 63.644 93.2227 64.2656 93.2227Z" fill="white"/>
<path d="M92.7203 58.1566C92.8816 58.1566 93.0425 58.14 93.2004 58.107C94.539 57.8293 95.8934 57.6336 97.2559 57.5211C97.5638 57.4973 97.864 57.4129 98.1392 57.2727C98.4144 57.1325 98.6591 56.9393 98.8594 56.7042C99.0597 56.4691 99.2116 56.1967 99.3062 55.9027C99.4009 55.6087 99.4365 55.2989 99.4111 54.9911C99.3856 54.6833 99.2996 54.3836 99.1579 54.1092C99.0162 53.8347 98.8217 53.591 98.5855 53.392C98.3493 53.193 98.0761 53.0426 97.7817 52.9495C97.4872 52.8564 97.1772 52.8225 96.8695 52.8496C95.3158 52.9773 93.7714 53.1998 92.2449 53.516C91.6769 53.6338 91.1727 53.9581 90.8299 54.4262C90.4872 54.8942 90.3302 55.4728 90.3893 56.0499C90.4484 56.627 90.7195 57.1617 91.1501 57.5505C91.5807 57.9393 92.1402 58.1545 92.7203 58.1547V58.1566Z" fill="white"/>
</svg>
