<svg width="51" height="51" viewBox="0 0 51 51" fill="none" xmlns="http://www.w3.org/2000/svg">
<g clip-path="url(#clip0)">
<path d="M49.3032 11.6835C48.2852 10.6169 46.8793 9.98669 45.2795 9.98669H37.2319V9.88973C37.2319 8.67776 36.7472 7.51426 35.923 6.73859C35.0989 5.91445 33.9838 5.42966 32.7719 5.42966H18.2281C16.9677 5.42966 15.8527 5.91445 15.0285 6.73859C14.2044 7.56274 13.7196 8.67776 13.7196 9.88973V9.98669H5.72053C4.12072 9.98669 2.71483 10.6169 1.69677 11.6835C0.678707 12.7015 0 14.1559 0 15.7072V39.8498C0 41.4496 0.630228 42.8555 1.69677 43.8736C2.71483 44.8916 4.1692 45.5703 5.72053 45.5703H45.2795C46.8793 45.5703 48.2852 44.9401 49.3032 43.8736C50.3213 42.8555 51 41.4011 51 39.8498V15.7072C51 14.1074 50.3698 12.7015 49.3032 11.6835ZM48.4791 39.8498H48.4306C48.4306 40.7224 48.0913 41.4981 47.5095 42.0798C46.9278 42.6616 46.1521 43.0009 45.2795 43.0009H5.72053C4.84791 43.0009 4.07224 42.6616 3.49049 42.0798C2.90875 41.4981 2.56939 40.7224 2.56939 39.8498V15.7072C2.56939 14.8346 2.90875 14.0589 3.49049 13.4772C4.07224 12.8954 4.84791 12.5561 5.72053 12.5561H15.077C15.8042 12.5561 16.3859 11.9743 16.3859 11.2471V9.84125C16.3859 9.30798 16.5798 8.82319 16.9192 8.48384C17.2586 8.14449 17.7433 7.95057 18.2766 7.95057H32.7719C33.3051 7.95057 33.7899 8.14449 34.1293 8.48384C34.4686 8.82319 34.6625 9.30798 34.6625 9.84125V11.2471C34.6625 11.9743 35.2443 12.5561 35.9715 12.5561H45.3279C46.2006 12.5561 46.9762 12.8954 47.558 13.4772C48.1397 14.0589 48.4791 14.8346 48.4791 15.7072V39.8498Z" fill="#B3B3B3"/>
<path d="M25.5001 15.8527C22.2035 15.8527 19.1978 17.2101 17.0647 19.3432C14.8832 21.5247 13.5742 24.4819 13.5742 27.7785C13.5742 31.0751 14.9316 34.0808 17.0647 36.2139C19.2463 38.3954 22.2035 39.7044 25.5001 39.7044C28.7967 39.7044 31.8024 38.347 33.9354 36.2139C36.117 34.0323 37.4259 31.0751 37.4259 27.7785C37.4259 24.4819 36.0685 21.4762 33.9354 19.3432C31.8024 17.2101 28.7967 15.8527 25.5001 15.8527ZM32.0932 34.4202C30.3965 36.0684 28.0695 37.135 25.5001 37.135C22.9307 37.135 20.6037 36.0684 18.9069 34.4202C17.2102 32.7234 16.1921 30.3964 16.1921 27.827C16.1921 25.2576 17.2586 22.9306 18.9069 21.2338C20.6037 19.5371 22.9307 18.519 25.5001 18.519C28.0695 18.519 30.3965 19.5856 32.0932 21.2338C33.79 22.9306 34.8081 25.2576 34.8081 27.827C34.8565 30.3964 33.79 32.7234 32.0932 34.4202Z" fill="#B3B3B3"/>
<path d="M42.7585 20.5551C44.0705 20.5551 45.134 19.4916 45.134 18.1797C45.134 16.8677 44.0705 15.8042 42.7585 15.8042C41.4466 15.8042 40.3831 16.8677 40.3831 18.1797C40.3831 19.4916 41.4466 20.5551 42.7585 20.5551Z" fill="#B3B3B3"/>
</g>
<defs>
<clipPath id="clip0">
<rect width="51" height="51" fill="white"/>
</clipPath>
</defs>
</svg>
