<svg xmlns="http://www.w3.org/2000/svg" viewBox="0 0 397.44 345.88"><defs><style>.cls-1{fill:#ebebeb;}.cls-2{fill:#f0f0f0;}.cls-3{fill:#f5f5f5;}.cls-4{fill:#e6e6e6;}.cls-13,.cls-20,.cls-21,.cls-5,.cls-9{fill:#fff;}.cls-6{fill:#e0e0e0;}.cls-7{fill:#fafafa;}.cls-11,.cls-12,.cls-15,.cls-8{fill:#407bff;}.cls-14,.cls-9{opacity:0.3;}.cls-10{fill:#263238;}.cls-11,.cls-13{opacity:0.4;}.cls-12{opacity:0.1;}.cls-15{opacity:0.6;}.cls-16{fill:#ff5652;}.cls-17{fill:#ff8b7b;}.cls-18,.cls-19{opacity:0.2;}.cls-20{opacity:0.5;}.cls-21{opacity:0.7;}</style></defs><g id="Character"><rect class="cls-1" x="121.98" y="310.24" width="26" height="0.25"/><rect class="cls-1" y="307.52" width="54.1" height="0.25"/><rect class="cls-1" x="94.66" y="319.52" width="26.32" height="0.25"/><rect class="cls-1" x="205.77" y="317.84" width="38.83" height="0.25"/><rect class="cls-1" x="253.5" y="317.84" width="10.69" height="0.25"/><rect class="cls-1" x="342.89" y="313.62" width="54.56" height="0.25"/><rect class="cls-2" x="374.74" y="228.91" width="45.65" height="125.47" transform="translate(748.99 520.75) rotate(180)"/><rect class="cls-2" x="175.41" y="354.38" width="236.21" height="8.87" transform="translate(540.9 655.1) rotate(180)"/><rect class="cls-3" x="120.51" y="166.37" width="208.09" height="125.47"/><rect class="cls-2" x="120.51" y="174.86" width="208.89" height="45.93"/><rect class="cls-2" x="120.51" y="229.16" width="208.89" height="45.93"/><rect class="cls-4" x="374.74" y="237.4" width="7.9" height="45.93" transform="translate(711.23 458.19) rotate(180)"/><rect class="cls-4" x="374.74" y="291.7" width="7.9" height="45.93" transform="translate(711.23 566.79) rotate(180)"/><rect class="cls-2" x="160.57" y="221.19" width="214.17" height="7.72" transform="translate(489.17 387.56) rotate(180)"/><rect class="cls-4" x="328.6" y="158.65" width="52.03" height="7.72"/><rect class="cls-2" x="321.82" y="62.54" width="107.43" height="135.04" transform="translate(704.93 197.58) rotate(180)"/><rect class="cls-3" x="298.1" y="62.54" width="127.03" height="135.04" transform="translate(677.1 197.58) rotate(180)"/><rect class="cls-5" x="304.74" y="77.19" width="113.76" height="105.75" transform="translate(185.42 429.14) rotate(-90)"/><path class="cls-4" d="M373.33,142.38,393.54,133v-5.9l-20.21-9.38v7l12.28,5.29-12.28,5.3Z" transform="translate(-46.14 -62.54)"/><path class="cls-4" d="M360.15,115h-3.69L363,145.12h3.66Z" transform="translate(-46.14 -62.54)"/><path class="cls-4" d="M349.91,135.37l-12.28-5.3,12.28-5.29v-7l-20.21,9.38V133l20.21,9.37Z" transform="translate(-46.14 -62.54)"/><rect class="cls-2" x="110.89" y="134.08" width="7.04" height="229.18" transform="translate(182.69 434.79) rotate(180)"/><path class="cls-2" d="M109.43,361.66l-.19-1a5.62,5.62,0,0,0,3.32-2.91c1.84-3.25,3-10.15-2.14-24.64-7.85-22.31-3.16-40.32,6.16-76.19,1.63-6.25,3.47-13.34,5.38-21,7.17-28.67.54-46.45-4.79-60.74-4.14-11.09-7.4-19.85-3.22-30l.92.38c-4,9.79-.82,18.38,3.24,29.27,5.37,14.42,12.06,32.36,4.82,61.33-1.91,7.65-3.75,14.74-5.38,21-9.28,35.68-13.93,53.59-6.19,75.61,5.24,14.9,4,22.09,2,25.51A6.57,6.57,0,0,1,109.43,361.66Z" transform="translate(-46.14 -62.54)"/><polygon class="cls-2" points="55.53 300.71 81.02 300.71 73.93 296.54 62.62 296.54 55.53 300.71"/><polygon class="cls-3" points="17.86 100.72 118.7 100.72 107.6 15.98 28.95 15.98 17.86 100.72"/><polygon class="cls-2" points="167.42 114.69 221.26 114.69 214.17 158.65 174.51 158.65 167.42 114.69"/><path class="cls-6" d="M235.18,191.53c14.68-5.31,25.93-13.29,13.35-29.43s-32.08-16.07-45.21-8.93c-16.74,9.11-13.39,35.45-13.39,35.45S220.51,196.85,235.18,191.53Z" transform="translate(-46.14 -62.54)"/><path class="cls-4" d="M249.46,176.83c-11.23-7.65-19.2-16.51-6.16-25.84s29.1-4.56,38.75,4.12c12.31,11.06,5.21,30.47,5.21,30.47S260.69,184.47,249.46,176.83Z" transform="translate(-46.14 -62.54)"/><path class="cls-2" d="M229.69,157.45c13.14-.8,24.16-4.22,17.93-18.46s-22-18.21-34.3-15.77c-15.73,3.1-19.44,22.78-19.44,22.78S216.55,158.25,229.69,157.45Z" transform="translate(-46.14 -62.54)"/><path class="cls-1" d="M246.17,149.05c-10.93-3.51-19.5-8.79-11.16-19.47s22.5-10.64,32.4-5.91c12.62,6,11.49,23.45,11.49,23.45S257.1,152.57,246.17,149.05Z" transform="translate(-46.14 -62.54)"/><path class="cls-3" d="M225.69,130.82c10.9,3.6,20.94,4.37,20.49-9.17S234.26,99.81,223.47,97.8c-13.74-2.56-23.1,12.19-23.1,12.19S214.79,127.22,225.69,130.82Z" transform="translate(-46.14 -62.54)"/><path class="cls-7" d="M253.36,125c-7.8.53-14.56-.65-12-9.51s11.56-12.41,19-11.91c9.51.63,13.2,11.94,13.2,11.94S261.17,124.48,253.36,125Z" transform="translate(-46.14 -62.54)"/><ellipse id="_Path_" data-name="&lt;Path&gt;" class="cls-3" cx="197.54" cy="334.55" rx="193.89" ry="11.32"/><rect class="cls-8" x="27.05" y="169.4" width="339.75" height="12.19"/><rect class="cls-9" x="27.05" y="169.4" width="90.93" height="12.19"/><polygon class="cls-8" points="119.43 181.59 111.52 181.59 115.67 334.37 119.43 334.37 123.2 334.37 127.35 181.59 119.43 181.59"/><polygon class="cls-9" points="115.67 334.37 119.43 334.37 119.43 184.88 111.65 186.3 115.67 334.37"/><polygon class="cls-8" points="44.46 181.59 36.55 181.59 40.69 334.37 44.46 334.37 48.23 334.37 52.37 181.59 44.46 181.59"/><polygon class="cls-9" points="40.69 334.37 44.46 334.37 44.46 184.88 36.67 186.3 40.69 334.37"/><polygon class="cls-8" points="349.39 181.59 341.48 181.59 345.63 334.37 349.39 334.37 353.16 334.37 357.31 181.59 349.39 181.59"/><polygon class="cls-9" points="345.63 334.37 349.39 334.37 349.39 184.88 341.61 186.3 345.63 334.37"/><polygon class="cls-8" points="274.42 181.59 266.51 181.59 270.65 334.37 274.42 334.37 278.19 334.37 282.33 181.59 274.42 181.59"/><polygon class="cls-9" points="270.65 334.37 274.42 334.37 274.42 184.88 266.64 186.3 270.65 334.37"/><path class="cls-10" d="M234.46,166.69H153.62a4.16,4.16,0,0,0-4.17,5.27l10.77,51.35a6.88,6.88,0,0,0,6.38,5.28h80.84a4.16,4.16,0,0,0,4.16-5.28L240.84,172A6.87,6.87,0,0,0,234.46,166.69Z" transform="translate(-46.14 -62.54)"/><path class="cls-5" d="M167.35,225.66a4.8,4.8,0,0,1-4.32-3.6l-10.76-51.35a2.35,2.35,0,0,1,.37-2,2.16,2.16,0,0,1,1.73-.72H235.2a4.79,4.79,0,0,1,4.32,3.59l10.77,51.35a2.38,2.38,0,0,1-.38,2,2.14,2.14,0,0,1-1.73.73Z" transform="translate(-46.14 -62.54)"/><path class="cls-11" d="M228.34,221.55l-10.2-48.65a2,2,0,0,1,1.94-2.39h13.11a2,2,0,0,1,1.94,1.57l10.2,48.66a2,2,0,0,1-1.94,2.38H230.28A2,2,0,0,1,228.34,221.55Z" transform="translate(-46.14 -62.54)"/><polygon class="cls-8" points="112.86 112.19 112.42 110.08 128.62 110.08 129.06 112.19 112.86 112.19"/><polygon class="cls-1" points="120.34 117.42 119.9 115.31 148.29 115.31 148.74 117.42 120.34 117.42"/><polygon class="cls-1" points="121.84 122.66 121.39 120.55 153.22 120.55 153.66 122.66 121.84 122.66"/><polygon class="cls-1" points="123.33 127.89 122.89 125.78 148.52 125.78 148.96 127.89 123.33 127.89"/><polygon class="cls-8" points="117.79 136.39 117.34 134.28 127.59 134.28 128.03 136.39 117.79 136.39"/><polygon class="cls-1" points="125.26 141.62 124.82 139.51 137.31 139.51 137.75 141.62 125.26 141.62"/><polygon class="cls-1" points="140.74 141.62 140.3 139.51 152.78 139.51 153.22 141.62 140.74 141.62"/><polygon class="cls-1" points="126.76 146.85 126.32 144.74 168.52 144.74 168.96 146.85 126.76 146.85"/><polygon class="cls-1" points="128.25 152.09 127.81 149.98 159.99 149.98 160.43 152.09 128.25 152.09"/><path class="cls-10" d="M272.2,228.28H165.83c-2.9,0-4.78,1.65-4.17,3.66H278.58C278,229.93,275.1,228.28,272.2,228.28Z" transform="translate(-46.14 -62.54)"/><path class="cls-12" d="M130.88,153.7l-10.2-48.65a2,2,0,0,1,1.94-2.39h82.61a2,2,0,0,1,1.94,1.58l10.2,48.65a2,2,0,0,1-1.94,2.39H132.82A2,2,0,0,1,130.88,153.7Z" transform="translate(-46.14 -62.54)"/><polygon class="cls-8" points="114.11 41.73 96.77 41.73 96.38 39.86 113.72 39.86 114.11 41.73"/><polygon class="cls-11" points="111.29 44.7 104.33 44.7 103.94 42.84 110.9 42.84 111.29 44.7"/><polygon class="cls-11" points="122.87 44.7 112.15 44.7 111.76 42.84 122.48 42.84 122.87 44.7"/><polygon class="cls-11" points="127.55 47.68 104.95 47.68 104.56 45.81 127.16 45.81 127.55 47.68"/><polygon class="cls-11" points="124.67 50.65 105.57 50.65 105.18 48.78 124.28 48.78 124.67 50.65"/><polygon class="cls-11" points="137.34 82.27 125.18 82.27 125.57 84.13 137.73 84.13 137.34 82.27"/><polygon class="cls-8" points="122.18 78.18 104.37 78.18 103.98 76.31 121.79 76.31 122.18 78.18"/><polygon class="cls-11" points="129.34 85.24 112.78 85.24 113.17 87.11 129.73 87.11 129.34 85.24"/><polygon class="cls-11" points="124.32 82.27 112.16 82.27 112.55 84.13 124.71 84.13 124.32 82.27"/><polygon class="cls-11" points="135.86 79.29 111.54 79.29 111.93 81.16 136.25 81.16 135.86 79.29"/><polygon class="cls-8" points="113.5 27.85 93.88 27.85 93.49 25.98 113.11 25.98 113.5 27.85"/><polygon class="cls-11" points="123.19 34.91 101.55 34.91 101.94 36.77 123.58 36.77 123.19 34.91"/><polygon class="cls-11" points="118.86 31.93 100.93 31.93 101.32 33.8 119.25 33.8 118.86 31.93"/><polygon class="cls-11" points="120.06 28.96 100.31 28.96 100.7 30.82 120.44 30.82 120.06 28.96"/><polygon class="cls-8" points="113.28 55.49 99.64 55.49 99.25 53.63 112.89 53.63 113.28 55.49"/><polygon class="cls-11" points="134.7 62.55 108.05 62.55 108.44 64.42 135.09 64.42 134.7 62.55"/><polygon class="cls-11" points="118.47 59.58 107.43 59.58 107.82 61.44 118.86 61.44 118.47 59.58"/><polygon class="cls-11" points="130.45 59.58 119.41 59.58 119.8 61.44 130.84 61.44 130.45 59.58"/><polygon class="cls-11" points="131.13 56.6 106.81 56.6 107.2 58.47 131.52 58.47 131.13 56.6"/><polygon class="cls-11" points="131.08 71.47 109.91 71.47 110.3 73.34 131.47 73.34 131.08 71.47"/><polygon class="cls-11" points="115.45 68.5 109.29 68.5 109.68 70.36 115.84 70.36 115.45 68.5"/><polygon class="cls-11" points="125.08 68.5 116.3 68.5 116.68 70.36 125.47 70.36 125.08 68.5"/><polygon class="cls-11" points="132.99 65.53 108.67 65.53 109.06 67.39 133.38 67.39 132.99 65.53"/><polygon class="cls-11" points="152.15 65.03 143.43 65.03 143.04 63.16 151.76 63.16 152.15 65.03"/><polygon class="cls-11" points="166.64 65.03 153.22 65.03 152.83 63.16 166.25 63.16 166.64 65.03"/><polygon class="cls-11" points="172.34 68 144.05 68 143.66 66.14 171.95 66.14 172.34 68"/><polygon class="cls-11" points="168.58 70.98 144.67 70.98 144.28 69.11 168.19 69.11 168.58 70.98"/><polygon class="cls-11" points="179.29 53.19 152.2 53.19 152.59 55.06 179.68 55.06 179.29 53.19"/><polygon class="cls-11" points="174.03 50.22 151.58 50.22 151.97 52.08 174.41 52.08 174.03 50.22"/><polygon class="cls-8" points="169.97 47.24 145.25 47.24 145.64 49.11 170.36 49.11 169.97 47.24"/><polygon class="cls-11" points="180.51 82.88 147.15 82.88 147.54 84.74 180.9 84.74 180.51 82.88"/><polygon class="cls-11" points="160.35 79.9 146.53 79.9 146.92 81.77 160.74 81.77 160.35 79.9"/><polygon class="cls-11" points="175.35 79.9 161.53 79.9 161.92 81.77 175.74 81.77 175.35 79.9"/><polygon class="cls-11" points="176.35 76.93 145.91 76.93 146.3 78.79 176.74 78.79 176.35 76.93"/><polygon class="cls-11" points="175.51 91.8 149.01 91.8 149.4 93.67 175.9 93.67 175.51 91.8"/><polygon class="cls-11" points="156.1 88.83 148.39 88.83 148.78 90.69 156.49 90.69 156.1 88.83"/><polygon class="cls-11" points="168.16 88.83 157.16 88.83 157.55 90.69 168.55 90.69 168.16 88.83"/><polygon class="cls-11" points="178.22 85.85 147.77 85.85 148.16 87.72 178.6 87.72 178.22 85.85"/><polygon class="cls-11" points="97.14 94.11 76.41 94.11 76.79 95.97 97.53 95.97 97.14 94.11"/><polygon class="cls-11" points="91.01 91.13 75.78 91.13 76.17 93 91.39 93 91.01 91.13"/><polygon class="cls-11" points="107.31 91.13 92.09 91.13 92.47 93 107.7 93 107.31 91.13"/><polygon class="cls-11" points="105.61 88.16 75.17 88.16 75.55 90.02 106 90.02 105.61 88.16"/><polygon class="cls-8" points="338.49 149.98 325.65 149.98 327.15 169.4 337 169.4 338.49 149.98"/><polygon class="cls-13" points="338.49 149.98 325.65 149.98 327.15 169.4 337 169.4 338.49 149.98"/><polygon class="cls-10" points="58.67 136.49 77.13 136.49 70.83 169.4 52.37 169.4 58.67 136.49"/><polygon class="cls-8" points="82.18 127.67 56.11 127.67 63.41 169.4 89.48 169.4 82.18 127.67"/><polygon class="cls-8" points="54.57 127.67 56.11 127.67 63.41 169.4 61.87 169.4 54.57 127.67"/><polygon class="cls-14" points="54.57 127.67 56.11 127.67 63.41 169.4 61.87 169.4 54.57 127.67"/><polygon class="cls-5" points="67.16 164.94 61.42 132.13 78.44 132.13 84.17 164.94 67.16 164.94"/><polygon class="cls-15" points="83.36 164.94 77.63 132.13 78.44 132.13 84.17 164.94 83.36 164.94"/><path class="cls-10" d="M257.45,136.82c.37.8.24,1.65-.28,1.89s-1.25-.21-1.62-1-.25-1.65.28-1.89S257.07,136,257.45,136.82Z" transform="translate(-46.14 -62.54)"/><path class="cls-16" d="M257.77,138.43s.31,5.47-.66,8.63c2,.67,4.16-1.05,4.16-1.05Z" transform="translate(-46.14 -62.54)"/><path class="cls-10" d="M257.54,130.25a.44.44,0,0,1-.29.11,4.12,4.12,0,0,0-3.3,1.8.51.51,0,0,1-.7.18.5.5,0,0,1-.19-.7,5.12,5.12,0,0,1,4.13-2.31.52.52,0,0,1,.55.49A.54.54,0,0,1,257.54,130.25Z" transform="translate(-46.14 -62.54)"/><path class="cls-17" d="M286.9,135.61c3.09,10.71,6.53,19,10.75,23.74,0,0,.08,8.42-14.26,12.42-15.76,4.4-9.71-5.72-9.71-5.72,8-4.46,7.23-11.18,1.21-13.74Z" transform="translate(-46.14 -62.54)"/><path class="cls-10" d="M301,157.31c-.28-3.92-.65-8.38-3.07-8.49-2.65-.12-18.05,6.75-21.34,11.61s3.13,9.6,3.13,9.6Z" transform="translate(-46.14 -62.54)"/><path class="cls-17" d="M269.46,217.86l-13.3-.44.24,11.14s11.61-1.19,12.12-4.24Z" transform="translate(-46.14 -62.54)"/><polygon class="cls-17" points="203 160.35 201.6 166.05 210.27 166.02 210.03 154.88 203 160.35"/><path class="cls-8" d="M322.85,171.57l-.28,2.85c-.09.92-.22,1.83-.33,2.74-.24,1.81-.52,3.61-.83,5.42-.61,3.61-1.39,7.19-2.28,10.81s-2,7.22-3.32,10.87c-.69,1.83-1.41,3.66-2.28,5.52a48.57,48.57,0,0,1-3,5.65c-.28.47-.61,1-.94,1.44s-.66,1-1,1.46-.72,1-1.17,1.47l-.65.74c-.22.24-.43.48-.74.77a22.86,22.86,0,0,1-6.93,4.66,41,41,0,0,1-12.43,3.15c-1.95.23-3.88.32-5.78.36s-3.77,0-5.63-.09-3.7-.27-5.53-.48-3.61-.51-5.56-.9l.32-10.45a162.32,162.32,0,0,0,18.9-4.51,38.4,38.4,0,0,0,4.07-1.56,18.71,18.71,0,0,0,3.22-1.74,4.51,4.51,0,0,0,1.45-1.42l.3-.46c.12-.15.24-.41.37-.62a7.56,7.56,0,0,0,.39-.71,8.32,8.32,0,0,0,.39-.79,51,51,0,0,0,2.89-7.93c.82-2.94,1.6-6,2.22-9.18s1.22-6.36,1.77-9.59l.76-4.87.68-4.73Z" transform="translate(-46.14 -62.54)"/><path class="cls-18" d="M322.85,171.57l-.28,2.85c-.09.92-.22,1.83-.33,2.74-.24,1.81-.52,3.61-.83,5.42-.61,3.61-1.39,7.19-2.28,10.81s-2,7.22-3.32,10.87c-.69,1.83-1.41,3.66-2.28,5.52a48.57,48.57,0,0,1-3,5.65c-.28.47-.61,1-.94,1.44s-.66,1-1,1.46-.72,1-1.17,1.47l-.65.74c-.22.24-.43.48-.74.77a22.86,22.86,0,0,1-6.93,4.66,41,41,0,0,1-12.43,3.15c-1.95.23-3.88.32-5.78.36s-3.77,0-5.63-.09-3.7-.27-5.53-.48-3.61-.51-5.56-.9l.32-10.45a162.32,162.32,0,0,0,18.9-4.51,38.4,38.4,0,0,0,4.07-1.56,18.71,18.71,0,0,0,3.22-1.74,4.51,4.51,0,0,0,1.45-1.42l.3-.46c.12-.15.24-.41.37-.62a7.56,7.56,0,0,0,.39-.71,8.32,8.32,0,0,0,.39-.79,51,51,0,0,0,2.89-7.93c.82-2.94,1.6-6,2.22-9.18s1.22-6.36,1.77-9.59l.76-4.87.68-4.73Z" transform="translate(-46.14 -62.54)"/><path class="cls-8" d="M263.8,184.81A326.67,326.67,0,0,1,272.13,250h58.55c.33-7.24-.89-48-6.79-77.46a20.38,20.38,0,0,0-24.4-16l-.28.06c-7.3,1.67-17.8,4.35-24,6.7l-.25.09A18.34,18.34,0,0,0,263.8,184.81Z" transform="translate(-46.14 -62.54)"/><path class="cls-18" d="M267.61,203.56c.46,2.81.92,5.78,1.36,8.9,4.79-5,6.31-20.32,6.31-20.32Z" transform="translate(-46.14 -62.54)"/><path class="cls-17" d="M219,218.58l-13.25-1.24-.44,11.13a12.46,12.46,0,0,0,12.35-3.5Z" transform="translate(-46.14 -62.54)"/><polygon class="cls-17" points="153.22 158.09 148.96 165.74 159.14 165.94 159.58 154.8 153.22 158.09"/><path class="cls-8" d="M285.77,179.72c-.92,1.76-1.74,3.3-2.66,4.91s-1.81,3.16-2.75,4.71q-2.82,4.66-5.89,9.21a155.65,155.65,0,0,1-13.71,17.64,75.64,75.64,0,0,1-8.69,8.26c-.4.34-.86.66-1.28,1s-.81.63-1.46,1a19,19,0,0,1-1.76,1.05c-.59.34-1.17.61-1.76.88a32.05,32.05,0,0,1-6.89,2.09,43.43,43.43,0,0,1-12.52.28,55.36,55.36,0,0,1-5.8-1q-1.41-.31-2.82-.75c-1-.27-1.8-.59-2.88-1l1.66-10.32c6.28-.86,13.06-1.95,17.74-4.06a12.56,12.56,0,0,0,2.92-1.68,6.73,6.73,0,0,0,.94-.83c.08-.09.38-.36.62-.58s.49-.43.75-.69a73.9,73.9,0,0,0,6-6.75,189.37,189.37,0,0,0,11.27-16.17c1.8-2.82,3.56-5.7,5.31-8.59l2.58-4.35,2.49-4.26Z" transform="translate(-46.14 -62.54)"/><polygon class="cls-17" points="223.56 325.92 212.62 325.92 207.12 300.57 218.06 300.57 223.56 325.92"/><path class="cls-10" d="M258.14,386.11h12.3a1,1,0,0,1,.94.75l2.16,9.73a1.61,1.61,0,0,1-1.6,2c-4.3-.08-6.38-.33-11.79-.33-3.33,0-7.6.35-12.2.35s-5.19-4.55-3.31-5c8.43-1.84,9-4.39,11.73-6.81A2.63,2.63,0,0,1,258.14,386.11Z" transform="translate(-46.14 -62.54)"/><g class="cls-19"><polygon points="218.07 300.57 207.12 300.57 210.17 314.61 220.91 313.64 218.07 300.57"/></g><path class="cls-17" d="M283.39,122.76c3.95,10.12,6.77,15.84,4.14,23.19-4,11.06-18.2,12.17-25.09,3.43-6.2-7.86-11.62-23.09-3.8-31.47A14.82,14.82,0,0,1,283.39,122.76Z" transform="translate(-46.14 -62.54)"/><path class="cls-10" d="M264.17,137.92l-2.9,3.87s-3.37-8.37-2.08-12.21c-1.64-3.25-4.95,1.54-6.2-4.79s4.15-13.13,6.2-14.54a7.34,7.34,0,0,1,.27,2.27,28.08,28.08,0,0,1,19.61-6.2,6.8,6.8,0,0,0-1.1,3s11.87,2,14.57,8.72a13.21,13.21,0,0,0-3-1.06,14.5,14.5,0,0,1,2.4,10.73,110.43,110.43,0,0,0-1.35,16.53c.12,2.84-7.68,8.26-12.42,2.46S264.17,137.92,264.17,137.92Z" transform="translate(-46.14 -62.54)"/><path class="cls-17" d="M269.12,135.74a11.09,11.09,0,0,1-.5,7.1c-1.28,2.94-3.88,2.27-5.18-.34-1.17-2.35-1.91-6.72.16-8.81S268.34,132.91,269.12,135.74Z" transform="translate(-46.14 -62.54)"/><path class="cls-8" d="M289.68,250s-50.84,18.43-52.34,42.83c-2.76,44.93,15.62,80.5,15.62,80.5l16.84-1.8s-3-14.46-5.23-55.17c-2.81-51.14,84,1.2,66.11-66.36Z" transform="translate(-46.14 -62.54)"/><path class="cls-20" d="M289.68,250s-50.84,18.43-52.34,42.83c-2.76,44.93,15.62,80.5,15.62,80.5l16.84-1.8s-3-14.46-5.23-55.17c-2.81-51.14,84,1.2,66.11-66.36Z" transform="translate(-46.14 -62.54)"/><path class="cls-8" d="M248.29,367.09c-.08,0,2.68,7.47,2.68,7.47l21-2.05L271,365.7Z" transform="translate(-46.14 -62.54)"/><polygon class="cls-17" points="176.27 327.16 165.32 327.16 162.13 301.81 173.07 301.81 176.27 327.16"/><path class="cls-10" d="M211.37,386.11l12,0a1,1,0,0,1,.93.75l2.18,9.73a1.6,1.6,0,0,1-1.58,1.95c-4.31-.07-10.54-.32-16-.31-6.34,0-7.55.36-15,.37-4.49,0-5.74-4.54-3.86-4.95,8.56-1.89,11.29-2.09,18.69-6.66A5,5,0,0,1,211.37,386.11Z" transform="translate(-46.14 -62.54)"/><polygon class="cls-18" points="162.13 301.82 163.87 315.62 174.73 314.88 173.08 301.82 162.13 301.82"/><path class="cls-8" d="M272.13,250s-83.31,7.39-82.41,49.23c.94,43.51,17.19,72.87,17.19,72.87h16.27s-3.08-22.58-2.54-65.42c.17-12.84,26.1-17.08,51.43-18.58,21.88-1.29,42.36-13.76,50.86-34l1.74-4.14Z" transform="translate(-46.14 -62.54)"/><path class="cls-20" d="M272.13,250s-83.31,7.39-82.41,49.23c.94,43.51,17.19,72.87,17.19,72.87h16.27s-3.08-22.58-2.54-65.42c.17-12.84,26.1-17.08,51.43-18.58,21.88-1.29,42.36-13.76,50.86-34l1.74-4.14Z" transform="translate(-46.14 -62.54)"/><path class="cls-8" d="M203.11,367.68c-.08,0,2.79,7.52,2.79,7.52l19.63-1.4L224.39,367Z" transform="translate(-46.14 -62.54)"/><path class="cls-10" d="M294,202.94l-10.56,40.73a127.09,127.09,0,0,0-4.07,31.94v18.94c0,4.78,3.53,8.65,7.87,8.65h54.19c4.35,0,7.87-3.87,7.87-8.65V275.61a127.54,127.54,0,0,1,4.06-31.94l9.34-36c1.43-5.53-2.34-11-7.57-11H301.56A8,8,0,0,0,294,202.94Z" transform="translate(-46.14 -62.54)"/><path class="cls-10" d="M226.6,283.48l1.78,10.1c.93,5.31,5.6,9.62,10.44,9.62h60.23c4.83,0,8-4.31,7.06-9.62l-1.78-10.1c-1.06-6-6.38-10.94-11.87-10.94H234.64C229.14,272.54,225.54,277.44,226.6,283.48Z" transform="translate(-46.14 -62.54)"/><polygon class="cls-8" points="258.71 250.81 227.16 250.81 224.08 240.66 261.79 240.66 258.71 250.81"/><rect class="cls-8" x="237.3" y="250.81" width="11.27" height="75.41"/><polygon class="cls-21" points="248.57 326.22 237.3 326.22 237.3 252.62 248.57 253.76 248.57 326.22"/><polygon class="cls-21" points="245.82 326.22 243.13 326.22 243.13 253.21 245.82 253.49 245.82 326.22"/><path class="cls-8" d="M315,400.41H263.15a1.43,1.43,0,0,1-.85-2.59l8.23-6a23,23,0,0,1,13.62-4.46H294a23,23,0,0,1,13.62,4.46l8.23,6A1.43,1.43,0,0,1,315,400.41Z" transform="translate(-46.14 -62.54)"/></g></svg>