<svg width="51" height="51" viewBox="0 0 51 51" fill="none" xmlns="http://www.w3.org/2000/svg">
<path d="M45.0234 6.77344H5.97656C2.68109 6.77344 0 9.45452 0 12.75V38.25C0 41.5455 2.68109 44.2266 5.97656 44.2266H45.0234C48.3189 44.2266 51 41.5455 51 38.25V12.75C51 9.45452 48.3189 6.77344 45.0234 6.77344ZM47.0156 38.25C47.0156 39.3485 46.1219 40.2422 45.0234 40.2422H5.97656C4.87807 40.2422 3.98438 39.3485 3.98438 38.25V12.75C3.98438 11.6515 4.87807 10.7578 5.97656 10.7578H45.0234C46.1219 10.7578 47.0156 11.6515 47.0156 12.75V38.25Z" fill="#B2B2B2"/>
<path d="M46.6774 9.25739L25.5 25.0093L4.32265 9.25739L1.94458 12.4543L25.5 29.975L49.0554 12.4543L46.6774 9.25739Z" fill="#B2B2B2"/>
</svg>
