<svg width="51" height="51" viewBox="0 0 51 51" fill="none" xmlns="http://www.w3.org/2000/svg">
<g clip-path="url(#clip0)">
<path d="M48.1849 9.01284e-08H2.8128C1.25912 0.000778288 -0.000389009 1.26107 9.01284e-08 2.81513V48.1872C0.000778288 49.7409 1.26107 51.0004 2.81513 51H48.1849C49.7393 51.0004 50.9996 49.7405 51 48.186C51 48.1856 51 48.1853 51 48.1849V2.8128C50.9992 1.25912 49.7389 -0.000389009 48.1849 9.01284e-08Z" fill="#B2B2B2"/>
<path d="M35.2119 51V31.2773H41.8608L42.8569 23.5576H35.2119V18.641C35.2119 16.411 35.831 14.8916 39.0286 14.8916H43.0811V8.00571C42.376 7.91193 39.957 7.70221 37.1422 7.70221C31.2653 7.70221 27.2432 11.2881 27.2432 17.8764V23.5576H20.6191V31.2773H27.2432V51H35.2119Z" fill="black"/>
</g>
<defs>
<clipPath id="clip0">
<rect width="51" height="51" fill="white"/>
</clipPath>
</defs>
</svg>
