<svg width="277" height="79" viewBox="0 0 277 79" fill="none" xmlns="http://www.w3.org/2000/svg">
<path d="M32.4924 24.3L34.2924 29.88C33.0324 30.3 31.6424 30.58 30.1224 30.72C28.6224 30.86 26.9424 30.93 25.0824 30.93C26.9824 31.77 28.4124 32.85 29.3724 34.17C30.3324 35.47 30.8124 37.07 30.8124 38.97C30.8124 41.03 30.3124 42.87 29.3124 44.49C28.3124 46.11 26.8724 47.38 24.9924 48.3C23.1324 49.22 20.9124 49.68 18.3324 49.68C17.4124 49.68 16.6124 49.64 15.9324 49.56C15.2724 49.48 14.6224 49.35 13.9824 49.17C13.0424 49.79 12.5724 50.66 12.5724 51.78C12.5724 52.42 12.8324 52.98 13.3524 53.46C13.8924 53.92 14.9524 54.15 16.5324 54.15H22.0524C24.3124 54.15 26.3024 54.54 28.0224 55.32C29.7624 56.08 31.1224 57.13 32.1024 58.47C33.1024 59.79 33.6024 61.29 33.6024 62.97C33.6024 66.13 32.2424 68.58 29.5224 70.32C26.8024 72.06 22.8824 72.93 17.7624 72.93C14.1224 72.93 11.2724 72.56 9.21242 71.82C7.17242 71.08 5.73242 69.98 4.89242 68.52C4.05242 67.06 3.63242 65.27 3.63242 63.15H9.66242C9.66242 64.27 9.87242 65.19 10.2924 65.91C10.7324 66.63 11.5424 67.16 12.7224 67.5C13.9024 67.86 15.6024 68.04 17.8224 68.04C21.1224 68.04 23.4524 67.63 24.8124 66.81C26.1724 66.01 26.8524 64.88 26.8524 63.42C26.8524 62.12 26.2924 61.12 25.1724 60.42C24.0524 59.74 22.5524 59.4 20.6724 59.4H15.2424C12.2424 59.4 10.0424 58.79 8.64242 57.57C7.26242 56.35 6.57242 54.93 6.57242 53.31C6.57242 51.03 7.75242 49.12 10.1124 47.58C8.21242 46.58 6.82242 45.37 5.94242 43.95C5.08242 42.51 4.65242 40.77 4.65242 38.73C4.65242 36.49 5.21242 34.53 6.33242 32.85C7.45242 31.17 9.00242 29.86 10.9824 28.92C12.9824 27.98 15.2824 27.51 17.8824 27.51C20.4224 27.53 22.5424 27.4 24.2424 27.12C25.9424 26.84 27.4224 26.46 28.6824 25.98C29.9624 25.48 31.2324 24.92 32.4924 24.3ZM17.9424 32.13C15.8024 32.13 14.1924 32.74 13.1124 33.96C12.0324 35.16 11.4924 36.73 11.4924 38.67C11.4924 40.67 12.0424 42.28 13.1424 43.5C14.2424 44.7 15.8724 45.3 18.0324 45.3C20.0124 45.3 21.5224 44.72 22.5624 43.56C23.6224 42.4 24.1524 40.75 24.1524 38.61C24.1524 34.29 22.0824 32.13 17.9424 32.13ZM47.379 46.32C47.579 49.58 48.489 51.94 50.109 53.4C51.749 54.86 53.719 55.59 56.019 55.59C57.559 55.59 58.989 55.35 60.309 54.87C61.649 54.39 62.989 53.71 64.329 52.83L67.239 56.85C65.759 58.05 64.029 59.01 62.049 59.73C60.069 60.45 57.949 60.81 55.689 60.81C52.389 60.81 49.599 60.11 47.319 58.71C45.059 57.31 43.339 55.36 42.159 52.86C40.999 50.36 40.419 47.47 40.419 44.19C40.419 41.01 40.999 38.17 42.159 35.67C43.319 33.15 44.979 31.16 47.139 29.7C49.299 28.22 51.879 27.48 54.879 27.48C59.079 27.48 62.399 28.89 64.839 31.71C67.299 34.53 68.529 38.4 68.529 43.32C68.529 43.86 68.509 44.4 68.469 44.94C68.449 45.46 68.419 45.92 68.379 46.32H47.379ZM54.939 32.46C52.839 32.46 51.099 33.21 49.719 34.71C48.339 36.21 47.549 38.55 47.349 41.73H62.019C61.959 38.75 61.319 36.46 60.099 34.86C58.899 33.26 57.179 32.46 54.939 32.46ZM104.236 58.32C103.076 59.06 101.686 59.66 100.066 60.12C98.4455 60.58 96.7555 60.81 94.9955 60.81C91.3155 60.81 88.5155 59.86 86.5955 57.96C84.6955 56.04 83.7455 53.52 83.7455 50.4V33.21H76.6955V28.32H83.7455V21.24L90.4655 20.43V28.32H101.146L100.396 33.21H90.4655V50.34C90.4655 52.04 90.8855 53.31 91.7255 54.15C92.5855 54.97 93.9855 55.38 95.9255 55.38C97.0855 55.38 98.1455 55.24 99.1055 54.96C100.086 54.68 100.986 54.32 101.806 53.88L104.236 58.32Z" fill="#A36BFF"/>
<path d="M121.642 39C121.642 43.02 122.092 46.52 122.992 49.5C123.892 52.48 125.272 55.23 127.132 57.75C129.012 60.25 131.382 62.82 134.242 65.46L131.122 68.58C127.882 65.92 125.102 63.18 122.782 60.36C120.482 57.54 118.712 54.41 117.472 50.97C116.252 47.51 115.642 43.52 115.642 39C115.642 34.48 116.252 30.5 117.472 27.06C118.712 23.6 120.482 20.46 122.782 17.64C125.102 14.82 127.882 12.08 131.122 9.42L134.242 12.54C131.382 15.16 129.022 17.72 127.162 20.22C125.302 22.72 123.912 25.47 122.992 28.47C122.092 31.45 121.642 34.96 121.642 39Z" fill="#868686"/>
<path d="M179.009 15.6L172.769 60H166.109L166.169 55.14C163.649 58.98 160.469 60.9 156.629 60.9C153.389 60.9 150.909 59.78 149.189 57.54C147.469 55.26 146.609 52.14 146.609 48.18C146.609 45.06 147.129 41.9 148.169 38.7C149.249 35.5 150.909 32.82 153.149 30.66C155.429 28.46 158.269 27.36 161.669 27.36C164.789 27.36 167.329 28.52 169.289 30.84L171.569 14.82L179.009 15.6ZM163.229 33.12C161.149 33.12 159.449 33.94 158.129 35.58C156.849 37.22 155.929 39.22 155.369 41.58C154.809 43.9 154.529 46.18 154.529 48.42C154.529 52.86 155.969 55.08 158.849 55.08C160.369 55.08 161.749 54.52 162.989 53.4C164.229 52.28 165.509 50.68 166.829 48.6L168.569 36.12C167.849 35.12 167.049 34.38 166.169 33.9C165.329 33.38 164.349 33.12 163.229 33.12ZM210.085 35.76C210.085 39.84 208.225 42.8 204.505 44.64C200.785 46.48 195.805 47.72 189.565 48.36C189.725 52.76 191.785 54.96 195.745 54.96C197.185 54.96 198.565 54.74 199.885 54.3C201.205 53.82 202.585 53.06 204.025 52.02L206.965 56.82C203.125 59.54 199.105 60.9 194.905 60.9C190.665 60.9 187.425 59.74 185.185 57.42C182.945 55.06 181.825 51.82 181.825 47.7C181.825 44.5 182.405 41.36 183.565 38.28C184.765 35.16 186.645 32.56 189.205 30.48C191.805 28.4 195.105 27.36 199.105 27.36C201.425 27.36 203.405 27.74 205.045 28.5C206.725 29.26 207.985 30.28 208.825 31.56C209.665 32.84 210.085 34.24 210.085 35.76ZM189.925 43.26C194.165 42.86 197.285 42.08 199.285 40.92C201.285 39.72 202.285 38.1 202.285 36.06C202.285 35.22 202.005 34.48 201.445 33.84C200.885 33.16 199.965 32.82 198.685 32.82C196.165 32.82 194.185 33.82 192.745 35.82C191.345 37.82 190.405 40.3 189.925 43.26ZM242.695 28.26L228.115 60H219.055L213.115 28.26H221.275L224.395 53.82L234.655 28.26H242.695Z" fill="#45ADCE"/>
<path d="M263.311 39C263.311 34.96 262.851 31.45 261.931 28.47C261.031 25.47 259.651 22.72 257.791 20.22C255.931 17.72 253.571 15.16 250.711 12.54L253.831 9.42C257.071 12.08 259.841 14.82 262.141 17.64C264.461 20.46 266.231 23.6 267.451 27.06C268.691 30.5 269.311 34.48 269.311 39C269.311 43.52 268.691 47.51 267.451 50.97C266.231 54.41 264.461 57.54 262.141 60.36C259.841 63.18 257.071 65.92 253.831 68.58L250.711 65.46C253.571 62.82 255.931 60.25 257.791 57.75C259.671 55.23 261.061 52.48 261.961 49.5C262.861 46.52 263.311 43.02 263.311 39Z" fill="#868686"/>
</svg>
