<svg width="208" height="28" viewBox="0 0 208 28" fill="none" xmlns="http://www.w3.org/2000/svg">
<path d="M56.0398 13.6602H50.6785L49.4744 17H47.7341L52.6208 4.20312H54.0974L58.9929 17H57.2615L56.0398 13.6602ZM51.1882 12.2715H55.5388L53.3591 6.28613L51.1882 12.2715ZM63.1589 14.7939L65.5144 7.49023H67.1755L63.7654 17H62.5261L59.0808 7.49023H60.7419L63.1589 14.7939ZM74.4705 17C74.3767 16.8125 74.3005 16.4785 74.2419 15.998C73.4861 16.7832 72.5837 17.1758 71.5349 17.1758C70.5974 17.1758 69.8269 16.9121 69.2234 16.3848C68.6257 15.8516 68.3269 15.1777 68.3269 14.3633C68.3269 13.373 68.7019 12.6055 69.4519 12.0605C70.2078 11.5098 71.2683 11.2344 72.6335 11.2344H74.2156V10.4873C74.2156 9.91895 74.0457 9.46777 73.7058 9.13379C73.366 8.79395 72.865 8.62402 72.2029 8.62402C71.6228 8.62402 71.1365 8.77051 70.7439 9.06348C70.3513 9.35645 70.155 9.71094 70.155 10.127H68.5203C68.5203 9.65234 68.6873 9.19531 69.0212 8.75586C69.3611 8.31055 69.8181 7.95898 70.3923 7.70117C70.9724 7.44336 71.6082 7.31445 72.2996 7.31445C73.3953 7.31445 74.2537 7.58984 74.8748 8.14062C75.4958 8.68555 75.8181 9.43848 75.8416 10.3994V14.7764C75.8416 15.6494 75.9529 16.3438 76.1755 16.8594V17H74.4705ZM71.7722 15.7607C72.282 15.7607 72.7654 15.6289 73.2224 15.3652C73.6794 15.1016 74.0105 14.7588 74.2156 14.3369V12.3857H72.9412C70.949 12.3857 69.9529 12.9688 69.9529 14.1348C69.9529 14.6445 70.1228 15.043 70.4626 15.3301C70.8025 15.6172 71.239 15.7607 71.7722 15.7607ZM80.157 17H78.531V3.5H80.157V17ZM84.5339 17H82.908V7.49023H84.5339V17ZM82.7761 4.96777C82.7761 4.7041 82.8552 4.48145 83.0134 4.2998C83.1775 4.11816 83.4177 4.02734 83.7341 4.02734C84.0505 4.02734 84.2908 4.11816 84.4548 4.2998C84.6189 4.48145 84.7009 4.7041 84.7009 4.96777C84.7009 5.23145 84.6189 5.45117 84.4548 5.62695C84.2908 5.80273 84.0505 5.89062 83.7341 5.89062C83.4177 5.89062 83.1775 5.80273 83.0134 5.62695C82.8552 5.45117 82.7761 5.23145 82.7761 4.96777ZM93.0154 17C92.9216 16.8125 92.8455 16.4785 92.7869 15.998C92.031 16.7832 91.1287 17.1758 90.0798 17.1758C89.1423 17.1758 88.3718 16.9121 87.7683 16.3848C87.1707 15.8516 86.8718 15.1777 86.8718 14.3633C86.8718 13.373 87.2468 12.6055 87.9968 12.0605C88.7527 11.5098 89.8132 11.2344 91.1785 11.2344H92.7605V10.4873C92.7605 9.91895 92.5906 9.46777 92.2507 9.13379C91.9109 8.79395 91.4099 8.62402 90.7478 8.62402C90.1677 8.62402 89.6814 8.77051 89.2888 9.06348C88.8962 9.35645 88.7 9.71094 88.7 10.127H87.0652C87.0652 9.65234 87.2322 9.19531 87.5662 8.75586C87.906 8.31055 88.363 7.95898 88.9373 7.70117C89.5173 7.44336 90.1531 7.31445 90.8445 7.31445C91.9402 7.31445 92.7986 7.58984 93.4197 8.14062C94.0408 8.68555 94.363 9.43848 94.3865 10.3994V14.7764C94.3865 15.6494 94.4978 16.3438 94.7205 16.8594V17H93.0154ZM90.3171 15.7607C90.8269 15.7607 91.3103 15.6289 91.7673 15.3652C92.2244 15.1016 92.5554 14.7588 92.7605 14.3369V12.3857H91.4861C89.4939 12.3857 88.4978 12.9688 88.4978 14.1348C88.4978 14.6445 88.6677 15.043 89.0076 15.3301C89.3474 15.6172 89.7839 15.7607 90.3171 15.7607ZM100.75 15.8486C101.33 15.8486 101.837 15.6729 102.27 15.3213C102.704 14.9697 102.944 14.5303 102.991 14.0029H104.529C104.5 14.5479 104.312 15.0664 103.967 15.5586C103.621 16.0508 103.158 16.4434 102.578 16.7363C102.004 17.0293 101.394 17.1758 100.75 17.1758C99.4548 17.1758 98.4236 16.7451 97.656 15.8838C96.8943 15.0166 96.5134 13.833 96.5134 12.333V12.0605C96.5134 11.1348 96.6833 10.3115 97.0232 9.59082C97.363 8.87012 97.8494 8.31055 98.4822 7.91211C99.1208 7.51367 99.8738 7.31445 100.741 7.31445C101.807 7.31445 102.692 7.63379 103.395 8.27246C104.104 8.91113 104.482 9.74023 104.529 10.7598H102.991C102.944 10.1445 102.71 9.64062 102.288 9.24805C101.872 8.84961 101.356 8.65039 100.741 8.65039C99.9148 8.65039 99.2732 8.94922 98.8162 9.54688C98.365 10.1387 98.1394 10.9971 98.1394 12.1221V12.4297C98.1394 13.5254 98.365 14.3691 98.8162 14.9609C99.2673 15.5527 99.9119 15.8486 100.75 15.8486ZM101.013 17.0791L100.908 17.5361C101.804 17.6943 102.253 18.2012 102.253 19.0566C102.253 19.625 102.018 20.0732 101.55 20.4014C101.081 20.7354 100.427 20.9023 99.5896 20.9023L99.5281 19.9619C99.991 19.9619 100.348 19.8857 100.6 19.7334C100.858 19.5811 100.987 19.3672 100.987 19.0918C100.987 18.834 100.893 18.6436 100.706 18.5205C100.518 18.3975 100.137 18.3096 99.5632 18.2568L99.8445 17.0791H101.013ZM112.228 17C112.135 16.8125 112.058 16.4785 112 15.998C111.244 16.7832 110.342 17.1758 109.293 17.1758C108.355 17.1758 107.585 16.9121 106.981 16.3848C106.384 15.8516 106.085 15.1777 106.085 14.3633C106.085 13.373 106.46 12.6055 107.21 12.0605C107.966 11.5098 109.026 11.2344 110.391 11.2344H111.973V10.4873C111.973 9.91895 111.803 9.46777 111.464 9.13379C111.124 8.79395 110.623 8.62402 109.961 8.62402C109.381 8.62402 108.894 8.77051 108.502 9.06348C108.109 9.35645 107.913 9.71094 107.913 10.127H106.278C106.278 9.65234 106.445 9.19531 106.779 8.75586C107.119 8.31055 107.576 7.95898 108.15 7.70117C108.73 7.44336 109.366 7.31445 110.057 7.31445C111.153 7.31445 112.011 7.58984 112.633 8.14062C113.254 8.68555 113.576 9.43848 113.599 10.3994V14.7764C113.599 15.6494 113.711 16.3438 113.933 16.8594V17H112.228ZM109.53 15.7607C110.04 15.7607 110.523 15.6289 110.98 15.3652C111.437 15.1016 111.768 14.7588 111.973 14.3369V12.3857H110.699C108.707 12.3857 107.711 12.9688 107.711 14.1348C107.711 14.6445 107.881 15.043 108.22 15.3301C108.56 15.6172 108.997 15.7607 109.53 15.7607ZM113.353 3.78125C113.353 4.41406 113.172 4.92676 112.808 5.31934C112.451 5.71191 112.003 5.9082 111.464 5.9082C111.223 5.9082 111.015 5.87891 110.84 5.82031C110.664 5.76172 110.432 5.6416 110.145 5.45996C109.864 5.27832 109.659 5.16992 109.53 5.13477C109.407 5.09375 109.263 5.07324 109.099 5.07324C108.859 5.07324 108.654 5.16699 108.484 5.35449C108.314 5.53613 108.229 5.77051 108.229 6.05762L107.139 5.99609C107.139 5.36914 107.315 4.85059 107.667 4.44043C108.024 4.03027 108.475 3.8252 109.02 3.8252C109.225 3.8252 109.41 3.85449 109.574 3.91309C109.738 3.97168 109.961 4.08594 110.242 4.25586C110.523 4.42578 110.737 4.53711 110.884 4.58984C111.036 4.64258 111.203 4.66895 111.385 4.66895C111.636 4.66895 111.844 4.56934 112.009 4.37012C112.178 4.1709 112.263 3.93945 112.263 3.67578L113.353 3.78125ZM115.718 12.1572C115.718 11.2256 115.899 10.3877 116.262 9.64355C116.632 8.89941 117.141 8.3252 117.792 7.9209C118.448 7.5166 119.195 7.31445 120.033 7.31445C121.328 7.31445 122.374 7.7627 123.171 8.65918C123.973 9.55566 124.375 10.748 124.375 12.2363V12.3506C124.375 13.2764 124.196 14.1084 123.839 14.8467C123.487 15.5791 122.98 16.1504 122.318 16.5605C121.662 16.9707 120.906 17.1758 120.051 17.1758C118.761 17.1758 117.716 16.7275 116.913 15.8311C116.116 14.9346 115.718 13.748 115.718 12.2715V12.1572ZM117.352 12.3506C117.352 13.4053 117.595 14.252 118.082 14.8906C118.574 15.5293 119.23 15.8486 120.051 15.8486C120.877 15.8486 121.533 15.5264 122.019 14.8818C122.506 14.2314 122.749 13.3232 122.749 12.1572C122.749 11.1143 122.5 10.2705 122.002 9.62598C121.51 8.97559 120.853 8.65039 120.033 8.65039C119.23 8.65039 118.583 8.96973 118.091 9.6084C117.598 10.2471 117.352 11.1611 117.352 12.3506ZM135.475 8.94922C135.229 8.9082 134.963 8.8877 134.676 8.8877C133.609 8.8877 132.885 9.3418 132.505 10.25V17H130.879V7.49023H132.461L132.487 8.58887C133.02 7.73926 133.776 7.31445 134.755 7.31445C135.071 7.31445 135.311 7.35547 135.475 7.4375V8.94922ZM140.749 17.1758C139.46 17.1758 138.411 16.7539 137.602 15.9102C136.794 15.0605 136.389 13.9268 136.389 12.5088V12.21C136.389 11.2666 136.568 10.4258 136.926 9.6875C137.289 8.94336 137.793 8.36328 138.437 7.94727C139.088 7.52539 139.791 7.31445 140.547 7.31445C141.783 7.31445 142.744 7.72168 143.429 8.53613C144.115 9.35059 144.458 10.5166 144.458 12.0342V12.7109H138.015C138.039 13.6484 138.311 14.4072 138.833 14.9873C139.36 15.5615 140.028 15.8486 140.837 15.8486C141.411 15.8486 141.897 15.7314 142.296 15.4971C142.694 15.2627 143.043 14.9521 143.342 14.5654L144.335 15.3389C143.538 16.5635 142.343 17.1758 140.749 17.1758ZM140.547 8.65039C139.89 8.65039 139.34 8.89062 138.894 9.37109C138.449 9.8457 138.174 10.5137 138.068 11.375H142.832V11.252C142.785 10.4258 142.562 9.78711 142.164 9.33594C141.765 8.87891 141.226 8.65039 140.547 8.65039ZM150.162 15.8486C150.742 15.8486 151.249 15.6729 151.682 15.3213C152.116 14.9697 152.356 14.5303 152.403 14.0029H153.941C153.912 14.5479 153.724 15.0664 153.379 15.5586C153.033 16.0508 152.57 16.4434 151.99 16.7363C151.416 17.0293 150.806 17.1758 150.162 17.1758C148.867 17.1758 147.836 16.7451 147.068 15.8838C146.306 15.0166 145.926 13.833 145.926 12.333V12.0605C145.926 11.1348 146.095 10.3115 146.435 9.59082C146.775 8.87012 147.261 8.31055 147.894 7.91211C148.533 7.51367 149.286 7.31445 150.153 7.31445C151.219 7.31445 152.104 7.63379 152.807 8.27246C153.516 8.91113 153.894 9.74023 153.941 10.7598H152.403C152.356 10.1445 152.122 9.64062 151.7 9.24805C151.284 8.84961 150.768 8.65039 150.153 8.65039C149.327 8.65039 148.685 8.94922 148.228 9.54688C147.777 10.1387 147.552 10.9971 147.552 12.1221V12.4297C147.552 13.5254 147.777 14.3691 148.228 14.9609C148.679 15.5527 149.324 15.8486 150.162 15.8486ZM159.716 17.1758C158.427 17.1758 157.378 16.7539 156.569 15.9102C155.76 15.0605 155.356 13.9268 155.356 12.5088V12.21C155.356 11.2666 155.535 10.4258 155.892 9.6875C156.256 8.94336 156.76 8.36328 157.404 7.94727C158.054 7.52539 158.758 7.31445 159.513 7.31445C160.75 7.31445 161.711 7.72168 162.396 8.53613C163.082 9.35059 163.425 10.5166 163.425 12.0342V12.7109H156.982C157.006 13.6484 157.278 14.4072 157.8 14.9873C158.327 15.5615 158.995 15.8486 159.803 15.8486C160.378 15.8486 160.864 15.7314 161.262 15.4971C161.661 15.2627 162.01 14.9521 162.308 14.5654L163.302 15.3389C162.505 16.5635 161.309 17.1758 159.716 17.1758ZM159.513 8.65039C158.857 8.65039 158.306 8.89062 157.861 9.37109C157.416 9.8457 157.14 10.5137 157.035 11.375H161.799V11.252C161.752 10.4258 161.529 9.78711 161.131 9.33594C160.732 8.87891 160.193 8.65039 159.513 8.65039ZM173.365 12.3506C173.365 13.8037 173.031 14.9727 172.363 15.8574C171.695 16.7363 170.799 17.1758 169.674 17.1758C168.472 17.1758 167.544 16.751 166.887 15.9014L166.808 17H165.314V3.5H166.94V8.53613C167.596 7.72168 168.502 7.31445 169.656 7.31445C170.81 7.31445 171.716 7.75098 172.372 8.62402C173.034 9.49707 173.365 10.6924 173.365 12.21V12.3506ZM171.739 12.166C171.739 11.0586 171.525 10.2031 171.097 9.59961C170.67 8.99609 170.054 8.69434 169.252 8.69434C168.179 8.69434 167.409 9.19238 166.94 10.1885V14.3018C167.438 15.2979 168.215 15.7959 169.269 15.7959C170.049 15.7959 170.655 15.4941 171.089 14.8906C171.522 14.2871 171.739 13.3789 171.739 12.166ZM177.188 17H175.562V7.49023H177.188V17ZM175.43 4.96777C175.43 4.7041 175.51 4.48145 175.668 4.2998C175.832 4.11816 176.072 4.02734 176.388 4.02734C176.705 4.02734 176.945 4.11816 177.109 4.2998C177.273 4.48145 177.355 4.7041 177.355 4.96777C177.355 5.23145 177.273 5.45117 177.109 5.62695C176.945 5.80273 176.705 5.89062 176.388 5.89062C176.072 5.89062 175.832 5.80273 175.668 5.62695C175.51 5.45117 175.43 5.23145 175.43 4.96777ZM179.403 12.166C179.403 10.707 179.749 9.53516 180.44 8.65039C181.132 7.75977 182.037 7.31445 183.156 7.31445C184.269 7.31445 185.151 7.69531 185.802 8.45703V3.5H187.427V17H185.933L185.854 15.9805C185.204 16.7773 184.299 17.1758 183.138 17.1758C182.037 17.1758 181.137 16.7246 180.44 15.8223C179.749 14.9199 179.403 13.7422 179.403 12.2891V12.166ZM181.029 12.3506C181.029 13.4287 181.252 14.2725 181.697 14.8818C182.142 15.4912 182.758 15.7959 183.543 15.7959C184.574 15.7959 185.327 15.333 185.802 14.4072V10.0391C185.315 9.14258 184.568 8.69434 183.56 8.69434C182.763 8.69434 182.142 9.00195 181.697 9.61719C181.252 10.2324 181.029 11.1436 181.029 12.3506ZM195.83 17C195.736 16.8125 195.66 16.4785 195.601 15.998C194.845 16.7832 193.943 17.1758 192.894 17.1758C191.957 17.1758 191.186 16.9121 190.583 16.3848C189.985 15.8516 189.686 15.1777 189.686 14.3633C189.686 13.373 190.061 12.6055 190.811 12.0605C191.567 11.5098 192.628 11.2344 193.993 11.2344H195.575V10.4873C195.575 9.91895 195.405 9.46777 195.065 9.13379C194.725 8.79395 194.224 8.62402 193.562 8.62402C192.982 8.62402 192.496 8.77051 192.103 9.06348C191.711 9.35645 191.514 9.71094 191.514 10.127H189.88C189.88 9.65234 190.047 9.19531 190.381 8.75586C190.72 8.31055 191.177 7.95898 191.752 7.70117C192.332 7.44336 192.968 7.31445 193.659 7.31445C194.755 7.31445 195.613 7.58984 196.234 8.14062C196.855 8.68555 197.177 9.43848 197.201 10.3994V14.7764C197.201 15.6494 197.312 16.3438 197.535 16.8594V17H195.83ZM193.132 15.7607C193.641 15.7607 194.125 15.6289 194.582 15.3652C195.039 15.1016 195.37 14.7588 195.575 14.3369V12.3857H194.301C192.308 12.3857 191.312 12.9688 191.312 14.1348C191.312 14.6445 191.482 15.043 191.822 15.3301C192.162 15.6172 192.598 15.7607 193.132 15.7607Z" fill="white"/>
<path d="M35.693 3H2.30686C1.03483 3 0 4.02118 0 5.27637V16.4997C0 17.7549 1.03483 18.7761 2.30686 18.7761H21.9745C22.2819 18.7761 22.5311 18.5302 22.5311 18.2268C22.5311 17.9234 22.2819 17.6775 21.9745 17.6775H2.30686C1.64876 17.6775 1.11328 17.1491 1.11328 16.4997V5.27637C1.11328 4.62695 1.64869 4.09853 2.30686 4.09853H35.6931C36.3512 4.09853 36.8867 4.62688 36.8867 5.27637V16.4997C36.8867 17.1491 36.3512 17.6775 35.6931 17.6775H27.5814L24.7465 14.9014C24.579 14.7374 24.3248 14.6954 24.1124 14.7967C23.8998 14.898 23.7752 15.1205 23.8013 15.352L24.9858 25.8714C25.0092 26.0799 25.1511 26.257 25.3512 26.3278C25.4125 26.3495 25.4759 26.36 25.5389 26.36C25.6815 26.36 25.8215 26.3059 25.9272 26.2044L28.0705 24.1464L29.8047 27.6895C29.9008 27.8857 30.0994 28 30.3064 28C30.3876 28 30.4701 27.9823 30.548 27.9451C30.8249 27.8132 30.9409 27.4848 30.8072 27.2116L29.073 23.6685L32.039 23.2913C32.2499 23.2645 32.4268 23.1214 32.4951 22.9227C32.5633 22.724 32.5108 22.5043 32.3599 22.3566L28.7035 18.776H35.6931C36.9652 18.776 38 17.7548 38 16.4997V5.27637C37.9999 4.02118 36.965 3 35.693 3ZM28.1646 22.6765C28.0452 22.6917 27.9339 22.7447 27.8476 22.8276L25.9664 24.6337L25.0818 16.7774L30.7676 22.3453L28.1646 22.6765Z" fill="white"/>
<path d="M22.0924 8.87847H20.5665L20.0949 7.44634C19.9378 6.96933 19.5079 6.66113 18.9996 6.66113C18.4914 6.66113 18.0614 6.96933 17.9044 7.44641L17.4328 8.87854H15.9069C15.3986 8.87854 14.9687 9.18674 14.8116 9.66382C14.6546 10.1408 14.8188 10.6395 15.23 10.9342L16.4645 11.8193L15.9931 13.2515C15.8361 13.7285 16.0002 14.2272 16.4115 14.522C16.6171 14.6694 16.8527 14.7431 17.0884 14.7431C17.324 14.7431 17.5596 14.6694 17.7652 14.522L18.9997 13.6369L20.2342 14.522C20.6454 14.8168 21.1768 14.8168 21.5879 14.522C21.9992 14.2272 22.1633 13.7285 22.0063 13.2515L21.5348 11.8193L22.7692 10.9342C23.1804 10.6395 23.3446 10.1408 23.1876 9.66375C23.0306 9.18674 22.6007 8.87847 22.0924 8.87847ZM22.1149 10.0455L20.5532 11.1652C20.3581 11.3051 20.2765 11.553 20.351 11.7793L20.9475 13.5909C20.9527 13.6067 20.9561 13.617 20.9335 13.6332C20.9109 13.6494 20.9021 13.6429 20.8885 13.6332L19.3268 12.5135C19.1317 12.3737 18.8675 12.3737 18.6725 12.5135L17.1108 13.6332C17.0972 13.6429 17.0883 13.6494 17.0658 13.6332C17.0433 13.617 17.0467 13.6067 17.0518 13.5909L17.6483 11.7793C17.7229 11.553 17.6412 11.3051 17.4462 11.1652L15.8845 10.0454C15.8709 10.0357 15.862 10.0293 15.8705 10.0031C15.879 9.977 15.8902 9.97707 15.907 9.97707H17.8373C18.0784 9.97707 18.2922 9.82385 18.3667 9.59747L18.9632 7.7858C18.9684 7.77006 18.9718 7.75966 18.9996 7.75966C19.0275 7.75966 19.0309 7.77006 19.0361 7.7858L19.6326 9.59747C19.7071 9.82378 19.9208 9.97707 20.162 9.97707H22.0923C22.1091 9.97707 22.1202 9.97707 22.1288 10.0031C22.1374 10.0292 22.1285 10.0357 22.1149 10.0455Z" fill="white"/>
<path d="M34.3729 9.66382C34.2158 9.18681 33.7859 8.87854 33.2776 8.87854H31.7517L31.2801 7.44641C31.1231 6.9694 30.6932 6.66121 30.1849 6.66113C29.6767 6.66113 29.2467 6.96933 29.0897 7.44641L28.6181 8.87854H27.0922C26.5839 8.87854 26.154 9.18674 25.9969 9.66382C25.8399 10.1409 26.0041 10.6395 26.4153 10.9343L27.6498 11.8194L27.1783 13.2516C27.0212 13.7286 27.1854 14.2273 27.5966 14.522C27.8022 14.6695 28.0378 14.7432 28.2734 14.7432C28.5091 14.7432 28.7448 14.6695 28.9503 14.522L30.1849 13.6369L31.4193 14.522C31.8306 14.8169 32.3619 14.8168 32.7732 14.522C33.1843 14.2273 33.3485 13.7286 33.1915 13.2515L32.7199 11.8193L33.9543 10.9342C34.3657 10.6395 34.53 10.1408 34.3729 9.66382ZM33.3002 10.0455L31.7385 11.1652C31.5434 11.3051 31.4617 11.553 31.5362 11.7794L32.1328 13.591C32.138 13.6068 32.1414 13.6171 32.1188 13.6333C32.0964 13.6494 32.0874 13.643 32.0738 13.6333L30.5121 12.5137C30.4146 12.4437 30.2998 12.4087 30.1849 12.4087C30.0701 12.4087 29.9553 12.4437 29.8578 12.5136L28.2961 13.6333C28.2825 13.6429 28.2735 13.6495 28.2511 13.6333C28.2286 13.6172 28.232 13.6068 28.2371 13.591L28.8336 11.7794C28.9082 11.553 28.8265 11.3051 28.6314 11.1652L27.0697 10.0455C27.0561 10.0358 27.0472 10.0294 27.0557 10.0032C27.0643 9.97714 27.0754 9.97714 27.0922 9.97714H29.0225C29.2637 9.97714 29.4774 9.82392 29.5519 9.59754L30.1484 7.78588C30.1536 7.77013 30.157 7.75973 30.1849 7.75973C30.2127 7.75973 30.2161 7.77013 30.2213 7.7858L30.8179 9.59747C30.8924 9.82378 31.1061 9.977 31.3473 9.977H33.2776C33.2944 9.977 33.3055 9.977 33.3141 10.0031C33.3227 10.0294 33.3138 10.0358 33.3002 10.0455Z" fill="white"/>
<path d="M12.0031 9.66375C11.8461 9.18674 11.4162 8.87847 10.9079 8.87847H9.38198L8.91039 7.44634C8.75335 6.96933 8.3234 6.66113 7.81515 6.66113C7.3069 6.66113 6.87703 6.9694 6.71998 7.44634L6.31928 8.66322C6.22428 8.95171 6.38422 9.26166 6.67664 9.35541C6.96899 9.44923 7.28308 9.29125 7.37808 9.00276L7.77878 7.7858C7.78398 7.77013 7.78739 7.75973 7.81523 7.75973C7.84306 7.75973 7.84647 7.77013 7.85167 7.7858L8.44816 9.59747C8.52268 9.82378 8.73642 9.97707 8.97756 9.97707H10.9079C10.9247 9.97707 10.9357 9.97707 10.9443 10.0031C10.953 10.0292 10.944 10.0357 10.9304 10.0454L9.36869 11.1651C9.17357 11.305 9.09193 11.5529 9.16645 11.7792L9.76294 13.5909C9.76814 13.6066 9.77155 13.617 9.74899 13.6332C9.72642 13.6494 9.71752 13.6429 9.70394 13.6332L8.14223 12.5135C7.94719 12.3737 7.68297 12.3736 7.48792 12.5135L5.92622 13.6331C5.91256 13.6429 5.90358 13.6492 5.88117 13.6331C5.85868 13.6169 5.86209 13.6066 5.86721 13.5909L6.46378 11.7792C6.5383 11.5529 6.45666 11.3049 6.26154 11.1651L4.69983 10.0453C4.68625 10.0357 4.67734 10.0292 4.68588 10.0031C4.69449 9.977 4.70555 9.977 4.72232 9.977C5.02973 9.977 5.27896 9.73106 5.27896 9.4277C5.27896 9.12434 5.02973 8.8784 4.72232 8.8784C4.21407 8.8784 3.78412 9.18659 3.62708 9.66368C3.47003 10.1408 3.6342 10.6394 4.04545 10.9342L5.27992 11.8193L4.80856 13.2515C4.65151 13.7285 4.81569 14.2272 5.22686 14.522C5.6381 14.8168 6.1695 14.8168 6.58068 14.522L7.81515 13.6369L9.04963 14.522C9.25529 14.6694 9.49086 14.7432 9.72657 14.7431C9.96222 14.7431 10.1979 14.6694 10.4034 14.522C10.8147 14.2272 10.9788 13.7285 10.8217 13.2515L10.3502 11.8193L11.5847 10.9342C11.996 10.6395 12.1602 10.1408 12.0031 9.66375Z" fill="white"/>
</svg>
