<svg width="241" height="183" viewBox="0 0 241 183" fill="none" xmlns="http://www.w3.org/2000/svg">
<g clip-path="url(#clip0)">
<path opacity="0.1" d="M226.138 98.9687C217.682 110.571 220.473 127.133 225.36 140.328C226.998 144.745 228.857 149.417 228.008 154.222C226.972 160.097 222.099 164.499 217.034 166.896C207.801 171.266 196.893 170.568 188.634 165.063C181.506 160.311 176.489 152.415 169.223 147.89C157.063 140.319 141.277 143.702 127.743 149.481C118.168 153.57 107.68 158.836 98.3495 155.06C91.7835 152.404 87.3623 145.641 85.0361 138.412C83.9129 134.922 83.1267 131.133 80.8891 128.401C79.5587 126.777 77.8005 125.645 75.9927 124.699C59.4935 116.06 38.2707 121.459 22.2747 111.82C11.4754 105.31 4.75386 92.677 1.96115 79.396C-0.831554 66.115 -0.140396 52.0953 0.971935 38.3153C1.76245 28.5225 3.01301 18.0579 8.9008 10.3623C15.1277 2.22613 25.5642 -1.00719 34.8969 0.267131C44.2297 1.54145 52.597 6.72513 59.9168 12.9131C69.0725 20.6325 77.496 30.3238 88.8828 33.2548C96.6389 35.2505 104.879 33.8379 112.942 33.2137C126.419 32.1727 139.849 33.3714 153.197 34.7256C165.975 36.0216 178.841 37.4687 190.943 41.7171C199.507 44.7237 206.295 50.4063 214.358 54.2897C219.613 56.8211 225.395 57.4085 230.341 60.6786C236.445 64.7067 241.961 71.8429 240.171 80.4068C238.479 88.5473 230.63 92.8109 226.138 98.9687Z" fill="#34ADBE"/>
<g opacity="0.5">
<path opacity="0.5" d="M184.666 151.89C184.666 151.89 185.379 130.775 196.803 118.844C201.598 113.837 204.747 107.479 205.58 100.597C205.97 97.3316 206.06 94.037 205.848 90.7549" stroke="#535461" stroke-width="2" stroke-miterlimit="10"/>
<path opacity="0.5" d="M213.004 83.1978C212.222 85.5564 205.686 90.9733 205.686 90.9733C205.686 90.9733 203.684 82.7205 204.466 80.3641C204.652 79.8034 204.946 79.2849 205.333 78.8382C205.719 78.3914 206.189 78.0251 206.717 77.7601C207.245 77.4952 207.82 77.3368 208.409 77.294C208.998 77.2513 209.59 77.325 210.151 77.5109C210.711 77.6968 211.23 77.9913 211.676 78.3776C212.123 78.7639 212.49 79.2345 212.754 79.7623C213.019 80.2902 213.178 80.8651 213.221 81.4542C213.263 82.0433 213.19 82.635 213.004 83.1956V83.1978Z" fill="#34ADBE"/>
<path opacity="0.5" d="M215.727 98.5977C213.783 100.153 205.36 101.151 205.36 101.151C205.36 101.151 208.168 93.1354 210.112 91.5825C210.569 91.1845 211.102 90.8831 211.678 90.6963C212.255 90.5096 212.863 90.4413 213.467 90.4956C214.071 90.55 214.657 90.7258 215.191 91.0125C215.725 91.2993 216.196 91.691 216.575 92.1642C216.953 92.6374 217.233 93.1822 217.395 93.7661C217.558 94.3499 217.602 94.9606 217.522 95.5615C217.443 96.1625 217.243 96.7412 216.935 97.263C216.626 97.7847 216.216 98.2387 215.727 98.5977Z" fill="#34ADBE"/>
<path opacity="0.5" d="M208.021 120.809C205.563 121.172 197.781 117.786 197.781 117.786C197.781 117.786 204.248 112.282 206.706 111.919C207.29 111.833 207.886 111.863 208.458 112.006C209.031 112.15 209.57 112.405 210.044 112.758C210.519 113.11 210.919 113.552 211.222 114.058C211.526 114.565 211.726 115.127 211.813 115.711C211.899 116.295 211.869 116.891 211.726 117.464C211.582 118.037 211.327 118.576 210.975 119.05C210.622 119.524 210.18 119.924 209.674 120.228C209.167 120.531 208.605 120.732 208.021 120.818V120.809Z" fill="#34ADBE"/>
<path opacity="0.5" d="M198.403 136.305C196.042 137.078 187.798 135.047 187.798 135.047C187.798 135.047 193.243 128.531 195.604 127.758C196.737 127.386 197.972 127.479 199.037 128.017C200.101 128.555 200.909 129.494 201.281 130.627C201.653 131.761 201.56 132.995 201.022 134.06C200.484 135.125 199.545 135.932 198.412 136.305H198.403Z" fill="#34ADBE"/>
<path opacity="0.5" d="M196.243 98.6343C197.39 100.837 204.712 105.151 204.712 105.151C204.712 105.151 205.377 96.6861 204.23 94.4809C203.958 93.957 203.585 93.4919 203.132 93.1123C202.68 92.7326 202.157 92.4457 201.594 92.268C201.031 92.0903 200.438 92.0253 199.85 92.0766C199.262 92.1279 198.689 92.2947 198.165 92.5672C197.642 92.8398 197.177 93.2129 196.797 93.6652C196.417 94.1175 196.13 94.6402 195.953 95.2034C195.775 95.7665 195.71 96.3592 195.761 96.9475C195.813 97.5358 195.979 98.1083 196.252 98.6321L196.243 98.6343Z" fill="#34ADBE"/>
<path opacity="0.5" d="M185.226 116.896C186.98 118.656 195.248 120.583 195.248 120.583C195.248 120.583 193.349 112.306 191.597 110.546C190.756 109.701 189.613 109.225 188.42 109.223C187.227 109.22 186.083 109.692 185.238 110.534C184.393 111.376 183.917 112.519 183.915 113.711C183.912 114.904 184.384 116.049 185.226 116.894V116.896Z" fill="#34ADBE"/>
<path opacity="0.5" d="M176.953 136.117C178.383 138.147 186.208 141.445 186.208 141.445C186.208 141.445 185.738 132.968 184.306 130.935C183.974 130.432 183.545 130 183.043 129.665C182.542 129.33 181.978 129.1 181.385 128.988C180.793 128.876 180.184 128.884 179.595 129.011C179.005 129.139 178.448 129.384 177.955 129.732C177.462 130.08 177.045 130.523 176.727 131.036C176.409 131.548 176.197 132.119 176.105 132.715C176.012 133.311 176.04 133.92 176.188 134.504C176.335 135.089 176.598 135.638 176.962 136.119L176.953 136.117Z" fill="#34ADBE"/>
<path opacity="0.5" d="M187.176 143.152C187.176 143.152 180.696 133.726 181.833 124.857C182.333 121.141 181.615 117.362 179.785 114.088C178.904 112.541 177.883 111.078 176.735 109.717" stroke="#535461" stroke-width="2" stroke-miterlimit="10"/>
<path opacity="0.5" d="M177.42 104.123C177.837 105.401 176.735 109.864 176.735 109.864C176.735 109.864 173.208 106.913 172.791 105.637C172.591 105.023 172.642 104.355 172.935 103.779C173.227 103.203 173.736 102.767 174.35 102.567C174.963 102.366 175.632 102.418 176.208 102.71C176.783 103.002 177.219 103.511 177.42 104.125V104.123Z" fill="#34ADBE"/>
<path opacity="0.5" d="M183.561 109.952C183.217 111.248 179.865 114.399 179.865 114.399C179.865 114.399 178.509 110.006 178.852 108.706C179.017 108.081 179.424 107.548 179.982 107.224C180.541 106.899 181.205 106.809 181.829 106.975C182.454 107.14 182.987 107.546 183.312 108.105C183.636 108.663 183.726 109.328 183.561 109.952Z" fill="#34ADBE"/>
<path opacity="0.5" d="M187.349 122.104C186.396 123.052 181.915 124.078 181.915 124.078C181.915 124.078 182.96 119.601 183.915 118.652C184.142 118.427 184.411 118.248 184.707 118.127C185.003 118.005 185.32 117.943 185.639 117.944C185.959 117.945 186.276 118.009 186.571 118.133C186.866 118.256 187.134 118.436 187.36 118.663C187.585 118.89 187.764 119.159 187.885 119.455C188.007 119.751 188.069 120.068 188.068 120.388C188.067 120.708 188.003 121.024 187.879 121.32C187.756 121.615 187.576 121.883 187.349 122.108V122.104Z" fill="#34ADBE"/>
<path opacity="0.5" d="M188.146 131.946C187.366 133.041 183.113 134.806 183.113 134.806C183.113 134.806 183.388 130.216 184.167 129.121C184.353 128.861 184.587 128.639 184.858 128.469C185.129 128.299 185.431 128.184 185.746 128.131C186.061 128.077 186.384 128.087 186.696 128.158C187.007 128.229 187.302 128.362 187.563 128.547C187.823 128.732 188.045 128.967 188.215 129.238C188.385 129.508 188.5 129.81 188.553 130.125C188.607 130.441 188.597 130.763 188.526 131.075C188.455 131.387 188.322 131.681 188.137 131.942L188.146 131.946Z" fill="#34ADBE"/>
<path opacity="0.5" d="M175.087 116.23C176.295 116.822 180.867 116.347 180.867 116.347C180.867 116.347 178.433 112.446 177.226 111.857C176.646 111.573 175.977 111.532 175.366 111.741C174.755 111.951 174.253 112.394 173.97 112.974C173.686 113.554 173.644 114.223 173.854 114.834C174.064 115.445 174.507 115.947 175.087 116.23Z" fill="#34ADBE"/>
<path opacity="0.5" d="M176.165 127.732C177.496 127.935 181.716 126.114 181.716 126.114C181.716 126.114 178.226 123.121 176.897 122.926C176.259 122.829 175.608 122.99 175.088 123.372C174.568 123.755 174.221 124.329 174.124 124.967C174.027 125.606 174.187 126.256 174.57 126.777C174.953 127.297 175.527 127.643 176.165 127.74V127.732Z" fill="#34ADBE"/>
<path opacity="0.5" d="M178.744 138.762C180.02 139.194 184.489 138.114 184.489 138.114C184.489 138.114 181.556 134.574 180.28 134.149C179.667 133.945 178.998 133.993 178.421 134.283C177.843 134.572 177.404 135.079 177.201 135.692C176.997 136.305 177.045 136.974 177.335 137.551C177.624 138.128 178.131 138.567 178.744 138.771V138.762Z" fill="#34ADBE"/>
<path opacity="0.5" d="M177.42 104.123C177.837 105.401 176.735 109.864 176.735 109.864C176.735 109.864 173.208 106.913 172.791 105.637C172.591 105.023 172.642 104.355 172.935 103.779C173.227 103.203 173.736 102.767 174.35 102.567C174.963 102.366 175.632 102.418 176.208 102.71C176.783 103.002 177.219 103.511 177.42 104.125V104.123Z" fill="white"/>
<path opacity="0.5" d="M183.561 109.952C183.217 111.248 179.865 114.399 179.865 114.399C179.865 114.399 178.509 110.006 178.852 108.706C179.017 108.081 179.424 107.548 179.982 107.224C180.541 106.899 181.205 106.809 181.829 106.975C182.454 107.14 182.987 107.546 183.312 108.105C183.636 108.663 183.726 109.328 183.561 109.952Z" fill="white"/>
<path opacity="0.5" d="M187.349 122.104C186.396 123.052 181.915 124.078 181.915 124.078C181.915 124.078 182.96 119.601 183.915 118.652C184.142 118.427 184.411 118.248 184.707 118.127C185.003 118.005 185.32 117.943 185.639 117.944C185.959 117.945 186.276 118.009 186.571 118.133C186.866 118.256 187.134 118.436 187.36 118.663C187.585 118.89 187.764 119.159 187.885 119.455C188.007 119.751 188.069 120.068 188.068 120.388C188.067 120.708 188.003 121.024 187.879 121.32C187.756 121.615 187.576 121.883 187.349 122.108V122.104Z" fill="white"/>
<path opacity="0.5" d="M188.146 131.946C187.366 133.041 183.113 134.806 183.113 134.806C183.113 134.806 183.388 130.216 184.167 129.121C184.353 128.861 184.587 128.639 184.858 128.469C185.129 128.299 185.431 128.184 185.746 128.131C186.061 128.077 186.384 128.087 186.696 128.158C187.007 128.229 187.302 128.362 187.563 128.547C187.823 128.732 188.045 128.967 188.215 129.238C188.385 129.508 188.5 129.81 188.553 130.125C188.607 130.441 188.597 130.763 188.526 131.075C188.455 131.387 188.322 131.681 188.137 131.942L188.146 131.946Z" fill="white"/>
<path opacity="0.5" d="M175.087 116.23C176.295 116.822 180.867 116.347 180.867 116.347C180.867 116.347 178.433 112.446 177.226 111.857C176.646 111.573 175.977 111.532 175.366 111.741C174.755 111.951 174.253 112.394 173.97 112.974C173.686 113.554 173.644 114.223 173.854 114.834C174.064 115.445 174.507 115.947 175.087 116.23Z" fill="white"/>
<path opacity="0.5" d="M176.165 127.732C177.496 127.935 181.716 126.114 181.716 126.114C181.716 126.114 178.226 123.121 176.897 122.926C176.259 122.829 175.608 122.99 175.088 123.372C174.568 123.755 174.221 124.329 174.124 124.967C174.027 125.606 174.187 126.256 174.57 126.777C174.953 127.297 175.527 127.643 176.165 127.74V127.732Z" fill="white"/>
<path opacity="0.5" d="M178.744 138.762C180.02 139.194 184.489 138.114 184.489 138.114C184.489 138.114 181.556 134.574 180.28 134.149C179.667 133.945 178.998 133.993 178.421 134.283C177.843 134.572 177.404 135.079 177.201 135.692C176.997 136.305 177.045 136.974 177.335 137.551C177.624 138.128 178.131 138.567 178.744 138.771V138.762Z" fill="white"/>
<path opacity="0.5" d="M175.187 168.709H193.617L198.226 140.603H170.58L175.187 168.709Z" fill="#474059"/>
<path opacity="0.1" d="M174.107 140.603L178.411 166.867H193.919L193.617 168.709H175.187L170.58 140.603H174.107Z" fill="black"/>
</g>
<path d="M178.681 8.48633H43.4738V171.621H178.681V8.48633Z" fill="url(#paint0_linear)"/>
<path d="M176.953 10.5723H45.2017V169.538H176.953V10.5723Z" fill="white"/>
<path d="M149.523 28.499H96.3905V31.0909H149.523V28.499Z" fill="#C0BCCF"/>
<path d="M149.523 36.707H96.3905V39.2989H149.523V36.707Z" fill="#C0BCCF"/>
<path d="M136.78 44.9141H109.134V47.5059H136.78V44.9141Z" fill="#34ADBE"/>
<path opacity="0.5" d="M149.523 80.5518H96.3905V83.1436H149.523V80.5518Z" fill="#C0BCCF"/>
<path opacity="0.5" d="M149.523 88.7598H96.3905V91.3516H149.523V88.7598Z" fill="#C0BCCF"/>
<path opacity="0.5" d="M136.78 96.9668H109.134V99.5586H136.78V96.9668Z" fill="#34ADBE"/>
<path opacity="0.5" d="M149.523 132.604H96.3905V135.196H149.523V132.604Z" fill="#C0BCCF"/>
<path opacity="0.5" d="M149.523 140.812H96.3905V143.404H149.523V140.812Z" fill="#C0BCCF"/>
<path opacity="0.5" d="M136.78 149.02H109.134V151.611H136.78V149.02Z" fill="#34ADBE"/>
<g opacity="0.5">
<path opacity="0.5" d="M77.6839 95.0083L76.5694 94.5073C76.5864 94.3379 76.5936 94.1677 76.591 93.9975C76.5988 93.8536 76.5988 93.7094 76.591 93.5656C76.4809 92.4295 75.7573 91.4403 75.2454 90.4014C74.7767 89.453 74.4791 88.4294 74.3663 87.3775C74.2303 86.0816 74.3663 84.7382 73.8912 83.52C73.5046 82.5373 72.74 81.7165 71.9214 80.9908C71.0025 80.1286 69.9289 79.4478 68.7572 78.9843C67.5606 78.5523 66.1848 78.4422 64.9882 78.8828C63.9083 79.2802 63.0767 80.0729 62.2733 80.844C61.6898 81.358 61.1745 81.9444 60.7398 82.5891C60.2495 83.3926 60.04 84.317 59.8758 85.2285C59.6179 86.6878 59.4405 88.1601 59.3445 89.6389C59.2602 90.8722 59.1285 92.2718 58.0745 93.0278C57.5604 93.3971 56.8369 93.6044 56.6015 94.1638C56.5347 94.3318 56.5081 94.513 56.5237 94.693C56.5172 94.8428 56.5281 94.9928 56.5561 95.1401C56.5712 95.2265 56.5885 95.3107 56.6101 95.3971C56.3076 96.149 56.0536 96.9195 55.8498 97.7039C55.6921 98.287 55.5474 98.8594 55.4178 99.4145H55.7677H55.9535L57.9665 99.462H57.9946L60.1544 99.5117H60.1652L62.1782 99.5592H62.2279L62.8089 99.6002H62.999L71.0488 99.786H71.092L71.6276 99.7989H71.8155L73.4268 99.8356L75.8027 99.8896H75.8199L77.6083 99.9328H77.7984H78.1655L78.0705 98.0581C78.4636 95.1876 77.6839 95.0083 77.6839 95.0083ZM68.6405 94.7794C68.6405 96.3691 66.9386 98.3151 66.9386 98.3151L65.2258 95.9824L65.2884 95.8917L66.9386 98.138C66.9386 98.138 68.6405 96.1941 68.6405 94.6023C68.6802 94.5214 68.7257 94.4434 68.7766 94.369L68.8155 94.49C68.7501 94.582 68.6917 94.6788 68.6405 94.7794ZM71.2583 101.017C71.2583 100.937 71.2583 100.855 71.2432 100.775C71.2281 100.695 71.2302 100.624 71.2194 100.546C71.2086 100.468 71.2 100.393 71.1892 100.315C71.1784 100.237 71.1633 100.162 71.1481 100.084C71.133 100.006 71.1179 99.9307 71.1006 99.8529C71.1006 99.827 71.0898 99.8033 71.0833 99.7752C71.0596 99.6737 71.0337 99.5721 71.0056 99.4706C70.9775 99.3691 70.9602 99.3065 70.9343 99.2266C70.9343 99.1898 70.9127 99.1531 70.8998 99.1186C70.8868 99.084 70.863 99.0019 70.8436 98.9436L70.8047 98.8313C70.7874 98.7816 70.7702 98.7298 70.7507 98.6801C70.7183 98.5894 70.6838 98.5009 70.6492 98.4101C70.6147 98.3194 70.5779 98.2309 70.5412 98.1423C70.4678 97.9609 70.3879 97.7816 70.308 97.6002C69.9948 96.9004 69.6427 96.2114 69.3187 95.5289C69.145 95.1717 68.9907 94.8055 68.8565 94.4317L68.8155 94.4857C68.75 94.5784 68.6916 94.6759 68.6405 94.7772C68.6405 96.3669 66.9386 98.3129 66.9386 98.3129L65.2258 95.9803L63.7268 98.1402C63.5109 98.2481 63.2949 98.6153 63.1264 99.138C63.0789 99.2784 63.0335 99.4339 62.9903 99.5959C62.9601 99.7061 62.932 99.8119 62.9061 99.935C62.891 99.9933 62.878 100.052 62.8651 100.112L62.8262 100.296V100.324C62.8003 100.449 62.7744 100.579 62.7506 100.71C62.7268 100.842 62.6988 100.993 62.675 101.142C62.6577 101.236 62.6426 101.329 62.6296 101.421C62.5994 101.6 62.5735 101.782 62.5476 101.963C62.5324 102.069 62.5173 102.179 62.5044 102.276L62.4525 102.678C62.5627 103.008 62.6858 103.326 62.8132 103.659C62.8943 103.833 62.9419 104.022 62.9536 104.214C65.6106 104.922 68.4069 104.922 71.0639 104.214C71.063 104.207 71.063 104.201 71.0639 104.194C71.0241 104.013 71.0067 103.829 71.0121 103.643C71.0557 103.124 71.1278 102.608 71.2281 102.097C71.26 101.845 71.2737 101.591 71.2691 101.337V101.246C71.2626 101.164 71.2605 101.091 71.2583 101.019V101.017ZM71.2583 101.017C71.2583 100.937 71.2583 100.855 71.2432 100.775C71.2281 100.695 71.2302 100.624 71.2194 100.546C71.2086 100.468 71.2 100.393 71.1892 100.315C71.1784 100.237 71.1633 100.162 71.1481 100.084C71.133 100.006 71.1179 99.9307 71.1006 99.8529C71.1006 99.827 71.0898 99.8033 71.0833 99.7752C71.0596 99.6737 71.0337 99.5721 71.0056 99.4706C70.9775 99.3691 70.9602 99.3065 70.9343 99.2266C70.9343 99.1898 70.9127 99.1531 70.8998 99.1186C70.8868 99.084 70.863 99.0019 70.8436 98.9436L70.8047 98.8313C70.7874 98.7816 70.7702 98.7298 70.7507 98.6801C70.7183 98.5894 70.6838 98.5009 70.6492 98.4101C70.6147 98.3194 70.5779 98.2309 70.5412 98.1423C70.4678 97.9609 70.3879 97.7816 70.308 97.6002C69.9948 96.9004 69.6427 96.2114 69.3187 95.5289C69.145 95.1717 68.9907 94.8055 68.8565 94.4317L68.8155 94.4857C68.75 94.5784 68.6916 94.6759 68.6405 94.7772C68.6405 96.3669 66.9386 98.3129 66.9386 98.3129L65.2258 95.9803L63.7268 98.1402C63.5109 98.2481 63.2949 98.6153 63.1264 99.138C63.0789 99.2784 63.0335 99.4339 62.9903 99.5959C62.9601 99.7061 62.932 99.8119 62.9061 99.935C62.891 99.9933 62.878 100.052 62.8651 100.112L62.8262 100.296V100.324C62.8003 100.449 62.7744 100.579 62.7506 100.71C62.7268 100.842 62.6988 100.993 62.675 101.142C62.6577 101.236 62.6426 101.329 62.6296 101.421C62.5994 101.6 62.5735 101.782 62.5476 101.963C62.5324 102.069 62.5173 102.179 62.5044 102.276L62.4525 102.678C62.5627 103.008 62.6858 103.326 62.8132 103.659C62.8943 103.833 62.9419 104.022 62.9536 104.214C65.6106 104.922 68.4069 104.922 71.0639 104.214C71.063 104.207 71.063 104.201 71.0639 104.194C71.0241 104.013 71.0067 103.829 71.0121 103.643C71.0557 103.124 71.1278 102.608 71.2281 102.097C71.26 101.845 71.2737 101.591 71.2691 101.337V101.246C71.2626 101.164 71.2605 101.091 71.2583 101.019V101.017ZM71.2583 101.017C71.2583 100.937 71.2583 100.855 71.2432 100.775C71.2281 100.695 71.2302 100.624 71.2194 100.546C71.2086 100.468 71.2 100.393 71.1892 100.315C71.1784 100.237 71.1633 100.162 71.1481 100.084C71.133 100.006 71.1179 99.9307 71.1006 99.8529C71.1006 99.827 71.0898 99.8033 71.0833 99.7752C71.0596 99.6737 71.0337 99.5721 71.0056 99.4706C70.9775 99.3691 70.9602 99.3065 70.9343 99.2266C70.9343 99.1898 70.9127 99.1531 70.8998 99.1186C70.8868 99.084 70.863 99.0019 70.8436 98.9436L70.8047 98.8313C70.7874 98.7816 70.7702 98.7298 70.7507 98.6801C70.7183 98.5894 70.6838 98.5009 70.6492 98.4101C70.6147 98.3194 70.5779 98.2309 70.5412 98.1423C70.4678 97.9609 70.3879 97.7816 70.308 97.6002C69.9948 96.9004 69.6427 96.2114 69.3187 95.5289C69.145 95.1717 68.9907 94.8055 68.8565 94.4317L68.8155 94.4857C68.75 94.5784 68.6916 94.6759 68.6405 94.7772C68.6405 96.3669 66.9386 98.3129 66.9386 98.3129L65.2258 95.9803L63.7268 98.1402C63.5109 98.2481 63.2949 98.6153 63.1264 99.138C63.0789 99.2784 63.0335 99.4339 62.9903 99.5959C62.9601 99.7061 62.932 99.8119 62.9061 99.935C62.891 99.9933 62.878 100.052 62.8651 100.112L62.8262 100.296V100.324C62.8003 100.449 62.7744 100.579 62.7506 100.71C62.7268 100.842 62.6988 100.993 62.675 101.142C62.6577 101.236 62.6426 101.329 62.6296 101.421C62.5994 101.6 62.5735 101.782 62.5476 101.963C62.5324 102.069 62.5173 102.179 62.5044 102.276L62.4525 102.678C62.5627 103.008 62.6858 103.326 62.8132 103.659C62.8943 103.833 62.9419 104.022 62.9536 104.214C65.6106 104.922 68.4069 104.922 71.0639 104.214C71.063 104.207 71.063 104.201 71.0639 104.194C71.0241 104.013 71.0067 103.829 71.0121 103.643C71.0557 103.124 71.1278 102.608 71.2281 102.097C71.26 101.845 71.2737 101.591 71.2691 101.337V101.246C71.2626 101.164 71.2605 101.091 71.2583 101.019V101.017ZM71.2583 101.017C71.2583 100.937 71.2583 100.855 71.2432 100.775C71.2281 100.695 71.2302 100.624 71.2194 100.546C71.2086 100.468 71.2 100.393 71.1892 100.315C71.1784 100.237 71.1633 100.162 71.1481 100.084C71.133 100.006 71.1179 99.9307 71.1006 99.8529C71.1006 99.827 71.0898 99.8033 71.0833 99.7752C71.0596 99.6737 71.0337 99.5721 71.0056 99.4706C70.9775 99.3691 70.9602 99.3065 70.9343 99.2266C70.9343 99.1898 70.9127 99.1531 70.8998 99.1186C70.8868 99.084 70.863 99.0019 70.8436 98.9436L70.8047 98.8313C70.7874 98.7816 70.7702 98.7298 70.7507 98.6801C70.7183 98.5894 70.6838 98.5009 70.6492 98.4101C70.6147 98.3194 70.5779 98.2309 70.5412 98.1423C70.4678 97.9609 70.3879 97.7816 70.308 97.6002C69.9948 96.9004 69.6427 96.2114 69.3187 95.5289C69.145 95.1717 68.9907 94.8055 68.8565 94.4317L68.8155 94.4857C68.75 94.5784 68.6916 94.6759 68.6405 94.7772C68.6405 96.3669 66.9386 98.3129 66.9386 98.3129L65.2258 95.9803L63.7268 98.1402C63.5109 98.2481 63.2949 98.6153 63.1264 99.138C63.0789 99.2784 63.0335 99.4339 62.9903 99.5959C62.9601 99.7061 62.932 99.8119 62.9061 99.935C62.891 99.9933 62.878 100.052 62.8651 100.112L62.8262 100.296V100.324C62.8003 100.449 62.7744 100.579 62.7506 100.71C62.7268 100.842 62.6988 100.993 62.675 101.142C62.6577 101.236 62.6426 101.329 62.6296 101.421C62.5994 101.6 62.5735 101.782 62.5476 101.963C62.5324 102.069 62.5173 102.179 62.5044 102.276L62.4525 102.678C62.5627 103.008 62.6858 103.326 62.8132 103.659C62.8943 103.833 62.9419 104.022 62.9536 104.214C65.6106 104.922 68.4069 104.922 71.0639 104.214C71.063 104.207 71.063 104.201 71.0639 104.194C71.0241 104.013 71.0067 103.829 71.0121 103.643C71.0557 103.124 71.1278 102.608 71.2281 102.097C71.26 101.845 71.2737 101.591 71.2691 101.337V101.246C71.2626 101.164 71.2605 101.091 71.2583 101.019V101.017Z" fill="url(#paint1_linear)"/>
<path opacity="0.5" d="M71.336 85.9521H61.4006V92.6477H71.336V85.9521Z" fill="#493545"/>
<path opacity="0.5" d="M72.9862 93.3369L68.8285 99.1945L64.4828 98.8165C64.4828 98.8165 58.8132 99.1923 62.5929 94.8488C64.4094 92.7602 65.0033 91.0194 65.1308 89.7774C65.269 88.434 64.8608 87.6694 64.8608 87.6694L69.5844 87.1035C69.3713 87.74 69.3443 88.4242 69.5067 89.0755C70.0985 91.5291 72.9862 93.3369 72.9862 93.3369Z" fill="#C77485"/>
<path opacity="0.1" d="M69.5045 89.0684C68.8885 89.5349 68.1673 89.8431 67.4043 89.9659C66.6414 90.0886 65.8599 90.0222 65.1286 89.7725C65.2669 88.4291 64.8586 87.6645 64.8586 87.6645L69.5823 87.0986C69.3696 87.7345 69.3426 88.4178 69.5045 89.0684Z" fill="black"/>
<path opacity="0.5" d="M66.6556 89.8379C69.2644 89.8379 71.3793 87.723 71.3793 85.1142C71.3793 82.5055 69.2644 80.3906 66.6556 80.3906C64.0468 80.3906 61.932 82.5055 61.932 85.1142C61.932 87.723 64.0468 89.8379 66.6556 89.8379Z" fill="#C77485"/>
<path opacity="0.1" d="M72.8134 93.5784L72.7032 93.1464L72.6082 92.7663L72.4678 92.2047L72.4419 92.101L72.4203 92.0146C72.4203 92.0146 72.5326 91.6755 71.7918 91.7857L71.6535 91.8094C71.5369 91.8332 71.4008 91.8656 71.2453 91.9088L71.1049 91.952L70.9192 92.0103C70.3311 92.2018 69.7947 92.5254 69.3511 92.9563C69.152 93.1468 68.9758 93.3599 68.8263 93.5913C68.8112 93.6129 68.8004 93.6324 68.7874 93.6497C68.7362 93.7299 68.6908 93.8136 68.6513 93.9002C68.6513 95.6022 66.9494 97.68 66.9494 97.68L65.2884 95.2804L65.256 95.2328L64.8608 94.6583L64.7204 94.4726L64.6729 94.4078L63.8089 93.2479L63.5929 92.9585L63.5216 92.8613L63.4158 92.7209L63.1674 92.3904L62.1955 92.9585L60.8996 93.7144L60.1436 98.6282V98.7642L60.1674 99.1703L60.325 101.84V101.877L60.0486 102.982L60.0896 103.004C60.742 103.356 61.4208 103.656 62.1199 103.903L62.3035 103.967C62.5195 104.039 62.7225 104.103 62.9342 104.166C62.942 104.198 62.9478 104.231 62.9514 104.263C62.9514 104.233 62.9514 104.201 62.9514 104.17C65.6018 104.928 68.4113 104.928 71.0617 104.17L71.1114 104.155C71.2345 104.121 71.3598 104.084 71.4807 104.043L71.6773 103.98C72.2103 103.802 72.7324 103.593 73.241 103.354L73.4225 99.4878L73.5521 96.6994V96.5396L72.8134 93.5784Z" fill="black"/>
<path opacity="0.5" d="M71.2583 100.76C71.2583 100.674 71.2583 100.587 71.2432 100.501C71.2281 100.414 71.2302 100.339 71.2194 100.257C71.2086 100.175 71.2 100.093 71.1892 100.01C71.1784 99.9284 71.1633 99.8463 71.1482 99.7642C71.133 99.6821 71.1179 99.6001 71.1007 99.518C71.1007 99.4899 71.0899 99.464 71.0834 99.4359C71.0596 99.3279 71.0337 99.2199 71.0056 99.1098C70.9775 98.9996 70.9603 98.9348 70.9343 98.8484C70.9343 98.8095 70.9127 98.7707 70.8998 98.734C70.8868 98.6972 70.8631 98.6087 70.8436 98.546L70.8047 98.4251C70.7875 98.3711 70.7702 98.3171 70.7508 98.2631C70.7184 98.1659 70.6838 98.0709 70.6492 97.9737C70.6147 97.8765 70.578 97.7815 70.5412 97.6864C70.4678 97.492 70.3879 97.2998 70.308 97.1076C69.9948 96.3603 69.6427 95.6237 69.3188 94.8937C69.1447 94.511 68.9904 94.1195 68.8566 93.7209L68.8155 93.7792C68.7498 93.8786 68.6914 93.9825 68.6406 94.0902C68.6406 95.7901 66.9386 97.87 66.9386 97.87L65.2258 95.3754L63.7269 97.6799C63.5109 97.7944 63.2949 98.1875 63.1264 98.7469C63.0789 98.8981 63.0335 99.0623 62.9904 99.2372C62.9601 99.3538 62.932 99.477 62.9061 99.6001C62.891 99.6627 62.878 99.7253 62.8651 99.7901L62.8262 99.9867V100.017C62.8003 100.151 62.7744 100.289 62.7506 100.429C62.7269 100.57 62.6988 100.732 62.675 100.885C62.6577 100.985 62.6426 101.084 62.6297 101.183C62.5994 101.375 62.5735 101.57 62.5476 101.762C62.5325 101.874 62.5173 101.978 62.5044 102.097L62.4525 102.529C62.5627 102.883 62.6858 103.233 62.8132 103.576C62.8946 103.765 62.9422 103.966 62.9536 104.17C65.604 104.928 68.4135 104.928 71.0639 104.17C71.063 104.163 71.063 104.156 71.0639 104.149C71.024 103.955 71.0066 103.757 71.0121 103.559C71.0557 103.005 71.1278 102.453 71.2281 101.907C71.26 101.637 71.2737 101.366 71.2691 101.095V100.997C71.2626 100.915 71.2605 100.838 71.2583 100.76ZM71.2583 100.76C71.2583 100.674 71.2583 100.587 71.2432 100.501C71.2281 100.414 71.2302 100.339 71.2194 100.257C71.2086 100.175 71.2 100.093 71.1892 100.01C71.1784 99.9284 71.1633 99.8463 71.1482 99.7642C71.133 99.6821 71.1179 99.6001 71.1007 99.518C71.1007 99.4899 71.0899 99.464 71.0834 99.4359C71.0596 99.3279 71.0337 99.2199 71.0056 99.1098C70.9775 98.9996 70.9603 98.9348 70.9343 98.8484C70.9343 98.8095 70.9127 98.7707 70.8998 98.734C70.8868 98.6972 70.8631 98.6087 70.8436 98.546L70.8047 98.4251C70.7875 98.3711 70.7702 98.3171 70.7508 98.2631C70.7184 98.1659 70.6838 98.0709 70.6492 97.9737C70.6147 97.8765 70.578 97.7815 70.5412 97.6864C70.4678 97.492 70.3879 97.2998 70.308 97.1076C69.9948 96.3603 69.6427 95.6237 69.3188 94.8937C69.1447 94.511 68.9904 94.1195 68.8566 93.7209L68.8155 93.7792C68.7498 93.8786 68.6914 93.9825 68.6406 94.0902C68.6406 95.7901 66.9386 97.87 66.9386 97.87L65.2258 95.3754L63.7269 97.6799C63.5109 97.7944 63.2949 98.1875 63.1264 98.7469C63.0789 98.8981 63.0335 99.0623 62.9904 99.2372C62.9601 99.3538 62.932 99.477 62.9061 99.6001C62.891 99.6627 62.878 99.7253 62.8651 99.7901L62.8262 99.9867V100.017C62.8003 100.151 62.7744 100.289 62.7506 100.429C62.7269 100.57 62.6988 100.732 62.675 100.885C62.6577 100.985 62.6426 101.084 62.6297 101.183C62.5994 101.375 62.5735 101.57 62.5476 101.762C62.5325 101.874 62.5173 101.978 62.5044 102.097L62.4525 102.529C62.5627 102.883 62.6858 103.233 62.8132 103.576C62.8946 103.765 62.9422 103.966 62.9536 104.17C65.604 104.928 68.4135 104.928 71.0639 104.17C71.063 104.163 71.063 104.156 71.0639 104.149C71.024 103.955 71.0066 103.757 71.0121 103.559C71.0557 103.005 71.1278 102.453 71.2281 101.907C71.26 101.637 71.2737 101.366 71.2691 101.095V100.997C71.2626 100.915 71.2605 100.838 71.2583 100.76ZM71.2583 100.76C71.2583 100.674 71.2583 100.587 71.2432 100.501C71.2281 100.414 71.2302 100.339 71.2194 100.257C71.2086 100.175 71.2 100.093 71.1892 100.01C71.1784 99.9284 71.1633 99.8463 71.1482 99.7642C71.133 99.6821 71.1179 99.6001 71.1007 99.518C71.1007 99.4899 71.0899 99.464 71.0834 99.4359C71.0596 99.3279 71.0337 99.2199 71.0056 99.1098C70.9775 98.9996 70.9603 98.9348 70.9343 98.8484C70.9343 98.8095 70.9127 98.7707 70.8998 98.734C70.8868 98.6972 70.8631 98.6087 70.8436 98.546L70.8047 98.4251C70.7875 98.3711 70.7702 98.3171 70.7508 98.2631C70.7184 98.1659 70.6838 98.0709 70.6492 97.9737C70.6147 97.8765 70.578 97.7815 70.5412 97.6864C70.4678 97.492 70.3879 97.2998 70.308 97.1076C69.9948 96.3603 69.6427 95.6237 69.3188 94.8937C69.1447 94.511 68.9904 94.1195 68.8566 93.7209L68.8155 93.7792C68.7498 93.8786 68.6914 93.9825 68.6406 94.0902C68.6406 95.7901 66.9386 97.87 66.9386 97.87L65.2258 95.3754L63.7269 97.6799C63.5109 97.7944 63.2949 98.1875 63.1264 98.7469C63.0789 98.8981 63.0335 99.0623 62.9904 99.2372C62.9601 99.3538 62.932 99.477 62.9061 99.6001C62.891 99.6627 62.878 99.7253 62.8651 99.7901L62.8262 99.9867V100.017C62.8003 100.151 62.7744 100.289 62.7506 100.429C62.7269 100.57 62.6988 100.732 62.675 100.885C62.6577 100.985 62.6426 101.084 62.6297 101.183C62.5994 101.375 62.5735 101.57 62.5476 101.762C62.5325 101.874 62.5173 101.978 62.5044 102.097L62.4525 102.529C62.5627 102.883 62.6858 103.233 62.8132 103.576C62.8946 103.765 62.9422 103.966 62.9536 104.17C65.604 104.928 68.4135 104.928 71.0639 104.17C71.063 104.163 71.063 104.156 71.0639 104.149C71.024 103.955 71.0066 103.757 71.0121 103.559C71.0557 103.005 71.1278 102.453 71.2281 101.907C71.26 101.637 71.2737 101.366 71.2691 101.095V100.997C71.2626 100.915 71.2605 100.838 71.2583 100.76ZM73.5478 96.7058L72.7767 93.628L72.645 93.101L72.6082 92.9563L72.4203 92.2047C72.4208 92.1982 72.4208 92.1917 72.4203 92.1852C72.4248 92.1521 72.4196 92.1183 72.4052 92.088C72.3771 92.0319 72.3059 91.9736 72.1396 91.9584C72.0763 91.954 72.0128 91.954 71.9495 91.9584C71.7618 91.977 71.5761 92.0117 71.3944 92.0621C71.3058 92.0859 71.2108 92.1118 71.1093 92.1442L70.9235 92.2025H70.9063C70.4088 92.3658 69.947 92.6223 69.5455 92.9585C69.2804 93.1796 69.0477 93.437 68.8544 93.7231L68.8134 93.7814C68.7477 93.8807 68.6892 93.9847 68.6384 94.0924C68.6384 95.7922 66.9364 97.8722 66.9364 97.8722L65.2237 95.3775L65.1265 95.2371L65.1092 95.2134L64.8608 94.8483L64.6729 94.5978L64.6232 94.533L63.7377 93.3516L63.4569 92.9693V92.9563L63.3597 92.8246L63.1739 92.5783L62.526 92.9563L60.9061 93.9002L60.1588 98.762V98.8139L60.1804 99.1681L60.3402 101.874V102.028L60.0961 103.002C60.7485 103.354 61.4273 103.654 62.1264 103.9L62.31 103.965C62.526 104.036 62.729 104.101 62.9407 104.164C62.9485 104.196 62.9543 104.228 62.958 104.261C62.958 104.231 62.958 104.198 62.958 104.168C65.6083 104.926 68.4179 104.926 71.0683 104.168L71.1179 104.153C71.241 104.119 71.3663 104.082 71.4873 104.041L71.6838 103.978C72.2168 103.8 72.7389 103.591 73.2476 103.352L73.4268 99.4899L73.5564 96.7318L73.5478 96.7058ZM62.9256 104.164C62.9334 104.196 62.9392 104.228 62.9428 104.261C62.9428 104.231 62.9428 104.198 62.9428 104.168L62.9256 104.164ZM71.2583 100.76C71.2583 100.674 71.2583 100.587 71.2432 100.501C71.2281 100.414 71.2302 100.339 71.2194 100.257C71.2086 100.175 71.2 100.093 71.1892 100.01C71.1784 99.9284 71.1633 99.8463 71.1482 99.7642C71.133 99.6821 71.1179 99.6001 71.1007 99.518C71.1007 99.4899 71.0899 99.464 71.0834 99.4359C71.0596 99.3279 71.0337 99.2199 71.0056 99.1098C70.9775 98.9996 70.9603 98.9348 70.9343 98.8484C70.9343 98.8095 70.9127 98.7707 70.8998 98.734C70.8868 98.6972 70.8631 98.6087 70.8436 98.546L70.8047 98.4251C70.7875 98.3711 70.7702 98.3171 70.7508 98.2631C70.7184 98.1659 70.6838 98.0709 70.6492 97.9737C70.6147 97.8765 70.578 97.7815 70.5412 97.6864C70.4678 97.492 70.3879 97.2998 70.308 97.1076C69.9948 96.3603 69.6427 95.6237 69.3188 94.8937C69.1447 94.511 68.9904 94.1195 68.8566 93.7209L68.8155 93.7792C68.7498 93.8786 68.6914 93.9825 68.6406 94.0902C68.6406 95.7901 66.9386 97.87 66.9386 97.87L65.2258 95.3754L63.7269 97.6799C63.5109 97.7944 63.2949 98.1875 63.1264 98.7469C63.0789 98.8981 63.0335 99.0623 62.9904 99.2372C62.9601 99.3538 62.932 99.477 62.9061 99.6001C62.891 99.6627 62.878 99.7253 62.8651 99.7901L62.8262 99.9867V100.017C62.8003 100.151 62.7744 100.289 62.7506 100.429C62.7269 100.57 62.6988 100.732 62.675 100.885C62.6577 100.985 62.6426 101.084 62.6297 101.183C62.5994 101.375 62.5735 101.57 62.5476 101.762C62.5325 101.874 62.5173 101.978 62.5044 102.097L62.4525 102.529C62.5627 102.883 62.6858 103.233 62.8132 103.576C62.8946 103.765 62.9422 103.966 62.9536 104.17C65.604 104.928 68.4135 104.928 71.0639 104.17C71.063 104.163 71.063 104.156 71.0639 104.149C71.024 103.955 71.0066 103.757 71.0121 103.559C71.0557 103.005 71.1278 102.453 71.2281 101.907C71.26 101.637 71.2737 101.366 71.2691 101.095V100.997C71.2626 100.915 71.2605 100.838 71.2583 100.76ZM71.2583 100.76C71.2583 100.674 71.2583 100.587 71.2432 100.501C71.2281 100.414 71.2302 100.339 71.2194 100.257C71.2086 100.175 71.2 100.093 71.1892 100.01C71.1784 99.9284 71.1633 99.8463 71.1482 99.7642C71.133 99.6821 71.1179 99.6001 71.1007 99.518C71.1007 99.4899 71.0899 99.464 71.0834 99.4359C71.0596 99.3279 71.0337 99.2199 71.0056 99.1098C70.9775 98.9996 70.9603 98.9348 70.9343 98.8484C70.9343 98.8095 70.9127 98.7707 70.8998 98.734C70.8868 98.6972 70.8631 98.6087 70.8436 98.546L70.8047 98.4251C70.7875 98.3711 70.7702 98.3171 70.7508 98.2631C70.7184 98.1659 70.6838 98.0709 70.6492 97.9737C70.6147 97.8765 70.578 97.7815 70.5412 97.6864C70.4678 97.492 70.3879 97.2998 70.308 97.1076C69.9948 96.3603 69.6427 95.6237 69.3188 94.8937C69.1447 94.511 68.9904 94.1195 68.8566 93.7209L68.8155 93.7792C68.7498 93.8786 68.6914 93.9825 68.6406 94.0902C68.6406 95.7901 66.9386 97.87 66.9386 97.87L65.2258 95.3754L63.7269 97.6799C63.5109 97.7944 63.2949 98.1875 63.1264 98.7469C63.0789 98.8981 63.0335 99.0623 62.9904 99.2372C62.9601 99.3538 62.932 99.477 62.9061 99.6001C62.891 99.6627 62.878 99.7253 62.8651 99.7901L62.8262 99.9867V100.017C62.8003 100.151 62.7744 100.289 62.7506 100.429C62.7269 100.57 62.6988 100.732 62.675 100.885C62.6577 100.985 62.6426 101.084 62.6297 101.183C62.5994 101.375 62.5735 101.57 62.5476 101.762C62.5325 101.874 62.5173 101.978 62.5044 102.097L62.4525 102.529C62.5627 102.883 62.6858 103.233 62.8132 103.576C62.8946 103.765 62.9422 103.966 62.9536 104.17C65.604 104.928 68.4135 104.928 71.0639 104.17C71.063 104.163 71.063 104.156 71.0639 104.149C71.024 103.955 71.0066 103.757 71.0121 103.559C71.0557 103.005 71.1278 102.453 71.2281 101.907C71.26 101.637 71.2737 101.366 71.2691 101.095V100.997C71.2626 100.915 71.2605 100.838 71.2583 100.76ZM71.2583 100.76C71.2583 100.674 71.2583 100.587 71.2432 100.501C71.2281 100.414 71.2302 100.339 71.2194 100.257C71.2086 100.175 71.2 100.093 71.1892 100.01C71.1784 99.9284 71.1633 99.8463 71.1482 99.7642C71.133 99.6821 71.1179 99.6001 71.1007 99.518C71.1007 99.4899 71.0899 99.464 71.0834 99.4359C71.0596 99.3279 71.0337 99.2199 71.0056 99.1098C70.9775 98.9996 70.9603 98.9348 70.9343 98.8484C70.9343 98.8095 70.9127 98.7707 70.8998 98.734C70.8868 98.6972 70.8631 98.6087 70.8436 98.546L70.8047 98.4251C70.7875 98.3711 70.7702 98.3171 70.7508 98.2631C70.7184 98.1659 70.6838 98.0709 70.6492 97.9737C70.6147 97.8765 70.578 97.7815 70.5412 97.6864C70.4678 97.492 70.3879 97.2998 70.308 97.1076C69.9948 96.3603 69.6427 95.6237 69.3188 94.8937C69.1447 94.511 68.9904 94.1195 68.8566 93.7209L68.8155 93.7792C68.7498 93.8786 68.6914 93.9825 68.6406 94.0902C68.6406 95.7901 66.9386 97.87 66.9386 97.87L65.2258 95.3754L63.7269 97.6799C63.5109 97.7944 63.2949 98.1875 63.1264 98.7469C63.0789 98.8981 63.0335 99.0623 62.9904 99.2372C62.9601 99.3538 62.932 99.477 62.9061 99.6001C62.891 99.6627 62.878 99.7253 62.8651 99.7901L62.8262 99.9867V100.017C62.8003 100.151 62.7744 100.289 62.7506 100.429C62.7269 100.57 62.6988 100.732 62.675 100.885C62.6577 100.985 62.6426 101.084 62.6297 101.183C62.5994 101.375 62.5735 101.57 62.5476 101.762C62.5325 101.874 62.5173 101.978 62.5044 102.097L62.4525 102.529C62.5627 102.883 62.6858 103.233 62.8132 103.576C62.8946 103.765 62.9422 103.966 62.9536 104.17C65.604 104.928 68.4135 104.928 71.0639 104.17C71.063 104.163 71.063 104.156 71.0639 104.149C71.024 103.955 71.0066 103.757 71.0121 103.559C71.0557 103.005 71.1278 102.453 71.2281 101.907C71.26 101.637 71.2737 101.366 71.2691 101.095V100.997C71.2626 100.915 71.2605 100.838 71.2583 100.76ZM71.2583 100.76C71.2583 100.674 71.2583 100.587 71.2432 100.501C71.2281 100.414 71.2302 100.339 71.2194 100.257C71.2086 100.175 71.2 100.093 71.1892 100.01C71.1784 99.9284 71.1633 99.8463 71.1482 99.7642C71.133 99.6821 71.1179 99.6001 71.1007 99.518C71.1007 99.4899 71.0899 99.464 71.0834 99.4359C71.0596 99.3279 71.0337 99.2199 71.0056 99.1098C70.9775 98.9996 70.9603 98.9348 70.9343 98.8484C70.9343 98.8095 70.9127 98.7707 70.8998 98.734C70.8868 98.6972 70.8631 98.6087 70.8436 98.546L70.8047 98.4251C70.7875 98.3711 70.7702 98.3171 70.7508 98.2631C70.7184 98.1659 70.6838 98.0709 70.6492 97.9737C70.6147 97.8765 70.578 97.7815 70.5412 97.6864C70.4678 97.492 70.3879 97.2998 70.308 97.1076C69.9948 96.3603 69.6427 95.6237 69.3188 94.8937C69.1447 94.511 68.9904 94.1195 68.8566 93.7209L68.8155 93.7792C68.7498 93.8786 68.6914 93.9825 68.6406 94.0902C68.6406 95.7901 66.9386 97.87 66.9386 97.87L65.2258 95.3754L63.7269 97.6799C63.5109 97.7944 63.2949 98.1875 63.1264 98.7469C63.0789 98.8981 63.0335 99.0623 62.9904 99.2372C62.9601 99.3538 62.932 99.477 62.9061 99.6001C62.891 99.6627 62.878 99.7253 62.8651 99.7901L62.8262 99.9867V100.017C62.8003 100.151 62.7744 100.289 62.7506 100.429C62.7269 100.57 62.6988 100.732 62.675 100.885C62.6577 100.985 62.6426 101.084 62.6297 101.183C62.5994 101.375 62.5735 101.57 62.5476 101.762C62.5325 101.874 62.5173 101.978 62.5044 102.097L62.4525 102.529C62.5627 102.883 62.6858 103.233 62.8132 103.576C62.8946 103.765 62.9422 103.966 62.9536 104.17C65.604 104.928 68.4135 104.928 71.0639 104.17C71.063 104.163 71.063 104.156 71.0639 104.149C71.024 103.955 71.0066 103.757 71.0121 103.559C71.0557 103.005 71.1278 102.453 71.2281 101.907C71.26 101.637 71.2737 101.366 71.2691 101.095V100.997C71.2626 100.915 71.2605 100.838 71.2583 100.76ZM71.2583 100.76C71.2583 100.674 71.2583 100.587 71.2432 100.501C71.2281 100.414 71.2302 100.339 71.2194 100.257C71.2086 100.175 71.2 100.093 71.1892 100.01C71.1784 99.9284 71.1633 99.8463 71.1482 99.7642C71.133 99.6821 71.1179 99.6001 71.1007 99.518C71.1007 99.4899 71.0899 99.464 71.0834 99.4359C71.0596 99.3279 71.0337 99.2199 71.0056 99.1098C70.9775 98.9996 70.9603 98.9348 70.9343 98.8484C70.9343 98.8095 70.9127 98.7707 70.8998 98.734C70.8868 98.6972 70.8631 98.6087 70.8436 98.546L70.8047 98.4251C70.7875 98.3711 70.7702 98.3171 70.7508 98.2631C70.7184 98.1659 70.6838 98.0709 70.6492 97.9737C70.6147 97.8765 70.578 97.7815 70.5412 97.6864C70.4678 97.492 70.3879 97.2998 70.308 97.1076C69.9948 96.3603 69.6427 95.6237 69.3188 94.8937C69.1447 94.511 68.9904 94.1195 68.8566 93.7209L68.8155 93.7792C68.7498 93.8786 68.6914 93.9825 68.6406 94.0902C68.6406 95.7901 66.9386 97.87 66.9386 97.87L65.2258 95.3754L63.7269 97.6799C63.5109 97.7944 63.2949 98.1875 63.1264 98.7469C63.0789 98.8981 63.0335 99.0623 62.9904 99.2372C62.9601 99.3538 62.932 99.477 62.9061 99.6001C62.891 99.6627 62.878 99.7253 62.8651 99.7901L62.8262 99.9867V100.017C62.8003 100.151 62.7744 100.289 62.7506 100.429C62.7269 100.57 62.6988 100.732 62.675 100.885C62.6577 100.985 62.6426 101.084 62.6297 101.183C62.5994 101.375 62.5735 101.57 62.5476 101.762C62.5325 101.874 62.5173 101.978 62.5044 102.097L62.4525 102.529C62.5627 102.883 62.6858 103.233 62.8132 103.576C62.8946 103.765 62.9422 103.966 62.9536 104.17C65.604 104.928 68.4135 104.928 71.0639 104.17C71.063 104.163 71.063 104.156 71.0639 104.149C71.024 103.955 71.0066 103.757 71.0121 103.559C71.0557 103.005 71.1278 102.453 71.2281 101.907C71.26 101.637 71.2737 101.366 71.2691 101.095V100.997C71.2626 100.915 71.2605 100.838 71.2583 100.76ZM71.2583 100.76C71.2583 100.674 71.2583 100.587 71.2432 100.501C71.2281 100.414 71.2302 100.339 71.2194 100.257C71.2086 100.175 71.2 100.093 71.1892 100.01C71.1784 99.9284 71.1633 99.8463 71.1482 99.7642C71.133 99.6821 71.1179 99.6001 71.1007 99.518C71.1007 99.4899 71.0899 99.464 71.0834 99.4359C71.0596 99.3279 71.0337 99.2199 71.0056 99.1098C70.9775 98.9996 70.9603 98.9348 70.9343 98.8484C70.9343 98.8095 70.9127 98.7707 70.8998 98.734C70.8868 98.6972 70.8631 98.6087 70.8436 98.546L70.8047 98.4251C70.7875 98.3711 70.7702 98.3171 70.7508 98.2631C70.7184 98.1659 70.6838 98.0709 70.6492 97.9737C70.6147 97.8765 70.578 97.7815 70.5412 97.6864C70.4678 97.492 70.3879 97.2998 70.308 97.1076C69.9948 96.3603 69.6427 95.6237 69.3188 94.8937C69.1447 94.511 68.9904 94.1195 68.8566 93.7209L68.8155 93.7792C68.7498 93.8786 68.6914 93.9825 68.6406 94.0902C68.6406 95.7901 66.9386 97.87 66.9386 97.87L65.2258 95.3754L63.7269 97.6799C63.5109 97.7944 63.2949 98.1875 63.1264 98.7469C63.0789 98.8981 63.0335 99.0623 62.9904 99.2372C62.9601 99.3538 62.932 99.477 62.9061 99.6001C62.891 99.6627 62.878 99.7253 62.8651 99.7901L62.8262 99.9867V100.017C62.8003 100.151 62.7744 100.289 62.7506 100.429C62.7269 100.57 62.6988 100.732 62.675 100.885C62.6577 100.985 62.6426 101.084 62.6297 101.183C62.5994 101.375 62.5735 101.57 62.5476 101.762C62.5325 101.874 62.5173 101.978 62.5044 102.097L62.4525 102.529C62.5627 102.883 62.6858 103.233 62.8132 103.576C62.8946 103.765 62.9422 103.966 62.9536 104.17C65.604 104.928 68.4135 104.928 71.0639 104.17C71.063 104.163 71.063 104.156 71.0639 104.149C71.024 103.955 71.0066 103.757 71.0121 103.559C71.0557 103.005 71.1278 102.453 71.2281 101.907C71.26 101.637 71.2737 101.366 71.2691 101.095V100.997C71.2626 100.915 71.2605 100.838 71.2583 100.76ZM71.2583 100.76C71.2583 100.674 71.2583 100.587 71.2432 100.501C71.2281 100.414 71.2302 100.339 71.2194 100.257C71.2086 100.175 71.2 100.093 71.1892 100.01C71.1784 99.9284 71.1633 99.8463 71.1482 99.7642C71.133 99.6821 71.1179 99.6001 71.1007 99.518C71.1007 99.4899 71.0899 99.464 71.0834 99.4359C71.0596 99.3279 71.0337 99.2199 71.0056 99.1098C70.9775 98.9996 70.9603 98.9348 70.9343 98.8484C70.9343 98.8095 70.9127 98.7707 70.8998 98.734C70.8868 98.6972 70.8631 98.6087 70.8436 98.546L70.8047 98.4251C70.7875 98.3711 70.7702 98.3171 70.7508 98.2631C70.7184 98.1659 70.6838 98.0709 70.6492 97.9737C70.6147 97.8765 70.578 97.7815 70.5412 97.6864C70.4678 97.492 70.3879 97.2998 70.308 97.1076C69.9948 96.3603 69.6427 95.6237 69.3188 94.8937C69.1447 94.511 68.9904 94.1195 68.8566 93.7209L68.8155 93.7792C68.7498 93.8786 68.6914 93.9825 68.6406 94.0902C68.6406 95.7901 66.9386 97.87 66.9386 97.87L65.2258 95.3754L63.7269 97.6799C63.5109 97.7944 63.2949 98.1875 63.1264 98.7469C63.0789 98.8981 63.0335 99.0623 62.9904 99.2372C62.9601 99.3538 62.932 99.477 62.9061 99.6001C62.891 99.6627 62.878 99.7253 62.8651 99.7901L62.8262 99.9867V100.017C62.8003 100.151 62.7744 100.289 62.7506 100.429C62.7269 100.57 62.6988 100.732 62.675 100.885C62.6577 100.985 62.6426 101.084 62.6297 101.183C62.5994 101.375 62.5735 101.57 62.5476 101.762C62.5325 101.874 62.5173 101.978 62.5044 102.097L62.4525 102.529C62.5627 102.883 62.6858 103.233 62.8132 103.576C62.8946 103.765 62.9422 103.966 62.9536 104.17C65.604 104.928 68.4135 104.928 71.0639 104.17C71.063 104.163 71.063 104.156 71.0639 104.149C71.024 103.955 71.0066 103.757 71.0121 103.559C71.0557 103.005 71.1278 102.453 71.2281 101.907C71.26 101.637 71.2737 101.366 71.2691 101.095V100.997C71.2626 100.915 71.2605 100.838 71.2583 100.76ZM71.2583 100.76C71.2583 100.674 71.2583 100.587 71.2432 100.501C71.2281 100.414 71.2302 100.339 71.2194 100.257C71.2086 100.175 71.2 100.093 71.1892 100.01C71.1784 99.9284 71.1633 99.8463 71.1482 99.7642C71.133 99.6821 71.1179 99.6001 71.1007 99.518C71.1007 99.4899 71.0899 99.464 71.0834 99.4359C71.0596 99.3279 71.0337 99.2199 71.0056 99.1098C70.9775 98.9996 70.9603 98.9348 70.9343 98.8484C70.9343 98.8095 70.9127 98.7707 70.8998 98.734C70.8868 98.6972 70.8631 98.6087 70.8436 98.546L70.8047 98.4251C70.7875 98.3711 70.7702 98.3171 70.7508 98.2631C70.7184 98.1659 70.6838 98.0709 70.6492 97.9737C70.6147 97.8765 70.578 97.7815 70.5412 97.6864C70.4678 97.492 70.3879 97.2998 70.308 97.1076C69.9948 96.3603 69.6427 95.6237 69.3188 94.8937C69.1447 94.511 68.9904 94.1195 68.8566 93.7209L68.8155 93.7792C68.7498 93.8786 68.6914 93.9825 68.6406 94.0902C68.6406 95.7901 66.9386 97.87 66.9386 97.87L65.2258 95.3754L63.7269 97.6799C63.5109 97.7944 63.2949 98.1875 63.1264 98.7469C63.0789 98.8981 63.0335 99.0623 62.9904 99.2372C62.9601 99.3538 62.932 99.477 62.9061 99.6001C62.891 99.6627 62.878 99.7253 62.8651 99.7901L62.8262 99.9867V100.017C62.8003 100.151 62.7744 100.289 62.7506 100.429C62.7269 100.57 62.6988 100.732 62.675 100.885C62.6577 100.985 62.6426 101.084 62.6297 101.183C62.5994 101.375 62.5735 101.57 62.5476 101.762C62.5325 101.874 62.5173 101.978 62.5044 102.097L62.4525 102.529C62.5627 102.883 62.6858 103.233 62.8132 103.576C62.8946 103.765 62.9422 103.966 62.9536 104.17C65.604 104.928 68.4135 104.928 71.0639 104.17C71.063 104.163 71.063 104.156 71.0639 104.149C71.024 103.955 71.0066 103.757 71.0121 103.559C71.0557 103.005 71.1278 102.453 71.2281 101.907C71.26 101.637 71.2737 101.366 71.2691 101.095V100.997C71.2626 100.915 71.2605 100.838 71.2583 100.76Z" fill="white"/>
<path opacity="0.1" d="M65.256 95.2311L65.1113 95.2117C64.8928 95.1821 64.6764 95.1388 64.4634 95.0821L64.3834 95.0605C63.8564 94.9114 63.2797 94.6436 63.1502 94.1728C63.1116 94.0212 63.1161 93.8619 63.1631 93.7127C63.2356 93.4557 63.3341 93.2068 63.4569 92.9697V92.9568C63.4731 92.9234 63.4911 92.891 63.5109 92.8596C63.6891 92.5112 63.9586 92.2178 64.2906 92.0107L64.0314 92.0518L61.837 92.4082L58.4352 92.9568C58.4352 92.9568 57.8304 92.8358 57.0075 95.1037C57.0075 95.1318 56.9881 95.1577 56.9794 95.1879C56.7807 95.743 56.5712 96.4363 56.3552 97.3024C56.2062 97.9029 56.0701 98.4925 55.9448 99.0649C55.9081 99.2377 55.8714 99.4083 55.8369 99.5768C56.2263 100.036 56.6455 100.469 57.0917 100.873L57.163 100.94C58.0371 101.731 59.003 102.415 60.04 102.976L60.081 102.998C60.7333 103.35 61.4122 103.65 62.1113 103.896L62.2949 103.961C62.3337 103.562 62.3769 103.119 62.4288 102.665C62.4288 102.62 62.4288 102.575 62.446 102.529L62.4979 102.097C62.5108 101.987 62.526 101.881 62.5411 101.763C62.567 101.57 62.5929 101.376 62.6232 101.184C62.6361 101.084 62.6512 100.985 62.6685 100.886C62.6923 100.732 62.7182 100.579 62.7441 100.43C62.77 100.281 62.7938 100.151 62.8197 100.017V99.9871L62.8586 99.7906C62.8715 99.7258 62.8845 99.6632 62.8996 99.6005C62.9255 99.4774 62.9536 99.3543 62.9839 99.2377C63.027 99.0627 63.0724 98.8986 63.1199 98.7474C63.2927 98.188 63.4936 97.7949 63.7204 97.6804L65.2193 95.3758L65.282 95.2786L65.31 95.2354L65.256 95.2311Z" fill="black"/>
<path opacity="0.1" d="M62.5281 79.9321C62.3121 80.2302 62.3294 80.6405 62.2322 81.012C62.0011 81.8565 61.0853 82.3857 60.8758 83.2367C60.7527 83.7335 60.8952 84.2605 60.811 84.7659C60.6577 85.6968 59.8067 86.3275 59.3315 87.1417C59.0906 87.5612 58.9478 88.0298 58.9138 88.5123C58.8797 88.9948 58.9553 89.4788 59.135 89.928C59.2461 90.1545 59.3379 90.39 59.4093 90.6321C59.4638 90.9927 59.4409 91.3608 59.3423 91.712C59.1803 92.4809 59.014 93.3276 59.3855 94.0209C59.6987 94.6062 60.3488 94.9496 61.0032 95.0576C61.6641 95.1323 62.3326 95.1017 62.9838 94.9669C63.6988 94.8568 64.431 94.7293 65.053 94.3622L62.7139 88.7163C62.4784 88.1461 62.2365 87.5564 62.2387 86.9387C62.2577 86.483 62.3564 86.0342 62.5303 85.6125C62.9831 84.3909 63.6405 83.2552 64.4741 82.254C64.8132 82.647 64.7873 83.2453 65.0703 83.6816C65.3203 84.0042 65.6532 84.2528 66.0336 84.4009C67.1419 84.9415 68.2806 85.4175 69.444 85.8264C69.517 85.8355 69.5866 85.8626 69.6466 85.9051C69.7067 85.9476 69.7553 86.0042 69.7882 86.07C69.8211 86.1358 69.8373 86.2087 69.8352 86.2823C69.8332 86.3558 69.8131 86.4277 69.7766 86.4916L68.8954 90.1288C68.701 90.9301 68.5304 91.8567 69.0293 92.5047C69.5282 93.1526 70.6535 93.4593 70.66 94.2952C70.6508 94.4275 70.6508 94.5603 70.66 94.6926C70.7183 95.0836 71.1827 95.2715 71.5779 95.2909C72.2268 95.3037 72.8591 95.0855 73.3619 94.6752C73.8648 94.265 74.2055 93.6893 74.3231 93.0511C74.5391 91.6213 73.5931 90.3038 73.1978 88.9107C72.5326 86.5672 73.4138 83.8177 72.1071 81.7593C71.0488 80.0898 69.12 79.6362 67.2885 79.4288C66.0033 79.2777 63.4331 78.7377 62.5281 79.9321Z" fill="black"/>
<path opacity="0.5" d="M62.5281 79.7163C62.3121 80.0143 62.3294 80.4247 62.2322 80.7962C62.0011 81.6407 61.0853 82.1699 60.8758 83.0209C60.7527 83.5176 60.8952 84.0446 60.811 84.5501C60.6577 85.481 59.8067 86.1116 59.3315 86.9259C59.0906 87.3454 58.9478 87.8139 58.9138 88.2965C58.8797 88.779 58.9553 89.263 59.135 89.7121C59.2461 89.9387 59.3379 90.1742 59.4093 90.4162C59.4638 90.7769 59.4409 91.145 59.3423 91.4962C59.1803 92.2651 59.014 93.1118 59.3855 93.8051C59.6987 94.3904 60.3488 94.7338 61.0032 94.8418C61.6641 94.9165 62.3326 94.8859 62.9838 94.7511C63.6988 94.6409 64.431 94.5135 65.053 94.1463L62.7139 88.5004C62.4784 87.9302 62.2365 87.3406 62.2387 86.7229C62.2577 86.2672 62.3564 85.8184 62.5303 85.3967C62.9831 84.1751 63.6405 83.0394 64.4741 82.0381C64.8132 82.4312 64.7873 83.0295 65.0703 83.4658C65.3203 83.7884 65.6532 84.037 66.0336 84.185C67.1419 84.7257 68.2806 85.2017 69.444 85.6105C69.517 85.6197 69.5866 85.6467 69.6466 85.6892C69.7067 85.7317 69.7553 85.7884 69.7882 85.8542C69.8211 85.92 69.8373 85.9929 69.8352 86.0665C69.8332 86.14 69.8131 86.2119 69.7766 86.2758L68.8954 89.913C68.701 90.7143 68.5304 91.6409 69.0293 92.2888C69.5282 92.9368 70.6535 93.2435 70.66 94.0794C70.6508 94.2117 70.6508 94.3445 70.66 94.4768C70.7183 94.8677 71.1827 95.0556 71.5779 95.0751C72.2268 95.0879 72.8591 94.8697 73.3619 94.4594C73.8648 94.0491 74.2055 93.4735 74.3231 92.8353C74.5391 91.4055 73.5931 90.0879 73.1978 88.6948C72.5326 86.3514 73.4138 83.6019 72.1071 81.5435C71.0488 79.8739 69.12 79.4204 67.2885 79.213C66.0033 79.0618 63.4331 78.5219 62.5281 79.7163Z" fill="#493545"/>
</g>
<g opacity="0.5">
<path opacity="0.5" d="M61.1998 137.568C61.2192 138.292 60.7268 138.909 60.3358 139.512C59.9449 140.115 59.6555 140.938 60.0572 141.54C60.189 141.739 60.3877 141.892 60.5065 142.1C60.9233 142.823 60.23 143.655 59.9773 144.45C59.6857 145.367 60.0248 146.393 60.6382 147.139C61.2516 147.884 62.0983 148.387 62.9536 148.83C64.7519 149.788 66.6821 150.475 68.6816 150.869C69.7269 151.061 70.8414 151.147 71.822 150.728C72.5024 150.416 73.0581 149.885 73.4001 149.219C73.742 148.553 73.8503 147.791 73.7076 147.056C73.4592 145.92 72.6276 145.007 72.1957 143.933C72.0948 143.723 72.0459 143.491 72.0531 143.257C72.0898 142.849 72.403 142.529 72.6471 142.199C73.2591 141.299 73.5091 140.202 73.3469 139.125C73.1763 138.049 72.7643 137.026 72.1417 136.132C71.9192 135.761 71.6255 135.438 71.2777 135.182C70.8069 134.864 70.2237 134.773 69.6621 134.693C67.3165 134.365 64.8867 134.007 62.5216 133.886C61.7743 133.847 61.2257 133.994 60.8564 134.693C60.2926 135.737 61.1717 136.521 61.1998 137.568Z" fill="#444176"/>
<path opacity="0.5" d="M73.2799 144.914L68.8284 151.244L64.4827 150.866C64.4827 150.866 64.3402 152.378 62.5928 146.899C61.6166 143.834 63.6015 144.899 63.9924 144.05C64.3834 143.201 65.0724 142.452 65.1307 141.825C65.2689 140.482 64.8607 139.717 64.8607 139.717L69.5843 139.151C69.3712 139.788 69.3442 140.472 69.5066 141.123C70.0984 143.581 73.2799 144.914 73.2799 144.914Z" fill="#C77485"/>
<path opacity="0.5" d="M66.5843 139.517C69.6857 139.517 72.1999 137.534 72.1999 135.089C72.1999 132.643 69.6857 130.661 66.5843 130.661C63.4828 130.661 60.9686 132.643 60.9686 135.089C60.9686 137.534 63.4828 139.517 66.5843 139.517Z" fill="#444176"/>
<path opacity="0.1" d="M69.5044 141.121C68.8883 141.588 68.1672 141.896 67.4042 142.019C66.6413 142.141 65.8598 142.075 65.1285 141.825C65.2667 140.482 64.8585 139.717 64.8585 139.717L69.5822 139.151C69.3694 139.787 69.3425 140.471 69.5044 141.121Z" fill="black"/>
<path opacity="0.5" d="M66.6556 141.891C69.2644 141.891 71.3792 139.776 71.3792 137.167C71.3792 134.558 69.2644 132.443 66.6556 132.443C64.0468 132.443 61.9319 134.558 61.9319 137.167C61.9319 139.776 64.0468 141.891 66.6556 141.891Z" fill="#C77485"/>
<path opacity="0.1" d="M72.8133 145.631L72.7032 145.199L72.6081 144.819L72.4677 144.257L72.4418 144.154L72.4202 144.067C72.4202 144.067 72.5325 143.728 71.7917 143.838L71.6535 143.862C71.5368 143.886 71.4008 143.918 71.2453 143.962L71.1049 144.005L70.9191 144.063C70.3311 144.255 69.7947 144.578 69.3511 145.009C69.1519 145.2 68.9758 145.413 68.8262 145.644C68.8111 145.666 68.8003 145.685 68.7873 145.702C68.7362 145.783 68.6907 145.866 68.6513 145.953C68.6513 147.655 66.9493 149.733 66.9493 149.733L65.2884 147.333L65.256 147.286L64.8607 146.711L64.7203 146.525L64.6728 146.461L63.8088 145.301L63.5929 145.011L63.5216 144.914L63.4158 144.774L63.1674 144.443L62.1954 145.011L60.8995 145.767L60.1436 150.681V150.817L60.1673 151.223L60.325 153.893V153.929L60.0485 155.035L60.0896 155.057C60.7419 155.409 61.4207 155.709 62.1198 155.955L62.3034 156.02C62.5194 156.091 62.7224 156.156 62.9341 156.219C62.9419 156.251 62.9477 156.283 62.9514 156.316C62.9514 156.286 62.9514 156.253 62.9514 156.223C65.6018 156.98 68.4113 156.98 71.0617 156.223L71.1114 156.208C71.2345 156.173 71.3597 156.137 71.4807 156.096L71.6772 156.033C72.2102 155.855 72.7323 155.646 73.241 155.407L73.4224 151.54L73.552 148.752V148.592L72.8133 145.631Z" fill="black"/>
<path opacity="0.5" d="M71.2583 152.813C71.2583 152.726 71.2583 152.64 71.2431 152.553C71.228 152.467 71.2302 152.391 71.2194 152.309C71.2086 152.227 71.1999 152.145 71.1891 152.063C71.1783 151.981 71.1632 151.899 71.1481 151.817C71.133 151.735 71.1179 151.653 71.1006 151.571C71.1006 151.543 71.0898 151.517 71.0833 151.489C71.0596 151.381 71.0336 151.273 71.0056 151.162C70.9775 151.052 70.9602 150.988 70.9343 150.901C70.9343 150.862 70.9127 150.823 70.8997 150.787C70.8868 150.75 70.863 150.661 70.8436 150.599L70.8047 150.478C70.7874 150.424 70.7701 150.37 70.7507 150.316C70.7183 150.219 70.6837 150.124 70.6492 150.026C70.6146 149.929 70.5779 149.834 70.5412 149.739C70.4677 149.545 70.3878 149.353 70.3079 149.16C69.9947 148.413 69.6427 147.676 69.3187 146.946C69.1446 146.564 68.9903 146.172 68.8565 145.774L68.8154 145.832C68.7498 145.931 68.6913 146.035 68.6405 146.143C68.6405 147.843 66.9385 149.923 66.9385 149.923L65.2258 147.428L63.7268 149.733C63.5108 149.847 63.2948 150.24 63.1264 150.8C63.0788 150.951 63.0335 151.115 62.9903 151.29C62.9601 151.407 62.932 151.53 62.9061 151.653C62.8909 151.715 62.878 151.778 62.865 151.843L62.8261 152.039V152.07C62.8002 152.204 62.7743 152.342 62.7505 152.482C62.7268 152.623 62.6987 152.785 62.675 152.938C62.6577 153.037 62.6426 153.137 62.6296 153.236C62.5994 153.428 62.5734 153.623 62.5475 153.815C62.5324 153.927 62.5173 154.031 62.5043 154.15L62.4525 154.582C62.5626 154.936 62.6857 155.286 62.8132 155.629C62.8946 155.817 62.9421 156.018 62.9536 156.223C65.604 156.98 68.4135 156.98 71.0639 156.223C71.0629 156.216 71.0629 156.209 71.0639 156.201C71.024 156.008 71.0066 155.81 71.012 155.612C71.0556 155.058 71.1277 154.506 71.228 153.959C71.2599 153.69 71.2736 153.419 71.2691 153.147V153.05C71.2626 152.968 71.2604 152.89 71.2583 152.813ZM71.2583 152.813C71.2583 152.726 71.2583 152.64 71.2431 152.553C71.228 152.467 71.2302 152.391 71.2194 152.309C71.2086 152.227 71.1999 152.145 71.1891 152.063C71.1783 151.981 71.1632 151.899 71.1481 151.817C71.133 151.735 71.1179 151.653 71.1006 151.571C71.1006 151.543 71.0898 151.517 71.0833 151.489C71.0596 151.381 71.0336 151.273 71.0056 151.162C70.9775 151.052 70.9602 150.988 70.9343 150.901C70.9343 150.862 70.9127 150.823 70.8997 150.787C70.8868 150.75 70.863 150.661 70.8436 150.599L70.8047 150.478C70.7874 150.424 70.7701 150.37 70.7507 150.316C70.7183 150.219 70.6837 150.124 70.6492 150.026C70.6146 149.929 70.5779 149.834 70.5412 149.739C70.4677 149.545 70.3878 149.353 70.3079 149.16C69.9947 148.413 69.6427 147.676 69.3187 146.946C69.1446 146.564 68.9903 146.172 68.8565 145.774L68.8154 145.832C68.7498 145.931 68.6913 146.035 68.6405 146.143C68.6405 147.843 66.9385 149.923 66.9385 149.923L65.2258 147.428L63.7268 149.733C63.5108 149.847 63.2948 150.24 63.1264 150.8C63.0788 150.951 63.0335 151.115 62.9903 151.29C62.9601 151.407 62.932 151.53 62.9061 151.653C62.8909 151.715 62.878 151.778 62.865 151.843L62.8261 152.039V152.07C62.8002 152.204 62.7743 152.342 62.7505 152.482C62.7268 152.623 62.6987 152.785 62.675 152.938C62.6577 153.037 62.6426 153.137 62.6296 153.236C62.5994 153.428 62.5734 153.623 62.5475 153.815C62.5324 153.927 62.5173 154.031 62.5043 154.15L62.4525 154.582C62.5626 154.936 62.6857 155.286 62.8132 155.629C62.8946 155.817 62.9421 156.018 62.9536 156.223C65.604 156.98 68.4135 156.98 71.0639 156.223C71.0629 156.216 71.0629 156.209 71.0639 156.201C71.024 156.008 71.0066 155.81 71.012 155.612C71.0556 155.058 71.1277 154.506 71.228 153.959C71.2599 153.69 71.2736 153.419 71.2691 153.147V153.05C71.2626 152.968 71.2604 152.89 71.2583 152.813ZM71.2583 152.813C71.2583 152.726 71.2583 152.64 71.2431 152.553C71.228 152.467 71.2302 152.391 71.2194 152.309C71.2086 152.227 71.1999 152.145 71.1891 152.063C71.1783 151.981 71.1632 151.899 71.1481 151.817C71.133 151.735 71.1179 151.653 71.1006 151.571C71.1006 151.543 71.0898 151.517 71.0833 151.489C71.0596 151.381 71.0336 151.273 71.0056 151.162C70.9775 151.052 70.9602 150.988 70.9343 150.901C70.9343 150.862 70.9127 150.823 70.8997 150.787C70.8868 150.75 70.863 150.661 70.8436 150.599L70.8047 150.478C70.7874 150.424 70.7701 150.37 70.7507 150.316C70.7183 150.219 70.6837 150.124 70.6492 150.026C70.6146 149.929 70.5779 149.834 70.5412 149.739C70.4677 149.545 70.3878 149.353 70.3079 149.16C69.9947 148.413 69.6427 147.676 69.3187 146.946C69.1446 146.564 68.9903 146.172 68.8565 145.774L68.8154 145.832C68.7498 145.931 68.6913 146.035 68.6405 146.143C68.6405 147.843 66.9385 149.923 66.9385 149.923L65.2258 147.428L63.7268 149.733C63.5108 149.847 63.2948 150.24 63.1264 150.8C63.0788 150.951 63.0335 151.115 62.9903 151.29C62.9601 151.407 62.932 151.53 62.9061 151.653C62.8909 151.715 62.878 151.778 62.865 151.843L62.8261 152.039V152.07C62.8002 152.204 62.7743 152.342 62.7505 152.482C62.7268 152.623 62.6987 152.785 62.675 152.938C62.6577 153.037 62.6426 153.137 62.6296 153.236C62.5994 153.428 62.5734 153.623 62.5475 153.815C62.5324 153.927 62.5173 154.031 62.5043 154.15L62.4525 154.582C62.5626 154.936 62.6857 155.286 62.8132 155.629C62.8946 155.817 62.9421 156.018 62.9536 156.223C65.604 156.98 68.4135 156.98 71.0639 156.223C71.0629 156.216 71.0629 156.209 71.0639 156.201C71.024 156.008 71.0066 155.81 71.012 155.612C71.0556 155.058 71.1277 154.506 71.228 153.959C71.2599 153.69 71.2736 153.419 71.2691 153.147V153.05C71.2626 152.968 71.2604 152.89 71.2583 152.813ZM73.5477 148.759L72.7766 145.681L72.6449 145.154L72.6082 145.009L72.4203 144.257C72.4207 144.251 72.4207 144.244 72.4203 144.238C72.4247 144.205 72.4195 144.171 72.4051 144.141C72.3771 144.085 72.3058 144.026 72.1395 144.011C72.0762 144.007 72.0127 144.007 71.9494 144.011C71.7618 144.03 71.576 144.064 71.3943 144.115C71.3058 144.139 71.2107 144.165 71.1092 144.197L70.9235 144.255H70.9062C70.4087 144.418 69.9469 144.675 69.5455 145.011C69.2803 145.232 69.0476 145.49 68.8543 145.776L68.8133 145.834C68.7476 145.933 68.6892 146.037 68.6383 146.145C68.6383 147.845 66.9364 149.925 66.9364 149.925L65.2236 147.43L65.1264 147.29L65.1091 147.266L64.8607 146.901L64.6728 146.651L64.6231 146.586L63.7376 145.404L63.4568 145.022V145.009L63.3596 144.877L63.1739 144.631L62.5259 145.009L60.906 145.953L60.1587 150.815V150.867L60.1803 151.221L60.3401 153.927V154.08L60.0961 155.055C60.7484 155.406 61.4272 155.707 62.1263 155.953L62.3099 156.018C62.5259 156.089 62.7289 156.154 62.9406 156.217C62.9485 156.249 62.9542 156.281 62.9579 156.314C62.9579 156.284 62.9579 156.251 62.9579 156.221C65.6083 156.978 68.4178 156.978 71.0682 156.221L71.1179 156.206C71.241 156.171 71.3663 156.134 71.4872 156.093L71.6838 156.031C72.2167 155.853 72.7388 155.643 73.2475 155.404L73.4268 151.543L73.5564 148.784L73.5477 148.759ZM62.9255 156.217C62.9333 156.249 62.9391 156.281 62.9428 156.314C62.9428 156.284 62.9428 156.251 62.9428 156.221L62.9255 156.217ZM71.2583 152.813C71.2583 152.726 71.2583 152.64 71.2431 152.553C71.228 152.467 71.2302 152.391 71.2194 152.309C71.2086 152.227 71.1999 152.145 71.1891 152.063C71.1783 151.981 71.1632 151.899 71.1481 151.817C71.133 151.735 71.1179 151.653 71.1006 151.571C71.1006 151.543 71.0898 151.517 71.0833 151.489C71.0596 151.381 71.0336 151.273 71.0056 151.162C70.9775 151.052 70.9602 150.988 70.9343 150.901C70.9343 150.862 70.9127 150.823 70.8997 150.787C70.8868 150.75 70.863 150.661 70.8436 150.599L70.8047 150.478C70.7874 150.424 70.7701 150.37 70.7507 150.316C70.7183 150.219 70.6837 150.124 70.6492 150.026C70.6146 149.929 70.5779 149.834 70.5412 149.739C70.4677 149.545 70.3878 149.353 70.3079 149.16C69.9947 148.413 69.6427 147.676 69.3187 146.946C69.1446 146.564 68.9903 146.172 68.8565 145.774L68.8154 145.832C68.7498 145.931 68.6913 146.035 68.6405 146.143C68.6405 147.843 66.9385 149.923 66.9385 149.923L65.2258 147.428L63.7268 149.733C63.5108 149.847 63.2948 150.24 63.1264 150.8C63.0788 150.951 63.0335 151.115 62.9903 151.29C62.9601 151.407 62.932 151.53 62.9061 151.653C62.8909 151.715 62.878 151.778 62.865 151.843L62.8261 152.039V152.07C62.8002 152.204 62.7743 152.342 62.7505 152.482C62.7268 152.623 62.6987 152.785 62.675 152.938C62.6577 153.037 62.6426 153.137 62.6296 153.236C62.5994 153.428 62.5734 153.623 62.5475 153.815C62.5324 153.927 62.5173 154.031 62.5043 154.15L62.4525 154.582C62.5626 154.936 62.6857 155.286 62.8132 155.629C62.8946 155.817 62.9421 156.018 62.9536 156.223C65.604 156.98 68.4135 156.98 71.0639 156.223C71.0629 156.216 71.0629 156.209 71.0639 156.201C71.024 156.008 71.0066 155.81 71.012 155.612C71.0556 155.058 71.1277 154.506 71.228 153.959C71.2599 153.69 71.2736 153.419 71.2691 153.147V153.05C71.2626 152.968 71.2604 152.89 71.2583 152.813ZM71.2583 152.813C71.2583 152.726 71.2583 152.64 71.2431 152.553C71.228 152.467 71.2302 152.391 71.2194 152.309C71.2086 152.227 71.1999 152.145 71.1891 152.063C71.1783 151.981 71.1632 151.899 71.1481 151.817C71.133 151.735 71.1179 151.653 71.1006 151.571C71.1006 151.543 71.0898 151.517 71.0833 151.489C71.0596 151.381 71.0336 151.273 71.0056 151.162C70.9775 151.052 70.9602 150.988 70.9343 150.901C70.9343 150.862 70.9127 150.823 70.8997 150.787C70.8868 150.75 70.863 150.661 70.8436 150.599L70.8047 150.478C70.7874 150.424 70.7701 150.37 70.7507 150.316C70.7183 150.219 70.6837 150.124 70.6492 150.026C70.6146 149.929 70.5779 149.834 70.5412 149.739C70.4677 149.545 70.3878 149.353 70.3079 149.16C69.9947 148.413 69.6427 147.676 69.3187 146.946C69.1446 146.564 68.9903 146.172 68.8565 145.774L68.8154 145.832C68.7498 145.931 68.6913 146.035 68.6405 146.143C68.6405 147.843 66.9385 149.923 66.9385 149.923L65.2258 147.428L63.7268 149.733C63.5108 149.847 63.2948 150.24 63.1264 150.8C63.0788 150.951 63.0335 151.115 62.9903 151.29C62.9601 151.407 62.932 151.53 62.9061 151.653C62.8909 151.715 62.878 151.778 62.865 151.843L62.8261 152.039V152.07C62.8002 152.204 62.7743 152.342 62.7505 152.482C62.7268 152.623 62.6987 152.785 62.675 152.938C62.6577 153.037 62.6426 153.137 62.6296 153.236C62.5994 153.428 62.5734 153.623 62.5475 153.815C62.5324 153.927 62.5173 154.031 62.5043 154.15L62.4525 154.582C62.5626 154.936 62.6857 155.286 62.8132 155.629C62.8946 155.817 62.9421 156.018 62.9536 156.223C65.604 156.98 68.4135 156.98 71.0639 156.223C71.0629 156.216 71.0629 156.209 71.0639 156.201C71.024 156.008 71.0066 155.81 71.012 155.612C71.0556 155.058 71.1277 154.506 71.228 153.959C71.2599 153.69 71.2736 153.419 71.2691 153.147V153.05C71.2626 152.968 71.2604 152.89 71.2583 152.813ZM71.2583 152.813C71.2583 152.726 71.2583 152.64 71.2431 152.553C71.228 152.467 71.2302 152.391 71.2194 152.309C71.2086 152.227 71.1999 152.145 71.1891 152.063C71.1783 151.981 71.1632 151.899 71.1481 151.817C71.133 151.735 71.1179 151.653 71.1006 151.571C71.1006 151.543 71.0898 151.517 71.0833 151.489C71.0596 151.381 71.0336 151.273 71.0056 151.162C70.9775 151.052 70.9602 150.988 70.9343 150.901C70.9343 150.862 70.9127 150.823 70.8997 150.787C70.8868 150.75 70.863 150.661 70.8436 150.599L70.8047 150.478C70.7874 150.424 70.7701 150.37 70.7507 150.316C70.7183 150.219 70.6837 150.124 70.6492 150.026C70.6146 149.929 70.5779 149.834 70.5412 149.739C70.4677 149.545 70.3878 149.353 70.3079 149.16C69.9947 148.413 69.6427 147.676 69.3187 146.946C69.1446 146.564 68.9903 146.172 68.8565 145.774L68.8154 145.832C68.7498 145.931 68.6913 146.035 68.6405 146.143C68.6405 147.843 66.9385 149.923 66.9385 149.923L65.2258 147.428L63.7268 149.733C63.5108 149.847 63.2948 150.24 63.1264 150.8C63.0788 150.951 63.0335 151.115 62.9903 151.29C62.9601 151.407 62.932 151.53 62.9061 151.653C62.8909 151.715 62.878 151.778 62.865 151.843L62.8261 152.039V152.07C62.8002 152.204 62.7743 152.342 62.7505 152.482C62.7268 152.623 62.6987 152.785 62.675 152.938C62.6577 153.037 62.6426 153.137 62.6296 153.236C62.5994 153.428 62.5734 153.623 62.5475 153.815C62.5324 153.927 62.5173 154.031 62.5043 154.15L62.4525 154.582C62.5626 154.936 62.6857 155.286 62.8132 155.629C62.8946 155.817 62.9421 156.018 62.9536 156.223C65.604 156.98 68.4135 156.98 71.0639 156.223C71.0629 156.216 71.0629 156.209 71.0639 156.201C71.024 156.008 71.0066 155.81 71.012 155.612C71.0556 155.058 71.1277 154.506 71.228 153.959C71.2599 153.69 71.2736 153.419 71.2691 153.147V153.05C71.2626 152.968 71.2604 152.89 71.2583 152.813ZM71.2583 152.813C71.2583 152.726 71.2583 152.64 71.2431 152.553C71.228 152.467 71.2302 152.391 71.2194 152.309C71.2086 152.227 71.1999 152.145 71.1891 152.063C71.1783 151.981 71.1632 151.899 71.1481 151.817C71.133 151.735 71.1179 151.653 71.1006 151.571C71.1006 151.543 71.0898 151.517 71.0833 151.489C71.0596 151.381 71.0336 151.273 71.0056 151.162C70.9775 151.052 70.9602 150.988 70.9343 150.901C70.9343 150.862 70.9127 150.823 70.8997 150.787C70.8868 150.75 70.863 150.661 70.8436 150.599L70.8047 150.478C70.7874 150.424 70.7701 150.37 70.7507 150.316C70.7183 150.219 70.6837 150.124 70.6492 150.026C70.6146 149.929 70.5779 149.834 70.5412 149.739C70.4677 149.545 70.3878 149.353 70.3079 149.16C69.9947 148.413 69.6427 147.676 69.3187 146.946C69.1446 146.564 68.9903 146.172 68.8565 145.774L68.8154 145.832C68.7498 145.931 68.6913 146.035 68.6405 146.143C68.6405 147.843 66.9385 149.923 66.9385 149.923L65.2258 147.428L63.7268 149.733C63.5108 149.847 63.2948 150.24 63.1264 150.8C63.0788 150.951 63.0335 151.115 62.9903 151.29C62.9601 151.407 62.932 151.53 62.9061 151.653C62.8909 151.715 62.878 151.778 62.865 151.843L62.8261 152.039V152.07C62.8002 152.204 62.7743 152.342 62.7505 152.482C62.7268 152.623 62.6987 152.785 62.675 152.938C62.6577 153.037 62.6426 153.137 62.6296 153.236C62.5994 153.428 62.5734 153.623 62.5475 153.815C62.5324 153.927 62.5173 154.031 62.5043 154.15L62.4525 154.582C62.5626 154.936 62.6857 155.286 62.8132 155.629C62.8946 155.817 62.9421 156.018 62.9536 156.223C65.604 156.98 68.4135 156.98 71.0639 156.223C71.0629 156.216 71.0629 156.209 71.0639 156.201C71.024 156.008 71.0066 155.81 71.012 155.612C71.0556 155.058 71.1277 154.506 71.228 153.959C71.2599 153.69 71.2736 153.419 71.2691 153.147V153.05C71.2626 152.968 71.2604 152.89 71.2583 152.813ZM71.2583 152.813C71.2583 152.726 71.2583 152.64 71.2431 152.553C71.228 152.467 71.2302 152.391 71.2194 152.309C71.2086 152.227 71.1999 152.145 71.1891 152.063C71.1783 151.981 71.1632 151.899 71.1481 151.817C71.133 151.735 71.1179 151.653 71.1006 151.571C71.1006 151.543 71.0898 151.517 71.0833 151.489C71.0596 151.381 71.0336 151.273 71.0056 151.162C70.9775 151.052 70.9602 150.988 70.9343 150.901C70.9343 150.862 70.9127 150.823 70.8997 150.787C70.8868 150.75 70.863 150.661 70.8436 150.599L70.8047 150.478C70.7874 150.424 70.7701 150.37 70.7507 150.316C70.7183 150.219 70.6837 150.124 70.6492 150.026C70.6146 149.929 70.5779 149.834 70.5412 149.739C70.4677 149.545 70.3878 149.353 70.3079 149.16C69.9947 148.413 69.6427 147.676 69.3187 146.946C69.1446 146.564 68.9903 146.172 68.8565 145.774L68.8154 145.832C68.7498 145.931 68.6913 146.035 68.6405 146.143C68.6405 147.843 66.9385 149.923 66.9385 149.923L65.2258 147.428L63.7268 149.733C63.5108 149.847 63.2948 150.24 63.1264 150.8C63.0788 150.951 63.0335 151.115 62.9903 151.29C62.9601 151.407 62.932 151.53 62.9061 151.653C62.8909 151.715 62.878 151.778 62.865 151.843L62.8261 152.039V152.07C62.8002 152.204 62.7743 152.342 62.7505 152.482C62.7268 152.623 62.6987 152.785 62.675 152.938C62.6577 153.037 62.6426 153.137 62.6296 153.236C62.5994 153.428 62.5734 153.623 62.5475 153.815C62.5324 153.927 62.5173 154.031 62.5043 154.15L62.4525 154.582C62.5626 154.936 62.6857 155.286 62.8132 155.629C62.8946 155.817 62.9421 156.018 62.9536 156.223C65.604 156.98 68.4135 156.98 71.0639 156.223C71.0629 156.216 71.0629 156.209 71.0639 156.201C71.024 156.008 71.0066 155.81 71.012 155.612C71.0556 155.058 71.1277 154.506 71.228 153.959C71.2599 153.69 71.2736 153.419 71.2691 153.147V153.05C71.2626 152.968 71.2604 152.89 71.2583 152.813ZM71.2583 152.813C71.2583 152.726 71.2583 152.64 71.2431 152.553C71.228 152.467 71.2302 152.391 71.2194 152.309C71.2086 152.227 71.1999 152.145 71.1891 152.063C71.1783 151.981 71.1632 151.899 71.1481 151.817C71.133 151.735 71.1179 151.653 71.1006 151.571C71.1006 151.543 71.0898 151.517 71.0833 151.489C71.0596 151.381 71.0336 151.273 71.0056 151.162C70.9775 151.052 70.9602 150.988 70.9343 150.901C70.9343 150.862 70.9127 150.823 70.8997 150.787C70.8868 150.75 70.863 150.661 70.8436 150.599L70.8047 150.478C70.7874 150.424 70.7701 150.37 70.7507 150.316C70.7183 150.219 70.6837 150.124 70.6492 150.026C70.6146 149.929 70.5779 149.834 70.5412 149.739C70.4677 149.545 70.3878 149.353 70.3079 149.16C69.9947 148.413 69.6427 147.676 69.3187 146.946C69.1446 146.564 68.9903 146.172 68.8565 145.774L68.8154 145.832C68.7498 145.931 68.6913 146.035 68.6405 146.143C68.6405 147.843 66.9385 149.923 66.9385 149.923L65.2258 147.428L63.7268 149.733C63.5108 149.847 63.2948 150.24 63.1264 150.8C63.0788 150.951 63.0335 151.115 62.9903 151.29C62.9601 151.407 62.932 151.53 62.9061 151.653C62.8909 151.715 62.878 151.778 62.865 151.843L62.8261 152.039V152.07C62.8002 152.204 62.7743 152.342 62.7505 152.482C62.7268 152.623 62.6987 152.785 62.675 152.938C62.6577 153.037 62.6426 153.137 62.6296 153.236C62.5994 153.428 62.5734 153.623 62.5475 153.815C62.5324 153.927 62.5173 154.031 62.5043 154.15L62.4525 154.582C62.5626 154.936 62.6857 155.286 62.8132 155.629C62.8946 155.817 62.9421 156.018 62.9536 156.223C65.604 156.98 68.4135 156.98 71.0639 156.223C71.0629 156.216 71.0629 156.209 71.0639 156.201C71.024 156.008 71.0066 155.81 71.012 155.612C71.0556 155.058 71.1277 154.506 71.228 153.959C71.2599 153.69 71.2736 153.419 71.2691 153.147V153.05C71.2626 152.968 71.2604 152.89 71.2583 152.813ZM71.2583 152.813C71.2583 152.726 71.2583 152.64 71.2431 152.553C71.228 152.467 71.2302 152.391 71.2194 152.309C71.2086 152.227 71.1999 152.145 71.1891 152.063C71.1783 151.981 71.1632 151.899 71.1481 151.817C71.133 151.735 71.1179 151.653 71.1006 151.571C71.1006 151.543 71.0898 151.517 71.0833 151.489C71.0596 151.381 71.0336 151.273 71.0056 151.162C70.9775 151.052 70.9602 150.988 70.9343 150.901C70.9343 150.862 70.9127 150.823 70.8997 150.787C70.8868 150.75 70.863 150.661 70.8436 150.599L70.8047 150.478C70.7874 150.424 70.7701 150.37 70.7507 150.316C70.7183 150.219 70.6837 150.124 70.6492 150.026C70.6146 149.929 70.5779 149.834 70.5412 149.739C70.4677 149.545 70.3878 149.353 70.3079 149.16C69.9947 148.413 69.6427 147.676 69.3187 146.946C69.1446 146.564 68.9903 146.172 68.8565 145.774L68.8154 145.832C68.7498 145.931 68.6913 146.035 68.6405 146.143C68.6405 147.843 66.9385 149.923 66.9385 149.923L65.2258 147.428L63.7268 149.733C63.5108 149.847 63.2948 150.24 63.1264 150.8C63.0788 150.951 63.0335 151.115 62.9903 151.29C62.9601 151.407 62.932 151.53 62.9061 151.653C62.8909 151.715 62.878 151.778 62.865 151.843L62.8261 152.039V152.07C62.8002 152.204 62.7743 152.342 62.7505 152.482C62.7268 152.623 62.6987 152.785 62.675 152.938C62.6577 153.037 62.6426 153.137 62.6296 153.236C62.5994 153.428 62.5734 153.623 62.5475 153.815C62.5324 153.927 62.5173 154.031 62.5043 154.15L62.4525 154.582C62.5626 154.936 62.6857 155.286 62.8132 155.629C62.8946 155.817 62.9421 156.018 62.9536 156.223C65.604 156.98 68.4135 156.98 71.0639 156.223C71.0629 156.216 71.0629 156.209 71.0639 156.201C71.024 156.008 71.0066 155.81 71.012 155.612C71.0556 155.058 71.1277 154.506 71.228 153.959C71.2599 153.69 71.2736 153.419 71.2691 153.147V153.05C71.2626 152.968 71.2604 152.89 71.2583 152.813ZM71.2583 152.813C71.2583 152.726 71.2583 152.64 71.2431 152.553C71.228 152.467 71.2302 152.391 71.2194 152.309C71.2086 152.227 71.1999 152.145 71.1891 152.063C71.1783 151.981 71.1632 151.899 71.1481 151.817C71.133 151.735 71.1179 151.653 71.1006 151.571C71.1006 151.543 71.0898 151.517 71.0833 151.489C71.0596 151.381 71.0336 151.273 71.0056 151.162C70.9775 151.052 70.9602 150.988 70.9343 150.901C70.9343 150.862 70.9127 150.823 70.8997 150.787C70.8868 150.75 70.863 150.661 70.8436 150.599L70.8047 150.478C70.7874 150.424 70.7701 150.37 70.7507 150.316C70.7183 150.219 70.6837 150.124 70.6492 150.026C70.6146 149.929 70.5779 149.834 70.5412 149.739C70.4677 149.545 70.3878 149.353 70.3079 149.16C69.9947 148.413 69.6427 147.676 69.3187 146.946C69.1446 146.564 68.9903 146.172 68.8565 145.774L68.8154 145.832C68.7498 145.931 68.6913 146.035 68.6405 146.143C68.6405 147.843 66.9385 149.923 66.9385 149.923L65.2258 147.428L63.7268 149.733C63.5108 149.847 63.2948 150.24 63.1264 150.8C63.0788 150.951 63.0335 151.115 62.9903 151.29C62.9601 151.407 62.932 151.53 62.9061 151.653C62.8909 151.715 62.878 151.778 62.865 151.843L62.8261 152.039V152.07C62.8002 152.204 62.7743 152.342 62.7505 152.482C62.7268 152.623 62.6987 152.785 62.675 152.938C62.6577 153.037 62.6426 153.137 62.6296 153.236C62.5994 153.428 62.5734 153.623 62.5475 153.815C62.5324 153.927 62.5173 154.031 62.5043 154.15L62.4525 154.582C62.5626 154.936 62.6857 155.286 62.8132 155.629C62.8946 155.817 62.9421 156.018 62.9536 156.223C65.604 156.98 68.4135 156.98 71.0639 156.223C71.0629 156.216 71.0629 156.209 71.0639 156.201C71.024 156.008 71.0066 155.81 71.012 155.612C71.0556 155.058 71.1277 154.506 71.228 153.959C71.2599 153.69 71.2736 153.419 71.2691 153.147V153.05C71.2626 152.968 71.2604 152.89 71.2583 152.813Z" fill="#444176"/>
<path opacity="0.1" d="M65.256 147.284L65.1113 147.264C64.8928 147.235 64.6764 147.192 64.4633 147.135L64.3834 147.113C63.8564 146.964 63.2797 146.696 63.1501 146.226C63.1115 146.074 63.116 145.915 63.1631 145.765C63.2356 145.508 63.334 145.26 63.4568 145.022V145.009C63.473 144.976 63.4911 144.944 63.5108 144.912C63.689 144.564 63.9585 144.271 64.2905 144.063L64.0313 144.105L61.8369 144.461L58.4351 145.009C58.4351 145.009 57.8304 144.889 57.0074 147.156C57.0074 147.184 56.988 147.21 56.9794 147.241C56.7807 147.796 56.5711 148.489 56.3552 149.355C56.2061 149.956 56.0701 150.545 55.9448 151.118C55.9081 151.29 55.8713 151.461 55.8368 151.629C56.2262 152.089 56.6454 152.521 57.0917 152.925L57.1629 152.992C58.037 153.784 59.0029 154.468 60.0399 155.029L60.0809 155.051C60.7333 155.403 61.4121 155.703 62.1112 155.949L62.2948 156.014C62.3337 155.614 62.3769 155.172 62.4287 154.718C62.4287 154.673 62.4287 154.627 62.446 154.582L62.4978 154.15C62.5108 154.04 62.5259 153.934 62.541 153.815C62.5669 153.623 62.5929 153.429 62.6231 153.236C62.636 153.137 62.6512 153.038 62.6684 152.938C62.6922 152.785 62.7181 152.632 62.744 152.483C62.77 152.334 62.7937 152.204 62.8196 152.07V152.04L62.8585 151.843C62.8715 151.779 62.8844 151.716 62.8996 151.653C62.9255 151.53 62.9535 151.407 62.9838 151.29C63.027 151.115 63.0723 150.951 63.1199 150.8C63.2926 150.241 63.4935 149.848 63.7203 149.733L65.2192 147.429L65.2819 147.331L65.31 147.288L65.256 147.284Z" fill="black"/>
<path opacity="0.1" d="M65.6167 135.784C66.2905 135.67 66.9687 135.424 67.6383 135.568C68.1999 135.685 68.6686 136.059 69.1826 136.318C69.6789 136.567 70.2218 136.711 70.7766 136.739C70.979 136.766 71.1845 136.725 71.3619 136.624C71.6297 136.439 71.6686 136.059 71.6232 135.735C71.4937 134.814 70.9191 134.024 70.3273 133.307C70.0911 133.001 69.8184 132.724 69.5152 132.484C68.7398 131.912 67.7139 131.814 66.7528 131.858C65.6556 131.907 64.5411 132.119 63.5886 132.67C62.9406 133.041 61.4546 134.212 61.9708 135.059C62.5129 135.944 64.7678 135.929 65.6167 135.784Z" fill="black"/>
<path opacity="0.5" d="M65.6167 135.568C66.2905 135.454 66.9687 135.208 67.6383 135.352C68.1999 135.469 68.6686 135.843 69.1826 136.102C69.6789 136.352 70.2218 136.495 70.7766 136.523C70.979 136.55 71.1845 136.509 71.3619 136.409C71.6297 136.223 71.6686 135.843 71.6232 135.519C71.4937 134.599 70.9191 133.808 70.3273 133.091C70.0911 132.785 69.8184 132.508 69.5152 132.268C68.7398 131.696 67.7139 131.599 66.7528 131.642C65.6556 131.691 64.5411 131.903 63.5886 132.454C62.9406 132.825 61.4546 133.996 61.9708 134.843C62.5129 135.728 64.7678 135.713 65.6167 135.568Z" fill="#444176"/>
</g>
<path d="M124.929 124.992H124.961C125.009 126.439 125.214 127.748 125.609 128.111C126.551 128.974 130.456 127.247 130.188 126.201C130.134 125.985 130.043 125.631 129.929 125.184C130.983 125.052 131.884 124.752 132.242 124.134L132.92 126.225L132.968 126.374H132.981H133.02C133.467 130.612 134.48 139.411 135.29 140.59C136.37 142.152 137.612 148.919 137.612 148.919L139.933 162.8C139.933 162.8 140.828 170.792 141.363 171.656C141.519 171.821 141.726 171.928 141.951 171.96C141.638 172.898 141.188 173.993 140.655 174.604C139.575 175.818 138.154 178.247 136.903 178.075C135.653 177.902 135.296 180.505 137.618 180.85C138.903 181.042 140.953 180.809 142.527 180.563C142.527 181.258 143.011 182.057 144.227 182.239C146.549 182.587 151.372 181.546 151.372 181.546C151.372 181.546 155.476 179.818 155.659 178.595C155.789 177.71 155.16 174.155 154.811 172.291C155.459 171.252 154.767 162.286 154.767 162.286L153.517 145.109C153.517 145.109 154.232 135.566 153.517 133.83C153.07 132.75 152.903 127.782 152.841 124.229L153.705 124.285C153.754 124.226 153.799 124.163 153.839 124.097L154.055 124.113C154.055 124.113 155.135 122.899 154.234 120.989C153.571 119.57 153.696 113.164 153.802 109.974L153.929 108.462C153.977 108.416 154.013 108.36 154.035 108.298C155.71 108.072 157.339 107.579 158.858 106.838C159.317 106.647 159.743 106.388 160.124 106.069C161.018 105.205 160.48 99.9956 158.694 92.1876C156.908 84.3797 155.301 85.0731 155.301 85.0731C155.301 85.0731 151.014 84.7253 149.048 82.1227C147.083 79.52 145.763 79.5546 145.763 79.5546C145.713 79.2133 145.679 78.8915 145.655 78.5913C145.655 78.479 145.638 78.3753 145.631 78.263C146.299 77.6416 146.809 76.8691 147.117 76.0103C147.519 75.7943 148.013 75.723 148.398 75.4509C148.496 75.3796 148.585 75.297 148.664 75.2046C149.049 74.8492 149.293 74.367 149.353 73.8461C149.414 73.2773 149.387 72.7025 149.273 72.1419C149.137 71.3126 148.936 70.4637 148.452 69.8114C147.968 69.1592 147.245 68.7661 146.547 68.4011C144.658 67.409 142.764 66.4269 140.864 65.455C140.493 65.2283 140.079 65.0812 139.648 65.023C138.888 64.9798 138.206 65.5004 137.592 65.995C137.347 66.1875 137.113 66.393 136.89 66.6105C136.701 66.7785 136.528 66.9644 136.374 67.1656C135.657 68.1267 135.352 69.9367 135.668 71.1376C135.767 71.5177 135.981 71.6279 136.244 71.6236C135.853 72.4008 135.65 73.2589 135.65 74.129C135.655 75.0816 135.898 76.0179 136.359 76.8516C136.82 77.6854 137.483 78.3898 138.288 78.9002C138.288 79.0211 138.288 79.1399 138.298 79.2544C138.307 79.6976 138.293 80.141 138.255 80.5827C138.255 80.5827 133.503 83.1508 132.97 84.3646C132.437 85.5785 130.469 86.4467 130.469 86.4467C130.469 86.4467 126.717 88.356 126.717 95.1229L124.752 104.665L124.395 122.884C124.395 122.884 124.642 122.668 125.043 122.361C125.03 122.482 125.02 122.607 125.009 122.735C124.955 123.431 124.937 124.129 124.955 124.828L124.929 124.992ZM148.925 172.144C148.851 172.422 148.743 172.792 148.607 173.224C148.547 172.865 148.486 172.511 148.426 172.174C148.582 172.159 148.748 172.15 148.925 172.144Z" fill="url(#paint2_linear)"/>
<path d="M142.437 169.906C142.437 169.906 141.748 173.003 140.709 174.206C139.67 175.409 138.309 177.82 137.108 177.647C135.907 177.474 135.56 180.055 137.797 180.399C140.035 180.742 144.668 179.712 144.668 179.712C144.668 179.712 148.625 177.984 148.795 176.787C148.966 175.591 147.763 169.39 147.763 169.39L142.437 169.906Z" fill="#53526B"/>
<path opacity="0.05" d="M142.437 169.906C142.437 169.906 141.748 173.003 140.709 174.206C139.67 175.409 138.309 177.82 137.108 177.647C135.907 177.474 135.56 180.055 137.797 180.399C140.035 180.742 144.668 179.712 144.668 179.712C144.668 179.712 148.625 177.984 148.795 176.787C148.966 175.591 147.763 169.39 147.763 169.39L142.437 169.906Z" fill="black"/>
<path d="M148.802 171.282C148.802 171.282 148.113 174.379 147.074 175.582C146.035 176.785 144.668 179.196 143.469 179.023C142.27 178.85 141.92 181.431 144.158 181.775C146.396 182.118 151.039 181.086 151.039 181.086C151.039 181.086 154.996 179.358 155.167 178.161C155.338 176.965 154.135 170.764 154.135 170.764L148.802 171.282Z" fill="#53526B"/>
<path d="M133.147 124.151C133.147 124.151 134.523 138.944 135.555 140.493C136.588 142.042 137.791 148.75 137.791 148.75L140.026 162.511C140.026 162.511 140.89 170.424 141.402 171.284C141.914 172.144 148.299 171.774 148.299 171.774L144.329 126.214L133.147 124.151Z" fill="#5F5D7E"/>
<path opacity="0.05" d="M133.147 124.151C133.147 124.151 134.523 138.944 135.555 140.493C136.588 142.042 137.791 148.75 137.791 148.75L140.026 162.511C140.026 162.511 140.89 170.424 141.402 171.284C141.914 172.144 148.299 171.774 148.299 171.774L144.329 126.214L133.147 124.151Z" fill="black"/>
<path d="M130.395 117.095L130.845 118.522L133.274 126.235L133.322 126.382H133.335C133.661 126.456 140.547 128.039 142.033 128.525C142.113 128.55 142.192 128.579 142.268 128.613C142.957 128.957 143.817 141.341 143.817 141.341C143.817 141.341 144.333 153.039 144.681 153.899C145.028 154.758 146.409 172.474 147.262 171.96C148.115 171.446 154.314 171.96 154.314 171.96C155.003 171.271 154.314 161.983 154.314 161.983L153.091 144.957C153.091 144.957 153.78 135.497 153.091 133.775C152.402 132.054 152.402 120.531 152.402 120.531L138.322 118.33L136.961 118.114L130.395 117.095Z" fill="#5F5D7E"/>
<path opacity="0.02" d="M130.845 118.525L133.274 126.238L133.333 126.389C133.659 126.463 140.545 128.046 142.031 128.532H142.18L138.333 118.333L138.223 118.039L136.972 118.119L130.845 118.525Z" fill="black"/>
<path opacity="0.1" d="M146.91 82.6943C146.91 82.6943 140.545 89.5757 136.588 83.8974L132.804 86.4784L133.493 90.4353L131.255 120.365C131.255 120.365 137.104 120.192 141.231 121.568C142.381 121.975 143.623 122.046 144.812 121.772C146 121.498 147.086 120.889 147.94 120.019L147.26 93.7032L148.808 85.6188L146.91 82.6943Z" fill="black"/>
<path d="M146.91 82.1787C146.91 82.1787 140.545 89.06 136.588 83.3818L132.804 85.9628L133.493 89.9197L131.255 119.849C131.255 119.849 137.104 119.676 141.231 121.052C142.381 121.46 143.623 121.531 144.812 121.256C146 120.982 147.086 120.374 147.94 119.503L147.26 93.1875L148.808 85.1032L146.91 82.1787Z" fill="#53526B"/>
<path d="M134.203 112.822V113.907H133.858V113.185H132.594V113.907H132.246V112.824L134.203 112.822Z" fill="#E82127"/>
<path d="M133.894 112.473H132.56C132.472 112.452 132.392 112.407 132.328 112.344C132.264 112.281 132.219 112.201 132.197 112.114H134.255C134.233 112.201 134.187 112.281 134.123 112.344C134.059 112.407 133.98 112.452 133.892 112.473" fill="#E82127"/>
<path d="M145.964 112.127C145.941 112.213 145.895 112.292 145.832 112.354C145.769 112.417 145.689 112.462 145.603 112.483H145.041L145.013 112.494V113.911H144.668V112.494L144.635 112.483H144.074C143.988 112.461 143.909 112.416 143.845 112.354C143.782 112.291 143.736 112.213 143.713 112.127H145.964Z" fill="#E82127"/>
<path d="M133.663 117.786C133.663 117.786 133.663 122.259 132.631 124.151C131.599 126.043 125.579 125.015 125.579 125.015L126.782 118.65L133.663 117.786Z" fill="#D6DBE6"/>
<path d="M126.233 128.111C127.141 128.975 130.901 127.247 130.642 126.219C130.46 125.491 129.825 122.886 129.465 121.409L129.214 120.37C129.214 120.37 127.011 119.681 126.233 120.37C125.95 120.62 125.752 121.607 125.659 122.8C125.499 124.871 125.661 127.562 126.233 128.111Z" fill="#FDC2CC"/>
<path d="M134.516 85.274L140.536 89.9177C140.536 89.9177 149.48 89.4015 147.245 85.1012C146.271 83.2099 145.684 81.1438 145.517 79.0233C145.444 78.241 145.444 77.4536 145.517 76.6712C145.517 76.6712 137.259 69.1117 138.292 77.7037C138.373 78.3631 138.421 79.0264 138.434 79.6907C138.558 86.1401 134.516 85.274 134.516 85.274Z" fill="#FDC2CC"/>
<path opacity="0.1" d="M138.309 77.7055C138.39 78.365 138.438 79.0282 138.452 79.6926C139.378 80.3063 140.466 80.6324 141.577 80.63C143.117 80.63 144.251 79.131 145.275 78.1353C145.16 76.7077 145.532 76.6731 145.532 76.6731C145.532 76.6731 137.277 69.1049 138.309 77.7055Z" fill="black"/>
<path d="M141.577 80.2868C144.712 80.2868 147.253 77.7455 147.253 74.6107C147.253 71.4759 144.712 68.9346 141.577 68.9346C138.442 68.9346 135.901 71.4759 135.901 74.6107C135.901 77.7455 138.442 80.2868 141.577 80.2868Z" fill="#FDC2CC"/>
<path opacity="0.1" d="M145.618 80.0273C145.618 80.0273 146.564 80.1137 148.456 82.6926C150.348 85.2715 154.476 85.6171 154.476 85.6171C154.476 85.6171 156.024 84.9281 157.744 92.669C159.463 100.41 159.979 105.57 159.119 106.43C158.26 107.289 154.819 108.497 153.091 108.497C153.091 108.497 152.575 119.333 153.435 121.225C154.294 123.117 153.262 124.322 153.262 124.322L145.702 123.806C145.702 123.806 143.121 120.538 142.605 114.862C142.089 109.186 140.37 93.0146 141.229 91.1226C142.089 89.2305 145.873 84.414 145.702 83.8978C145.532 83.3816 145.618 80.0273 145.618 80.0273Z" fill="black"/>
<path d="M145.638 79.9756C145.638 79.9756 146.91 79.941 148.802 82.5221C150.694 85.1031 154.819 85.4465 154.819 85.4465C154.819 85.4465 156.368 84.7575 158.087 92.4985C159.806 100.239 160.322 105.399 159.463 106.259C158.603 107.119 155.163 108.324 153.443 108.324C153.443 108.324 152.927 119.16 153.787 121.052C154.646 122.944 153.614 124.149 153.614 124.149L146.054 123.633C146.054 123.633 143.473 120.365 142.957 114.689C142.441 109.013 140.717 92.8441 141.577 90.9607C142.437 89.0773 146.221 84.2521 146.05 83.7359C145.879 83.2197 145.638 79.9756 145.638 79.9756Z" fill="#D6DBE6"/>
<path opacity="0.1" d="M125.661 122.797C126.484 122.168 128.037 121.19 129.467 121.406L129.216 120.367C129.216 120.367 127.013 119.678 126.235 120.367C125.948 120.617 125.752 121.602 125.661 122.797Z" fill="black"/>
<path opacity="0.1" d="M138.404 81.0596C138.404 81.0596 134.018 83.8976 133.501 85.1028C132.985 86.308 131.093 87.1677 131.093 87.1677C131.093 87.1677 127.482 89.0597 127.482 95.7683L125.59 105.228L134.19 117.27C134.19 117.27 135.223 105.228 135.739 102.304C136.255 99.3796 136.942 93.8805 136.942 93.8805C136.942 93.8805 139.523 90.6127 139.177 89.753C138.832 88.8934 138.404 81.0596 138.404 81.0596Z" fill="black"/>
<path d="M138.404 81.0078C138.404 81.0078 133.83 83.5543 133.316 84.7573C132.801 85.9604 130.907 86.8222 130.907 86.8222C130.907 86.8222 127.296 88.7142 127.296 95.4228L125.404 104.883L125.06 122.944C125.06 122.944 128.158 120.019 130.393 121.395C132.629 122.771 134.005 116.922 134.005 116.922C134.005 116.922 135.037 104.881 135.553 101.956C136.069 99.0319 136.756 93.5329 136.756 93.5329C136.756 93.5329 139.337 90.265 138.992 89.4054C138.646 88.5457 138.404 81.0078 138.404 81.0078Z" fill="#D6DBE6"/>
<path opacity="0.1" d="M136.594 67.7051C136.885 67.3346 137.222 67.0022 137.596 66.7158C138.188 66.2234 138.843 65.7093 139.577 65.7525C139.992 65.8079 140.391 65.9507 140.748 66.1716C142.576 67.1349 144.4 68.1082 146.219 69.0917C146.89 69.4546 147.584 69.839 148.052 70.4913C148.521 71.1436 148.711 71.9816 148.843 72.8023C148.953 73.3583 148.979 73.9276 148.921 74.4914C148.867 75.044 148.599 75.5536 148.173 75.9104C147.683 76.2668 147.011 76.2689 146.601 76.7355C146.363 77.0054 146.26 77.3834 146.091 77.7117C145.923 78.04 145.631 78.3597 145.298 78.3014C144.966 78.243 144.765 77.891 144.717 77.5346C144.696 77.1734 144.717 76.811 144.78 76.4547C144.845 75.8067 144.763 75.1199 144.387 74.6382C144.128 74.3099 143.756 74.1112 143.506 73.7743C142.905 72.9622 143.18 71.6144 142.521 70.852C142.33 70.6527 142.089 70.5077 141.823 70.4318C141.558 70.3559 141.277 70.3519 141.009 70.42C140.475 70.5323 139.987 70.8217 139.497 71.068C138.835 71.4021 138.141 71.6698 137.426 71.8671C136.825 72.0313 136.13 72.4244 135.925 71.6252C135.611 70.4524 135.903 68.6576 136.594 67.7051Z" fill="black"/>
<path d="M136.767 67.5351C137.058 67.1647 137.395 66.8323 137.769 66.5459C138.361 66.0535 139.015 65.5394 139.75 65.5826C140.165 65.6379 140.564 65.7808 140.92 66.0016C142.748 66.9649 144.266 66.0535 146.391 68.9218C146.845 69.5352 147.756 69.6691 148.225 70.3214C148.694 70.9737 148.884 71.8117 149.016 72.6324C149.126 73.1884 149.152 73.7577 149.093 74.3214C149.04 74.8741 148.771 75.3837 148.346 75.7405C147.856 76.0969 147.184 76.099 146.774 76.5655C146.536 76.8355 146.432 77.2135 146.264 77.5418C146.095 77.8701 145.804 78.1898 145.471 78.1315C145.139 78.0731 144.938 77.7211 144.89 77.3647C144.869 77.0035 144.89 76.6411 144.953 76.2848C145.018 75.6368 144.936 74.95 144.56 74.4683C144.301 74.14 143.929 73.9413 143.679 73.6044C143.078 72.7923 143.352 71.4445 142.694 70.6821C142.502 70.4828 142.262 70.3378 141.996 70.2619C141.73 70.186 141.449 70.1819 141.182 70.2501C140.648 70.3624 140.16 70.6518 139.67 70.8981C139.008 71.2322 138.314 71.4999 137.599 71.6972C136.998 71.8614 136.303 72.2545 136.097 71.4553C135.782 70.2825 136.076 68.4855 136.767 67.5351Z" fill="#865A61"/>
<path opacity="0.1" d="M152.271 93.7881C152.271 93.7881 154.564 99.637 152.843 102.045L149.059 101.181C149.059 101.181 152.499 102.214 151.983 100.149C151.467 98.0841 152.271 93.7881 152.271 93.7881Z" fill="black"/>
<path opacity="0.1" d="M153.523 108.24C153.523 108.24 148.534 108.583 147.158 107.551C148.97 108.934 151.109 109.823 153.368 110.132L153.523 108.24Z" fill="black"/>
<path opacity="0.1" d="M132.03 97.2246C132.03 97.2246 129.449 105.138 129.622 106.341C129.795 107.544 130.138 120.791 130.138 120.791L130.655 120.618L130.482 106.169L132.03 97.2246Z" fill="black"/>
<path d="M154.13 106.896L95.1658 59.3794C94.8226 59.0363 94.4151 58.7643 93.9667 58.579C93.5182 58.3937 93.0376 58.2987 92.5524 58.2994H90.0469C95.0537 51.8833 97.4247 43.799 96.6764 35.695C95.9281 27.591 92.117 20.0776 86.0201 14.6866C79.9231 9.29572 71.9995 6.4333 63.8649 6.68304C55.7303 6.93277 47.9972 10.2758 42.2424 16.0306C36.4876 21.7854 33.1446 29.5185 32.8948 37.6531C32.6451 45.7877 35.5075 53.7113 40.8984 59.8083C46.2893 65.9052 53.8028 69.7164 61.9068 70.4646C70.0108 71.2129 78.0951 68.8419 84.5112 63.8352V66.3384C84.5105 66.8237 84.6055 67.3043 84.7908 67.7527C84.9761 68.2012 85.2481 68.6087 85.5911 68.9519L144.555 116.469C144.897 116.813 145.303 117.086 145.75 117.273C146.198 117.459 146.678 117.555 147.162 117.555C147.647 117.555 148.127 117.459 148.575 117.273C149.022 117.086 149.428 116.813 149.769 116.469L154.115 112.128C154.808 111.435 155.199 110.495 155.202 109.515C155.205 108.535 154.82 107.593 154.13 106.896ZM64.8262 58.2994C60.9329 58.2994 57.127 57.1449 53.8898 54.9819C50.6526 52.8189 48.1295 49.7445 46.6396 46.1475C45.1497 42.5506 44.7599 38.5926 45.5194 34.774C46.279 30.9555 48.1538 27.448 50.9068 24.695C53.6598 21.942 57.1673 20.0672 60.9858 19.3076C64.8043 18.5481 68.7623 18.9379 72.3593 20.4278C75.9563 21.9177 79.0307 24.4408 81.1937 27.678C83.3567 30.9152 84.5112 34.7211 84.5112 38.6144C84.5132 41.2002 84.0054 43.7611 83.0169 46.1505C82.0284 48.54 80.5786 50.7111 78.7503 52.5398C76.922 54.3684 74.7512 55.8188 72.362 56.8078C69.9728 57.7968 67.412 58.3052 64.8262 58.3037V58.2994Z" fill="url(#paint3_linear)"/>
<path d="M154.562 106.464L95.5978 58.9467C95.2546 58.6037 94.8471 58.3317 94.3987 58.1464C93.9502 57.9611 93.4696 57.8661 92.9844 57.8668H90.4789C95.4857 51.4506 97.8567 43.3664 97.1084 35.2624C96.3601 27.1584 92.549 19.6449 86.4521 14.254C80.3551 8.8631 72.4315 6.00069 64.2969 6.25042C56.1623 6.50015 48.4292 9.84323 42.6744 15.598C36.9196 21.3528 33.5766 29.0858 33.3268 37.2205C33.0771 45.3551 35.9395 53.2787 41.3304 59.3756C46.7214 65.4726 54.2348 69.2837 62.3388 70.032C70.4428 70.7803 78.5271 68.4093 84.9432 63.4025V65.9058C84.9425 66.391 85.0375 66.8716 85.2228 67.3201C85.4081 67.7686 85.6801 68.1761 86.0231 68.5192L144.987 116.036C145.329 116.38 145.735 116.654 146.182 116.84C146.63 117.026 147.11 117.122 147.594 117.122C148.079 117.122 148.559 117.026 149.007 116.84C149.454 116.654 149.86 116.38 150.201 116.036L154.547 111.695C155.24 111.002 155.631 110.063 155.634 109.082C155.637 108.102 155.252 107.161 154.562 106.464ZM65.2582 57.8668C61.3649 57.8668 57.559 56.7123 54.3218 54.5493C51.0846 52.3862 48.5615 49.3119 47.0716 45.7149C45.5817 42.1179 45.1919 38.1599 45.9514 34.3414C46.711 30.5229 48.5858 27.0154 51.3388 24.2624C54.0918 21.5094 57.5993 19.6345 61.4178 18.875C65.2364 18.1154 69.1944 18.5053 72.7913 19.9952C76.3883 21.4851 79.4627 24.0082 81.6257 27.2454C83.7887 30.4825 84.9432 34.2884 84.9432 38.1818C84.9452 40.7676 84.4374 43.3285 83.4489 45.7179C82.4604 48.1073 81.0106 50.2785 79.1823 52.1071C77.354 53.9358 75.1832 55.3861 72.794 56.3752C70.4048 57.3642 67.844 57.8725 65.2582 57.8711V57.8668Z" fill="#34ADBE"/>
<path d="M150.178 102.132C150.178 102.132 141.571 92.2613 142.78 99.0346C143.644 103.851 146.908 106.432 148.456 106.948C150.005 107.465 150.178 102.132 150.178 102.132Z" fill="#FDC2CC"/>
<path d="M152.242 93.0146C152.242 93.0146 152.415 99.3798 153.275 100.239C154.134 101.099 152.759 102.131 152.759 102.131L149.318 101.267C149.318 101.267 150.182 106.944 146.566 106.257C146.566 106.257 148.975 108.492 151.383 108.838C153.791 109.183 153.618 108.322 153.618 108.322L157.23 104.021L152.242 93.0146Z" fill="#D6DBE6"/>
<path d="M153.195 108.415L156.685 107.648L156.219 106.039L154.059 105.175L151.251 106.471L153.195 108.415Z" fill="#D6DBE6"/>
<path d="M67.4116 46.3403L72.0575 42.7571C72.0575 42.7571 68.9451 43.4245 69.0336 38.4503C69.0326 38.4338 69.0326 38.4172 69.0336 38.4007C69.0336 37.9514 69.0768 37.459 69.1416 36.9168C69.9386 30.2796 63.567 36.1198 63.567 36.1198C63.6219 36.7075 63.6219 37.299 63.567 37.8866C63.567 37.9017 63.567 37.919 63.567 37.9341C63.441 39.5697 62.9902 41.1638 62.2409 42.6232C60.5108 45.9407 67.4116 46.3403 67.4116 46.3403Z" fill="#FDC2CC"/>
<path opacity="0.1" d="M64.1609 36.9643C64.9493 37.7311 65.4309 39.1242 66.6167 39.1242C67.4746 39.1261 68.314 38.8744 69.0293 38.4007C69.0293 37.9514 69.0725 37.459 69.1373 36.9168C69.9342 30.2796 63.5626 36.1198 63.5626 36.1198C63.5626 36.1198 64.2451 35.8844 64.1609 36.9643Z" fill="black"/>
<path d="M66.6167 38.9079C69.0358 38.9079 70.9969 36.9468 70.9969 34.5277C70.9969 32.1085 69.0358 30.1475 66.6167 30.1475C64.1976 30.1475 62.2365 32.1085 62.2365 34.5277C62.2365 36.9468 64.1976 38.9079 66.6167 38.9079Z" fill="#FDC2CC"/>
<path opacity="0.1" d="M70.8176 28.9183C70.5665 28.6008 70.2762 28.3163 69.9537 28.0716C69.4483 27.6504 68.8867 27.2077 68.2582 27.2465C67.9025 27.2939 67.561 27.4161 67.256 27.6051C65.6901 28.4301 64.392 27.6504 62.5713 30.104C62.1825 30.6289 61.4028 30.752 61.001 31.3028C60.5993 31.8535 60.4373 32.5771 60.3228 33.2812C60.2282 33.7575 60.2057 34.2453 60.2559 34.7283C60.3039 35.2024 60.5367 35.6385 60.9038 35.9422C61.3229 36.2467 61.8995 36.2488 62.2516 36.6484C62.4286 36.9087 62.5737 37.1893 62.6836 37.4843C62.8261 37.7651 63.0767 38.0307 63.3618 37.9897C63.6469 37.9487 63.8175 37.6398 63.8585 37.3417C63.8764 37.0333 63.8583 36.7238 63.8045 36.4195C63.7505 35.873 63.8197 35.2769 64.1415 34.8644C64.3575 34.5814 64.6815 34.413 64.8953 34.1257C65.4093 33.4324 65.1761 32.2682 65.7398 31.6246C65.9047 31.4553 66.1114 31.3327 66.3391 31.2694C66.5667 31.206 66.8071 31.2041 67.0357 31.2639C67.4897 31.3935 67.9252 31.5807 68.3316 31.8211C68.8986 32.1074 69.4926 32.3367 70.1049 32.5058C70.6189 32.6462 71.215 32.9831 71.39 32.2898C71.6643 31.2704 71.4073 29.7325 70.8176 28.9183Z" fill="black"/>
<path d="M70.8176 28.7024C70.5665 28.385 70.2762 28.1005 69.9537 27.8558C69.4483 27.4346 68.8867 26.9918 68.2582 27.0307C67.9025 27.078 67.561 27.2002 67.256 27.3892C65.6901 28.2143 64.392 27.4346 62.5713 29.8882C62.1825 30.4131 61.4028 30.5362 61.001 31.0869C60.5993 31.6377 60.4373 32.3613 60.3228 33.0654C60.2282 33.5417 60.2057 34.0295 60.2559 34.5125C60.3039 34.9865 60.5367 35.4226 60.9038 35.7263C61.3229 36.0309 61.8995 36.033 62.2516 36.4326C62.4286 36.6929 62.5737 36.9735 62.6836 37.2685C62.8261 37.5493 63.0767 37.8149 63.3618 37.7739C63.6469 37.7328 63.8175 37.424 63.8585 37.1259C63.8764 36.8174 63.8583 36.5079 63.8045 36.2037C63.7505 35.6572 63.8197 35.0611 64.1415 34.6486C64.3575 34.3656 64.6815 34.1971 64.8953 33.9099C65.4093 33.2166 65.1761 32.0524 65.7398 31.4088C65.9047 31.2395 66.1114 31.1169 66.3391 31.0536C66.5667 30.9902 66.8071 30.9883 67.0357 31.0481C67.4897 31.1776 67.9252 31.3649 68.3316 31.6053C68.8986 31.8915 69.4926 32.1209 70.1049 32.29C70.6189 32.4304 71.215 32.7673 71.39 32.074C71.6643 31.0545 71.4073 29.5167 70.8176 28.7024Z" fill="#865A61"/>
<path opacity="0.1" d="M62.2365 48.6449L62.1501 51.9603C63.4053 52.3015 64.7004 52.4736 66.0012 52.4722C66.2172 52.4722 66.4439 52.4722 66.6642 52.4571C67.8177 52.4074 68.9612 52.2203 70.0704 51.8999H70.092C70.2971 51.8394 70.5002 51.7767 70.701 51.7076H70.7226L70.9062 51.6428C71.6053 51.3966 72.2842 51.0962 72.9365 50.7443L72.9775 50.7227C73.0488 50.6839 73.1201 50.645 73.1935 50.6039L72.8588 46.1352L73.3922 43.0703L70.4721 41.0811C70.3082 41.3178 70.1247 41.5403 69.9235 41.7463C69.6352 42.0474 69.2978 42.2972 68.9256 42.485C66.8306 43.5174 64.4461 41.8759 63.2603 40.8608L62.9903 40.621C62.6836 40.3424 62.5087 40.1523 62.5087 40.1523L61.0486 42.4072L62.2365 48.6449Z" fill="black"/>
<path d="M62.2365 48.8608L62.1501 52.1762C63.4053 52.5173 64.7004 52.6894 66.0012 52.688C66.2172 52.688 66.4439 52.688 66.6642 52.6729C67.8177 52.6232 68.9612 52.4362 70.0704 52.1157H70.092C70.2971 52.0552 70.5002 51.9926 70.701 51.9234H70.7226L70.9062 51.8586C71.6053 51.6124 72.2842 51.312 72.9365 50.9601L72.9775 50.9386C73.0488 50.8997 73.1201 50.8608 73.1935 50.8198L72.8588 46.351L73.3922 43.2861L70.4721 41.2969C70.3082 41.5336 70.1247 41.7561 69.9235 41.9621C69.6352 42.2632 69.2978 42.513 68.9256 42.7008C66.8306 43.7332 64.4461 42.0917 63.2603 41.0766L62.9903 40.8369C62.6836 40.5582 62.5087 40.3682 62.5087 40.3682L61.0486 42.6231L62.2365 48.8608Z" fill="#53526B"/>
<path d="M70.3317 49.1259C70.3317 49.1259 70.4915 50.398 70.701 51.9186H70.7226L70.9062 51.8538C71.6053 51.6076 72.2841 51.3071 72.9365 50.9553L72.9775 50.9337C73.0488 50.8948 73.12 50.8559 73.1935 50.8149C74.151 50.2775 75.045 49.6341 75.8588 48.8969L75.93 48.83C76.3763 48.426 76.7955 47.9931 77.1849 47.534L77.2303 47.48C76.4592 44.804 74.8544 43.9616 74.8544 43.9616C74.8544 43.9616 73.3944 43.2964 72.9948 42.3676C72.5952 41.4389 69.0681 39.4756 69.0681 39.4756V39.4907C69.0681 39.657 69.012 41.1797 68.9277 42.7111C68.8737 43.7068 68.8068 44.7068 68.729 45.3418C68.7122 45.5481 68.6746 45.7521 68.6167 45.9509C68.3424 46.6053 70.3317 49.1259 70.3317 49.1259Z" fill="#555388"/>
</g>
<defs>
<linearGradient id="paint0_linear" x1="111.078" y1="171.623" x2="111.078" y2="8.48633" gradientUnits="userSpaceOnUse">
<stop stop-color="#808080" stop-opacity="0.25"/>
<stop offset="0.54" stop-color="#808080" stop-opacity="0.12"/>
<stop offset="1" stop-color="#808080" stop-opacity="0.1"/>
</linearGradient>
<linearGradient id="paint1_linear" x1="8078.61" y1="13380.4" x2="8078.61" y2="10217" gradientUnits="userSpaceOnUse">
<stop stop-color="#808080" stop-opacity="0.25"/>
<stop offset="0.54" stop-color="#808080" stop-opacity="0.12"/>
<stop offset="1" stop-color="#808080" stop-opacity="0.1"/>
</linearGradient>
<linearGradient id="paint2_linear" x1="-37767.2" y1="101872" x2="-37767.2" y2="38184.1" gradientUnits="userSpaceOnUse">
<stop stop-color="#808080" stop-opacity="0.25"/>
<stop offset="0.54" stop-color="#808080" stop-opacity="0.12"/>
<stop offset="1" stop-color="#808080" stop-opacity="0.1"/>
</linearGradient>
<linearGradient id="paint3_linear" x1="58565.3" y1="63007.2" x2="58565.3" y2="6057.77" gradientUnits="userSpaceOnUse">
<stop stop-color="#808080" stop-opacity="0.25"/>
<stop offset="0.54" stop-color="#808080" stop-opacity="0.12"/>
<stop offset="1" stop-color="#808080" stop-opacity="0.1"/>
</linearGradient>
<clipPath id="clip0">
<rect width="240.525" height="182.323" fill="white"/>
</clipPath>
</defs>
</svg>
