<svg width="241" height="201" viewBox="0 0 241 201" fill="none" xmlns="http://www.w3.org/2000/svg">
<g clip-path="url(#clip0)">
<path d="M200.101 189.062L199.684 194.615L191.217 191.838L194.686 187.674L200.101 189.062Z" fill="#FEB8B8"/>
<path d="M230.918 187.257L230.501 192.67L225.781 193.365L223.005 190.727L226.197 185.591L230.918 187.257Z" fill="#FEB8B8"/>
<path d="M234.388 118.127C234.388 118.127 238.136 122.569 233.416 129.371C228.696 136.173 223.005 142.836 223.005 142.836L212.454 162.825C212.454 162.825 207.04 182.398 205.791 182.954C204.541 183.509 203.848 181.288 204.541 183.647C205.235 186.007 204.819 185.869 204.264 186.008C203.709 186.147 202.182 185.869 202.737 186.841C203.292 187.813 203.709 187.813 202.598 187.813C201.488 187.813 201.071 187.119 201.071 188.09C201.071 189.062 200.099 191.283 200.099 191.283C200.099 191.283 193.297 189.34 193.02 188.507C192.742 187.674 194.824 187.257 194.408 186.425C193.992 185.592 193.853 185.592 193.853 184.343C193.853 183.093 194.686 182.816 194.686 182.816C194.686 182.816 195.38 182.538 195.102 181.983C194.825 181.427 193.714 181.705 195.102 181.011C196.49 180.317 202.182 159.077 202.182 159.077C202.182 159.077 202.182 148.526 203.987 145.056C205.791 141.587 204.403 116.877 208.708 116.599C213.013 116.322 234.388 118.127 234.388 118.127Z" fill="#2F2E41"/>
<path d="M233 126.039L232.167 147.555C232.167 147.555 236.331 168.378 234.943 174.763C233.555 181.149 234.527 180.316 233.694 181.426C232.861 182.537 232.167 181.982 232.861 182.953C233.555 183.925 233.97 184.203 232.861 185.314C231.752 186.425 231.195 189.062 231.195 189.062L224.116 188.368C224.116 188.368 225.92 185.175 225.225 184.481C224.529 183.787 222.726 184.898 224.116 183.372C225.505 181.846 226.337 182.539 225.504 181.845C224.671 181.151 223.422 181.429 224.532 180.318C225.642 179.208 226.892 179.209 225.781 178.791C224.67 178.373 223.421 178.791 223.977 177.958C224.533 177.125 225.226 176.154 225.226 176.154L223.56 163.521C223.56 163.521 221.617 159.357 222.172 157.552C222.727 155.748 219.812 140.894 219.812 140.894L233 126.039Z" fill="#2F2E41"/>
<path d="M229.947 190.033C229.947 190.033 231.335 188.645 231.751 189.478C232.168 190.311 235.221 197.807 233.417 198.362C231.613 198.917 228.975 199.471 227.587 199.056C226.199 198.641 223.283 196.695 219.813 196.695C216.343 196.695 213.428 195.168 213.428 194.613C213.428 194.058 212.873 190.726 215.51 190.726C218.147 190.726 223.006 187.672 223.006 187.672C223.006 187.672 224.115 185.451 224.672 185.59C225.228 185.729 224.81 190.171 224.81 190.171C224.81 190.171 228.003 193.226 229.947 190.033Z" fill="#2F2E41"/>
<path d="M199.129 191.838C199.129 191.838 200.378 188.784 201.628 189.477C202.877 190.171 202.044 198.777 202.044 198.777C202.044 198.777 200.935 200.582 197.741 200.165C194.547 199.749 186.08 198.777 184.137 199.193C182.193 199.61 176.918 197.25 178.307 194.057C178.307 194.057 179.001 192.253 182.332 192.391C185.664 192.53 191.772 188.505 191.772 188.505C191.772 188.505 192.744 185.728 193.021 186.006C193.299 186.283 193.576 191.142 193.576 191.142C193.576 191.142 197.186 193.503 199.129 191.838Z" fill="#2F2E41"/>
<path d="M217.314 63.8499C221.761 63.8499 225.365 60.2451 225.365 55.7985C225.365 51.3518 221.761 47.7471 217.314 47.7471C212.867 47.7471 209.263 51.3518 209.263 55.7985C209.263 60.2451 212.867 63.8499 217.314 63.8499Z" fill="#FEB8B8"/>
<path d="M223.561 56.3535C223.561 56.3535 227.864 64.9601 229.391 65.7931C230.918 66.6261 218.98 71.7623 218.98 71.7623C218.98 71.7623 217.036 63.2946 214.676 61.4901C212.316 59.6856 223.561 56.3535 223.561 56.3535Z" fill="#FEB8B8"/>
<path d="M211.206 126.733L210.651 132.008C210.651 132.008 204.682 129.926 206.625 126.039L211.206 126.733Z" fill="#FEB8B8"/>
<path d="M208.847 118.82C213.011 123.261 235.082 119.513 235.082 119.513L234.806 116.32L237.582 113.407L236.75 99.8025C236.75 99.8025 239.247 93.4177 239.663 83.7005C239.688 83.1033 239.652 82.505 239.555 81.9151C238.124 73.2104 223.95 67.604 223.561 67.7357C223.365 67.8002 221.278 68.8875 219.101 70.0314C216.601 71.3444 213.984 72.7332 213.984 72.7332C210.651 73.9845 211.207 93.9742 210.096 95.7785C208.984 97.5827 210.096 103.827 210.096 103.827L208.847 109.796C208.847 109.796 204.681 114.379 208.847 118.82Z" fill="#F0F0F0"/>
<path opacity="0.1" d="M222.301 74.7517C222.301 74.7517 226.187 86.4121 225.354 94.3247C224.521 102.237 215.499 124.864 215.499 124.864L212.446 126.53V130.417L210.298 124.598L216.205 112.247C216.205 112.247 208.834 69.6157 222.301 74.7517Z" fill="black"/>
<path opacity="0.1" d="M218.655 71.2531C222.683 69.0325 228.791 74.865 235.176 81.1096C237.469 83.3516 238.795 83.126 239.556 81.915C238.125 73.2104 223.951 67.604 223.561 67.7357C223.365 67.8002 221.279 68.8875 219.102 70.0314L218.655 71.2531Z" fill="black"/>
<path d="M218.657 70.1804L220.323 65.5995C220.323 65.5995 231.706 60.1857 239.202 65.5995L240.451 73.3731C240.451 73.3731 241.56 86.2829 235.176 80.0363C228.792 73.7897 222.682 67.9592 218.657 70.1804Z" fill="#F0F0F0"/>
<path d="M221.895 72.8729C221.895 72.8729 225.782 84.5334 224.949 92.446C224.116 100.359 215.093 122.986 215.093 122.986L212.039 124.652V128.539L205.654 126.735L207.042 122.154C207.042 122.154 204.821 119.378 206.348 118.545C207.875 117.712 207.597 113.131 207.597 113.131C207.597 113.131 208.43 67.7367 221.895 72.8729Z" fill="#F0F0F0"/>
<path d="M224.492 59.1686C224.36 58.5463 224.378 57.8769 224.08 57.3152C223.632 56.4731 222.604 56.1207 221.654 56.0376C220.441 55.9321 219.219 56.142 218.004 56.059C216.79 55.9759 215.492 55.5129 214.888 54.4564C214.647 54.0349 214.528 53.5386 214.208 53.1731C213.542 52.4127 212.328 52.5304 211.372 52.8563C210.415 53.1822 209.417 53.6583 208.439 53.4035C207.616 51.1024 208.629 48.4481 210.381 46.7443C212.132 45.0404 214.495 44.1235 216.841 43.4401C219.936 42.5385 223.418 42.0058 226.263 43.5203C230.389 45.7161 231.845 51.5285 231.464 55.8605C231.32 57.498 231.085 59.3523 229.761 60.4578C227.821 62.0783 225.078 61.9392 224.492 59.1686Z" fill="#2F2E41"/>
<path d="M173.975 0.0986328H0.0745239V111.472H173.975V0.0986328Z" fill="#E6E6E6"/>
<path d="M169.571 14.0674H5.61578V104.883H169.571V14.0674Z" fill="white"/>
<path d="M173.9 0H0V7.38788H173.9V0Z" fill="#34ADBE"/>
<path d="M5.49036 5.14699C6.24666 5.14699 6.85975 4.53389 6.85975 3.77759C6.85975 3.0213 6.24666 2.4082 5.49036 2.4082C4.73407 2.4082 4.12097 3.0213 4.12097 3.77759C4.12097 4.53389 4.73407 5.14699 5.49036 5.14699Z" fill="white"/>
<path d="M10.6878 5.14699C11.4441 5.14699 12.0572 4.53389 12.0572 3.77759C12.0572 3.0213 11.4441 2.4082 10.6878 2.4082C9.93149 2.4082 9.31839 3.0213 9.31839 3.77759C9.31839 4.53389 9.93149 5.14699 10.6878 5.14699Z" fill="white"/>
<path d="M15.8852 5.14699C16.6415 5.14699 17.2546 4.53389 17.2546 3.77759C17.2546 3.0213 16.6415 2.4082 15.8852 2.4082C15.1289 2.4082 14.5158 3.0213 14.5158 3.77759C14.5158 4.53389 15.1289 5.14699 15.8852 5.14699Z" fill="white"/>
<path d="M34.3002 26.7969L23.4551 37.5066L34.3002 48.216L36.7403 45.7758L28.5396 37.574L36.8089 29.3047L34.3002 26.7969Z" fill="#34ADBE"/>
<path d="M43.1863 26.7969L54.0311 37.5066L43.1863 48.216L40.7461 45.7758L48.9474 37.5742L40.6776 29.3047L43.1863 26.7969Z" fill="#34ADBE"/>
<path d="M78.2654 29.4844C77.3784 29.4844 76.6594 29.9946 76.6594 30.6237C76.6594 31.2528 77.3784 31.763 78.2654 31.763H153.977C154.864 31.763 155.583 31.2528 155.583 30.6237C155.583 29.9946 154.864 29.4844 153.977 29.4844H78.2654Z" fill="#E6E6E6"/>
<path d="M153.224 91.9039H25.8586C24.5566 91.9039 23.5015 91.1522 23.5001 90.2259V67.7463C23.5015 66.82 24.5566 66.0684 25.8586 66.0684H153.224C154.526 66.0684 155.581 66.82 155.583 67.7463V90.2256C155.582 91.1519 154.526 91.9028 153.224 91.9039ZM25.8586 66.739C25.0773 66.739 24.4443 67.19 24.4434 67.7458V90.2251C24.4434 90.7808 25.0773 91.2313 25.8586 91.2319H153.224C154.005 91.2319 154.638 90.7808 154.639 90.2251V67.7463C154.639 67.1906 154.005 66.7401 153.224 66.7395L25.8586 66.739Z" fill="#E6E6E6"/>
<path d="M38.9743 84.6748C42.1213 84.6748 44.6725 82.1236 44.6725 78.9766C44.6725 75.8295 42.1213 73.2783 38.9743 73.2783C35.8272 73.2783 33.276 75.8295 33.276 78.9766C33.276 82.1236 35.8272 84.6748 38.9743 84.6748Z" fill="#E6E6E6"/>
<path d="M55.0458 74.4199C54.7437 74.4195 54.4537 74.5392 54.2398 74.7526C54.0259 74.966 53.9055 75.2556 53.9051 75.5578C53.9047 75.8599 54.0243 76.1499 54.2377 76.3638C54.4511 76.5777 54.7407 76.6982 55.0429 76.6985H108.758C109.06 76.6985 109.35 76.5785 109.564 76.3648C109.777 76.1512 109.897 75.8614 109.897 75.5592C109.897 75.2571 109.777 74.9673 109.564 74.7536C109.35 74.54 109.06 74.4199 108.758 74.4199H55.0458Z" fill="#34ADBE"/>
<path d="M55.0458 81.2559C54.8962 81.2557 54.748 81.2849 54.6097 81.342C54.4714 81.3991 54.3457 81.4829 54.2398 81.5885C54.0259 81.8019 53.9055 82.0915 53.9051 82.3937C53.9047 82.6959 54.0243 82.9858 54.2377 83.1997C54.4511 83.4137 54.7407 83.5341 55.0429 83.5345H78.158C78.4601 83.5349 78.7501 83.4152 78.964 83.2018C79.178 82.9885 79.2984 82.6988 79.2988 82.3967C79.2992 82.0945 79.1795 81.8045 78.9661 81.5906C78.7527 81.3767 78.4631 81.2563 78.1609 81.2559H55.0458Z" fill="#34ADBE"/>
<path d="M77.7126 36.3096C77.4263 36.3327 77.1591 36.4627 76.9644 36.6738C76.7696 36.8849 76.6614 37.1616 76.6614 37.4489C76.6614 37.7361 76.7696 38.0128 76.9644 38.224C77.1591 38.4351 77.4263 38.5651 77.7126 38.5882H127.332C127.618 38.5651 127.885 38.4351 128.08 38.224C128.275 38.0128 128.383 37.7361 128.383 37.4489C128.383 37.1616 128.275 36.8849 128.08 36.6738C127.885 36.4627 127.618 36.3327 127.332 36.3096H77.7126Z" fill="#E6E6E6"/>
<path d="M78.039 43.1357C77.2771 43.1357 76.6594 43.646 76.6594 44.2751C76.6594 44.9041 77.2771 45.4144 78.039 45.4144H143.082C143.843 45.4144 144.461 44.9041 144.461 44.2751C144.461 43.646 143.843 43.1357 143.082 43.1357H78.039Z" fill="#E6E6E6"/>
</g>
<defs>
<clipPath id="clip0">
<rect width="240.525" height="200.227" fill="white"/>
</clipPath>
</defs>
</svg>
