<svg width="169" height="103" viewBox="0 0 169 103" fill="none" xmlns="http://www.w3.org/2000/svg">
<path d="M97.1412 39.0081C100.201 39.0081 102.682 36.5078 102.682 33.4235C102.682 30.3392 100.201 27.8389 97.1412 27.8389C94.0814 27.8389 91.601 30.3392 91.601 33.4235C91.601 36.5078 94.0814 39.0081 97.1412 39.0081Z" fill="#2F2E41"/>
<path d="M98.6847 27.9904C99.6436 27.9905 100.586 28.2414 101.42 28.7186C102.254 29.1958 102.95 29.8829 103.442 30.7128C103.933 31.5426 104.203 32.4869 104.224 33.4531C104.245 34.4194 104.017 35.3746 103.562 36.2254C104.042 35.6197 104.392 34.9197 104.589 34.17C104.786 33.4204 104.826 32.6376 104.707 31.8716C104.587 31.1055 104.311 30.373 103.895 29.7206C103.479 29.0682 102.932 28.5104 102.291 28.0826C101.649 27.6548 100.926 27.3665 100.167 27.2359C99.4091 27.1054 98.6321 27.1355 97.8859 27.3244C97.1397 27.5133 96.4408 27.8568 95.8336 28.3331C95.2264 28.8093 94.7243 29.4078 94.3593 30.0904C94.8772 29.435 95.5351 28.9058 96.284 28.5422C97.0329 28.1786 97.8535 27.99 98.6847 27.9904Z" fill="#2F2E41"/>
<path d="M86.7884 33.4113C95.7766 33.4113 103.063 26.0666 103.063 17.0064C103.063 7.94626 95.7766 0.601562 86.7884 0.601562C77.8003 0.601562 70.5139 7.94626 70.5139 17.0064C70.5139 26.0666 77.8003 33.4113 86.7884 33.4113Z" fill="#2F2E41"/>
<path d="M74.0155 6.82781C76.8198 3.64881 80.7396 1.6924 84.9478 1.37147C89.156 1.05054 93.3232 2.39021 96.57 5.10774C96.4369 4.98022 96.3053 4.85167 96.167 4.72775C92.9409 1.83822 88.7084 0.358612 84.4002 0.614331C80.092 0.870051 76.061 2.84016 73.1937 6.09137C70.3264 9.34258 68.8576 13.6087 69.1103 17.9514C69.363 22.2941 71.3165 26.3578 74.5412 29.2489C74.6795 29.3728 74.8216 29.4895 74.9628 29.6078C71.9051 26.6759 70.0971 22.6611 69.9204 18.4109C69.7436 14.1606 71.212 10.0074 74.0155 6.82781Z" fill="#2F2E41"/>
<path d="M86.6505 33.2713C92.4395 33.2713 97.1324 28.5408 97.1324 22.7055C97.1324 16.8701 92.4395 12.1396 86.6505 12.1396C80.8615 12.1396 76.1686 16.8701 76.1686 22.7055C76.1686 28.5408 80.8615 33.2713 86.6505 33.2713Z" fill="#FFB8B8"/>
<path d="M79.2028 26.043C79.2028 26.043 80.582 38.8332 78.3753 40.2234C76.1686 41.6137 91.064 43.56 91.064 43.56C91.064 43.56 88.8572 29.6576 94.374 26.043H79.2028Z" fill="#FFB8B8"/>
<path d="M92.4432 37.9983C92.4432 37.9983 96.5505 36.0649 90.6351 36.7535C84.7196 37.4422 79.616 34.8007 79.616 34.8007C79.616 34.8007 77.8236 32.9934 77.5478 34.9397C77.2719 36.886 78.3753 40.5007 72.3068 41.0568C66.2383 41.6129 60.7215 39.9446 58.5148 44.1153C56.3081 48.286 57.4115 66.3592 57.4115 66.3592C57.4115 66.3592 61.5491 81.3738 64.8591 83.5982C68.1692 85.8225 97.1324 82.764 97.1324 82.764L105.408 67.7494V50.2324C105.408 50.2324 104.304 44.1153 96.5808 45.7836C96.5808 45.7836 91.6156 44.6714 91.8915 42.169C92.1673 39.6665 92.4432 37.9983 92.4432 37.9983Z" fill="#D0CDE1"/>
<path d="M65.9539 94.2239C66.1243 93.4751 66.2385 93.0516 66.2385 93.0516L66.1502 92.4425L65.2415 86.2219L64.8594 83.5981C68.1687 82.2079 68.9968 75.8124 68.9968 75.8124L69.1216 75.7373L69.6864 75.3966V75.3951L71.714 74.1691L71.7551 74.1445L72.574 74.6938L74.2378 75.8124C80.0589 80.1272 85.9864 80.0505 89.6444 79.3708C91.8805 78.9549 93.2703 78.3151 93.2703 78.3151L97.2829 76.9663L97.4077 76.9249L97.5311 76.9433L99.8844 77.3024L99.927 77.31L100.122 77.3392L99.5769 81.1369L98.7869 86.6562C100.874 87.7702 102.729 89.8631 104.352 92.4425C104.711 93.0133 105.06 93.6071 105.396 94.2239C105.835 95.0218 106.253 95.8519 106.652 96.702C106.701 96.8033 106.748 96.9061 106.795 97.0089C106.949 97.3419 107.101 97.6779 107.249 98.0155H65.2232C65.278 97.6764 65.3328 97.3526 65.3861 97.0411C65.3888 97.0305 65.3909 97.0198 65.3921 97.0089C65.4119 96.9046 65.4302 96.8033 65.4469 96.702C65.6327 95.6893 65.8123 94.8438 65.9539 94.2239Z" fill="#2F2E41"/>
<path d="M64.3074 40.7795C64.3074 40.7795 67.3417 46.3405 66.2383 53.2917C65.135 60.2429 69.5484 77.4819 69.5484 77.4819L72.8585 76.6478C72.8585 76.6478 70.6518 62.1893 71.2034 58.8527C71.7551 55.5161 71.7551 42.4478 68.9967 40.7795C66.2383 39.1113 64.3074 40.7795 64.3074 40.7795Z" fill="#2F2E41"/>
<path d="M96.3868 46.5584L97.5462 77.3428L99.7529 78.7331C99.7529 78.7331 102.925 44.9502 101.27 44.9502H97.9025C97.6966 44.9502 97.4929 44.9924 97.3038 45.0743C97.1146 45.1561 96.944 45.2759 96.8022 45.4264C96.6604 45.5768 96.5504 45.7547 96.479 45.9493C96.4076 46.144 96.3762 46.3512 96.3868 46.5584Z" fill="#2F2E41"/>
<path d="M71.0655 76.7873C71.8272 76.7873 72.4447 76.1649 72.4447 75.3971C72.4447 74.6293 71.8272 74.0068 71.0655 74.0068C70.3038 74.0068 69.6863 74.6293 69.6863 75.3971C69.6863 76.1649 70.3038 76.7873 71.0655 76.7873Z" fill="#34ADBE"/>
<path d="M98.6495 78.177C99.4112 78.177 100.029 77.5545 100.029 76.7867C100.029 76.0189 99.4112 75.3965 98.6495 75.3965C97.8878 75.3965 97.2703 76.0189 97.2703 76.7867C97.2703 77.5545 97.8878 78.177 98.6495 78.177Z" fill="#34ADBE"/>
<path d="M77.6857 9.5V20.0658H80.1132L83.2026 16.7293L82.7888 20.0658H93.5189L92.8569 16.7293L94.1809 20.0658H95.8911V9.5H77.6857Z" fill="#2F2E41"/>
<path d="M76.0307 22.0107C76.4877 22.0107 76.8582 21.326 76.8582 20.4814C76.8582 19.6368 76.4877 18.9521 76.0307 18.9521C75.5736 18.9521 75.2032 19.6368 75.2032 20.4814C75.2032 21.326 75.5736 22.0107 76.0307 22.0107Z" fill="#FFB8B8"/>
<path d="M97.2703 22.0107C97.7274 22.0107 98.0979 21.326 98.0979 20.4814C98.0979 19.6368 97.7274 18.9521 97.2703 18.9521C96.8133 18.9521 96.4428 19.6368 96.4428 20.4814C96.4428 21.326 96.8133 22.0107 97.2703 22.0107Z" fill="#FFB8B8"/>
<path d="M102.925 76.6475C102.925 76.6475 90.3743 74.2841 89.5468 78.4548C88.7193 82.6255 103.477 80.8182 103.477 80.8182L102.925 76.6475Z" fill="#FFB8B8"/>
<path d="M102.649 48.0088C102.649 48.0088 132.716 72.199 127.199 78.038C121.682 83.877 100.718 82.2087 100.718 82.2087L102.098 75.2575L114.235 73.8673L108.166 67.7502L102.649 68.3063V48.0088Z" fill="#D0CDE1"/>
<path d="M58.239 88.3253L62.1007 91.3838C62.1007 91.3838 64.8591 100.003 68.9967 97.5009C73.1343 94.9985 65.135 86.1009 65.135 86.1009L60.4457 84.4326L58.239 88.3253Z" fill="#FFB8B8"/>
<path d="M62.1007 43.5596L58.2494 44.7278C58.2494 44.7278 31.4824 64.6912 30.3791 70.2522C29.2757 75.8132 35.62 78.8717 35.62 78.8717L59.6181 90.2717L62.1007 83.5985L50.7913 77.7595C50.7913 77.7595 51.6188 76.0912 48.3087 75.8132C44.9986 75.5351 44.4469 71.9205 44.4469 71.9205C44.4469 71.9205 51.0671 61.6327 54.653 63.8571C58.2389 66.0815 59.3423 67.7498 59.3423 67.7498L62.1007 43.5596Z" fill="#D0CDE1"/>
<path d="M117.032 95.1766V96.108C117.033 96.3636 116.986 96.6171 116.894 96.8552C116.853 96.9614 116.804 97.064 116.746 97.1621C116.565 97.4691 116.307 97.7233 115.999 97.8997C115.691 98.0762 115.342 98.1689 114.988 98.1687H47.0127C46.6582 98.1689 46.3098 98.0762 46.0016 97.8997C45.6934 97.7233 45.4359 97.4691 45.2545 97.1621C45.1971 97.064 45.1477 96.9614 45.1069 96.8552C45.0148 96.6171 44.9678 96.3636 44.9683 96.108V95.1766C44.9683 94.906 45.0211 94.638 45.1238 94.3879C45.2265 94.1379 45.3771 93.9107 45.5669 93.7193C45.7568 93.5279 45.9822 93.3761 46.2303 93.2726C46.4783 93.169 46.7442 93.1158 47.0127 93.1159H50.9309V92.6816C50.9309 92.6703 50.9331 92.6592 50.9374 92.6487C50.9416 92.6383 50.9479 92.6288 50.9558 92.6208C50.9638 92.6128 50.9732 92.6065 50.9835 92.6022C50.9939 92.5979 51.005 92.5957 51.0162 92.5957H53.0605C53.0717 92.5957 53.0828 92.5979 53.0932 92.6022C53.1035 92.6065 53.1129 92.6128 53.1208 92.6208C53.1288 92.6288 53.135 92.6383 53.1393 92.6487C53.1436 92.6592 53.1458 92.6703 53.1458 92.6816V93.1159H54.4229V92.6816C54.4229 92.6703 54.4251 92.6592 54.4294 92.6487C54.4336 92.6383 54.4399 92.6288 54.4478 92.6208C54.4558 92.6128 54.4652 92.6065 54.4755 92.6022C54.4859 92.5979 54.497 92.5957 54.5082 92.5957H56.5525C56.5637 92.5957 56.5748 92.5979 56.5852 92.6022C56.5955 92.6065 56.6049 92.6128 56.6128 92.6208C56.6208 92.6288 56.627 92.6383 56.6313 92.6487C56.6356 92.6592 56.6378 92.6703 56.6378 92.6816V93.1159H57.9164V92.6816C57.9164 92.6703 57.9186 92.6592 57.9229 92.6487C57.9272 92.6383 57.9334 92.6288 57.9414 92.6208C57.9493 92.6128 57.9587 92.6065 57.969 92.6022C57.9794 92.5979 57.9905 92.5957 58.0017 92.5957H60.046C60.0572 92.5957 60.0683 92.5979 60.0787 92.6022C60.089 92.6065 60.0984 92.6128 60.1064 92.6208C60.1143 92.6288 60.1206 92.6383 60.1248 92.6487C60.1291 92.6592 60.1313 92.6703 60.1313 92.6816V93.1159H61.4084V92.6816C61.4084 92.6703 61.4106 92.6592 61.4149 92.6487C61.4192 92.6383 61.4254 92.6288 61.4334 92.6208C61.4413 92.6128 61.4507 92.6065 61.461 92.6022C61.4714 92.5979 61.4825 92.5957 61.4937 92.5957H63.538C63.5492 92.5957 63.5603 92.5979 63.5707 92.6022C63.581 92.6065 63.5904 92.6128 63.5984 92.6208C63.6063 92.6288 63.6126 92.6383 63.6168 92.6487C63.6211 92.6592 63.6233 92.6703 63.6233 92.6816V93.1159H64.9004V92.6816C64.9004 92.6703 64.9026 92.6592 64.9069 92.6487C64.9112 92.6383 64.9174 92.6288 64.9254 92.6208C64.9333 92.6128 64.9427 92.6065 64.953 92.6022C64.9634 92.5979 64.9745 92.5957 64.9857 92.5957H67.03C67.0412 92.5957 67.0523 92.5979 67.0627 92.6022C67.073 92.6065 67.0824 92.6128 67.0904 92.6208C67.0983 92.6288 67.1046 92.6383 67.1088 92.6487C67.1131 92.6592 67.1153 92.6703 67.1153 92.6816V93.1159H68.394V92.6816C68.3939 92.6703 68.3961 92.6592 68.4004 92.6487C68.4047 92.6383 68.411 92.6288 68.4189 92.6208C68.4268 92.6128 68.4362 92.6065 68.4466 92.6022C68.4569 92.5979 68.468 92.5957 68.4792 92.5957H70.5236C70.5348 92.5957 70.5459 92.5979 70.5562 92.6022C70.5666 92.6065 70.576 92.6128 70.5839 92.6208C70.5918 92.6288 70.5981 92.6383 70.6024 92.6487C70.6066 92.6592 70.6088 92.6703 70.6088 92.6816V93.1159H71.886V92.6816C71.8859 92.6703 71.8881 92.6592 71.8924 92.6487C71.8967 92.6383 71.903 92.6288 71.9109 92.6208C71.9188 92.6128 71.9282 92.6065 71.9386 92.6022C71.9489 92.5979 71.96 92.5957 71.9712 92.5957H87.9851C87.9963 92.5957 88.0074 92.5979 88.0177 92.6022C88.0281 92.6065 88.0375 92.6128 88.0454 92.6208C88.0533 92.6288 88.0596 92.6383 88.0639 92.6487C88.0682 92.6592 88.0704 92.6703 88.0703 92.6816V93.1159H89.349V92.6816C89.349 92.6703 89.3512 92.6592 89.3555 92.6487C89.3597 92.6383 89.366 92.6288 89.3739 92.6208C89.3819 92.6128 89.3913 92.6065 89.4016 92.6022C89.412 92.5979 89.4231 92.5957 89.4343 92.5957H91.4786C91.5012 92.5959 91.5227 92.605 91.5387 92.6211C91.5546 92.6372 91.5636 92.6589 91.5639 92.6816V93.1159H92.841V92.6816C92.841 92.6703 92.8432 92.6592 92.8475 92.6487C92.8517 92.6383 92.858 92.6288 92.8659 92.6208C92.8739 92.6128 92.8833 92.6065 92.8936 92.6022C92.904 92.5979 92.9151 92.5957 92.9263 92.5957H94.9706C94.9818 92.5957 94.9929 92.5979 95.0033 92.6022C95.0136 92.6065 95.023 92.6128 95.0309 92.6208C95.0389 92.6288 95.0451 92.6383 95.0494 92.6487C95.0537 92.6592 95.0559 92.6703 95.0559 92.6816V93.1159H96.333V92.6816C96.333 92.6703 96.3352 92.6592 96.3395 92.6487C96.3437 92.6383 96.35 92.6288 96.3579 92.6208C96.3659 92.6128 96.3753 92.6065 96.3856 92.6022C96.396 92.5979 96.4071 92.5957 96.4183 92.5957H98.4626C98.4738 92.5957 98.4849 92.5979 98.4953 92.6022C98.5056 92.6065 98.515 92.6128 98.5229 92.6208C98.5309 92.6288 98.5371 92.6383 98.5414 92.6487C98.5457 92.6592 98.5479 92.6703 98.5479 92.6816V93.1159H99.8265V92.6816C99.8265 92.6703 99.8287 92.6592 99.833 92.6487C99.8373 92.6383 99.8435 92.6288 99.8515 92.6208C99.8594 92.6128 99.8688 92.6065 99.8791 92.6022C99.8895 92.5979 99.9006 92.5957 99.9118 92.5957H101.956C101.979 92.596 102 92.6052 102.016 92.6213C102.031 92.6374 102.04 92.6591 102.04 92.6816V93.1159H103.319V92.6816C103.319 92.6703 103.321 92.6592 103.325 92.6487C103.329 92.6383 103.336 92.6288 103.343 92.6208C103.351 92.6128 103.361 92.6065 103.371 92.6022C103.381 92.5979 103.393 92.5957 103.404 92.5957H105.448C105.459 92.5957 105.47 92.5979 105.481 92.6022C105.491 92.6065 105.501 92.6128 105.508 92.6208C105.516 92.6288 105.523 92.6383 105.527 92.6487C105.531 92.6592 105.533 92.6703 105.533 92.6816V93.1159H106.811V92.6816C106.811 92.6703 106.813 92.6592 106.817 92.6487C106.821 92.6383 106.828 92.6288 106.835 92.6208C106.843 92.6128 106.853 92.6065 106.863 92.6022C106.873 92.5979 106.885 92.5957 106.896 92.5957H108.94C108.951 92.5957 108.962 92.5979 108.973 92.6022C108.983 92.6065 108.993 92.6128 109 92.6208C109.008 92.6288 109.015 92.6383 109.019 92.6487C109.023 92.6592 109.025 92.6703 109.025 92.6816V93.1159H114.988C115.256 93.1158 115.522 93.169 115.77 93.2726C116.018 93.3761 116.244 93.5279 116.434 93.7193C116.624 93.9107 116.774 94.1379 116.877 94.3879C116.98 94.638 117.032 94.906 117.032 95.1766Z" fill="#3F3D56"/>
<path d="M136.798 96.8545H25.2186V97.1614H136.798V96.8545Z" fill="#3F3D56"/>
<path d="M111.559 55.9522H86.2223V55.4258H74.7338V55.9522H49.2928C48.8383 55.9522 48.4024 56.1342 48.081 56.4582C47.7596 56.7821 47.579 57.2215 47.579 57.6797V92.6509C47.579 93.109 47.7596 93.5484 48.081 93.8724C48.4024 94.1964 48.8383 94.3784 49.2928 94.3784H111.559C112.013 94.3784 112.449 94.1964 112.771 93.8724C113.092 93.5484 113.273 93.109 113.273 92.6509V57.6797C113.273 57.4528 113.228 57.2282 113.142 57.0186C113.056 56.809 112.93 56.6186 112.771 56.4582C112.611 56.2977 112.423 56.1705 112.215 56.0837C112.007 55.9969 111.784 55.9522 111.559 55.9522Z" fill="#3F3D56"/>
<path d="M80.4757 71.9983C82.5774 71.9983 84.2813 70.2808 84.2813 68.1622C84.2813 66.0436 82.5774 64.3262 80.4757 64.3262C78.3739 64.3262 76.6701 66.0436 76.6701 68.1622C76.6701 70.2808 78.3739 71.9983 80.4757 71.9983Z" stroke="#D0CDE1" stroke-width="2" stroke-miterlimit="10"/>
<path d="M79.2579 73.3791C81.3596 73.3791 83.0635 71.6617 83.0635 69.5431C83.0635 67.4245 81.3596 65.707 79.2579 65.707C77.1561 65.707 75.4523 67.4245 75.4523 69.5431C75.4523 71.6617 77.1561 73.3791 79.2579 73.3791Z" fill="#D0CDE1"/>
<path d="M33.3735 102.399H4.60327V102.746H33.3735V102.399Z" fill="#3F3D56"/>
<path d="M158.958 102.399H130.187V102.746H158.958V102.399Z" fill="#3F3D56"/>
<path d="M21.366 91.2249C18.335 96.2127 19.3778 102.417 19.3778 102.417C19.3778 102.417 25.3347 100.535 28.3656 95.5467C31.3965 90.5588 30.3538 84.3545 30.3538 84.3545C30.3538 84.3545 24.3969 86.237 21.366 91.2249Z" fill="#3F3D56"/>
<path d="M19.2541 102.456L19.0818 102.429C19.0195 102.419 12.8166 101.383 9.10172 96.9026C5.38683 92.4222 5.47622 86.085 5.47744 86.0215L5.48114 85.8457L5.65347 85.8732C5.71579 85.8832 11.9187 86.9192 15.6336 91.3996C19.3484 95.8798 19.259 102.217 19.2578 102.281L19.2541 102.456Z" fill="#34ADBE"/>
<path d="M19.4989 102.616L19.3324 102.563C19.2722 102.544 13.286 100.606 10.2603 95.6267C7.23453 90.6473 8.24138 84.3913 8.25178 84.3286L8.28092 84.1553L8.44741 84.2079C8.50762 84.2269 14.4938 86.1651 17.5196 91.1445C20.5453 96.1237 19.5385 102.38 19.528 102.442L19.4989 102.616ZM8.52651 84.5591C8.3887 85.6091 7.83942 91.0552 10.5198 95.4664C13.2004 99.8774 18.263 101.858 19.2533 102.212C19.3911 101.162 19.9404 95.7159 17.26 91.3049C14.5795 86.8937 9.51684 84.9126 8.5265 84.5591H8.52651Z" fill="#3F3D56"/>
<path d="M19.567 86.2534C21.4165 86.2534 22.9159 84.742 22.9159 82.8777C22.9159 81.0133 21.4165 79.502 19.567 79.502C17.7174 79.502 16.218 81.0133 16.218 82.8777C16.218 84.742 17.7174 86.2534 19.567 86.2534Z" fill="#3F3D56"/>
<path d="M61.4996 40.2099L42.288 20.6916H33.2182V20.3848H42.4151L42.4598 20.4303L61.7161 39.9942L61.4996 40.2099Z" fill="#3F3D56"/>
<path d="M106.622 39.5956L125.833 20.0774H134.903V19.7705H125.706L125.662 19.8161L106.406 39.3799L106.622 39.5956Z" fill="#3F3D56"/>
<path d="M22.867 11.0703H0.642456V15.5013H22.867V11.0703Z" fill="#D0CDE1"/>
<path d="M22.867 17.8682H0.642456V22.2991H22.867V17.8682Z" fill="#D0CDE1"/>
<path d="M22.867 24.668H0.642456V29.0989H22.867V24.668Z" fill="#D0CDE1"/>
<path opacity="0.15" d="M9.83655 11.0703H0.642456V15.5013H9.83655V11.0703Z" fill="black"/>
<path opacity="0.15" d="M15.4588 24.668H0.642456V29.0989H15.4588V24.668Z" fill="black"/>
<path d="M168.24 12.0664H145.982V14.0657H168.24V12.0664Z" fill="#D0CDE1"/>
<path d="M142.051 11.8057H137.643V16.2486H142.051V11.8057Z" fill="#34ADBE"/>
<path d="M142.051 18.4707H137.643V22.9136H142.051V18.4707Z" fill="#34ADBE"/>
<path d="M142.051 25.1348H137.643V29.5777H142.051V25.1348Z" fill="#34ADBE"/>
<path d="M143.269 15.328H138.557V10.5781H143.269V15.328ZM138.861 15.0211H142.964V10.885H138.861V15.0211Z" fill="#3F3D56"/>
<path d="M168.24 18.7295H145.982V20.7288H168.24V18.7295Z" fill="#D0CDE1"/>
<path d="M143.269 21.993H138.557V17.2432H143.269V21.993ZM138.861 21.6861H142.964V17.55H138.861V21.6861Z" fill="#3F3D56"/>
<path d="M168.24 25.3926H145.982V27.3919H168.24V25.3926Z" fill="#D0CDE1"/>
<path d="M143.269 28.657H138.557V23.9072H143.269V28.657ZM138.861 28.3501H142.964V24.2141H138.861V28.3501Z" fill="#3F3D56"/>
<path d="M29.4126 15.7832C30.7578 15.7832 31.8482 14.684 31.8482 13.3281C31.8482 11.9722 30.7578 10.873 29.4126 10.873C28.0675 10.873 26.9771 11.9722 26.9771 13.3281C26.9771 14.684 28.0675 15.7832 29.4126 15.7832Z" fill="#34ADBE"/>
<path d="M29.4126 23.1465C30.7578 23.1465 31.8482 22.0473 31.8482 20.6914C31.8482 19.3355 30.7578 18.2363 29.4126 18.2363C28.0675 18.2363 26.9771 19.3355 26.9771 20.6914C26.9771 22.0473 28.0675 23.1465 29.4126 23.1465Z" fill="#34ADBE"/>
<path d="M29.4126 29.7451C30.7578 29.7451 31.8482 28.6459 31.8482 27.29C31.8482 25.9341 30.7578 24.835 29.4126 24.835C28.0675 24.835 26.9771 25.9341 26.9771 27.29C26.9771 28.6459 28.0675 29.7451 29.4126 29.7451Z" fill="#34ADBE"/>
<path d="M28.1949 15.3215C27.683 15.3215 27.1827 15.1685 26.7572 14.8819C26.3316 14.5953 25.9999 14.1879 25.804 13.7112C25.6082 13.2346 25.5569 12.7101 25.6568 12.2041C25.7566 11.6981 26.0031 11.2333 26.365 10.8685C26.7269 10.5037 27.188 10.2553 27.69 10.1546C28.192 10.054 28.7123 10.1056 29.1852 10.3031C29.658 10.5005 30.0622 10.8348 30.3465 11.2638C30.6309 11.6928 30.7826 12.1971 30.7826 12.713C30.7819 13.4046 30.509 14.0676 30.0239 14.5566C29.5387 15.0457 28.8809 15.3207 28.1949 15.3215ZM28.1949 10.4114C27.7432 10.4114 27.3018 10.5464 26.9263 10.7993C26.5508 11.0522 26.2581 11.4116 26.0853 11.8322C25.9125 12.2528 25.8673 12.7156 25.9554 13.162C26.0435 13.6085 26.2609 14.0186 26.5803 14.3405C26.8996 14.6624 27.3065 14.8816 27.7494 14.9704C28.1923 15.0592 28.6514 15.0136 29.0687 14.8394C29.4859 14.6652 29.8425 14.3702 30.0934 13.9917C30.3443 13.6132 30.4782 13.1682 30.4782 12.713C30.4775 12.1028 30.2367 11.5178 29.8087 11.0863C29.3806 10.6548 28.8002 10.4121 28.1949 10.4114Z" fill="#3F3D56"/>
<path d="M28.1949 22.6867C27.683 22.6867 27.1827 22.5338 26.7572 22.2471C26.3316 21.9605 25.9999 21.5531 25.804 21.0765C25.6082 20.5998 25.5569 20.0753 25.6568 19.5693C25.7566 19.0633 26.0031 18.5986 26.365 18.2337C26.7269 17.8689 27.188 17.6205 27.69 17.5198C28.192 17.4192 28.7123 17.4709 29.1852 17.6683C29.658 17.8657 30.0622 18.2001 30.3465 18.629C30.6309 19.058 30.7826 19.5623 30.7826 20.0782C30.7819 20.7698 30.509 21.4329 30.0239 21.9219C29.5387 22.4109 28.8809 22.686 28.1949 22.6867ZM28.1949 17.7766C27.7432 17.7766 27.3018 17.9116 26.9263 18.1645C26.5508 18.4174 26.2581 18.7769 26.0853 19.1974C25.9125 19.618 25.8673 20.0808 25.9554 20.5273C26.0435 20.9737 26.2609 21.3838 26.5803 21.7057C26.8996 22.0276 27.3065 22.2468 27.7494 22.3356C28.1923 22.4245 28.6514 22.3789 29.0687 22.2047C29.4859 22.0305 29.8425 21.7355 30.0934 21.357C30.3443 20.9785 30.4782 20.5335 30.4782 20.0782C30.4775 19.468 30.2367 18.883 29.8087 18.4515C29.3806 18.02 28.8002 17.7773 28.1949 17.7766Z" fill="#3F3D56"/>
<path d="M28.1949 29.2854C27.683 29.2854 27.1827 29.1324 26.7572 28.8458C26.3316 28.5591 25.9999 28.1517 25.804 27.6751C25.6082 27.1985 25.5569 26.674 25.6568 26.168C25.7566 25.662 26.0031 25.1972 26.365 24.8324C26.7269 24.4676 27.188 24.2191 27.69 24.1185C28.192 24.0178 28.7123 24.0695 29.1852 24.2669C29.658 24.4644 30.0622 24.7987 30.3465 25.2277C30.6309 25.6566 30.7826 26.161 30.7826 26.6769C30.7819 27.3685 30.509 28.0315 30.0239 28.5205C29.5387 29.0095 28.8809 29.2846 28.1949 29.2854ZM28.1949 24.3752C27.7432 24.3752 27.3018 24.5102 26.9263 24.7631C26.5508 25.016 26.2581 25.3755 26.0853 25.7961C25.9125 26.2166 25.8673 26.6794 25.9554 27.1259C26.0435 27.5724 26.2609 27.9825 26.5803 28.3044C26.8996 28.6263 27.3065 28.8455 27.7494 28.9343C28.1923 29.0231 28.6514 28.9775 29.0687 28.8033C29.4859 28.6291 29.8425 28.3341 30.0934 27.9556C30.3443 27.5771 30.4782 27.1321 30.4782 26.6769C30.4775 26.0667 30.2367 25.4816 29.8087 25.0501C29.3806 24.6186 28.8002 24.3759 28.1949 24.3752Z" fill="#3F3D56"/>
<path d="M151.191 92.0417H150.887V89.7401C150.887 89.618 150.935 89.501 151.021 89.4147C151.106 89.3284 151.222 89.2799 151.343 89.2798H152.104C152.145 89.2797 152.184 89.2636 152.212 89.2348C152.241 89.206 152.257 89.167 152.257 89.1263V87.5919C152.257 87.5512 152.241 87.5122 152.212 87.4834C152.184 87.4547 152.145 87.4385 152.104 87.4385H151.343C151.222 87.4383 151.106 87.3898 151.021 87.3035C150.935 87.2172 150.887 87.1002 150.887 86.9781V86.2109C150.887 86.1702 150.871 86.1312 150.842 86.1025C150.814 86.0737 150.775 86.0575 150.734 86.0575H149.364C149.243 86.0574 149.127 86.0088 149.042 85.9225C148.956 85.8362 148.908 85.7192 148.908 85.5972V85.4437C148.908 85.403 148.892 85.364 148.863 85.3353C148.835 85.3065 148.796 85.2903 148.756 85.2903H143.276C143.235 85.2903 143.196 85.3065 143.168 85.3353C143.139 85.364 143.123 85.403 143.123 85.4437V85.5972C143.123 85.7192 143.075 85.8362 142.989 85.9225C142.904 86.0088 142.788 86.0574 142.667 86.0575H141.297C141.256 86.0575 141.218 86.0737 141.189 86.1025C141.16 86.1312 141.144 86.1702 141.144 86.2109V86.9781C141.144 87.1002 141.096 87.2172 141.011 87.3035C140.925 87.3898 140.809 87.4383 140.688 87.4385H139.927C139.886 87.4385 139.848 87.4547 139.819 87.4834C139.79 87.5122 139.774 87.5512 139.774 87.5919V89.1263C139.774 89.167 139.79 89.206 139.819 89.2348C139.848 89.2636 139.886 89.2797 139.927 89.2798H140.84C140.961 89.2799 141.077 89.3284 141.163 89.4147C141.248 89.501 141.297 89.618 141.297 89.7401V92.0417H140.992V89.7401C140.992 89.6994 140.976 89.6604 140.948 89.6316C140.919 89.6029 140.88 89.5867 140.84 89.5867H139.927C139.806 89.5865 139.689 89.538 139.604 89.4517C139.518 89.3654 139.47 89.2484 139.47 89.1263V87.5919C139.47 87.4699 139.518 87.3529 139.604 87.2666C139.689 87.1803 139.806 87.1317 139.927 87.1316H140.688C140.728 87.1316 140.767 87.1154 140.795 87.0866C140.824 87.0578 140.84 87.0188 140.84 86.9781V86.2109C140.84 86.0889 140.888 85.9719 140.974 85.8856C141.059 85.7993 141.176 85.7507 141.297 85.7506H142.667C142.707 85.7506 142.746 85.7344 142.774 85.7056C142.803 85.6769 142.819 85.6379 142.819 85.5972V85.4437C142.819 85.3217 142.867 85.2047 142.953 85.1184C143.038 85.0321 143.154 84.9835 143.276 84.9834H148.756C148.877 84.9835 148.993 85.0321 149.078 85.1184C149.164 85.2047 149.212 85.3217 149.212 85.4437V85.5972C149.212 85.6379 149.228 85.6769 149.257 85.7056C149.285 85.7344 149.324 85.7506 149.364 85.7506H150.734C150.856 85.7507 150.972 85.7993 151.057 85.8856C151.143 85.9719 151.191 86.0889 151.191 86.2109V86.9781C151.191 87.0188 151.207 87.0578 151.236 87.0866C151.264 87.1154 151.303 87.1316 151.343 87.1316H152.104C152.226 87.1317 152.342 87.1803 152.427 87.2666C152.513 87.3529 152.561 87.4699 152.561 87.5919V89.1263C152.561 89.2484 152.513 89.3654 152.427 89.4517C152.342 89.538 152.226 89.5865 152.104 89.5867H151.343C151.303 89.5867 151.264 89.6029 151.236 89.6316C151.207 89.6604 151.191 89.6994 151.191 89.7401V92.0417Z" fill="#3F3D56"/>
<path d="M150.735 102.785H141.449C141.328 102.785 141.212 102.736 141.126 102.65C141.041 102.564 140.992 102.447 140.992 102.325V95.7266H141.297V102.325C141.297 102.365 141.313 102.404 141.341 102.433C141.37 102.462 141.409 102.478 141.449 102.478H150.735C150.775 102.478 150.814 102.462 150.842 102.433C150.871 102.404 150.887 102.365 150.887 102.325V95.7266H151.191V102.325C151.191 102.447 151.143 102.564 151.057 102.65C150.972 102.736 150.856 102.785 150.735 102.785Z" fill="#3F3D56"/>
<path d="M152.713 93.1162H141.297C141.129 93.1162 140.992 93.2536 140.992 93.4231V96.4919C140.992 96.6614 141.129 96.7988 141.297 96.7988H152.713C152.882 96.7988 153.018 96.6614 153.018 96.4919V93.4231C153.018 93.2536 152.882 93.1162 152.713 93.1162Z" fill="#34ADBE"/>
<path d="M151.724 95.8782H140.307C140.186 95.878 140.07 95.8295 139.984 95.7432C139.899 95.6569 139.851 95.5399 139.851 95.4178V92.349C139.851 92.227 139.899 92.1099 139.984 92.0236C140.07 91.9373 140.186 91.8888 140.307 91.8887H151.724C151.845 91.8888 151.961 91.9373 152.047 92.0236C152.132 92.1099 152.181 92.227 152.181 92.349V95.4178C152.181 95.5399 152.132 95.6569 152.047 95.7432C151.961 95.8295 151.845 95.878 151.724 95.8782ZM140.307 92.1956C140.267 92.1956 140.228 92.2118 140.2 92.2405C140.171 92.2693 140.155 92.3083 140.155 92.349V95.4178C140.155 95.4585 140.171 95.4975 140.2 95.5263C140.228 95.5551 140.267 95.5712 140.307 95.5713H151.724C151.764 95.5712 151.803 95.5551 151.832 95.5263C151.86 95.4975 151.876 95.4585 151.876 95.4178V92.349C151.876 92.3083 151.86 92.2693 151.832 92.2405C151.803 92.2118 151.764 92.1956 151.724 92.1956H140.307Z" fill="#3F3D56"/>
<path d="M145.711 83.9106C145.307 81.1628 145.2 78.3788 145.392 75.6077L145.711 71.0215C143.954 74.5454 144.351 79.1834 145.711 83.9106V83.9106Z" fill="#D0CDE1"/>
<path d="M147.081 84.676C146.886 83.0363 146.835 81.3825 146.928 79.7338L147.081 77.0039C146.236 79.1015 146.427 81.8622 147.081 84.676Z" fill="#D0CDE1"/>
</svg>
