<svg width="151" height="139" viewBox="0 0 151 139" fill="none" xmlns="http://www.w3.org/2000/svg">
<path d="M100.826 48.8139H50.3811C49.5152 48.8129 48.685 48.4657 48.0727 47.8485C47.4603 47.2313 47.1159 46.3944 47.1149 45.5216V5.58393C47.1156 4.94445 47.368 4.33136 47.8165 3.87917C48.2651 3.42698 48.8733 3.17261 49.5077 3.17188H101.658C102.304 3.17262 102.922 3.43138 103.379 3.89138C103.835 4.35139 104.092 4.97508 104.093 5.62563V45.5216C104.092 46.3944 103.747 47.2313 103.135 47.8485C102.523 48.4657 101.692 48.8129 100.826 48.8139Z" fill="#F2F2F2"/>
<path d="M53.5483 45.5203H97.6592C98.4992 45.5203 99.3048 45.1839 99.8988 44.5852C100.493 43.9865 100.826 43.1745 100.826 42.3278V11.6896C100.826 10.8429 100.493 10.0309 99.8988 9.43215C99.3048 8.83343 98.4992 8.49707 97.6592 8.49707H53.5483C52.7083 8.49707 51.9027 8.83343 51.3088 9.43215C50.7148 10.0309 50.3811 10.8429 50.3811 11.6896V42.3278C50.3811 43.1745 50.7148 43.9865 51.3088 44.5852C51.9027 45.1839 52.7083 45.5203 53.5483 45.5203Z" fill="white"/>
<path d="M104.047 5.39445H47.0691V3.71828C47.0703 2.8425 47.4162 2.00298 48.0307 1.3839C48.6453 0.764826 49.4783 0.416742 50.3471 0.416016H100.769C101.638 0.416735 102.471 0.764818 103.085 1.3839C103.7 2.00298 104.046 2.8425 104.047 3.71828V5.39445Z" fill="#CCCCCC"/>
<path d="M53.0264 3.76602C53.4947 3.76602 53.8743 3.38336 53.8743 2.91133C53.8743 2.4393 53.4947 2.05664 53.0264 2.05664C52.5581 2.05664 52.1785 2.4393 52.1785 2.91133C52.1785 3.38336 52.5581 3.76602 53.0264 3.76602Z" fill="white"/>
<path d="M56.245 3.76602C56.7133 3.76602 57.0929 3.38336 57.0929 2.91133C57.0929 2.4393 56.7133 2.05664 56.245 2.05664C55.7767 2.05664 55.3971 2.4393 55.3971 2.91133C55.3971 3.38336 55.7767 3.76602 56.245 3.76602Z" fill="white"/>
<path d="M59.4633 3.76602C59.9316 3.76602 60.3112 3.38336 60.3112 2.91133C60.3112 2.4393 59.9316 2.05664 59.4633 2.05664C58.995 2.05664 58.6154 2.4393 58.6154 2.91133C58.6154 3.38336 58.995 3.76602 59.4633 3.76602Z" fill="white"/>
<path d="M56.7943 22.8539H54.6097C54.4913 22.8538 54.3777 22.8063 54.2939 22.7218C54.2102 22.6374 54.163 22.5229 54.1629 22.4035V20.2014C54.163 20.082 54.2102 19.9675 54.2939 19.883C54.3777 19.7986 54.4913 19.7511 54.6097 19.751H56.7943C56.9128 19.7511 57.0264 19.7986 57.1101 19.8831C57.1939 19.9675 57.241 20.082 57.2412 20.2014V22.4035C57.241 22.5229 57.1939 22.6374 57.1101 22.7218C57.0264 22.8063 56.9128 22.8538 56.7943 22.8539Z" fill="#34ADBE"/>
<path d="M56.7943 28.5609H54.6097C54.4913 28.5608 54.3777 28.5133 54.2939 28.4288C54.2102 28.3444 54.163 28.2299 54.1629 28.1105V25.9084C54.163 25.789 54.2102 25.6745 54.2939 25.5901C54.3777 25.5056 54.4913 25.4581 54.6097 25.458H56.7943C56.9128 25.4581 57.0264 25.5056 57.1101 25.5901C57.1939 25.6745 57.241 25.789 57.2412 25.9084V28.1105C57.241 28.2299 57.1939 28.3444 57.1101 28.4288C57.0264 28.5133 56.9128 28.5608 56.7943 28.5609Z" fill="#3F3D56"/>
<path d="M56.7943 34.266H54.6097C54.4913 34.2659 54.3777 34.2184 54.2939 34.1339C54.2102 34.0495 54.163 33.935 54.1629 33.8156V31.6135C54.163 31.4941 54.2102 31.3796 54.2939 31.2952C54.3777 31.2107 54.4913 31.1632 54.6097 31.1631H56.7943C56.9128 31.1632 57.0264 31.2107 57.1101 31.2952C57.1939 31.3796 57.241 31.4941 57.2412 31.6135V33.8156C57.241 33.935 57.1939 34.0495 57.1101 34.1339C57.0264 34.2184 56.9128 34.2659 56.7943 34.266Z" fill="#CCCCCC"/>
<path d="M71.0935 21.7544H60.5678C60.4494 21.7541 60.336 21.7065 60.2524 21.6221C60.1688 21.5377 60.1219 21.4232 60.1219 21.3039C60.1219 21.1846 60.1688 21.0702 60.2524 20.9858C60.336 20.9013 60.4494 20.8538 60.5678 20.8535H71.0935C71.1522 20.8534 71.2105 20.865 71.2648 20.8875C71.3191 20.9101 71.3685 20.9433 71.4101 20.9851C71.4517 21.0269 71.4847 21.0766 71.5072 21.1314C71.5297 21.1861 71.5413 21.2447 71.5413 21.3039C71.5413 21.3632 71.5297 21.4218 71.5072 21.4765C71.4847 21.5312 71.4517 21.5809 71.4101 21.6228C71.3685 21.6646 71.3191 21.6978 71.2648 21.7203C71.2105 21.7429 71.1522 21.7545 71.0935 21.7544Z" fill="#CCCCCC"/>
<path d="M71.0935 27.4604H60.5678C60.4494 27.4602 60.336 27.4126 60.2524 27.3282C60.1688 27.2437 60.1219 27.1293 60.1219 27.01C60.1219 26.8907 60.1688 26.7763 60.2524 26.6918C60.336 26.6074 60.4494 26.5598 60.5678 26.5596H71.0935C71.212 26.5596 71.3257 26.607 71.4095 26.6915C71.4933 26.776 71.5403 26.8905 71.5403 27.01C71.5403 27.1295 71.4933 27.244 71.4095 27.3285C71.3257 27.413 71.212 27.4604 71.0935 27.4604Z" fill="#CCCCCC"/>
<path d="M71.0935 33.1655H60.5678C60.4494 33.1652 60.336 33.1177 60.2524 33.0332C60.1688 32.9488 60.1219 32.8344 60.1219 32.7151C60.1219 32.5958 60.1688 32.4814 60.2524 32.3969C60.336 32.3125 60.4494 32.2649 60.5678 32.2646H71.0935C71.1522 32.2645 71.2105 32.2761 71.2648 32.2987C71.3191 32.3212 71.3685 32.3544 71.4101 32.3962C71.4517 32.4381 71.4847 32.4878 71.5072 32.5425C71.5297 32.5972 71.5413 32.6558 71.5413 32.7151C71.5413 32.7743 71.5297 32.8329 71.5072 32.8877C71.4847 32.9424 71.4517 32.9921 71.4101 33.0339C71.3685 33.0757 71.3191 33.1089 71.2648 33.1315C71.2105 33.1541 71.1522 33.1656 71.0935 33.1655Z" fill="#CCCCCC"/>
<path d="M97.0269 27.1534C97.0381 26.964 97.0445 26.7734 97.0445 26.5812C97.0445 24.0771 96.0576 21.6756 94.3011 19.905C92.5445 18.1344 90.1621 17.1397 87.6779 17.1396V27.1534H97.0269Z" fill="#34ADBE"/>
<path d="M86.9684 28.0108V17.9971C85.1401 17.997 83.3517 18.5363 81.8237 19.5485C80.2958 20.5607 79.0952 22.0016 78.3699 23.6934C77.6447 25.3852 77.4265 27.254 77.7423 29.0693C78.058 30.8846 78.894 32.567 80.147 33.9091C81.4001 35.2513 83.0154 36.1944 84.7938 36.6222C86.5722 37.05 88.436 36.9438 90.1552 36.3167C91.8745 35.6896 93.3741 34.569 94.4691 33.093C95.5641 31.6171 96.2066 29.8504 96.3174 28.0108H86.9684Z" fill="#3F3D56"/>
<path d="M150.802 138.054H0.359815C0.307316 138.054 0.256966 138.033 0.219843 137.996C0.18272 137.958 0.161865 137.907 0.161865 137.854C0.161865 137.801 0.18272 137.75 0.219843 137.713C0.256966 137.675 0.307316 137.654 0.359815 137.654H150.802C150.854 137.654 150.905 137.675 150.942 137.713C150.979 137.75 151 137.801 151 137.854C151 137.907 150.979 137.958 150.942 137.996C150.905 138.033 150.854 138.054 150.802 138.054Z" fill="#CCCCCC"/>
<path d="M100.065 82.8089C100.131 82.8993 100.19 82.9948 100.241 83.0945L110.161 84.2188L111.604 82.254L114.831 84.0612L111.99 88.8339L99.8372 85.6189C99.5279 85.9186 99.1355 86.1163 98.712 86.1857C98.2886 86.255 97.8542 86.1929 97.4667 86.0073C97.0792 85.8218 96.7569 85.5218 96.5427 85.1471C96.3284 84.7725 96.2324 84.341 96.2674 83.91C96.3024 83.479 96.4667 83.0689 96.7386 82.7344C97.0104 82.3998 97.3768 82.1566 97.7891 82.0371C98.2013 81.9175 98.64 81.9274 99.0466 82.0652C99.4532 82.2031 99.8085 82.4625 100.065 82.8089Z" fill="#FFB8B8"/>
<path d="M49.4488 80.2291C49.198 80.3777 48.9178 80.4691 48.6281 80.4968C48.3384 80.5245 48.0462 80.4878 47.7721 80.3894C47.498 80.2909 47.2486 80.1331 47.0415 79.927C46.8345 79.7209 46.6748 79.4715 46.5736 79.1964L39.5015 79.3451L41.4607 76.21L47.8762 76.5494C48.3459 76.4089 48.8504 76.4468 49.2941 76.6561C49.7379 76.8654 50.0901 77.2316 50.2839 77.6851C50.4778 78.1387 50.4998 78.6482 50.3459 79.117C50.192 79.5859 49.8728 79.9816 49.4488 80.2291V80.2291Z" fill="#FFB8B8"/>
<path d="M46.3406 79.3303C46.2844 79.5192 46.1682 79.6844 46.0098 79.8002C45.8514 79.9161 45.6596 79.9762 45.464 79.9715L32.5207 79.6401L20.8007 76.1423C20.4782 76.046 20.1779 75.8861 19.9173 75.6719C19.6566 75.4576 19.4408 75.1933 19.2824 74.8942C19.1241 74.5951 19.0262 74.2673 18.9947 73.9297C18.9631 73.5922 18.9984 73.2517 19.0985 72.9281C19.1987 72.6044 19.3617 72.3041 19.578 72.0445C19.7943 71.7849 20.0597 71.5712 20.3587 71.4159C20.6576 71.2606 20.9843 71.1668 21.3195 71.1399C21.6548 71.113 21.992 71.1535 22.3116 71.2592L32.9001 74.7587L45.6087 75.9949C45.8313 76.0176 46.0374 76.1235 46.1864 76.2918C46.3354 76.46 46.4165 76.6784 46.4138 76.9039L46.377 79.089C46.3758 79.1707 46.3635 79.2519 46.3406 79.3303Z" fill="#3F3D56"/>
<path d="M27.5702 135.422L29.9969 135.422L31.1515 125.986L27.5698 125.987L27.5702 135.422Z" fill="#FFB8B8"/>
<path d="M26.9511 134.622L31.7304 134.622H31.7306C32.1306 134.622 32.5266 134.701 32.8961 134.856C33.2657 135.01 33.6014 135.236 33.8843 135.521C34.1671 135.806 34.3914 136.145 34.5445 136.517C34.6976 136.89 34.7763 137.289 34.7763 137.692V137.792L26.9513 137.792L26.9511 134.622Z" fill="#2F2E41"/>
<path d="M20.444 135.422L22.8707 135.422L24.0253 125.986L20.4436 125.987L20.444 135.422Z" fill="#FFB8B8"/>
<path d="M19.825 134.622L24.6043 134.622H24.6045C25.0045 134.622 25.4005 134.701 25.77 134.856C26.1396 135.01 26.4753 135.236 26.7582 135.521C27.041 135.806 27.2653 136.145 27.4184 136.517C27.5715 136.89 27.6502 137.289 27.6502 137.692V137.792L19.8252 137.792L19.825 134.622Z" fill="#2F2E41"/>
<path d="M18.8153 97.2896L19.3948 131.948C19.3966 132.057 19.4209 132.165 19.4661 132.265C19.5113 132.365 19.5765 132.455 19.6575 132.528C19.7385 132.601 19.8337 132.657 19.937 132.692C20.0404 132.726 20.1497 132.739 20.2582 132.729L23.098 132.469C23.2843 132.452 23.4585 132.369 23.5899 132.234C23.7213 132.1 23.8013 131.923 23.8157 131.736L25.4783 110.117C25.4822 110.066 25.5052 110.019 25.5427 109.985C25.5801 109.95 25.6291 109.932 25.6796 109.933C25.7301 109.934 25.7783 109.954 25.8144 109.99C25.8504 110.026 25.8716 110.074 25.8735 110.125L26.7045 132.238C26.7122 132.445 26.799 132.64 26.9465 132.783C27.094 132.926 27.2909 133.006 27.4957 133.006H30.5413C30.7429 133.006 30.937 132.929 31.0838 132.789C31.2307 132.65 31.3193 132.46 31.3316 132.257L33.4636 97.09L20.7948 93.8975L18.8153 97.2896Z" fill="#2F2E41"/>
<path d="M28.0044 64.7459C30.6895 64.7459 32.8662 62.5517 32.8662 59.8451C32.8662 57.1385 30.6895 54.9443 28.0044 54.9443C25.3192 54.9443 23.1425 57.1385 23.1425 59.8451C23.1425 62.5517 25.3192 64.7459 28.0044 64.7459Z" fill="#FFB8B8"/>
<path d="M33.2773 98.574C33.2726 98.574 33.2679 98.5738 33.2632 98.5738L21.8947 98.3975C21.6762 98.3941 21.4665 98.3099 21.3056 98.1608C21.1447 98.0117 21.0438 97.8082 21.022 97.589L20.8933 96.2915C20.8909 96.2669 20.8795 96.244 20.8613 96.2274C20.8431 96.2108 20.8194 96.2016 20.7949 96.2016C20.7703 96.2016 20.7466 96.2108 20.7284 96.2274C20.7102 96.244 20.6988 96.2669 20.6964 96.2915L20.5634 97.6317C20.5428 97.8415 20.4495 98.0373 20.2999 98.1847C20.1503 98.332 19.9539 98.4215 19.7454 98.4374L18.942 98.4998C18.8004 98.5108 18.6582 98.4875 18.5274 98.4319C18.3965 98.3763 18.2808 98.2899 18.1898 98.18C18.0988 98.0701 18.0351 97.9399 18.0042 97.8001C17.9733 97.6604 17.976 97.5153 18.012 97.3768L18.7038 94.7182C20.1352 89.1927 20.2504 83.4044 19.0398 77.8255L18.6961 76.2493C18.437 75.0718 18.5556 73.8418 19.0348 72.7367C19.514 71.6315 20.3291 70.7084 21.3625 70.1004L23.5954 68.781L24.6085 67.2492C24.8046 66.9535 25.0685 66.7099 25.3778 66.5389C25.6872 66.3679 26.0329 66.2746 26.3856 66.267C27.7989 66.2358 30.2232 66.4967 30.6786 68.5797C31.8074 68.9685 32.7849 69.7079 33.4707 70.6916C34.1564 71.6754 34.5152 72.853 34.4955 74.0552L34.1676 97.6886C34.1642 97.9245 34.069 98.1495 33.9024 98.3152C33.7359 98.4809 33.5113 98.5739 33.2773 98.574Z" fill="#3F3D56"/>
<path d="M27.624 62.6697C27.6041 63.3625 27.1269 63.7633 26.5411 64.1261C25.9553 64.489 25.2705 64.6464 24.5996 64.7981C24.5095 64.8464 24.4086 64.8704 24.3066 64.8679C24.2046 64.8653 24.105 64.8364 24.0174 64.7837C23.9297 64.7311 23.857 64.6566 23.8063 64.5674C23.7555 64.4782 23.7284 64.3773 23.7276 64.2744L23.1123 61.9153C22.8946 61.1617 22.7362 60.392 22.6386 59.6133C22.4904 58.1149 22.8427 56.5031 23.8802 55.4198C24.9177 54.3364 26.717 53.9516 27.9603 54.7863C29.4357 52.8868 36.1798 57.0835 34.5162 58.4044C34.2202 58.6394 33.7678 58.3421 33.3921 58.3133C33.0165 58.2844 32.5955 58.351 32.3569 58.6449C32.0451 59.0289 32.1809 59.6008 32.0524 60.0797C31.9993 60.2483 31.9136 60.4045 31.8002 60.5395C31.6869 60.6745 31.5481 60.7855 31.392 60.8661C31.2359 60.9468 31.0655 60.9955 30.8906 61.0094C30.7157 61.0234 30.5398 61.0023 30.3731 60.9474C30.0625 60.7931 29.7703 60.6038 29.5021 60.383C29.214 60.1895 28.8499 60.0466 28.5255 60.1686C28.0979 60.3294 27.9461 60.8571 27.9074 61.3154C27.8422 61.7726 27.7476 62.225 27.624 62.6697Z" fill="#2F2E41"/>
<path opacity="0.2" d="M28.7595 75.8047L29.5513 85.5819L33.7083 95.7582L27.5718 85.7814L28.7595 75.8047Z" fill="black"/>
<path d="M79.8998 129.345L36.515 103.4C35.7708 102.954 35.2325 102.228 35.0183 101.382C34.8041 100.537 34.9315 99.6398 35.3725 98.8885L55.5881 64.5407C55.9124 63.9911 56.4397 63.5936 57.0544 63.4354C57.6691 63.2772 58.3209 63.3713 58.8669 63.6969L103.718 90.5188C104.273 90.8514 104.674 91.3922 104.834 92.0225C104.993 92.6528 104.899 93.3213 104.57 93.8811L84.3754 128.193C83.9327 128.943 83.2129 129.486 82.3738 129.702C81.5348 129.918 80.6451 129.789 79.8998 129.345Z" fill="#F2F2F2"/>
<path d="M40.9054 102.198L78.8424 124.885C79.5648 125.317 80.4279 125.442 81.2418 125.233C82.0557 125.024 82.7537 124.497 83.1823 123.769L98.6907 97.4186C99.1193 96.6904 99.2434 95.8204 99.0356 95C98.8278 94.1796 98.3052 93.476 97.5828 93.044L59.6458 70.357C58.9234 69.925 58.0603 69.7999 57.2464 70.0094C56.4325 70.2188 55.7345 70.7456 55.3059 71.4738L39.7975 97.8237C39.3689 98.5519 39.2448 99.4219 39.4526 100.242C39.6604 101.063 40.183 101.766 40.9054 102.198Z" fill="white"/>
<path d="M104.647 93.6597L55.6441 64.355L56.4926 62.9134C56.9369 62.1609 57.6593 61.6167 58.5012 61.4004C59.3431 61.184 60.2357 61.3131 60.9833 61.7593L104.348 87.6921C105.095 88.1396 105.635 88.8674 105.85 89.7159C106.065 90.5644 105.938 91.4643 105.496 92.2182L104.647 93.6597Z" fill="#CCCCCC"/>
<path d="M62.0252 66.1381C62.4934 66.1381 62.8731 65.7554 62.8731 65.2834C62.8731 64.8114 62.4934 64.4287 62.0252 64.4287C61.5569 64.4287 61.1772 64.8114 61.1772 65.2834C61.1772 65.7554 61.5569 66.1381 62.0252 66.1381Z" fill="white"/>
<path d="M64.7931 67.7924C65.2614 67.7924 65.641 67.4097 65.641 66.9377C65.641 66.4657 65.2614 66.083 64.7931 66.083C64.3248 66.083 63.9452 66.4657 63.9452 66.9377C63.9452 67.4097 64.3248 67.7924 64.7931 67.7924Z" fill="white"/>
<path d="M67.5611 69.4486C68.0294 69.4486 68.409 69.066 68.409 68.5939C68.409 68.1219 68.0294 67.7393 67.5611 67.7393C67.0928 67.7393 66.7132 68.1219 66.7132 68.5939C66.7132 69.066 67.0928 69.4486 67.5611 69.4486Z" fill="white"/>
<path d="M93.7441 98.663L93.6889 98.7568L94.2469 99.0906L94.3022 98.9967L93.7441 98.663Z" fill="#E6E6E6"/>
<path d="M92.5622 98.083L91.4354 97.4092L91.4905 97.3154L92.6173 97.9893L92.5622 98.083ZM90.3086 96.7353L89.1818 96.0615L89.237 95.9678L90.3638 96.6416L90.3086 96.7353ZM88.0551 95.3877L86.9283 94.7138L86.9834 94.6201L88.1102 95.294L88.0551 95.3877ZM85.8015 94.04L84.6747 93.3662L84.7299 93.2725L85.8567 93.9463L85.8015 94.04ZM83.548 92.6924L82.4212 92.0185L82.4764 91.9248L83.6031 92.5987L83.548 92.6924ZM81.2944 91.3447L80.1676 90.6709L80.2228 90.5772L81.3496 91.251L81.2944 91.3447ZM79.0409 89.997L77.9141 89.3232L77.9693 89.2295L79.096 89.9033L79.0409 89.997ZM76.7873 88.6494L75.6606 87.9756L75.7157 87.8818L76.8425 88.5557L76.7873 88.6494ZM74.5338 87.3017L73.407 86.6279L73.4622 86.5342L74.5889 87.208L74.5338 87.3017ZM72.2802 85.9541L71.1535 85.2802L71.2086 85.1865L72.3354 85.8604L72.2802 85.9541ZM70.0267 84.6064L68.8999 83.9326L68.9551 83.8389L70.0818 84.5127L70.0267 84.6064ZM67.7731 83.2587L66.6464 82.5849L66.7015 82.4912L67.8283 83.165L67.7731 83.2587ZM65.5196 81.9111L64.3928 81.2373L64.448 81.1436L65.5747 81.8174L65.5196 81.9111ZM63.266 80.5634L62.1392 79.8896L62.1944 79.7959L63.3212 80.4697L63.266 80.5634ZM61.0125 79.2158L59.8857 78.542L59.9409 78.4482L61.0676 79.1221L61.0125 79.2158ZM58.7589 77.8681L57.6321 77.1943L57.6873 77.1006L58.8141 77.7744L58.7589 77.8681Z" fill="#E6E6E6"/>
<path d="M56.0029 76.0927L55.9477 76.1865L56.5057 76.5202L56.561 76.4264L56.0029 76.0927Z" fill="#E6E6E6"/>
<path d="M70.3024 96.4257L70.2472 96.5195L70.8052 96.8532L70.8605 96.7594L70.3024 96.4257Z" fill="#E6E6E6"/>
<path d="M69.1371 95.8547L68.0271 95.1909L68.0823 95.0972L69.1923 95.761L69.1371 95.8547ZM66.9171 94.5271L65.807 93.8633L65.8622 93.7696L66.9722 94.4334L66.9171 94.5271ZM64.697 93.1995L63.587 92.5356L63.6421 92.4419L64.7522 93.1058L64.697 93.1995ZM62.4769 91.8718L61.3669 91.208L61.422 91.1143L62.5321 91.7781L62.4769 91.8718ZM60.2568 90.5442L59.1468 89.8803L59.2019 89.7866L60.312 90.4505L60.2568 90.5442ZM58.0368 89.2165L56.9267 88.5527L56.9819 88.459L58.0919 89.1228L58.0368 89.2165ZM55.8167 87.8889L54.7066 87.2251L54.7618 87.1314L55.8718 87.7952L55.8167 87.8889ZM53.5966 86.5612L52.4866 85.8974L52.5417 85.8037L53.6518 86.4675L53.5966 86.5612Z" fill="#E6E6E6"/>
<path d="M50.8741 84.8065L50.8188 84.9004L51.3769 85.2341L51.4321 85.1403L50.8741 84.8065Z" fill="#E6E6E6"/>
<path d="M56.9996 94.0448L56.9444 94.1387L57.5024 94.4724L57.5577 94.3786L56.9996 94.0448Z" fill="#E6E6E6"/>
<path d="M55.8024 93.4558L54.6604 92.7729L54.7155 92.6792L55.8576 93.3621L55.8024 93.4558ZM53.5183 92.0899L52.3762 91.4069L52.4314 91.3132L53.5734 91.9962L53.5183 92.0899ZM51.2342 90.7239L50.0921 90.041L50.1472 89.9473L51.2893 90.6302L51.2342 90.7239Z" fill="#E6E6E6"/>
<path d="M48.4474 88.9296L48.3922 89.0234L48.9503 89.3572L49.0055 89.2633L48.4474 88.9296Z" fill="#E6E6E6"/>
<path d="M52.8586 101.08L52.8033 101.174L53.3614 101.508L53.4166 101.414L52.8586 101.08Z" fill="#E6E6E6"/>
<path d="M51.6614 100.491L50.5193 99.808L50.5745 99.7143L51.7165 100.397L51.6614 100.491ZM49.3772 99.125L48.2352 98.4421L48.2903 98.3484L49.4324 99.0313L49.3772 99.125ZM47.0931 97.7591L45.951 97.0761L46.0062 96.9824L47.1483 97.6654L47.0931 97.7591Z" fill="#E6E6E6"/>
<path d="M44.3064 95.9667L44.2512 96.0605L44.8092 96.3943L44.8644 96.3004L44.3064 95.9667Z" fill="#E6E6E6"/>
<path d="M47.3535 98.0114L79.5025 117.237C80.2814 117.702 81.2114 117.836 82.0884 117.61C82.9654 117.385 83.7177 116.817 84.1804 116.033L93.5738 100.073L93.5092 100.037L72.1968 105.521L70.5086 98.8575C70.4778 98.7343 70.419 98.62 70.337 98.5235C70.255 98.427 70.152 98.351 70.036 98.3013C69.8586 98.2293 69.6625 98.2182 69.4782 98.2698L58.3096 101.143L57.075 96.2714C57.0484 96.1662 57.0015 96.0674 56.937 95.9805C56.8725 95.8936 56.7917 95.8204 56.6991 95.765C56.6065 95.7097 56.504 95.6732 56.3975 95.6578C56.2909 95.6424 56.1824 95.6483 56.0781 95.6751C56.0026 95.6953 48.735 97.6364 47.3535 98.0114Z" fill="#34ADBE"/>
<path d="M47.1613 98.0247L47.1346 97.9192L56.0719 95.6194C56.308 95.5589 56.5582 95.5953 56.7677 95.7206C56.9772 95.8459 57.1288 96.0498 57.1893 96.2876L58.3988 101.063L69.5055 98.2055C69.7415 98.145 69.9918 98.1814 70.2013 98.3067C70.4107 98.4319 70.5624 98.6359 70.6229 98.8737L72.2861 105.441L93.7094 99.9284L93.7362 100.034L72.2081 105.574L70.5181 98.9007C70.4918 98.7967 70.4454 98.699 70.3816 98.6131C70.3178 98.5272 70.2379 98.4548 70.1463 98.4C70.0548 98.3453 69.9534 98.3092 69.848 98.294C69.7427 98.2787 69.6353 98.2845 69.5322 98.311L58.3209 101.196L57.0846 96.3146C57.0312 96.1047 56.8974 95.9248 56.7126 95.8143C56.5277 95.7037 56.3069 95.6716 56.0986 95.7249L47.1613 98.0247Z" fill="#3F3D56"/>
<path d="M57.5297 95.1865C57.9475 95.1865 58.2863 94.845 58.2863 94.4238C58.2863 94.0026 57.9475 93.6611 57.5297 93.6611C57.1118 93.6611 56.7731 94.0026 56.7731 94.4238C56.7731 94.845 57.1118 95.1865 57.5297 95.1865Z" fill="#3F3D56"/>
<path d="M70.8325 97.5683C71.2504 97.5683 71.5891 97.2268 71.5891 96.8056C71.5891 96.3844 71.2504 96.043 70.8325 96.043C70.4147 96.043 70.0759 96.3844 70.0759 96.8056C70.0759 97.2268 70.4147 97.5683 70.8325 97.5683Z" fill="#3F3D56"/>
<path d="M94.0084 99.4052C94.4262 99.4052 94.765 99.0638 94.765 98.6426C94.765 98.2213 94.4262 97.8799 94.0084 97.8799C93.5905 97.8799 93.2518 98.2213 93.2518 98.6426C93.2518 99.0638 93.5905 99.4052 94.0084 99.4052Z" fill="#3F3D56"/>
<path d="M34.6802 99.5482C34.4533 99.3645 34.2691 99.133 34.1406 98.8698C34.0121 98.6066 33.9423 98.3182 33.9364 98.0249C33.9304 97.7317 33.9882 97.4406 34.1059 97.1724C34.2235 96.9041 34.3981 96.665 34.6173 96.4721L31.9691 89.8604L35.5722 90.5938L37.5347 96.76C37.8318 97.1527 37.9756 97.6416 37.939 98.1341C37.9024 98.6266 37.6879 99.0884 37.336 99.4321C36.9842 99.7758 36.5195 99.9774 36.03 99.9988C35.5405 100.02 35.0603 99.8599 34.6802 99.5482Z" fill="#FFB8B8"/>
<path d="M34.6363 96.6827C34.4411 96.6969 34.2467 96.646 34.0831 96.5378C33.9194 96.4297 33.7955 96.2703 33.7305 96.0842L29.4434 83.7693L28.5272 71.4833C28.5019 71.1452 28.5436 70.8054 28.6498 70.4837C28.756 70.162 28.9245 69.8648 29.1457 69.6094C29.3669 69.3539 29.6362 69.1454 29.938 68.9958C30.2399 68.8462 30.5682 68.7586 30.904 68.7381C31.2397 68.7176 31.5761 68.7645 31.8937 68.8763C32.2113 68.988 32.5036 69.1622 32.7538 69.3889C33.0039 69.6155 33.2069 69.89 33.3508 70.1965C33.4948 70.5029 33.5769 70.8351 33.5923 71.1738L34.1053 82.3941L37.4699 94.809C37.5279 95.0269 37.5028 95.2587 37.3997 95.4588C37.2965 95.6589 37.1228 95.8129 36.9127 95.8904L34.8731 96.6314C34.7968 96.6592 34.7172 96.6765 34.6363 96.6827Z" fill="#3F3D56"/>
<path d="M114.125 85.7716C114.046 85.7362 113.971 85.6894 113.904 85.6326L109.918 82.2472C109.822 82.1658 109.744 82.0653 109.688 81.952C109.633 81.8386 109.602 81.715 109.596 81.5888C109.591 81.4626 109.611 81.3367 109.657 81.2189C109.702 81.1011 109.771 80.9941 109.859 80.9046L113.477 77.2427C113.629 77.0877 113.831 76.9928 114.047 76.9755C114.262 76.9582 114.477 77.0196 114.651 77.1485L117.387 79.1511C117.558 79.2762 117.68 79.4575 117.732 79.6636C117.785 79.8697 117.764 80.0878 117.674 80.2801L115.307 85.3246C115.206 85.5393 115.026 85.7059 114.806 85.7893C114.585 85.8727 114.341 85.8664 114.125 85.7716L114.125 85.7716Z" fill="#34ADBE"/>
<path d="M129.676 133.651L127.295 134.304L123.663 125.356L127.177 124.393L129.676 133.651Z" fill="#FFB8B8"/>
<path d="M125.361 134.099L130.001 132.826L130.788 135.741L123.304 137.793L123.291 137.745C123.086 136.985 123.189 136.174 123.577 135.49C123.965 134.806 124.607 134.306 125.361 134.099Z" fill="#2F2E41"/>
<path d="M109.32 135.483L106.852 135.483L105.678 125.889L109.32 125.889L109.32 135.483Z" fill="#FFB8B8"/>
<path d="M105.04 134.772H109.849V137.793H102.093V137.743C102.093 136.955 102.403 136.2 102.956 135.642C103.509 135.085 104.258 134.772 105.04 134.772Z" fill="#2F2E41"/>
<path d="M113.037 72.1347C115.768 72.1347 117.981 69.9036 117.981 67.1513C117.981 64.3991 115.768 62.168 113.037 62.168C110.307 62.168 108.093 64.3991 108.093 67.1513C108.093 69.9036 110.307 72.1347 113.037 72.1347Z" fill="#FFB8B8"/>
<path d="M109.169 128.642H105.796C105.566 128.641 105.344 128.552 105.176 128.393C105.008 128.234 104.906 128.017 104.891 127.785C103.887 111.683 104.474 100.132 106.741 91.4351C106.751 91.397 106.763 91.3596 106.778 91.3231L106.959 90.868C107.025 90.6982 107.141 90.5526 107.291 90.4502C107.441 90.3478 107.618 90.2934 107.8 90.294H114.734C114.865 90.2938 114.994 90.3223 115.113 90.3773C115.232 90.4324 115.337 90.5127 115.422 90.6128L116.364 91.7206C116.382 91.7422 116.4 91.7642 116.416 91.7874C120.663 97.7578 124.47 109.43 128.878 125.119C128.943 125.347 128.917 125.592 128.806 125.801C128.695 126.01 128.507 126.167 128.283 126.238L124.659 127.407C124.45 127.473 124.226 127.462 124.025 127.375C123.825 127.288 123.662 127.132 123.567 126.934L114.162 107.272C114.096 107.135 113.988 107.022 113.854 106.951C113.72 106.881 113.567 106.855 113.417 106.879C113.268 106.903 113.13 106.975 113.024 107.084C112.918 107.193 112.85 107.333 112.829 107.484L110.066 127.852C110.036 128.071 109.928 128.271 109.763 128.416C109.599 128.561 109.387 128.641 109.169 128.642Z" fill="#2F2E41"/>
<path d="M115.984 91.8029C115.974 91.8029 115.965 91.8027 115.955 91.8025L107.532 91.5344C107.315 91.5283 107.108 91.4439 106.948 91.2966C106.788 91.1494 106.686 90.949 106.661 90.7322C105.593 82.0195 108.521 79.6853 109.83 79.0863C109.939 79.0366 110.034 78.9592 110.105 78.8617C110.176 78.7642 110.221 78.6498 110.235 78.5298L110.348 77.6165C110.367 77.4553 110.429 77.3021 110.527 77.1731C112.579 74.4938 115.381 73.6358 116.868 73.363C116.989 73.3412 117.113 73.3442 117.232 73.3721C117.351 73.4 117.464 73.452 117.563 73.525C117.662 73.5981 117.745 73.6906 117.807 73.797C117.869 73.9035 117.91 74.0215 117.925 74.1441L118.095 75.4554C118.112 75.5805 118.162 75.6988 118.238 75.7986C122.518 81.4375 117.75 89.7634 116.751 91.3751C116.67 91.506 116.556 91.6139 116.422 91.6887C116.288 91.7635 116.137 91.8028 115.984 91.8029Z" fill="#34ADBE"/>
<path d="M118.477 64.0513C118.109 62.9293 117.838 61.7776 117.666 60.6088C117.612 59.9284 117.785 59.1963 118.277 58.7268C119.197 57.8482 120.76 58.2667 121.722 59.0982C123.113 60.2999 123.806 62.1467 124.068 63.9739C124.33 65.8012 124.215 67.6593 124.278 69.5044C124.341 71.3495 124.603 73.2467 125.536 74.8353C126.469 76.4239 128.201 77.6433 130.028 77.5081C130.765 77.468 131.465 77.1689 132.006 76.6628C132.272 76.408 132.473 76.0926 132.593 75.7432C132.713 75.3937 132.748 75.0204 132.696 74.6545C133.629 76.3396 133.156 78.6235 131.763 79.9483C130.371 81.273 128.229 81.6475 126.398 81.0819C124.567 80.5163 123.06 79.0981 122.16 77.3945C121.26 75.6908 120.931 73.7228 120.978 71.7933C121.015 70.3116 121.265 68.8178 121.017 67.3569C120.768 65.896 119.861 64.4127 118.431 64.0687L118.477 64.0513Z" fill="#2F2E41"/>
<path d="M112.054 65.9732C111.81 66.7943 110.877 67.3007 110.038 67.1618C109.62 67.0742 109.234 66.8743 108.92 66.5832C108.606 66.2922 108.376 65.9209 108.254 65.5087C108.024 64.6736 108.118 63.7812 108.518 63.0138C108.738 62.5539 109.047 62.1422 109.425 61.8024C109.803 61.4627 110.245 61.2015 110.723 61.0338C111.205 60.873 111.717 60.8311 112.218 60.9118C112.719 60.9925 113.193 61.1932 113.601 61.4973C113.644 61.3128 113.736 61.1433 113.866 61.0063C113.996 60.8693 114.159 60.7697 114.34 60.7177C114.704 60.6187 115.089 60.6245 115.45 60.7342C116.491 61.0331 117.393 61.6944 117.995 62.6005C118.59 63.5038 118.983 64.5263 119.149 65.5976C119.433 67.2043 119.328 68.9599 118.433 70.3196C117.537 71.6794 115.706 72.4823 114.22 71.8341C114.128 71.3566 114.347 70.8759 114.601 70.4623C114.855 70.0486 115.156 69.6456 115.253 69.1692C115.351 68.6927 115.164 68.11 114.707 67.9542C114.317 67.8213 113.901 68.0366 113.49 68.0626C113.257 68.0774 113.024 68.0301 112.814 67.9253C112.605 67.8206 112.426 67.6623 112.297 67.4661C112.167 67.2699 112.091 67.0428 112.076 66.8076C112.061 66.5724 112.108 66.3374 112.211 66.1261L112.054 65.9732Z" fill="#2F2E41"/>
<path d="M99.524 86.5041C99.6057 86.5803 99.6814 86.6629 99.7504 86.7511L109.703 85.9704L110.752 83.7666L114.259 84.9283L112.362 90.1552L99.8254 89.3071C99.5777 89.6602 99.2293 89.9289 98.8264 90.0775C98.4236 90.2261 97.9853 90.2476 97.5701 90.139C97.1548 90.0305 96.7822 89.7971 96.5017 89.4698C96.2213 89.1426 96.0463 88.7371 96 88.3071C95.9538 87.8772 96.0385 87.4433 96.2429 87.0631C96.4473 86.6829 96.7616 86.3744 97.1442 86.1787C97.5267 85.983 97.9593 85.9093 98.3844 85.9674C98.8095 86.0255 99.207 86.2127 99.524 86.5041V86.5041Z" fill="#FFB8B8"/>
<path d="M114.205 88.4079C114.121 88.3839 114.041 88.3477 113.967 88.3006L109.56 85.4944C109.454 85.427 109.363 85.3381 109.293 85.2335C109.223 85.1288 109.175 85.0106 109.152 84.8864C109.13 84.7621 109.133 84.6345 109.162 84.5116C109.191 84.3887 109.245 84.2732 109.32 84.1724L112.409 80.0477C112.539 79.8732 112.726 79.7515 112.938 79.7047C113.149 79.658 113.37 79.6893 113.56 79.7931L116.541 81.4012C116.727 81.5017 116.872 81.6644 116.952 81.8614C117.032 82.0584 117.041 82.2773 116.978 82.4803L115.315 87.8029C115.244 88.0293 115.088 88.2191 114.881 88.332C114.674 88.445 114.431 88.4722 114.205 88.4079Z" fill="#34ADBE"/>
</svg>
