<svg width="169" height="131" viewBox="0 0 169 131" fill="none" xmlns="http://www.w3.org/2000/svg">
<path opacity="0.1" d="M52.974 130.679C72.7705 130.679 88.8187 128.227 88.8187 125.202C88.8187 122.178 72.7705 119.726 52.974 119.726C33.1775 119.726 17.1293 122.178 17.1293 125.202C17.1293 128.227 33.1775 130.679 52.974 130.679Z" fill="#34ADBE"/>
<path opacity="0.1" d="M52.3945 5.95418C58.0799 0.903361 67.0056 -0.131145 75.1314 0.276572C100.65 1.54232 123.682 13.8149 143.612 27.7001C150.826 32.7281 157.929 38.1441 162.611 45.0676C172.143 59.1582 169.315 78.6799 156.06 90.2877C151.551 94.2432 146.084 97.2661 140.473 99.9497C130.494 104.722 119.727 108.553 108.401 109.644C100.325 110.421 92.1497 109.788 84.1205 108.703C61.687 105.673 39.667 98.9669 21.2119 87.5006C13.1178 82.4772 5.48852 76.2184 2.15156 68.0808C-1.18539 59.9432 0.944164 49.6316 9.21637 44.8166C12.6348 42.8237 16.7219 41.9261 20.7229 41.0787C26.609 39.8358 32.5977 38.6096 37.9133 36.0826C43.4024 33.4705 49.9027 28.4212 48.8161 22.6432C47.6494 16.4407 46.7107 10.9959 52.3945 5.95418Z" fill="#34ADBE"/>
<path d="M139.62 13.6556C140.64 20.4346 137.801 26.491 137.801 26.491C137.801 26.491 133.308 21.5574 132.285 14.7783C131.713 10.975 132.355 7.40289 133.028 4.99614C133.113 4.68359 133.286 4.4026 133.526 4.18732C133.766 3.97203 134.063 3.8317 134.381 3.78337C134.699 3.73503 135.024 3.78078 135.317 3.91505C135.609 4.04932 135.857 4.26634 136.03 4.53974C137.383 6.6331 139.048 9.85376 139.62 13.6556Z" fill="#34ADBE"/>
<path d="M158.591 24.4611C159.602 24.4563 160.609 24.5847 161.587 24.8429C163.234 25.2689 163.259 27.6194 161.622 28.0818C160.65 28.361 159.646 28.5113 158.635 28.5291C154.933 28.5702 151.91 26.5681 151.91 26.5681C151.91 26.5681 154.889 24.5021 158.591 24.4611Z" fill="#34ADBE"/>
<path d="M148.181 14.1539C144.735 17.9709 144.006 22.9594 144.006 22.9594C144.006 22.9594 148.863 21.7575 152.307 17.939C153.904 16.1697 154.918 14.1494 155.546 12.4911C155.665 12.1772 155.687 11.8345 155.61 11.5076C155.533 11.1806 155.36 10.8846 155.114 10.6581C154.868 10.4316 154.56 10.2851 154.23 10.2375C153.9 10.19 153.563 10.2437 153.264 10.3917C151.676 11.1782 149.777 12.3846 148.181 14.1539Z" fill="#34ADBE"/>
<path d="M152.423 13.4346H80.8243C79.1739 13.4346 77.8359 14.7832 77.8359 16.4468V104.588C77.8359 106.252 79.1739 107.6 80.8243 107.6H152.423C154.074 107.6 155.411 106.252 155.411 104.588V16.4468C155.411 14.7832 154.074 13.4346 152.423 13.4346Z" fill="#464353"/>
<path opacity="0.1" d="M148.719 22.9336H84.5279V98.1011H148.719V22.9336Z" fill="#34ADBE"/>
<path d="M116.624 105.811C118.132 105.811 119.355 104.578 119.355 103.057C119.355 101.537 118.132 100.304 116.624 100.304C115.115 100.304 113.892 101.537 113.892 103.057C113.892 104.578 115.115 105.811 116.624 105.811Z" fill="white"/>
<path d="M116.624 20.2431C116.368 20.2431 116.119 20.1668 115.907 20.0239C115.695 19.8809 115.529 19.6778 115.431 19.4401C115.334 19.2024 115.308 18.9409 115.358 18.6886C115.408 18.4363 115.531 18.2045 115.711 18.0226C115.892 17.8407 116.122 17.7168 116.372 17.6666C116.622 17.6164 116.882 17.6422 117.117 17.7406C117.353 17.8391 117.555 18.0058 117.697 18.2197C117.838 18.4336 117.914 18.6851 117.914 18.9423C117.913 19.2871 117.777 19.6175 117.535 19.8612C117.293 20.105 116.966 20.2423 116.624 20.2431Z" fill="white"/>
<path d="M116.624 17.7186C116.864 17.7186 117.099 17.7904 117.299 17.925C117.498 18.0595 117.654 18.2508 117.746 18.4746C117.838 18.6983 117.862 18.9446 117.815 19.1822C117.768 19.4197 117.653 19.6379 117.483 19.8092C117.313 19.9805 117.096 20.0971 116.861 20.1444C116.625 20.1916 116.381 20.1674 116.159 20.0747C115.937 19.982 115.747 19.825 115.613 19.6236C115.48 19.4222 115.409 19.1854 115.409 18.9432C115.409 18.6186 115.537 18.3073 115.765 18.0777C115.993 17.8481 116.301 17.719 116.624 17.7186ZM116.624 17.5664C116.353 17.5649 116.088 17.6444 115.863 17.7948C115.637 17.9451 115.461 18.1596 115.356 18.4111C115.252 18.6625 115.224 18.9396 115.275 19.2071C115.327 19.4747 115.457 19.7207 115.648 19.9141C115.838 20.1074 116.082 20.2393 116.347 20.293C116.612 20.3467 116.887 20.3199 117.137 20.2159C117.387 20.112 117.601 19.9355 117.751 19.7089C117.902 19.4824 117.982 19.2159 117.982 18.9432C117.983 18.7628 117.948 18.5839 117.881 18.4169C117.813 18.2499 117.713 18.0981 117.587 17.9701C117.46 17.8422 117.31 17.7407 117.145 17.6714C116.98 17.6021 116.803 17.5664 116.624 17.5664Z" fill="white"/>
<path d="M100.174 46.2197H88.1591C87.8007 46.2197 87.5101 46.5126 87.5101 46.8739V63.8094C87.5101 64.1707 87.8007 64.4635 88.1591 64.4635H100.174C100.533 64.4635 100.823 64.1707 100.823 63.8094V46.8739C100.823 46.5126 100.533 46.2197 100.174 46.2197Z" fill="white" stroke="white" stroke-miterlimit="10"/>
<path opacity="0.5" d="M98.4975 50.8174H89.8359C89.2408 50.8174 88.7583 51.3037 88.7583 51.9036V55.5198C88.7583 56.1197 89.2408 56.6061 89.8359 56.6061H98.4975C99.0926 56.6061 99.5751 56.1197 99.5751 55.5198V51.9036C99.5751 51.3037 99.0926 50.8174 98.4975 50.8174Z" fill="#34ADBE"/>
<path d="M97.0622 58.9678H91.2712C91.1304 58.9678 91.0162 59.0829 91.0162 59.2249V59.6098C91.0162 59.7518 91.1304 59.8669 91.2712 59.8669H97.0622C97.2031 59.8669 97.3173 59.7518 97.3173 59.6098V59.2249C97.3173 59.0829 97.2031 58.9678 97.0622 58.9678Z" fill="#34ADBE"/>
<path d="M122.682 46.2197H110.667C110.308 46.2197 110.018 46.5126 110.018 46.8739V63.8094C110.018 64.1707 110.308 64.4635 110.667 64.4635H122.682C123.04 64.4635 123.331 64.1707 123.331 63.8094V46.8739C123.331 46.5126 123.04 46.2197 122.682 46.2197Z" fill="white" stroke="white" stroke-miterlimit="10"/>
<path opacity="0.5" d="M119.678 49.0703H113.74C113.618 49.0703 113.519 49.1698 113.519 49.2924V52.2621C113.519 52.3847 113.618 52.4842 113.74 52.4842H119.678C119.8 52.4842 119.899 52.3847 119.899 52.2621V49.2924C119.899 49.1698 119.8 49.0703 119.678 49.0703Z" fill="#34ADBE"/>
<path d="M120.475 55.6826H112.841C112.701 55.6826 112.586 55.7977 112.586 55.9397V56.3246C112.586 56.4666 112.701 56.5817 112.841 56.5817H120.475C120.616 56.5817 120.73 56.4666 120.73 56.3246V55.9397C120.73 55.7977 120.616 55.6826 120.475 55.6826Z" fill="#34ADBE"/>
<path d="M120.475 57.3604H112.841C112.701 57.3604 112.586 57.4755 112.586 57.6175V58.0024C112.586 58.1443 112.701 58.2595 112.841 58.2595H120.475C120.616 58.2595 120.73 58.1443 120.73 58.0024V57.6175C120.73 57.4755 120.616 57.3604 120.475 57.3604Z" fill="#34ADBE"/>
<path d="M145.088 33.2588H133.073C132.715 33.2588 132.424 33.5517 132.424 33.913V50.8484C132.424 51.2097 132.715 51.5026 133.073 51.5026H145.088C145.447 51.5026 145.737 51.2097 145.737 50.8484V33.913C145.737 33.5517 145.447 33.2588 145.088 33.2588Z" fill="white" stroke="white" stroke-miterlimit="10"/>
<path opacity="0.5" d="M143.194 36.0908H134.967C134.845 36.0908 134.747 36.1903 134.747 36.3129V39.9459C134.747 40.0685 134.845 40.168 134.967 40.168H143.194C143.316 40.168 143.414 40.0685 143.414 39.9459V36.3129C143.414 36.1903 143.316 36.0908 143.194 36.0908Z" fill="#34ADBE"/>
<path opacity="0.5" d="M143.194 42.0156H134.967C134.845 42.0156 134.747 42.1151 134.747 42.2377V45.8707C134.747 45.9934 134.845 46.0928 134.967 46.0928H143.194C143.316 46.0928 143.414 45.9934 143.414 45.8707V42.2377C143.414 42.1151 143.316 42.0156 143.194 42.0156Z" fill="#34ADBE"/>
<path d="M136.319 49.3799H134.632C134.313 49.3799 134.054 49.6408 134.054 49.9626V50.0554C134.054 50.3772 134.313 50.638 134.632 50.638H136.319C136.639 50.638 136.897 50.3772 136.897 50.0554V49.9626C136.897 49.6408 136.639 49.3799 136.319 49.3799Z" fill="#34ADBE"/>
<path d="M139.925 49.3799H138.238C137.918 49.3799 137.659 49.6408 137.659 49.9626V50.0554C137.659 50.3772 137.918 50.638 138.238 50.638H139.925C140.244 50.638 140.503 50.3772 140.503 50.0554V49.9626C140.503 49.6408 140.244 49.3799 139.925 49.3799Z" fill="#34ADBE"/>
<path d="M143.531 49.3799H141.843C141.524 49.3799 141.265 49.6408 141.265 49.9626V50.0554C141.265 50.3772 141.524 50.638 141.843 50.638H143.531C143.85 50.638 144.109 50.3772 144.109 50.0554V49.9626C144.109 49.6408 143.85 49.3799 143.531 49.3799Z" fill="#34ADBE"/>
<path d="M145.056 59.1807H133.041C132.683 59.1807 132.392 59.4735 132.392 59.8348V76.7703C132.392 77.1316 132.683 77.4245 133.041 77.4245H145.056C145.415 77.4245 145.705 77.1316 145.705 76.7703V59.8348C145.705 59.4735 145.415 59.1807 145.056 59.1807Z" fill="white" stroke="white" stroke-miterlimit="10"/>
<path opacity="0.5" d="M137.178 61.3135H133.64C133.519 61.3135 133.42 61.4129 133.42 61.5356V65.1685C133.42 65.2912 133.519 65.3906 133.64 65.3906H137.178C137.3 65.3906 137.398 65.2912 137.398 65.1685V61.5356C137.398 61.4129 137.3 61.3135 137.178 61.3135Z" fill="#34ADBE"/>
<path d="M142.866 67.873H135.233C135.092 67.873 134.978 67.9882 134.978 68.1302V68.515C134.978 68.657 135.092 68.7722 135.233 68.7722H142.866C143.007 68.7722 143.121 68.657 143.121 68.515V68.1302C143.121 67.9882 143.007 67.873 142.866 67.873Z" fill="#34ADBE"/>
<path d="M142.866 69.6914H135.233C135.092 69.6914 134.978 69.8065 134.978 69.9485V70.3334C134.978 70.4754 135.092 70.5905 135.233 70.5905H142.866C143.007 70.5905 143.121 70.4754 143.121 70.3334V69.9485C143.121 69.8065 143.007 69.6914 142.866 69.6914Z" fill="#34ADBE"/>
<path d="M142.866 71.5098H135.233C135.092 71.5098 134.978 71.6249 134.978 71.7669V72.1518C134.978 72.2938 135.092 72.4089 135.233 72.4089H142.866C143.007 72.4089 143.121 72.2938 143.121 72.1518V71.7669C143.121 71.6249 143.007 71.5098 142.866 71.5098Z" fill="#34ADBE"/>
<path d="M108.483 54.9062L108.279 55.0051L106.628 55.8053L106.477 55.8768C106.467 55.8815 106.456 55.8841 106.445 55.8845C106.434 55.8848 106.423 55.8828 106.412 55.8787C106.402 55.8746 106.393 55.8683 106.385 55.8604C106.377 55.8525 106.371 55.8431 106.367 55.8327C106.365 55.8226 106.365 55.8123 106.367 55.8023V55.3291C106.367 55.3077 106.358 55.2872 106.343 55.2721C106.328 55.257 106.308 55.2485 106.287 55.2485H102.274C102.252 55.2485 102.232 55.24 102.217 55.225C102.201 55.2099 102.193 55.1894 102.192 55.1679V54.5C102.193 54.4785 102.201 54.458 102.217 54.4429C102.232 54.4278 102.252 54.4194 102.274 54.4194H106.291C106.313 54.419 106.333 54.4101 106.348 54.3948C106.363 54.3794 106.371 54.3587 106.371 54.3372V53.8534C106.37 53.8433 106.37 53.8331 106.371 53.823C106.375 53.8127 106.382 53.8034 106.39 53.7957C106.398 53.7879 106.407 53.7819 106.417 53.7779C106.428 53.7739 106.439 53.7721 106.45 53.7725C106.461 53.7729 106.471 53.7756 106.481 53.7804L106.632 53.8519L108.279 54.6597L108.483 54.7601C108.496 54.7666 108.508 54.777 108.516 54.7899C108.524 54.8028 108.529 54.8178 108.529 54.8332C108.529 54.8485 108.524 54.8635 108.516 54.8764C108.508 54.8894 108.496 54.8997 108.483 54.9062Z" fill="white" stroke="white" stroke-miterlimit="10"/>
<path d="M130.824 50.8039L130.691 50.988L129.611 52.4728L129.516 52.6052C129.509 52.6139 129.5 52.6213 129.491 52.6267C129.481 52.6322 129.471 52.6356 129.46 52.6369C129.449 52.6382 129.438 52.6372 129.427 52.6341C129.416 52.631 129.407 52.6258 129.398 52.6188C129.39 52.6121 129.384 52.6038 129.38 52.5945L129.16 52.1777C129.149 52.1585 129.132 52.1442 129.111 52.1377C129.091 52.1311 129.069 52.1329 129.049 52.1427L125.503 54.0459C125.493 54.0509 125.483 54.054 125.473 54.0551C125.462 54.0561 125.451 54.0551 125.441 54.0519C125.431 54.0488 125.422 54.0437 125.414 54.0369C125.406 54.0302 125.399 54.0218 125.394 54.0124L125.083 53.4206C125.078 53.4112 125.075 53.4009 125.074 53.3903C125.073 53.3797 125.074 53.369 125.077 53.3588C125.08 53.3487 125.085 53.3392 125.092 53.331C125.099 53.3228 125.107 53.316 125.116 53.311L128.663 51.4109C128.672 51.4059 128.681 51.3992 128.687 51.391C128.694 51.3828 128.699 51.3733 128.702 51.3631C128.705 51.3529 128.706 51.3422 128.705 51.3316C128.704 51.321 128.701 51.3107 128.696 51.3014L128.471 50.8739C128.466 50.8653 128.462 50.8553 128.462 50.845C128.461 50.8339 128.462 50.8225 128.465 50.8118C128.468 50.801 128.473 50.7911 128.481 50.7826C128.488 50.7741 128.497 50.7673 128.507 50.7625C128.517 50.7578 128.528 50.7553 128.539 50.7552H128.701L130.53 50.6883L130.756 50.6807C130.771 50.6807 130.785 50.6845 130.797 50.6918C130.809 50.6991 130.819 50.7096 130.826 50.7221C130.833 50.7347 130.837 50.7489 130.836 50.7633C130.836 50.7777 130.832 50.7917 130.824 50.8039Z" fill="white" stroke="white" stroke-miterlimit="10"/>
<path d="M130.812 58.6012H130.587H128.76H128.598C128.587 58.6013 128.576 58.599 128.566 58.5946C128.556 58.5901 128.547 58.5837 128.539 58.5755C128.532 58.5674 128.526 58.5577 128.522 58.5472C128.519 58.5368 128.517 58.5256 128.518 58.5145C128.518 58.5044 128.521 58.4946 128.526 58.4856L128.728 58.0581C128.732 58.0485 128.735 58.0381 128.736 58.0275C128.736 58.0169 128.735 58.0062 128.731 57.9962C128.728 57.9861 128.722 57.9769 128.715 57.969C128.708 57.9611 128.7 57.9547 128.69 57.9501L125.068 56.1975C125.049 56.188 125.034 56.1711 125.027 56.1506C125.02 56.1301 125.021 56.1076 125.03 56.088L125.317 55.4871C125.321 55.4773 125.328 55.4685 125.335 55.4613C125.343 55.454 125.352 55.4485 125.362 55.4449C125.372 55.4414 125.383 55.4399 125.394 55.4406C125.404 55.4413 125.415 55.4442 125.424 55.449L129.046 57.2031C129.066 57.2122 129.088 57.2133 129.108 57.2062C129.128 57.1991 129.145 57.1844 129.155 57.1651L129.363 56.7285C129.369 56.7159 129.378 56.7051 129.389 56.6969C129.4 56.6888 129.413 56.6838 129.426 56.6822C129.44 56.6807 129.453 56.6827 129.466 56.6882C129.478 56.6936 129.489 56.7023 129.498 56.7133L129.599 56.8395L130.735 58.2878L130.876 58.4674C130.886 58.4792 130.893 58.4939 130.895 58.5095C130.897 58.5252 130.894 58.5411 130.888 58.5554C130.881 58.5697 130.87 58.5816 130.857 58.5898C130.843 58.5979 130.828 58.6019 130.812 58.6012Z" fill="white" stroke="white" stroke-miterlimit="10"/>
<path d="M64.6646 92.4903L64.6525 92.9361L63.8828 120.331H62.5879L63.2233 92.9361L63.2354 92.4219L64.6646 92.4903Z" fill="#504F60"/>
<path opacity="0.1" d="M64.6646 92.4903L64.6525 92.9361L63.8828 120.331H62.5879L63.2233 92.9361L63.2354 92.4219L64.6646 92.4903Z" fill="black"/>
<path d="M72.1582 115.696L71.1892 115.693L56.7834 115.662L56.0167 115.661L56.4242 114.391H72.0555L72.1582 115.696Z" fill="#504F60"/>
<path opacity="0.1" d="M64.6647 92.4903L64.6526 92.9361H63.2233L63.2354 92.4219L64.6647 92.4903Z" fill="black"/>
<path d="M65.211 91.8203H62.8098V92.7301H65.211V91.8203Z" fill="#504F60"/>
<path opacity="0.1" d="M56.9117 114.391L56.7834 115.662L56.0167 115.661L56.4242 114.391H56.9117Z" fill="black"/>
<path d="M58.9793 91.8037L58.9385 92.1977L55.7435 123.968L54.2795 123.899L57.6466 92.1977L57.6843 91.8372L58.9793 91.8037Z" fill="#504F60"/>
<path opacity="0.1" d="M72.1581 115.696L71.1892 115.693L71.0579 114.391H72.0555L72.1581 115.696Z" fill="black"/>
<path d="M73.6915 123.899L72.226 123.968L69.0309 92.1977L68.9917 91.8037L70.2851 91.8372L70.3229 92.1977L73.6915 123.899Z" fill="#504F60"/>
<path d="M79.9232 60.4785H47.6388V91.6826H79.9232V60.4785Z" fill="white"/>
<path d="M86.419 60.4785H41.1807C40.8364 60.4785 40.5574 60.7598 40.5574 61.1068V91.0543C40.5574 91.4013 40.8364 91.6826 41.1807 91.6826H86.419C86.7632 91.6826 87.0423 91.4013 87.0423 91.0543V61.1068C87.0423 60.7598 86.7632 60.4785 86.419 60.4785Z" fill="white"/>
<path d="M64.4095 50.0426V57.5778H63.1508V50.0426C63.1508 49.8743 63.2171 49.713 63.3352 49.594C63.4532 49.475 63.6133 49.4082 63.7802 49.4082C63.9471 49.4082 64.1072 49.475 64.2252 49.594C64.3432 49.713 64.4095 49.8743 64.4095 50.0426Z" fill="#504F60"/>
<path opacity="0.1" d="M64.411 56.8926H63.1508V57.5787H64.411V56.8926Z" fill="black"/>
<path d="M64.9046 57.406V59.8949H62.6573V57.406C62.6573 57.3253 62.6892 57.2479 62.7458 57.1908C62.8024 57.1338 62.8791 57.1017 62.9592 57.1017H64.5937C64.6341 57.1005 64.6743 57.1074 64.712 57.1222C64.7497 57.1369 64.784 57.1591 64.813 57.1875C64.842 57.2159 64.8651 57.2499 64.8808 57.2874C64.8965 57.3249 64.9046 57.3652 64.9046 57.406Z" fill="#504F60"/>
<path opacity="0.1" d="M63.7802 59.1568C64.0436 59.1568 64.2571 58.9416 64.2571 58.6761C64.2571 58.4105 64.0436 58.1953 63.7802 58.1953C63.5168 58.1953 63.3033 58.4105 63.3033 58.6761C63.3033 58.9416 63.5168 59.1568 63.7802 59.1568Z" fill="black"/>
<path d="M63.7802 59.0543C64.0436 59.0543 64.2571 58.839 64.2571 58.5735C64.2571 58.308 64.0436 58.0928 63.7802 58.0928C63.5168 58.0928 63.3033 58.308 63.3033 58.5735C63.3033 58.839 63.5168 59.0543 63.7802 59.0543Z" fill="#3F3D56"/>
<path opacity="0.1" d="M64.9046 59.5859H62.6573V59.8948H64.9046V59.5859Z" fill="black"/>
<path opacity="0.1" d="M65.8239 60H61.7368V60.6861H65.8239V60Z" fill="black"/>
<path d="M65.8239 59.793H61.7368V60.4791H65.8239V59.793Z" fill="#504F60"/>
<path opacity="0.1" d="M55.6755 90.8701H72.5158C72.7559 90.8701 72.9863 90.9663 73.1561 91.1375C73.3259 91.3087 73.4213 91.5408 73.4213 91.7829H54.773C54.773 91.5414 54.868 91.3096 55.0372 91.1385C55.2063 90.9674 55.4359 90.8709 55.6755 90.8701Z" fill="black"/>
<path opacity="0.1" d="M57.6843 91.8372L58.9793 91.8037L58.9385 92.1977H57.6466L57.6843 91.8372Z" fill="black"/>
<path opacity="0.1" d="M65.211 91.8203H62.8098V92.1976H65.211V91.8203Z" fill="black"/>
<path opacity="0.1" d="M70.3229 92.1977H69.0309L68.9917 91.8037L70.2851 91.8372L70.3229 92.1977Z" fill="black"/>
<path d="M55.6755 91.0811H72.5158C72.7559 91.0811 72.9863 91.1772 73.1561 91.3484C73.3259 91.5196 73.4213 91.7518 73.4213 91.9939H54.773C54.773 91.7518 54.8684 91.5196 55.0382 91.3484C55.2081 91.1772 55.4384 91.0811 55.6786 91.0811H55.6755Z" fill="#504F60"/>
<path d="M78.7957 64.1424C78.8299 64.137 78.8649 64.1396 78.8979 64.1501C78.9309 64.1606 78.9611 64.1786 78.986 64.2027C79.011 64.2269 79.0301 64.2565 79.0419 64.2893C79.0536 64.3221 79.0577 64.3572 79.0538 64.3918C78.835 66.5217 78.9753 68.7033 79.2123 70.8286C79.3225 71.8007 79.4719 72.8292 79.899 73.5503C79.9263 73.594 79.9381 73.6457 79.9326 73.697C79.9271 73.7484 79.9047 73.7964 79.8688 73.8332C79.7496 73.9268 79.5998 73.9718 79.4492 73.9595L72.7135 73.9975C72.6793 73.9978 72.6455 73.9902 72.6147 73.9754C72.5838 73.9605 72.5568 73.9388 72.5355 73.9118C72.5143 73.8848 72.4994 73.8533 72.4921 73.8196C72.4847 73.786 72.4851 73.7511 72.4931 73.7176C73.0349 71.39 72.9187 68.8494 72.7014 66.435C72.5942 65.2468 72.5323 64.6094 73.4122 64.5257C74.3178 64.4436 75.2233 64.4055 76.1289 64.3295C76.3462 64.3112 78.0879 64.2595 78.7957 64.1424Z" fill="white" stroke="#33313F" stroke-width="3" stroke-miterlimit="10"/>
<path d="M73.6417 78.0916C73.6075 78.0862 73.5726 78.0889 73.5396 78.0993C73.5066 78.1098 73.4764 78.1278 73.4514 78.1519C73.4265 78.1761 73.4073 78.2057 73.3956 78.2385C73.3838 78.2713 73.3797 78.3064 73.3836 78.3411C73.6025 80.4709 73.4621 82.6525 73.2236 84.7778C73.115 85.75 72.9656 86.7784 72.5385 87.501C72.5111 87.5444 72.4991 87.5959 72.5046 87.6471C72.5101 87.6982 72.5327 87.746 72.5686 87.7825C72.6879 87.876 72.8376 87.9211 72.9882 87.9087L79.724 87.9483C79.7581 87.948 79.7918 87.94 79.8225 87.9249C79.8531 87.9098 79.88 87.8879 79.9012 87.8609C79.9224 87.8339 79.9372 87.8024 79.9447 87.7688C79.9521 87.7352 79.952 87.7004 79.9443 87.6668C79.4025 85.3392 79.5187 82.7986 79.7361 80.3842C79.8432 79.1961 79.9051 78.5586 79.0252 78.475C78.1453 78.3913 77.2141 78.3548 76.3086 78.2787C76.0912 78.2604 74.3496 78.2087 73.6417 78.0916Z" fill="white" stroke="#33313F" stroke-width="3" stroke-miterlimit="10"/>
<path d="M75.6203 82.0101C76.403 81.9734 77.1871 81.983 77.9687 82.0391C78.0194 82.044 78.0668 82.0663 78.1031 82.1023C78.1394 82.1383 78.1622 82.1858 78.1679 82.2368L78.2418 82.8591C78.2456 82.873 78.2459 82.8876 78.2427 82.9016C78.2396 82.9157 78.2331 82.9287 78.2237 82.9397C78.2071 82.9517 78.1867 82.9571 78.1664 82.9549C77.8374 82.964 77.5084 82.926 77.1808 82.9549C76.9771 82.9716 76.7749 83.0112 76.5771 83.034C76.2429 83.0637 75.907 83.0698 75.572 83.0523C75.0999 83.0605 74.629 83.0021 74.1729 82.8788C74.1729 82.8788 74.2001 82.3631 74.2001 82.3144C74.2001 82.074 74.1925 82.0527 74.4385 82.0467L75.6203 82.0101Z" stroke="#33313F" stroke-width="2" stroke-miterlimit="10" stroke-linecap="round"/>
<path d="M75.6203 84.8161C76.403 84.8531 77.1872 84.8429 77.9687 84.7856C78.0194 84.7807 78.0668 84.7584 78.1031 84.7224C78.1394 84.6864 78.1622 84.6389 78.1679 84.5879L78.2418 83.9671C78.2456 83.953 78.2459 83.9381 78.2427 83.9239C78.2396 83.9096 78.2331 83.8962 78.2237 83.885C78.2071 83.873 78.1867 83.8676 78.1664 83.8698C77.8374 83.8607 77.5084 83.9002 77.1808 83.8698C76.9771 83.8546 76.7749 83.815 76.5771 83.7922C76.243 83.7618 75.907 83.7557 75.572 83.7739C75.0999 83.7657 74.629 83.8241 74.1729 83.9474C74.1729 83.9474 74.2001 84.4616 74.2001 84.5118C74.2001 84.7522 74.1925 84.7719 74.4385 84.7795L75.6203 84.8161Z" stroke="#33313F" stroke-width="2" stroke-miterlimit="10" stroke-linecap="round"/>
<path d="M75.6203 85.9154C76.403 85.8783 77.1872 85.8885 77.9687 85.9458C78.0194 85.9507 78.0668 85.973 78.1031 86.0091C78.1394 86.0451 78.1622 86.0926 78.1679 86.1436L78.2418 86.7643C78.2456 86.7784 78.2459 86.7933 78.2427 86.8076C78.2396 86.8219 78.2331 86.8352 78.2237 86.8464C78.2071 86.8584 78.1867 86.8639 78.1664 86.8616C77.8374 86.8708 77.5084 86.8312 77.1808 86.8616C76.9771 86.8768 76.7749 86.9179 76.5771 86.9407C76.2429 86.9699 75.907 86.9755 75.572 86.9575C75.1 86.9662 74.629 86.9083 74.1729 86.7856C74.1729 86.7856 74.2001 86.2698 74.2001 86.2196C74.2001 85.9793 74.1925 85.9595 74.4385 85.9534L75.6203 85.9154Z" stroke="#33313F" stroke-width="2" stroke-miterlimit="10" stroke-linecap="round"/>
<path d="M76.6119 72.8936C76.6809 73.0608 76.7038 73.2437 76.6783 73.423C76.6785 73.4374 76.6749 73.4516 76.6677 73.4641C76.6594 73.4722 76.6494 73.4784 76.6385 73.4824C76.6275 73.4863 76.6159 73.4878 76.6043 73.4869L75.1705 73.5432C75.1705 73.5432 75.2505 73.1172 75.2611 73.0868C75.3109 72.9133 75.4362 72.959 75.5977 72.9498L76.6119 72.8936Z" fill="white" stroke="#33313F" stroke-width="2" stroke-miterlimit="10" stroke-linecap="round"/>
<path d="M78.7776 72.8936C78.8461 73.0609 78.8686 73.2438 78.8425 73.423C78.8433 73.4373 78.8402 73.4515 78.8335 73.4641C78.825 73.472 78.815 73.4782 78.8041 73.4821C78.7932 73.486 78.7816 73.4876 78.7701 73.4869L77.3348 73.5432C77.3348 73.5432 77.4163 73.1172 77.4268 73.0868C77.4751 72.9133 77.6004 72.959 77.7634 72.9498L78.7776 72.8936Z" fill="white" stroke="#33313F" stroke-width="2" stroke-miterlimit="10" stroke-linecap="round"/>
<path d="M77.9128 65.6314L78.106 67.3048C78.1125 67.3653 78.1069 67.4265 78.0895 67.4847C78.0722 67.543 78.0435 67.5971 78.0051 67.644C77.9668 67.6909 77.9195 67.7296 77.866 67.7579C77.8126 67.7861 77.7541 67.8033 77.694 67.8084C76.469 67.906 75.238 67.8979 74.0144 67.7841C73.9056 67.7735 73.8043 67.7237 73.7291 67.6437C73.654 67.5637 73.61 67.459 73.6054 67.349C73.5825 67.0507 73.5391 66.7543 73.4756 66.462C73.4258 66.1578 73.3715 65.8641 73.7277 65.7744C74.0839 65.6846 74.5714 65.7485 74.9607 65.7409C75.4276 65.7318 75.893 65.7186 76.3568 65.7014C76.4866 65.7014 77.9128 65.6238 77.9128 65.6314Z" stroke="#33313F" stroke-width="3" stroke-miterlimit="10"/>
<path d="M77.9128 71.6754L78.103 70.002C78.1094 69.9415 78.1038 69.8803 78.0865 69.8221C78.0692 69.7639 78.0405 69.7097 78.0021 69.6628C77.9637 69.6159 77.9164 69.5772 77.863 69.5489C77.8095 69.5207 77.7511 69.5035 77.6909 69.4984C76.466 69.401 75.2351 69.4087 74.0114 69.5212C73.9024 69.5318 73.8008 69.5819 73.7256 69.6622C73.6504 69.7425 73.6066 69.8475 73.6024 69.9578C73.5794 70.2561 73.5361 70.5525 73.4726 70.8448C73.4228 71.149 73.3684 71.4427 73.7246 71.5324C74.0808 71.6222 74.5683 71.5583 74.9577 71.5659C75.424 71.575 75.8889 71.5872 76.3537 71.6054C76.4866 71.61 77.9128 71.6876 77.9128 71.6754Z" stroke="#33313F" stroke-width="3" stroke-miterlimit="10"/>
<path d="M75.9735 79.2183C75.9232 79.7751 75.8915 80.3329 75.8784 80.8918C75.3244 80.8871 74.7725 80.8233 74.2318 80.7016C74.1892 80.6996 74.1476 80.6882 74.1098 80.6681C74.0721 80.6481 74.0392 80.62 74.0134 80.5858C73.9877 80.5515 73.9697 80.512 73.9607 80.47C73.9518 80.4279 73.9521 80.3845 73.9616 80.3426C73.9511 79.9957 73.77 79.2214 74.2544 79.1727C74.3993 79.1575 75.972 79.2457 75.9735 79.2183Z" stroke="#33313F" stroke-width="2" stroke-miterlimit="10" stroke-linecap="round"/>
<path d="M49.3246 71.6181C49.3956 71.6103 49.4675 71.6186 49.5349 71.6422C49.6023 71.6659 49.6637 71.7044 49.7146 71.7549C49.7654 71.8055 49.8045 71.8668 49.8289 71.9344C49.8534 72.002 49.8626 72.0743 49.8559 72.146C49.6823 74.1709 49.8197 76.2444 50.0461 78.2632C50.1472 79.1608 50.2815 80.1056 50.6377 80.813C50.6687 80.8737 50.6837 80.9413 50.6814 81.0095C50.679 81.0777 50.6593 81.1441 50.6242 81.2025C50.589 81.2608 50.5396 81.309 50.4807 81.3426C50.4217 81.3762 50.3552 81.3939 50.2875 81.3941L43.6046 81.4337C43.5647 81.434 43.5252 81.4252 43.4892 81.408C43.4531 81.3907 43.4214 81.3656 43.3963 81.3343C43.3712 81.303 43.3534 81.2664 43.3443 81.2273C43.3351 81.1881 43.3349 81.1474 43.3435 81.1081C43.8732 78.7927 43.757 76.2642 43.5412 73.8696C43.4325 72.6815 43.3722 72.044 44.2505 71.9604C45.1561 71.8797 46.0616 71.8417 46.9596 71.7641C47.1513 71.7489 48.5217 71.7063 49.3246 71.6181Z" fill="white" stroke="#33313F" stroke-width="3" stroke-miterlimit="10" stroke-linecap="round"/>
<path d="M58.6216 71.578C58.585 71.5723 58.5476 71.5753 58.5124 71.5866C58.4771 71.5979 58.4449 71.6173 58.4183 71.6432C58.3917 71.6691 58.3715 71.7009 58.3591 71.736C58.3467 71.7712 58.3425 71.8087 58.3469 71.8458C58.5627 73.965 58.4223 76.1435 58.1854 78.2612C58.0767 79.2333 57.9273 80.2572 57.5017 80.9798C57.4718 81.0309 57.4618 81.0914 57.4735 81.1495C57.4852 81.2077 57.5178 81.2594 57.5651 81.2947C57.6793 81.3677 57.8136 81.4018 57.9484 81.3921L64.6661 81.4317C64.703 81.4317 64.7394 81.4232 64.7725 81.4068C64.8056 81.3905 64.8345 81.3667 64.8571 81.3374C64.8797 81.308 64.8953 81.2738 64.9027 81.2374C64.9102 81.201 64.9093 81.1634 64.9 81.1274C64.3643 78.8043 64.479 76.2667 64.6963 73.863C64.8035 72.6749 64.8653 72.0374 63.9869 71.9538C63.0814 71.8731 62.1758 71.8351 61.2703 71.7575C61.0484 71.7438 59.343 71.6936 58.6216 71.578Z" fill="white" stroke="#33313F" stroke-width="3" stroke-miterlimit="10"/>
<path d="M45.3235 72.9619L48.7405 77.5563" stroke="#33313F" stroke-width="2" stroke-miterlimit="10" stroke-linecap="round"/>
<path d="M48.7406 72.6182L45.4368 77.7861" stroke="#33313F" stroke-width="2" stroke-miterlimit="10" stroke-linecap="round"/>
<path d="M60.5716 73.1787L62.4325 75.6813" stroke="#33313F" stroke-width="2" stroke-miterlimit="10" stroke-linecap="round"/>
<path d="M62.4324 72.9902L60.6334 75.8062" stroke="#33313F" stroke-width="2" stroke-miterlimit="10" stroke-linecap="round"/>
<path d="M46.4525 79.0248C47.2357 78.988 48.0203 78.9977 48.8024 79.0537C48.8529 79.0592 48.9 79.0817 48.9362 79.1176C48.9724 79.1535 48.9954 79.2007 49.0016 79.2515L49.0741 79.8737C49.0777 79.8878 49.078 79.9025 49.0752 79.9167C49.0723 79.9309 49.0662 79.9443 49.0575 79.9558C49.0402 79.9663 49.0203 79.9716 49.0001 79.9711C48.6711 79.9802 48.3406 79.9406 48.0131 79.9711C47.8093 79.9863 47.6086 80.0258 47.4094 80.0487C47.0751 80.0783 46.7393 80.0844 46.4042 80.0669C45.9326 80.0752 45.4622 80.0168 45.0066 79.8935C44.9976 79.8935 45.0338 79.3793 45.0338 79.3291C45.0338 79.0887 45.0248 79.0689 45.2708 79.0613L46.4525 79.0248Z" stroke="#33313F" stroke-width="2" stroke-miterlimit="10" stroke-linecap="round"/>
<path d="M60.8084 76.7269C61.5916 76.6898 62.3763 76.7 63.1583 76.7573C63.209 76.7622 63.2565 76.7846 63.2927 76.8206C63.329 76.8566 63.3519 76.9041 63.3576 76.9551L63.43 77.5758C63.4336 77.5899 63.434 77.6046 63.4311 77.6188C63.4282 77.633 63.4222 77.6464 63.4134 77.6579C63.3967 77.6698 63.3764 77.6752 63.356 77.6731C63.027 77.6823 62.6965 77.6427 62.369 77.6731C62.1652 77.6884 61.9645 77.7294 61.7653 77.7507C61.4311 77.7812 61.0952 77.7873 60.7601 77.769C60.288 77.7772 59.8171 77.7188 59.3611 77.5956C59.3535 77.5956 59.3882 77.0814 59.3882 77.0311C59.3882 76.7908 59.3807 76.771 59.6267 76.7634L60.8084 76.7269Z" stroke="#33313F" stroke-width="2" stroke-miterlimit="10" stroke-linecap="round"/>
<path d="M62.0053 78.4515C61.2226 78.4148 60.4384 78.4244 59.6569 78.4804C59.6062 78.4854 59.5587 78.5077 59.5224 78.5437C59.4862 78.5797 59.4633 78.6272 59.4576 78.6782L59.3882 79.2989C59.3839 79.3129 59.3831 79.3278 59.386 79.3422C59.3889 79.3565 59.3954 79.3699 59.4048 79.3811C59.4214 79.3931 59.4418 79.3985 59.4622 79.3963C59.7912 79.4054 60.1202 79.3674 60.4492 79.3963C60.653 79.4115 60.8537 79.4526 61.0529 79.4754C61.3872 79.5043 61.723 79.5104 62.0581 79.4937C62.5302 79.502 63.0011 79.4437 63.4571 79.3202C63.4647 79.3202 63.43 78.8045 63.43 78.7558C63.43 78.5139 63.439 78.4941 63.193 78.4881L62.0053 78.4515Z" stroke="#33313F" stroke-width="2" stroke-miterlimit="10" stroke-linecap="round"/>
<path d="M52.239 77.3252C52.239 77.3252 54.4591 77.2131 54.8575 77.3252" stroke="#33313F" stroke-width="3" stroke-miterlimit="10"/>
<path d="M54.8606 76.1201C54.8606 76.1201 55.828 77.0953 55.828 77.325C55.828 77.5547 54.5753 78.358 54.5753 78.358" stroke="#33313F" stroke-width="3" stroke-miterlimit="10"/>
<path d="M66.7595 75.243C66.7595 75.243 68.7714 74.2937 69.1834 74.248" stroke="#33313F" stroke-width="3" stroke-miterlimit="10"/>
<path d="M68.7336 73.1328C68.7336 73.1328 69.9938 73.6683 70.0798 73.8798C70.1659 74.0913 69.3071 75.3129 69.3071 75.3129" stroke="#33313F" stroke-width="3" stroke-miterlimit="10"/>
<path d="M66.7384 77.6748C66.7384 77.6748 68.7834 78.5496 69.0928 78.8295" stroke="#33313F" stroke-width="3" stroke-miterlimit="10"/>
<path d="M69.615 77.7461C69.615 77.7461 70.0678 79.0499 69.9621 79.2568C69.8565 79.4637 68.388 79.6341 68.388 79.6341" stroke="#33313F" stroke-width="3" stroke-miterlimit="10"/>
<path d="M74.6755 72.8936C74.744 73.0609 74.7665 73.2438 74.7404 73.423C74.7412 73.4373 74.7381 73.4515 74.7314 73.4641C74.7229 73.472 74.7129 73.4782 74.702 73.4821C74.6911 73.486 74.6795 73.4876 74.668 73.4869L73.2327 73.5432C73.2327 73.5432 73.3142 73.1172 73.3247 73.0868C73.373 72.9133 73.4998 72.959 73.6613 72.9498L74.6755 72.8936Z" fill="white" stroke="#33313F" stroke-width="2" stroke-miterlimit="10" stroke-linecap="round"/>
<path d="M47.5618 86.0042L48.0689 85.528L47.6161 85.5098L47.3792 85.8764L47.5618 86.0042Z" fill="#33313F"/>
<path d="M43.9139 89.3391L44.4512 88.6439L44.5704 88.5191L46.2155 86.7817L46.7754 86.1915L47.038 86.1595L47.4153 85.7822L47.6372 85.9785L47.2705 86.4105L47.2765 86.6372L46.7045 87.2625L45.0896 89.0303L44.9854 89.1429L44.3365 89.7483L43.9139 89.3391Z" fill="#65617D"/>
<path d="M44.5705 88.5196L46.2156 86.7822L46.7046 87.263L45.0897 89.0308L44.5705 88.5196Z" fill="#33313F"/>
<path d="M47.0532 89.189C46.575 88.7403 46.1592 88.2286 45.8171 87.6676C45.0927 86.5297 43.8822 85.9151 43.0521 85.6093V85.2396L43.1035 85.2289L43.0808 84.8851H43.1035L43.0446 83.9723V83.9647L42.7458 79.4357C42.7458 79.4357 41.6817 76.4159 43.5728 73.6303C45.4639 70.8447 43.6906 68.1733 41.9127 67.1281C41.9127 67.1281 41.0856 62.7163 41.7949 61.6711C40.8327 61.1128 39.8412 60.6075 38.8247 60.1574C38.8081 60.1026 38.7945 60.0479 38.781 59.99C38.7613 59.5793 38.7357 59.1685 38.7131 58.7578C38.7367 58.5443 38.7755 58.3328 38.8293 58.1249C38.8519 58.0382 38.8776 57.9515 38.9047 57.8617C39.7499 57.5362 40.478 56.9611 40.9937 56.2116C41.5093 55.4622 41.7886 54.5733 41.7949 53.6613C41.7953 53.1292 41.7002 52.6014 41.5142 52.1035C41.6096 51.9452 41.6823 51.7741 41.73 51.5953C41.8432 51.1252 41.715 50.6232 41.4493 50.147C40.9754 49.1156 39.7937 48.1495 38.9364 47.792C37.7079 47.29 35.8591 47.4086 34.5792 47.5638C33.8608 47.6505 33.0413 47.8924 32.7817 48.5557C32.6866 48.7991 32.6851 49.0684 32.6187 49.3164C32.35 50.3296 31.1894 50.8012 30.4725 51.5771C29.8387 52.2617 29.567 53.1882 29.3557 54.0903C28.7672 56.6759 28.6268 59.3446 28.9407 61.9784C29.0131 62.587 29.1097 63.1879 29.2123 63.7903C28.7807 64.3989 28.3913 65.4744 28.5694 67.3426L27.1507 74.0761L26.5606 78.0239C26.5606 78.0239 26.2059 79.6487 27.617 81.0422C28.5226 81.9307 29.6168 83.4322 30.2914 84.4044C29.9977 85.2651 29.8522 86.1702 29.8613 87.0804C29.8764 87.4942 29.899 87.8943 29.9277 88.2746C29.9875 89.0827 30.1394 89.8811 30.3805 90.654C30.5465 92.2757 30.874 94.3493 31.5154 95.6744L31.7509 102.756C31.7509 102.756 31.3962 109.258 30.6944 110.535C29.9926 111.811 32.2293 122.61 32.2293 122.61V124.119L31.852 125.235L31.7569 125.164C29.9851 127.37 31.7569 128.182 31.7569 128.182C31.7569 128.182 32.2399 128.205 33.0111 128.235C32.9456 128.545 32.9843 128.868 33.1209 129.152C33.2576 129.437 33.4844 129.668 33.7657 129.809C33.7657 129.809 43.8068 130.273 45.5801 129.809C47.3535 129.345 46.8796 127.718 45.9333 127.831C45.5726 127.876 45.0398 127.781 44.5191 127.645C45.07 126.999 44.6293 126.124 43.926 126.206C42.9812 126.322 40.8547 125.479 40.8547 125.479L40.8441 125.493C40.7762 125.466 40.7066 125.445 40.6358 125.429C39.8459 125.25 39.0656 125.03 38.298 124.77C37.8452 123.792 36.7888 121.163 37.5434 119.124C37.8845 118.202 37.9962 116.976 37.9962 115.786C38.0142 112.197 38.5381 108.629 39.5522 105.189L40.9694 100.321C40.9694 100.321 42.9782 94.398 43.0959 92.7732L43.0884 90.4091C44.7485 91.474 46.0691 91.1545 46.9113 90.6571C47.0341 90.584 47.1381 90.4827 47.2148 90.3615C47.2915 90.2402 47.3386 90.1025 47.3525 89.9594C47.3663 89.8163 47.3464 89.6719 47.2944 89.538C47.2424 89.4041 47.1597 89.2845 47.0532 89.189ZM31.286 76.8662C31.3268 76.6958 31.36 76.5102 31.3887 76.3139C31.6664 76.3139 31.9456 76.3139 32.2233 76.3048C32.5687 77.0121 32.7139 77.8017 32.6428 78.5868C32.0029 78.3875 31.0461 77.8992 31.286 76.8738V76.8662Z" fill="url(#paint0_linear)"/>
<path d="M32.4089 123.554L31.9561 124.924L33.4337 126.413L38.3221 127.558L41.8462 127.215L41.6183 125.953C41.5506 125.683 41.4102 125.436 41.2127 125.241C41.0152 125.045 40.7681 124.908 40.4985 124.844C39.0496 124.501 36.2877 123.719 35.7066 122.631L32.4089 123.554Z" fill="#DB8B8B"/>
<path opacity="0.1" d="M32.4089 123.554L31.9561 124.924L33.4337 126.413L38.3221 127.558L41.8462 127.215L41.6183 125.953C41.5506 125.683 41.4102 125.436 41.2127 125.241C41.0152 125.045 40.7681 124.908 40.4985 124.844C39.0496 124.501 36.2877 123.719 35.7066 122.631L32.4089 123.554Z" fill="black"/>
<path d="M40.7084 126.871L40.0262 125.958L40.7084 124.893C40.7084 124.893 42.7534 125.726 43.6635 125.612C44.5735 125.497 45.0218 127.101 43.3224 127.559C41.623 128.017 31.9547 127.559 31.9547 127.559C31.9547 127.559 30.2492 126.757 31.9547 124.58L33.4323 125.726C33.4323 125.726 35.9331 127.095 37.1843 126.871H40.7084Z" fill="#2E3037"/>
<path d="M43.7767 128.82L40.2526 129.164L35.3642 128.017L33.8821 126.527L34.0028 126.164L34.1719 125.653L34.3379 125.152L37.6341 124.239C37.8014 124.514 38.0305 124.745 38.3027 124.913C39.3727 125.651 41.297 126.185 42.4259 126.451C42.4727 126.463 42.521 126.477 42.5663 126.494C42.8053 126.574 43.0203 126.714 43.1915 126.9C43.3627 127.086 43.4846 127.313 43.5458 127.559L43.7767 128.82Z" fill="#DB8B8B"/>
<path opacity="0.1" d="M43.7767 128.819L40.2526 129.163L35.3642 128.016L33.8821 126.527L34.0028 126.163L35.3611 127.214C35.3611 127.214 37.8635 128.584 39.1131 128.36H42.6357L41.9536 127.447L42.5663 126.493C42.8053 126.573 43.0203 126.713 43.1915 126.899C43.3627 127.085 43.4846 127.312 43.5458 127.558L43.7767 128.819Z" fill="black"/>
<path d="M42.6357 128.475L41.9535 127.562L42.6357 126.497C42.6357 126.497 44.6822 127.329 45.5908 127.215C46.4993 127.101 46.9491 128.704 45.2512 129.164C43.5533 129.623 33.882 129.164 33.882 129.164C33.882 129.164 32.1765 128.361 33.882 126.184L35.3596 127.329C35.3596 127.329 37.8619 128.698 39.1116 128.476L42.6357 128.475Z" fill="#2E3037"/>
<path d="M39.7984 62.0116C39.7984 62.0116 34.3424 62.5837 35.1378 60.2925C35.3607 59.6428 35.4183 58.9471 35.3053 58.2692C35.164 57.4287 34.8347 56.6316 34.3424 55.9385L39.4573 56.7402C39.1507 57.2566 38.9176 57.8138 38.7645 58.3954C38.1548 60.828 39.7984 62.0116 39.7984 62.0116Z" fill="#DB8B8B"/>
<path d="M30.4771 88.1396C30.4771 88.1396 30.5903 93.0672 31.7268 95.474L31.9547 102.463C31.9547 102.463 31.6136 108.881 30.9314 110.141C30.2492 111.401 32.409 122.059 32.409 122.059V123.892C32.409 123.892 36.0462 125.262 37.0695 123.663L36.0462 110.027L36.499 91.1199L30.4771 88.1396Z" fill="#35323E"/>
<path opacity="0.1" d="M30.4756 88.1396C30.4756 88.1396 30.5888 93.0672 31.7252 95.474L31.9531 102.463C31.9531 102.463 31.6121 108.881 30.9299 110.141C30.2477 111.401 32.4074 122.059 32.4074 122.059V123.892C32.4074 123.892 36.0447 125.262 37.068 123.663L36.0447 110.027L36.4975 91.1199L30.4756 88.1396Z" fill="black"/>
<path d="M28.2027 72.3271L27.5205 74.1604L26.953 78.0565C26.8762 78.5992 26.929 79.1527 27.1069 79.6707C27.2849 80.1888 27.583 80.6566 27.9763 81.0353C29.3346 82.4045 31.1593 85.2752 31.1593 85.2752L33.3191 78.7441C33.3191 78.7441 31.1593 78.4003 31.508 76.9109C31.8566 75.4215 31.7343 72.671 31.7343 72.671L28.2027 72.3271Z" fill="#34ADBE"/>
<path opacity="0.1" d="M38.3071 124.91C36.8476 127.224 34.5792 125.913 34.1763 125.653L34.3423 125.152L37.6385 124.239C37.8062 124.513 38.0352 124.742 38.3071 124.91Z" fill="black"/>
<path d="M42.8681 92.6085C42.7534 94.212 40.8215 100.063 40.8215 100.063L39.4632 104.872C38.4836 108.27 37.9766 111.788 37.957 115.327C37.957 116.5 37.8498 117.711 37.5223 118.62C36.6167 121.141 38.4278 124.579 38.4278 124.579C36.8371 127.444 34.1084 125.492 34.1084 125.492V123.667C34.1084 123.667 31.9547 113.693 32.5237 111.745C33.0926 109.798 33.3205 104.525 33.3205 104.525V95.0153C31.4982 93.1854 30.3907 90.7551 30.2009 88.1693C30.1737 87.7935 30.1511 87.3995 30.1375 86.9902C30.0455 84.404 31.7977 81.3735 32.4829 80.2964C32.6489 80.0347 32.7515 79.8887 32.7515 79.8887L42.7866 83.9019L42.8092 83.9111V84.3021V85.1692L42.8681 92.6085Z" fill="#35323E"/>
<path opacity="0.1" d="M39.4573 56.7402C39.1507 57.2566 38.9176 57.8138 38.7645 58.3954C38.2089 58.6089 37.6164 58.7078 37.0222 58.6861C36.428 58.6644 35.8441 58.5226 35.3053 58.2692C35.164 57.4287 34.8347 56.6316 34.3424 55.9385L39.4573 56.7402Z" fill="black"/>
<path d="M37.1842 58.4608C39.6331 58.4608 41.6184 56.4597 41.6184 53.9912C41.6184 51.5226 39.6331 49.5215 37.1842 49.5215C34.7352 49.5215 32.75 51.5226 32.75 53.9912C32.75 56.4597 34.7352 58.4608 37.1842 58.4608Z" fill="#DB8B8B"/>
<path opacity="0.1" d="M42.868 85.1601L42.8182 85.1692C38.052 86.1566 32.0708 81.1499 32.0708 81.1499C32.2316 80.8773 32.3699 80.5918 32.4843 80.2964C32.6504 80.0347 32.753 79.8887 32.753 79.8887L42.7865 83.9019L42.8121 84.3021L42.868 85.1601Z" fill="black"/>
<path d="M41.617 61.8985C41.617 61.8985 35.251 58.0024 33.2044 59.6059L30.3625 63.2723C30.3625 63.2723 28.5438 63.8458 28.8849 67.5122L27.5266 74.1589L31.6182 75.1904C31.6182 75.1904 34.0058 77.4815 32.071 80.8056C32.071 80.8056 38.0959 85.8473 42.8712 84.8159L42.5271 79.4349C42.5271 79.4349 41.5038 76.4546 43.3224 73.7056C45.1411 70.9565 43.4356 68.3201 41.7317 67.2886C41.7302 67.284 40.9348 62.9285 41.617 61.8985Z" fill="#34ADBE"/>
<path d="M41.958 85.2734C41.958 85.2734 44.3456 85.7298 45.4821 87.5661C45.8102 88.1174 46.2107 88.6215 46.6729 89.0646C46.7756 89.1603 46.8548 89.2788 46.9045 89.4106C46.9541 89.5424 46.9728 89.684 46.9591 89.8243C46.9453 89.9646 46.8995 90.0998 46.8253 90.2193C46.751 90.3387 46.6503 90.4392 46.531 90.5129C45.6255 91.0606 44.1585 91.3968 42.3051 89.8572C39.1161 87.2223 41.958 85.2734 41.958 85.2734Z" fill="#DB8B8B"/>
<path opacity="0.1" d="M38.4339 64.0696C38.4339 64.0696 36.161 63.8399 35.592 69.7989C35.023 75.758 34.1144 77.1317 34.1144 77.1317C34.1144 77.1317 33.5454 80.2261 34.9098 82.0593C36.2742 83.8926 38.8882 87.8024 38.8882 87.8024C38.8882 87.8024 41.7316 88.6056 42.2991 85.7395L38.775 79.0943C38.775 79.0943 38.2075 76.8016 39.5704 75.1981C40.9332 73.5947 41.958 62.9286 38.4339 64.0696Z" fill="black"/>
<path d="M38.6618 63.7327C38.6618 63.7327 36.3873 63.503 35.8198 69.462C35.2524 75.4211 34.3423 76.7948 34.3423 76.7948C34.3423 76.7948 33.7733 79.8923 35.1377 81.7179C36.502 83.5435 39.116 87.4472 39.116 87.4472C39.116 87.4472 41.958 88.2505 42.5269 85.3858L39.0028 78.7391C39.0028 78.7391 38.4339 76.4464 39.7982 74.843C41.1626 73.2395 42.1828 62.5856 38.6618 63.7327Z" fill="#34ADBE"/>
<path opacity="0.1" d="M40.5378 68.0264C40.5378 68.0264 40.7642 71.5787 39.7409 73.5275C38.7176 75.4763 38.7176 77.9957 39.7409 79.3709" fill="black"/>
<path opacity="0.1" d="M41.1052 63.6738C41.1052 63.6738 40.1997 62.761 37.5811 62.6423C34.9626 62.5236 33.8306 61.7295 33.8306 61.7295" fill="black"/>
<path opacity="0.1" d="M34.7875 48.2165C34.0963 48.3017 33.307 48.5405 33.0579 49.1962C32.9659 49.4366 32.9644 49.7013 32.8995 49.9569C32.6414 50.9579 31.5245 51.4235 30.8348 52.1887C30.2311 52.8642 29.9579 53.7785 29.7602 54.6685C29.1926 57.2205 29.0553 59.8506 29.3542 62.4486C29.5761 64.3487 30.0289 66.2184 30.1572 68.1277C30.2854 70.037 30.0515 72.0451 29.0162 73.6486C28.5634 74.3393 27.9838 74.9448 27.6684 75.7039C28.3204 76.2364 29.2199 76.3125 30.059 76.3414C31.037 76.3748 32.015 76.3748 32.993 76.3414C33.5062 76.3231 34.042 76.2896 34.4842 76.028C34.8117 75.8169 35.0811 75.526 35.2675 75.1821C35.8259 74.2252 35.9678 73.0751 35.9436 71.9645C35.9195 70.8539 35.7459 69.751 35.7248 68.6404C35.7142 68.0318 35.761 67.3929 36.1066 66.8969C36.3556 66.5394 36.7345 66.299 37.059 66.0085C38.2769 64.9222 38.6935 63.1788 38.7342 61.5403C38.775 59.9018 38.5078 58.2603 38.6452 56.6279C38.698 55.9875 38.935 55.2207 39.5598 55.096C39.756 55.0564 39.9658 55.096 40.1529 55.0199C40.654 54.8267 40.6057 54.1147 40.7476 53.5944C40.9091 53.0087 41.4041 52.5569 41.5429 51.9666C41.8704 50.5806 40.1197 48.9239 38.9772 48.4432C37.7925 47.9442 36.013 48.0644 34.7875 48.2165Z" fill="black"/>
<path d="M34.6683 47.9876C33.9771 48.0728 33.1877 48.3117 32.9387 48.9659C32.8745 49.2164 32.8241 49.4704 32.7878 49.7265C32.5297 50.7276 31.4113 51.1931 30.7216 51.9598C30.1179 52.6338 29.8447 53.5481 29.647 54.4396C29.082 56.9936 28.9473 59.6252 29.2486 62.2243C29.4704 64.1244 29.9232 65.9957 30.05 67.9034C30.1768 69.8112 29.9458 71.8208 28.9105 73.4243C28.4577 74.115 27.8782 74.7205 27.5627 75.4796C28.2147 76.0136 29.1143 76.0882 29.9534 76.1171C30.9314 76.1505 31.9094 76.1505 32.8874 76.1171C33.4005 76.0988 33.9363 76.0669 34.3785 75.8037C34.7063 75.5934 34.9753 75.3022 35.1603 74.9578C35.7202 74.0009 35.8606 72.8508 35.838 71.7402C35.8153 70.6296 35.6387 69.5267 35.6191 68.4161C35.6086 67.8076 35.6553 67.1686 35.9995 66.6742C36.25 66.3151 36.6288 66.0748 36.9533 65.7857C38.1698 64.698 38.5878 62.9545 38.6286 61.316C38.6693 59.6776 38.4007 58.036 38.538 56.4037C38.5923 55.7647 38.8293 54.9964 39.4526 54.8732C39.6503 54.8336 39.8601 54.8732 40.0473 54.7956C40.5483 54.6024 40.5 53.8919 40.6419 53.3701C40.8019 52.7844 41.2969 52.3341 41.4373 51.7438C41.7648 50.3564 40.0141 48.7011 38.8716 48.2189C37.6777 47.7168 35.8998 47.834 34.6683 47.9876Z" fill="#35323E"/>
<defs>
<linearGradient id="paint0_linear" x1="36.9397" y1="130.022" x2="36.9397" y2="47.436" gradientUnits="userSpaceOnUse">
<stop stop-color="#808080" stop-opacity="0.25"/>
<stop offset="0.54" stop-color="#808080" stop-opacity="0.12"/>
<stop offset="1" stop-color="#808080" stop-opacity="0.1"/>
</linearGradient>
</defs>
</svg>
