<svg width="169" height="130" viewBox="0 0 169 130" fill="none" xmlns="http://www.w3.org/2000/svg">
<path d="M81.8452 114.201C45.7719 111.434 2.75287 83.2629 4.94304 54.2564C7.1332 25.2499 48.7976 -1.75267 84.8709 1.0141C120.944 3.78087 141.709 57.9891 139.519 86.9956C137.329 116.002 117.919 116.967 81.8452 114.201Z" fill="#F2F2F2"/>
<path d="M84.8706 118.859C126.459 118.859 160.172 116.777 160.172 114.209C160.172 111.641 126.459 109.56 84.8706 109.56C43.2825 109.56 9.56874 111.641 9.56874 114.209C9.56874 116.777 43.2825 118.859 84.8706 118.859Z" fill="#3F3D56"/>
<path opacity="0.1" d="M84.8707 117.209C120.295 117.209 149.011 115.832 149.011 114.134C149.011 112.436 120.295 111.06 84.8707 111.06C49.4469 111.06 20.7302 112.436 20.7302 114.134C20.7302 115.832 49.4469 117.209 84.8707 117.209Z" fill="black"/>
<path d="M32.338 129.058C49.7781 129.058 63.9162 127.816 63.9162 126.284C63.9162 124.751 49.7781 123.509 32.338 123.509C14.8978 123.509 0.759766 124.751 0.759766 126.284C0.759766 127.816 14.8978 129.058 32.338 129.058Z" fill="#3F3D56"/>
<path opacity="0.1" d="M32.338 128.073C47.1931 128.073 59.2356 127.252 59.2356 126.238C59.2356 125.225 47.1931 124.403 32.338 124.403C17.4828 124.403 5.44032 125.225 5.44032 126.238C5.44032 127.252 17.4828 128.073 32.338 128.073Z" fill="black"/>
<path d="M141.868 25.1172H29.9568V113.611H141.868V25.1172Z" fill="#3F3D56"/>
<path d="M84.6392 37.2096H57.0309C56.9868 37.2097 56.9432 37.201 56.9024 37.1841C56.8617 37.1671 56.8247 37.1423 56.7935 37.1109C56.7623 37.0795 56.7376 37.0423 56.7207 37.0013C56.7038 36.9602 56.6951 36.9163 56.6951 36.8719C56.6951 36.8275 56.7038 36.7835 56.7207 36.7425C56.7376 36.7015 56.7623 36.6642 56.7935 36.6328C56.8247 36.6015 56.8617 36.5766 56.9024 36.5597C56.9432 36.5428 56.9868 36.5341 57.0309 36.5342H84.6392C84.7279 36.5344 84.813 36.57 84.8757 36.6333C84.9384 36.6966 84.9736 36.7824 84.9736 36.8719C84.9736 36.9613 84.9384 37.0471 84.8757 37.1104C84.813 37.1737 84.7279 37.2094 84.6392 37.2096Z" fill="#F2F2F2"/>
<path d="M114.861 40.9254H71.4381C71.3493 40.9254 71.2641 40.8898 71.2012 40.8265C71.1384 40.7631 71.1031 40.6772 71.1031 40.5877C71.1031 40.4981 71.1384 40.4122 71.2012 40.3489C71.2641 40.2856 71.3493 40.25 71.4381 40.25H114.861C114.905 40.25 114.949 40.2587 114.989 40.2757C115.03 40.2927 115.067 40.3175 115.098 40.3489C115.129 40.3803 115.154 40.4175 115.171 40.4585C115.187 40.4994 115.196 40.5433 115.196 40.5877C115.196 40.632 115.187 40.6759 115.171 40.7169C115.154 40.7579 115.129 40.7951 115.098 40.8265C115.067 40.8578 115.03 40.8827 114.989 40.8997C114.949 40.9166 114.905 40.9254 114.861 40.9254Z" fill="#F2F2F2"/>
<path d="M84.7731 44.6392H57.1648C57.0759 44.6392 56.9907 44.6037 56.9279 44.5403C56.865 44.477 56.8297 44.3911 56.8297 44.3016C56.8297 44.212 56.865 44.1261 56.9279 44.0628C56.9907 43.9994 57.0759 43.9639 57.1648 43.9639H84.7731C84.862 43.9639 84.9472 43.9994 85.0101 44.0628C85.0729 44.1261 85.1082 44.212 85.1082 44.3016C85.1082 44.3911 85.0729 44.477 85.0101 44.5403C84.9472 44.6037 84.862 44.6392 84.7731 44.6392Z" fill="#F2F2F2"/>
<path d="M114.861 44.7057H87.2527C87.1639 44.7057 87.0787 44.6701 87.0158 44.6067C86.953 44.5434 86.9177 44.4575 86.9177 44.368C86.9177 44.2784 86.953 44.1925 87.0158 44.1292C87.0787 44.0659 87.1639 44.0303 87.2527 44.0303H114.861C114.95 44.0303 115.035 44.0659 115.098 44.1292C115.161 44.1925 115.196 44.2784 115.196 44.368C115.196 44.4575 115.161 44.5434 115.098 44.6067C115.035 44.6701 114.95 44.7057 114.861 44.7057Z" fill="#F2F2F2"/>
<path d="M84.8403 48.3531H57.2319C57.143 48.3531 57.0578 48.3175 56.995 48.2542C56.9322 48.1909 56.8969 48.105 56.8969 48.0154C56.8969 47.9259 56.9322 47.84 56.995 47.7766C57.0578 47.7133 57.143 47.6777 57.2319 47.6777H84.8403C84.9291 47.6777 85.0143 47.7133 85.0772 47.7766C85.14 47.84 85.1753 47.9259 85.1753 48.0154C85.1753 48.105 85.14 48.1909 85.0772 48.2542C85.0143 48.3175 84.9291 48.3531 84.8403 48.3531Z" fill="#F2F2F2"/>
<path d="M84.9072 52.067H57.2989C57.21 52.067 57.1248 52.0314 57.0619 51.9681C56.9991 51.9047 56.9638 51.8189 56.9638 51.7293C56.9638 51.6397 56.9991 51.5538 57.0619 51.4905C57.1248 51.4272 57.21 51.3916 57.2989 51.3916H84.9072C84.9961 51.3916 85.0813 51.4272 85.1441 51.4905C85.207 51.5538 85.2423 51.6397 85.2423 51.7293C85.2423 51.8189 85.207 51.9047 85.1441 51.9681C85.0813 52.0314 84.9961 52.067 84.9072 52.067Z" fill="#F2F2F2"/>
<path d="M97.4383 37.2779H89.531C89.4422 37.2779 89.357 37.2423 89.2941 37.179C89.2313 37.1157 89.196 37.0298 89.196 36.9402C89.196 36.8507 89.2313 36.7648 89.2941 36.7014C89.357 36.6381 89.4422 36.6025 89.531 36.6025H97.4383C97.5271 36.6025 97.6124 36.6381 97.6752 36.7014C97.738 36.7648 97.7733 36.8507 97.7733 36.9402C97.7733 37.0298 97.738 37.1157 97.6752 37.179C97.6124 37.2423 97.5271 37.2779 97.4383 37.2779Z" fill="#F2F2F2"/>
<path d="M97.4383 48.3531H89.531C89.4422 48.3531 89.357 48.3175 89.2941 48.2542C89.2313 48.1909 89.196 48.105 89.196 48.0154C89.196 47.9259 89.2313 47.84 89.2941 47.7766C89.357 47.7133 89.4422 47.6777 89.531 47.6777H97.4383C97.5271 47.6777 97.6124 47.7133 97.6752 47.7766C97.738 47.84 97.7733 47.9259 97.7733 48.0154C97.7733 48.105 97.738 48.1909 97.6752 48.2542C97.6124 48.3175 97.5271 48.3531 97.4383 48.3531Z" fill="#F2F2F2"/>
<path d="M97.4382 52.0006H89.5309C89.4869 52.0007 89.4432 51.992 89.4025 51.9751C89.3618 51.9581 89.3247 51.9333 89.2935 51.9019C89.2624 51.8706 89.2376 51.8333 89.2207 51.7923C89.2039 51.7513 89.1952 51.7073 89.1952 51.6629C89.1952 51.6185 89.2039 51.5745 89.2207 51.5335C89.2376 51.4925 89.2624 51.4552 89.2935 51.4239C89.3247 51.3925 89.3618 51.3676 89.4025 51.3507C89.4432 51.3338 89.4869 51.3251 89.5309 51.3252H97.4382C97.4822 51.3251 97.5259 51.3338 97.5666 51.3507C97.6073 51.3676 97.6443 51.3925 97.6755 51.4239C97.7067 51.4552 97.7315 51.4925 97.7483 51.5335C97.7652 51.5745 97.7739 51.6185 97.7739 51.6629C97.7739 51.7073 97.7652 51.7513 97.7483 51.7923C97.7315 51.8333 97.7067 51.8706 97.6755 51.9019C97.6443 51.9333 97.6073 51.9581 97.5666 51.9751C97.5259 51.992 97.4822 52.0007 97.4382 52.0006Z" fill="#F2F2F2"/>
<path d="M110.706 52.0006H102.799C102.71 52.0004 102.625 51.9647 102.563 51.9014C102.5 51.8381 102.465 51.7523 102.465 51.6629C102.465 51.5734 102.5 51.4877 102.563 51.4244C102.625 51.361 102.71 51.3254 102.799 51.3252H110.706C110.75 51.3251 110.794 51.3338 110.835 51.3507C110.875 51.3676 110.912 51.3925 110.944 51.4239C110.975 51.4552 111 51.4925 111.016 51.5335C111.033 51.5745 111.042 51.6185 111.042 51.6629C111.042 51.7073 111.033 51.7513 111.016 51.7923C111 51.8333 110.975 51.8706 110.944 51.9019C110.912 51.9333 110.875 51.9581 110.835 51.9751C110.794 51.992 110.75 52.0007 110.706 52.0006Z" fill="#F2F2F2"/>
<path d="M64.8711 40.9254H56.9639C56.875 40.9254 56.7898 40.8898 56.727 40.8265C56.6641 40.7631 56.6288 40.6772 56.6288 40.5877C56.6288 40.4981 56.6641 40.4122 56.727 40.3489C56.7898 40.2856 56.875 40.25 56.9639 40.25H64.8711C64.96 40.25 65.0452 40.2856 65.1081 40.3489C65.1709 40.4122 65.2062 40.4981 65.2062 40.5877C65.2062 40.6772 65.1709 40.7631 65.1081 40.8265C65.0452 40.8898 64.96 40.9254 64.8711 40.9254Z" fill="#F2F2F2"/>
<path d="M84.6728 91.9156H57.0644C56.9756 91.9156 56.8903 91.88 56.8275 91.8167C56.7647 91.7534 56.7294 91.6675 56.7294 91.5779C56.7294 91.4884 56.7647 91.4025 56.8275 91.3391C56.8903 91.2758 56.9756 91.2402 57.0644 91.2402H84.6728C84.7616 91.2402 84.8469 91.2758 84.9097 91.3391C84.9725 91.4025 85.0078 91.4884 85.0078 91.5779C85.0078 91.6675 84.9725 91.7534 84.9097 91.8167C84.8469 91.88 84.7616 91.9156 84.6728 91.9156Z" fill="#F2F2F2"/>
<path d="M84.5387 99.3433H56.9303C56.8415 99.3433 56.7562 99.3078 56.6934 99.2444C56.6306 99.1811 56.5953 99.0952 56.5953 99.0056C56.5953 98.9161 56.6306 98.8302 56.6934 98.7669C56.7562 98.7035 56.8415 98.668 56.9303 98.668H84.5387C84.6276 98.668 84.7128 98.7035 84.7756 98.7669C84.8384 98.8302 84.8737 98.9161 84.8737 99.0056C84.8737 99.0952 84.8384 99.1811 84.7756 99.2444C84.7128 99.3078 84.6276 99.3433 84.5387 99.3433Z" fill="#F2F2F2"/>
<path d="M84.6058 103.059H56.9974C56.9534 103.059 56.9097 103.051 56.869 103.034C56.8283 103.017 56.7913 102.992 56.7601 102.96C56.7289 102.929 56.7041 102.892 56.6873 102.851C56.6704 102.81 56.6617 102.766 56.6617 102.721C56.6617 102.677 56.6704 102.633 56.6873 102.592C56.7041 102.551 56.7289 102.514 56.7601 102.482C56.7913 102.451 56.8283 102.426 56.869 102.409C56.9097 102.392 56.9534 102.384 56.9974 102.384H84.6058C84.6499 102.384 84.6935 102.392 84.7343 102.409C84.775 102.426 84.812 102.451 84.8432 102.482C84.8744 102.514 84.8991 102.551 84.916 102.592C84.9329 102.633 84.9416 102.677 84.9416 102.721C84.9416 102.766 84.9329 102.81 84.916 102.851C84.8991 102.892 84.8744 102.929 84.8432 102.96C84.812 102.992 84.775 103.017 84.7343 103.034C84.6935 103.051 84.6499 103.059 84.6058 103.059Z" fill="#F2F2F2"/>
<path d="M96.3995 99.4117H88.4923C88.4034 99.4117 88.3182 99.3761 88.2554 99.3128C88.1925 99.2495 88.1572 99.1636 88.1572 99.074C88.1572 98.9845 88.1925 98.8986 88.2554 98.8352C88.3182 98.7719 88.4034 98.7363 88.4923 98.7363H96.3995C96.4884 98.7363 96.5736 98.7719 96.6364 98.8352C96.6993 98.8986 96.7346 98.9845 96.7346 99.074C96.7346 99.1636 96.6993 99.2495 96.6364 99.3128C96.5736 99.3761 96.4884 99.4117 96.3995 99.4117Z" fill="#F2F2F2"/>
<path d="M96.3995 103.059H88.4923C88.4034 103.059 88.3182 103.024 88.2554 102.96C88.1925 102.897 88.1572 102.811 88.1572 102.721C88.1572 102.632 88.1925 102.546 88.2554 102.483C88.3182 102.419 88.4034 102.384 88.4923 102.384H96.3995C96.4884 102.384 96.5736 102.419 96.6364 102.483C96.6993 102.546 96.7346 102.632 96.7346 102.721C96.7346 102.811 96.6993 102.897 96.6364 102.96C96.5736 103.024 96.4884 103.059 96.3995 103.059Z" fill="#F2F2F2"/>
<path d="M109.668 99.4117H101.76C101.672 99.4117 101.586 99.3761 101.523 99.3128C101.461 99.2495 101.425 99.1636 101.425 99.074C101.425 98.9845 101.461 98.8986 101.523 98.8352C101.586 98.7719 101.672 98.7363 101.76 98.7363H109.668C109.757 98.7363 109.842 98.7719 109.905 98.8352C109.967 98.8986 110.003 98.9845 110.003 99.074C110.003 99.1636 109.967 99.2495 109.905 99.3128C109.842 99.3761 109.757 99.4117 109.668 99.4117Z" fill="#F2F2F2"/>
<path d="M114.895 95.6304H71.4717C71.3828 95.6304 71.2976 95.5949 71.2348 95.5315C71.172 95.4682 71.1367 95.3823 71.1367 95.2928C71.1367 95.2032 71.172 95.1173 71.2348 95.054C71.2976 94.9907 71.3828 94.9551 71.4717 94.9551H114.895C114.983 94.9551 115.069 94.9907 115.131 95.054C115.194 95.1173 115.23 95.2032 115.23 95.2928C115.23 95.3823 115.194 95.4682 115.131 95.5315C115.069 95.5949 114.983 95.6304 114.895 95.6304Z" fill="#F2F2F2"/>
<path d="M64.9046 95.6304H56.9973C56.9085 95.6304 56.8232 95.5949 56.7604 95.5315C56.6976 95.4682 56.6623 95.3823 56.6623 95.2928C56.6623 95.2032 56.6976 95.1173 56.7604 95.054C56.8232 94.9907 56.9085 94.9551 56.9973 94.9551H64.9046C64.9934 94.9551 65.0786 94.9907 65.1415 95.054C65.2043 95.1173 65.2396 95.2032 65.2396 95.2928C65.2396 95.3823 65.2043 95.4682 65.1415 95.5315C65.0786 95.5949 64.9934 95.6304 64.9046 95.6304Z" fill="#F2F2F2"/>
<path d="M114.894 106.84H71.4716C71.4275 106.841 71.3839 106.832 71.3432 106.815C71.3024 106.798 71.2654 106.773 71.2342 106.742C71.203 106.71 71.1783 106.673 71.1614 106.632C71.1445 106.591 71.1358 106.547 71.1358 106.503C71.1358 106.458 71.1445 106.414 71.1614 106.373C71.1783 106.332 71.203 106.295 71.2342 106.264C71.2654 106.232 71.3024 106.207 71.3432 106.191C71.3839 106.174 71.4275 106.165 71.4716 106.165H114.894C114.983 106.165 115.069 106.201 115.131 106.264C115.194 106.327 115.229 106.413 115.229 106.503C115.229 106.592 115.194 106.678 115.131 106.742C115.069 106.805 114.983 106.84 114.894 106.84Z" fill="#F2F2F2"/>
<path d="M64.9047 106.84H56.9974C56.9534 106.841 56.9097 106.832 56.869 106.815C56.8283 106.798 56.7913 106.773 56.7601 106.742C56.7289 106.71 56.7041 106.673 56.6873 106.632C56.6704 106.591 56.6617 106.547 56.6617 106.503C56.6617 106.458 56.6704 106.414 56.6873 106.373C56.7041 106.332 56.7289 106.295 56.7601 106.264C56.7913 106.232 56.8283 106.207 56.869 106.191C56.9097 106.174 56.9534 106.165 56.9974 106.165H64.9047C64.9487 106.165 64.9924 106.174 65.0331 106.191C65.0739 106.207 65.1109 106.232 65.1421 106.264C65.1733 106.295 65.198 106.332 65.2149 106.373C65.2318 106.414 65.2404 106.458 65.2404 106.503C65.2404 106.547 65.2318 106.591 65.2149 106.632C65.198 106.673 65.1733 106.71 65.1421 106.742C65.1109 106.773 65.0739 106.798 65.0331 106.815C64.9924 106.832 64.9487 106.841 64.9047 106.84Z" fill="#F2F2F2"/>
<path d="M78.0052 60.9834L67.2835 71.6543L78.0052 82.3253L80.4175 79.894L72.3094 71.7218L80.4845 63.4822L78.0052 60.9834Z" fill="#34ADBE"/>
<path d="M93.8196 60.9834L104.541 71.6543L93.8196 82.3253L91.4073 79.894L99.5157 71.7218L91.3403 63.4822L93.8196 60.9834Z" fill="#34ADBE"/>
<path d="M32.9331 28.7164C33.6729 28.7164 34.2725 28.112 34.2725 27.3665C34.2725 26.621 33.6729 26.0166 32.9331 26.0166C32.1934 26.0166 31.5938 26.621 31.5938 27.3665C31.5938 28.112 32.1934 28.7164 32.9331 28.7164Z" fill="#34ADBE"/>
<path d="M36.505 28.7164C37.2447 28.7164 37.8443 28.112 37.8443 27.3665C37.8443 26.621 37.2447 26.0166 36.505 26.0166C35.7653 26.0166 35.1656 26.621 35.1656 27.3665C35.1656 28.112 35.7653 28.7164 36.505 28.7164Z" fill="#34ADBE"/>
<path d="M40.0765 28.7164C40.8162 28.7164 41.4159 28.112 41.4159 27.3665C41.4159 26.621 40.8162 26.0166 40.0765 26.0166C39.3368 26.0166 38.7372 26.621 38.7372 27.3665C38.7372 28.112 39.3368 28.7164 40.0765 28.7164Z" fill="#34ADBE"/>
<path opacity="0.1" d="M141.868 29.6152H29.9568V30.0661H141.868V29.6152Z" fill="black"/>
<path d="M168.358 91.9294C168.358 101.494 162.716 104.834 155.756 104.834C148.797 104.834 143.155 101.494 143.155 91.9294C143.155 82.3644 155.756 70.1963 155.756 70.1963C155.756 70.1963 168.358 82.3644 168.358 91.9294Z" fill="#F2F2F2"/>
<path d="M155.297 103.371L155.426 95.3657L160.797 85.4624L155.446 94.11L155.505 90.5106L159.206 83.3458L155.52 89.5582L155.624 83.0845L159.588 77.3803L155.641 82.0665L155.706 70.1963L155.296 85.9105L155.33 85.2622L151.3 79.045L155.265 86.5067L154.89 93.7366L154.878 93.5446L150.232 87.0019L154.864 94.2225L154.817 95.1267L154.809 95.1403L154.813 95.2146L153.86 113.558H155.133L155.286 104.083L159.906 96.88L155.297 103.371Z" fill="#3F3D56"/>
<path d="M19.008 113.473C18.6214 113.69 18.2136 113.866 17.791 113.999C17.0352 114.207 16.2273 114.131 15.4639 114.308C15.1513 114.381 14.8112 114.533 14.7117 114.84C14.6388 115.066 14.7182 115.309 14.7941 115.534C15.6377 118.027 16.1461 120.673 17.4915 122.931C18.0569 123.88 18.7586 124.738 19.5738 125.479C19.8797 125.757 20.2263 126.029 20.6357 126.073C20.8244 126.093 21.015 126.062 21.1883 125.984C21.3616 125.906 21.5114 125.784 21.6227 125.629C21.734 125.474 21.8027 125.292 21.822 125.102C21.8413 124.912 21.8104 124.72 21.7326 124.545C21.6119 124.275 21.3877 124.066 21.2431 123.808C21.0863 123.48 20.9943 123.123 20.9723 122.76C20.8394 121.693 20.7114 120.579 21.0779 119.57C21.3237 118.893 21.7747 118.316 22.1504 117.703C22.526 117.09 22.8382 116.387 22.7546 115.672C22.6975 115.183 22.4611 114.736 22.2114 114.314C21.9611 113.89 21.4666 112.752 20.9639 112.611C20.442 112.464 19.4632 113.238 19.008 113.473Z" fill="#2F2E41"/>
<path d="M32.764 122.083C32.7719 122.325 32.7385 122.565 32.6653 122.795C32.508 123.214 32.1175 123.501 31.9158 123.9C31.6353 124.455 31.7625 125.126 31.9483 125.72C32.0648 126.093 32.2177 126.48 32.5306 126.71C32.7982 126.878 33.1024 126.976 33.4166 126.997C36.1007 127.371 38.8273 127.156 41.5359 127.235C42.0296 127.249 42.5522 127.266 42.9832 127.023C43.4141 126.78 43.6805 126.169 43.3875 125.768C43.1243 125.408 42.6039 125.412 42.1609 125.39C41.0073 125.331 39.9088 124.875 39.0487 124.098C38.879 123.952 38.7319 123.782 38.6121 123.592C38.52 123.423 38.4436 123.247 38.3838 123.064C38.0041 122.028 37.5524 121.019 37.032 120.047C36.8863 119.774 36.7214 119.491 36.4507 119.345C36.2525 119.254 36.0375 119.207 35.8198 119.206C35.1447 119.162 33.3966 118.931 32.8746 119.46C32.3922 119.949 32.7747 121.462 32.764 122.083Z" fill="#2F2E41"/>
<path d="M36.9181 61.6674C39.2995 61.6674 41.2301 59.7217 41.2301 57.3215C41.2301 54.9213 39.2995 52.9756 36.9181 52.9756C34.5366 52.9756 32.6061 54.9213 32.6061 57.3215C32.6061 59.7217 34.5366 61.6674 36.9181 61.6674Z" fill="#FBBEBE"/>
<path d="M33.0244 60.9103C32.768 61.6024 32.3329 62.2523 31.6999 62.6247L37.6637 63.8508C37.4474 62.9735 37.4189 62.0599 37.5801 61.1706C37.6393 60.9554 37.6515 60.7298 37.6158 60.5093C37.5036 60.0733 37.0166 59.8634 36.5808 59.7632C35.4923 59.5131 34.5297 59.379 33.5183 58.8945C33.2091 59.428 33.2524 60.2953 33.0244 60.9103Z" fill="#FBBEBE"/>
<path d="M31.65 60.9981C32.2916 60.7055 32.9906 60.5631 33.6946 60.5817C34.3985 60.6002 35.0892 60.7792 35.7147 61.1052C36.4793 61.5113 37.1124 62.1242 37.7344 62.729C38.3078 63.2865 38.9194 63.9248 38.9601 64.7266C38.9798 65.1151 38.8595 65.495 38.7987 65.8791C38.6896 66.6735 38.8283 67.4825 39.1958 68.1939C39.5632 68.9052 40.1411 69.4838 40.8494 69.8493C41.3232 70.6447 41.421 71.6084 41.4283 72.5362C41.4558 76.0513 40.3554 79.6098 41.141 83.0347C41.3254 83.8388 41.6115 84.6177 41.7708 85.4272C41.9772 86.4758 41.967 87.554 42.075 88.6174C42.1921 89.769 42.4476 90.902 42.8359 91.9915C42.5764 92.4075 42.0363 92.567 41.5498 92.5334C41.0634 92.4997 40.6085 92.2869 40.1745 92.063C38.0727 90.979 36.1476 89.5496 33.9707 88.6284C32.5305 88.0189 30.9962 87.6392 29.599 86.9353C28.2019 86.2313 26.9025 85.1141 26.4753 83.5998C26.2905 82.945 26.2792 82.2551 26.2691 81.5745C26.2266 78.7077 26.1872 75.8095 26.8063 73.0111C27.3523 70.5432 28.4048 68.1824 28.6345 65.6645C28.7092 64.8449 28.7108 63.9676 29.1651 63.2837C29.8073 62.3171 31.1939 62.0667 31.65 60.9981Z" fill="#2F2E41"/>
<path d="M34.4658 57.3839C34.7199 57.0499 35.21 57.0044 35.6159 57.1031C36.0218 57.2019 36.3961 57.4128 36.806 57.4929C36.8992 57.5196 36.9969 57.5263 37.0928 57.5127C37.1888 57.4992 37.2808 57.4656 37.3631 57.4141C37.5064 57.2718 37.5921 57.0809 37.6035 56.8786C37.7471 56.0175 37.7807 55.1414 37.7033 54.2717C37.682 54.1497 37.6901 54.0243 37.727 53.9061C37.8285 53.6596 38.1381 53.6009 38.391 53.5218C38.8083 53.3797 39.1666 53.1015 39.4095 52.7312C39.6524 52.3609 39.766 51.9196 39.7323 51.477C39.726 51.2648 39.6375 51.0634 39.4857 50.916C39.3109 50.7724 39.0661 50.7635 38.8405 50.7617C37.6814 50.7523 36.5222 50.7526 35.3631 50.7626C34.9341 50.7662 34.4835 50.7769 34.1116 50.9925C33.8367 51.1518 33.6322 51.4084 33.3853 51.6091C32.7415 52.1328 31.8707 52.2393 31.0874 52.5077C30.705 52.6174 30.3578 52.8261 30.0803 53.113C29.8198 53.4129 29.6946 53.8589 29.8581 54.2218C29.9421 54.373 30.0359 54.5185 30.1389 54.6573C30.601 55.4019 30.2934 56.3677 30.3624 57.2431C30.4485 58.3363 32.0537 60.1096 33.1421 60.3683C34.8993 60.7859 33.8841 58.1015 34.4658 57.3839Z" fill="#2F2E41"/>
<path d="M32.0315 105.312C32.1424 106.11 32.2846 106.911 32.2466 107.716C32.1935 108.84 31.7913 109.923 31.717 111.046C31.6615 111.884 31.7899 112.732 31.6743 113.564C31.6004 114.097 31.4279 114.611 31.3212 115.138C31.1521 115.998 31.1569 116.882 31.3352 117.74C31.5135 118.597 31.8617 119.409 32.3589 120.128C32.4319 120.251 32.5358 120.352 32.66 120.422C32.7792 120.466 32.9067 120.483 33.0332 120.472C34.2883 120.446 35.5399 120.331 36.779 120.129C36.8697 120.125 36.9556 120.087 37.0195 120.022C37.0475 119.979 37.0653 119.93 37.0718 119.879C37.3015 118.688 36.7776 117.495 36.6444 116.29C36.5021 115.003 36.8085 113.713 37.1126 112.455C37.2505 111.835 37.4227 111.222 37.6286 110.621C37.7756 110.217 37.9531 109.823 38.0805 109.412C38.2609 108.766 38.3708 108.102 38.4082 107.432C38.4966 106.374 38.5435 105.314 38.5488 104.252C38.5788 103.245 38.4957 102.238 38.301 101.251C38.0215 100 37.4492 98.8388 36.8819 97.6914C36.5785 97.7647 36.2937 97.9011 36.0458 98.0919C35.3148 98.5691 34.5514 98.9941 33.7615 99.3639C33.2307 99.6124 32.1956 99.7889 31.8587 100.307C31.5265 100.817 31.7409 101.859 31.7663 102.422C31.8098 103.389 31.8982 104.352 32.0315 105.312Z" fill="#2F2E41"/>
<path opacity="0.1" d="M32.0315 105.312C32.1424 106.11 32.2846 106.911 32.2466 107.716C32.1935 108.84 31.7913 109.923 31.717 111.046C31.6615 111.884 31.7899 112.732 31.6743 113.564C31.6004 114.097 31.4279 114.611 31.3212 115.138C31.1521 115.998 31.1569 116.882 31.3352 117.74C31.5135 118.597 31.8617 119.409 32.3589 120.128C32.4319 120.251 32.5358 120.352 32.66 120.422C32.7792 120.466 32.9067 120.483 33.0332 120.472C34.2883 120.446 35.5399 120.331 36.779 120.129C36.8697 120.125 36.9556 120.087 37.0195 120.022C37.0475 119.979 37.0653 119.93 37.0718 119.879C37.3015 118.688 36.7776 117.495 36.6444 116.29C36.5021 115.003 36.8085 113.713 37.1126 112.455C37.2505 111.835 37.4227 111.222 37.6286 110.621C37.7756 110.217 37.9531 109.823 38.0805 109.412C38.2609 108.766 38.3708 108.102 38.4082 107.432C38.4966 106.374 38.5435 105.314 38.5488 104.252C38.5788 103.245 38.4957 102.238 38.301 101.251C38.0215 100 37.4492 98.8388 36.8819 97.6914C36.5785 97.7647 36.2937 97.9011 36.0458 98.0919C35.3148 98.5691 34.5514 98.9941 33.7615 99.3639C33.2307 99.6124 32.1956 99.7889 31.8587 100.307C31.5265 100.817 31.7409 101.859 31.7663 102.422C31.8098 103.389 31.8982 104.352 32.0315 105.312Z" fill="black"/>
<path d="M26.2019 88.2646C25.6293 89.8184 26.471 91.4975 27.2023 92.9821C29.0039 96.6397 30.255 100.543 31.4993 104.429C31.5926 104.72 31.6857 105.037 31.5818 105.325C31.492 105.529 31.3464 105.703 31.1618 105.827C30.3038 106.484 29.2113 106.718 28.1892 107.061C27.2015 107.394 26.2555 107.84 25.3702 108.393C24.6296 108.856 23.9358 109.39 23.2434 109.923L21.0391 111.619C20.8964 111.717 20.7716 111.838 20.6706 111.979C20.458 112.315 20.5451 112.754 20.651 113.138C20.9313 114.155 21.2922 115.148 21.7302 116.107C21.8023 116.317 21.9395 116.498 22.1216 116.624C22.4656 116.81 22.8865 116.563 23.1492 116.272C23.4119 115.98 23.6392 115.618 24.0095 115.493C24.3795 115.368 24.7866 115.519 25.1729 115.464C25.7978 115.376 26.2126 114.796 26.663 114.35C28.5032 112.531 31.5755 112.663 33.5998 111.054C33.8924 110.79 34.2022 110.546 34.5271 110.324C34.8693 110.12 35.2574 110.008 35.6124 109.828C36.6923 109.28 37.3712 108.147 37.7349 106.985C38.0986 105.823 38.2023 104.596 38.4637 103.406C38.5988 102.791 38.7766 102.182 38.8367 101.555C38.8754 100.972 38.8628 100.387 38.799 99.8056L38.0686 90.6989C38.0092 89.9575 37.9496 89.2152 37.8341 88.4805C35.6649 88.5586 33.4972 88.6466 31.3267 88.6725C29.5995 88.693 27.8407 88.8147 26.2019 88.2646Z" fill="#2F2E41"/>
<path d="M25.4043 90.395C25.6986 90.872 26.4148 90.8621 26.908 90.6006C27.4012 90.3391 27.7844 89.8998 28.2787 89.6405C28.943 89.2921 29.7291 89.3052 30.4777 89.3265C31.6628 89.3603 32.8625 89.3962 34.0027 89.7235C35.1821 90.0621 36.3302 90.7139 37.5497 90.5839C37.7619 90.5613 37.9939 90.4999 38.1094 90.3191C38.177 90.1881 38.2089 90.0413 38.2016 89.8937L38.2415 88.82C38.2659 88.6343 38.2365 88.4454 38.1566 88.2762C38.0543 88.1354 37.914 88.0272 37.7525 87.9643C36.0168 87.1175 34.0373 86.9598 32.11 86.8932C31.1304 86.8594 30.1503 86.8455 29.1698 86.8515C28.3377 86.8566 27.3389 86.7353 26.5299 86.9594C25.4443 87.2601 24.8536 89.5022 25.4043 90.395Z" fill="#2F2E41"/>
<path d="M36.3034 62.2725C34.0291 62.2522 31.9681 60.7392 29.6941 60.7024C29.4193 60.6832 29.1441 60.7311 28.8916 60.8419C28.5747 61.0028 28.3664 61.3139 28.1256 61.5766C27.4532 62.3105 26.4795 62.7023 25.7888 63.4186C25.141 64.0903 24.7808 65.0909 25.0365 65.9914C25.2923 66.8918 26.2574 67.5825 27.1615 67.3661C27.5258 66.1777 28.2776 65.1482 29.2951 64.4444C29.8245 64.1021 30.3825 63.8069 30.9626 63.5621C31.9847 63.0954 33.1276 62.6198 34.1947 62.9696C34.5882 63.1194 34.9592 63.3233 35.2973 63.5756L37.0762 64.78C36.8689 63.956 36.6825 63.0318 36.3034 62.2725Z" fill="#34ADBE"/>
<path d="M26.8995 66.5693C26.5975 66.949 27.0326 67.4992 26.966 67.9812C26.9218 68.3014 26.6603 68.5459 26.5514 68.8501C26.4386 69.1651 26.4984 69.5141 26.4556 69.8462C26.4127 70.0877 26.3492 70.3251 26.2659 70.5556C26.0743 71.2443 25.9406 71.948 25.8661 72.6593L25.468 75.6554C25.3989 76.1063 25.3569 76.561 25.3421 77.017C25.3622 77.3578 25.3396 77.6998 25.2748 78.0349C25.1867 78.3623 24.9915 78.6488 24.8602 78.9612C24.7289 79.2736 24.6681 79.6514 24.8454 79.9398C24.2514 80.4384 24.0748 81.4177 24.4902 82.0748C24.5692 82.1772 24.6311 82.292 24.6732 82.4146C24.6962 82.586 24.6681 82.7603 24.5926 82.9156L24.1901 83.9965C24.0871 84.2732 24.0545 84.6944 24.3409 84.7576C24.1037 85.0059 23.9188 85.3002 23.7975 85.6226C23.7387 85.7844 23.7211 85.9586 23.7464 86.129C23.7717 86.2995 23.839 86.4609 23.9423 86.5983C24.0423 86.6868 24.1274 86.7909 24.1944 86.9067C24.2338 87.0681 24.2236 87.2377 24.1653 87.3932C24.1051 87.6292 24.0935 87.8752 24.1312 88.116C24.1689 88.3567 24.2551 88.5872 24.3845 88.7931C24.5185 88.9962 24.7084 89.1556 24.9309 89.2517C25.1534 89.3478 25.3989 89.3765 25.6373 89.3343C26.4425 89.1513 27.166 88.8624 27.9778 89.0125C29.7258 89.3358 31.4795 89.6604 33.1725 90.2052C35.1047 90.827 36.9757 91.7388 38.9951 91.9301C39.128 91.9575 39.2662 91.9359 39.3845 91.8691C39.4874 91.7708 39.5514 91.6382 39.5646 91.496C39.7726 90.5128 39.9807 89.5296 40.1887 88.5465C40.4403 87.4567 40.6318 86.3537 40.7625 85.2426C40.8335 84.5254 40.8538 83.8043 40.874 83.0839L41.0348 77.3497C41.1102 76.5046 40.9984 75.6531 40.7074 74.8569L39.7822 71.8799C39.2541 70.181 38.0428 68.6744 37.6115 66.948C37.3386 65.8553 37.1369 64.6827 36.4049 63.8311C35.3614 62.617 33.5559 62.4281 31.9756 62.6369C31.2616 62.7312 30.5416 62.8939 29.9241 63.2671C29.21 63.6986 28.684 64.3783 28.175 65.0424C27.7556 65.5897 27.3287 66.0297 26.8995 66.5693Z" fill="#34ADBE"/>
<path d="M30.5894 83.4354C30.7196 84.0012 30.993 84.523 31.1604 85.0788C31.4408 86.01 31.417 87.013 31.6969 87.9444C31.8144 88.3353 31.9846 88.7107 32.0689 89.1102C32.2655 90.0417 31.9784 91.0054 31.6219 91.8874C31.2654 92.7693 30.8312 93.6389 30.7154 94.5841C30.6339 95.2498 30.751 96.0015 31.2601 96.4335C31.7887 96.8821 32.5568 96.8517 33.2452 96.792C33.4924 96.785 33.7363 96.7338 33.9657 96.6408C34.4921 96.3898 34.7139 95.7619 34.8369 95.1882C35.2494 93.2654 35.1315 91.2725 35.0117 89.3091L34.6983 84.1744C34.6379 83.1858 34.5733 82.1768 34.271 81.2276C34.1611 80.8824 33.9695 80.1846 33.6565 79.9642C33.3466 79.7458 32.4615 79.7361 32.0778 79.7179C30.2774 79.6327 30.2976 82.1653 30.5894 83.4354Z" fill="#FBBEBE"/>
<path d="M32.5842 64.4771C32.2165 64.283 31.7533 64.3667 31.3979 64.5828C31.0547 64.8196 30.7541 65.1137 30.5091 65.4524C29.7146 66.4299 28.8735 67.5515 28.9914 68.8095C29.0355 69.2811 29.2147 69.7275 29.3362 70.1852C29.8689 72.192 29.2799 74.3144 29.3475 76.3907C29.3865 77.5904 29.6455 78.7704 29.9035 79.9423C29.9561 80.1815 30.0404 80.4583 30.27 80.5389C30.4424 80.5994 30.6287 80.5216 30.7994 80.4562C31.4352 80.2194 32.1182 80.1404 32.7908 80.2258C33.4633 80.3112 34.1055 80.5586 34.6631 80.947C35.0895 80.7177 34.9297 79.9927 34.8342 79.5152C34.5501 78.0967 34.9357 76.6333 35.4039 75.2653C35.8721 73.8972 36.4323 72.5309 36.5099 71.0859C36.5978 69.4486 36.0591 67.8505 35.5277 66.3008C35.4117 65.9625 35.2849 65.6078 35.016 65.3741C34.7857 65.2016 34.5218 65.0801 34.2417 65.0176C33.6772 64.8494 33.1057 64.7523 32.5842 64.4771Z" fill="#2F2E41"/>
</svg>
