<svg width="119" height="26" viewBox="0 0 119 26" fill="none" xmlns="http://www.w3.org/2000/svg">
<path d="M41.8984 15.9395C41.7402 17.293 41.2393 18.3389 40.3955 19.0771C39.5576 19.8096 38.4414 20.1758 37.0469 20.1758C35.5352 20.1758 34.3223 19.6338 33.4082 18.5498C32.5 17.4658 32.0459 16.0156 32.0459 14.1992V12.9688C32.0459 11.7793 32.2568 10.7334 32.6787 9.83105C33.1064 8.92871 33.71 8.2373 34.4893 7.75684C35.2686 7.27051 36.1709 7.02734 37.1963 7.02734C38.5557 7.02734 39.6455 7.4082 40.4658 8.16992C41.2861 8.92578 41.7637 9.97461 41.8984 11.3164H40.2021C40.0557 10.2969 39.7363 9.55859 39.2441 9.10156C38.7578 8.64453 38.0752 8.41602 37.1963 8.41602C36.1182 8.41602 35.2715 8.81445 34.6562 9.61133C34.0469 10.4082 33.7422 11.542 33.7422 13.0127V14.252C33.7422 15.6406 34.0322 16.7451 34.6123 17.5654C35.1924 18.3857 36.0039 18.7959 37.0469 18.7959C37.9844 18.7959 38.7021 18.585 39.2002 18.1631C39.7041 17.7354 40.0381 16.9941 40.2021 15.9395H41.8984ZM49.8262 20C49.7324 19.8125 49.6562 19.4785 49.5977 18.998C48.8418 19.7832 47.9395 20.1758 46.8906 20.1758C45.9531 20.1758 45.1826 19.9121 44.5791 19.3848C43.9814 18.8516 43.6826 18.1777 43.6826 17.3633C43.6826 16.373 44.0576 15.6055 44.8076 15.0605C45.5635 14.5098 46.624 14.2344 47.9893 14.2344H49.5713V13.4873C49.5713 12.9189 49.4014 12.4678 49.0615 12.1338C48.7217 11.7939 48.2207 11.624 47.5586 11.624C46.9785 11.624 46.4922 11.7705 46.0996 12.0635C45.707 12.3564 45.5107 12.7109 45.5107 13.127H43.876C43.876 12.6523 44.043 12.1953 44.377 11.7559C44.7168 11.3105 45.1738 10.959 45.748 10.7012C46.3281 10.4434 46.9639 10.3145 47.6553 10.3145C48.751 10.3145 49.6094 10.5898 50.2305 11.1406C50.8516 11.6855 51.1738 12.4385 51.1973 13.3994V17.7764C51.1973 18.6494 51.3086 19.3438 51.5312 19.8594V20H49.8262ZM47.1279 18.7607C47.6377 18.7607 48.1211 18.6289 48.5781 18.3652C49.0352 18.1016 49.3662 17.7588 49.5713 17.3369V15.3857H48.2969C46.3047 15.3857 45.3086 15.9688 45.3086 17.1348C45.3086 17.6445 45.4785 18.043 45.8184 18.3301C46.1582 18.6172 46.5947 18.7607 47.1279 18.7607ZM55.9521 8.1875V10.4902H57.7275V11.7471H55.9521V17.6445C55.9521 18.0254 56.0312 18.3125 56.1895 18.5059C56.3477 18.6934 56.6172 18.7871 56.998 18.7871C57.1855 18.7871 57.4434 18.752 57.7715 18.6816V20C57.3438 20.1172 56.9277 20.1758 56.5234 20.1758C55.7969 20.1758 55.249 19.9561 54.8799 19.5166C54.5107 19.0771 54.3262 18.4531 54.3262 17.6445V11.7471H52.5947V10.4902H54.3262V8.1875H55.9521ZM63.5811 20.1758C62.292 20.1758 61.2432 19.7539 60.4346 18.9102C59.626 18.0605 59.2217 16.9268 59.2217 15.5088V15.21C59.2217 14.2666 59.4004 13.4258 59.7578 12.6875C60.1211 11.9434 60.625 11.3633 61.2695 10.9473C61.9199 10.5254 62.623 10.3145 63.3789 10.3145C64.6152 10.3145 65.5762 10.7217 66.2617 11.5361C66.9473 12.3506 67.29 13.5166 67.29 15.0342V15.7109H60.8477C60.8711 16.6484 61.1436 17.4072 61.665 17.9873C62.1924 18.5615 62.8604 18.8486 63.6689 18.8486C64.2432 18.8486 64.7295 18.7314 65.1279 18.4971C65.5264 18.2627 65.875 17.9521 66.1738 17.5654L67.167 18.3389C66.3701 19.5635 65.1748 20.1758 63.5811 20.1758ZM63.3789 11.6504C62.7227 11.6504 62.1719 11.8906 61.7266 12.3711C61.2812 12.8457 61.0059 13.5137 60.9004 14.375H65.6641V14.252C65.6172 13.4258 65.3945 12.7871 64.9961 12.3359C64.5977 11.8789 64.0586 11.6504 63.3789 11.6504ZM68.793 15.166C68.793 13.6836 69.1357 12.5059 69.8213 11.6328C70.5068 10.7539 71.415 10.3145 72.5459 10.3145C73.7061 10.3145 74.6113 10.7246 75.2617 11.5449L75.3408 10.4902H76.8262V19.7715C76.8262 21.002 76.46 21.9717 75.7275 22.6807C75.001 23.3896 74.0225 23.7441 72.792 23.7441C72.1064 23.7441 71.4355 23.5977 70.7793 23.3047C70.123 23.0117 69.6221 22.6104 69.2764 22.1006L70.1201 21.125C70.8174 21.9863 71.6699 22.417 72.6777 22.417C73.4688 22.417 74.084 22.1943 74.5234 21.749C74.9688 21.3037 75.1914 20.6768 75.1914 19.8682V19.0508C74.541 19.8008 73.6533 20.1758 72.5283 20.1758C71.415 20.1758 70.5127 19.7275 69.8213 18.8311C69.1357 17.9346 68.793 16.7129 68.793 15.166ZM70.4277 15.3506C70.4277 16.4229 70.6475 17.2666 71.0869 17.8818C71.5264 18.4912 72.1416 18.7959 72.9326 18.7959C73.958 18.7959 74.7109 18.3301 75.1914 17.3984V13.0566C74.6934 12.1484 73.9463 11.6943 72.9502 11.6943C72.1592 11.6943 71.541 12.002 71.0957 12.6172C70.6504 13.2324 70.4277 14.1436 70.4277 15.3506ZM78.8564 15.1572C78.8564 14.2256 79.0381 13.3877 79.4014 12.6436C79.7705 11.8994 80.2803 11.3252 80.9307 10.9209C81.5869 10.5166 82.334 10.3145 83.1719 10.3145C84.4668 10.3145 85.5127 10.7627 86.3096 11.6592C87.1123 12.5557 87.5137 13.748 87.5137 15.2363V15.3506C87.5137 16.2764 87.335 17.1084 86.9775 17.8467C86.626 18.5791 86.1191 19.1504 85.457 19.5605C84.8008 19.9707 84.0449 20.1758 83.1895 20.1758C81.9004 20.1758 80.8545 19.7275 80.0518 18.8311C79.2549 17.9346 78.8564 16.748 78.8564 15.2715V15.1572ZM80.4912 15.3506C80.4912 16.4053 80.7344 17.252 81.2207 17.8906C81.7129 18.5293 82.3691 18.8486 83.1895 18.8486C84.0156 18.8486 84.6719 18.5264 85.1582 17.8818C85.6445 17.2314 85.8877 16.3232 85.8877 15.1572C85.8877 14.1143 85.6387 13.2705 85.1406 12.626C84.6484 11.9756 83.9922 11.6504 83.1719 11.6504C82.3691 11.6504 81.7217 11.9697 81.2295 12.6084C80.7373 13.2471 80.4912 14.1611 80.4912 15.3506ZM94.1494 11.9492C93.9033 11.9082 93.6367 11.8877 93.3496 11.8877C92.2832 11.8877 91.5596 12.3418 91.1787 13.25V20H89.5527V10.4902H91.1348L91.1611 11.5889C91.6943 10.7393 92.4502 10.3145 93.4287 10.3145C93.7451 10.3145 93.9854 10.3555 94.1494 10.4375V11.9492ZM97.4189 20H95.793V10.4902H97.4189V20ZM95.6611 7.96777C95.6611 7.7041 95.7402 7.48145 95.8984 7.2998C96.0625 7.11816 96.3027 7.02734 96.6191 7.02734C96.9355 7.02734 97.1758 7.11816 97.3398 7.2998C97.5039 7.48145 97.5859 7.7041 97.5859 7.96777C97.5859 8.23145 97.5039 8.45117 97.3398 8.62695C97.1758 8.80273 96.9355 8.89062 96.6191 8.89062C96.3027 8.89062 96.0625 8.80273 95.8984 8.62695C95.7402 8.45117 95.6611 8.23145 95.6611 7.96777ZM105.9 20C105.807 19.8125 105.73 19.4785 105.672 18.998C104.916 19.7832 104.014 20.1758 102.965 20.1758C102.027 20.1758 101.257 19.9121 100.653 19.3848C100.056 18.8516 99.7568 18.1777 99.7568 17.3633C99.7568 16.373 100.132 15.6055 100.882 15.0605C101.638 14.5098 102.698 14.2344 104.063 14.2344H105.646V13.4873C105.646 12.9189 105.476 12.4678 105.136 12.1338C104.796 11.7939 104.295 11.624 103.633 11.624C103.053 11.624 102.566 11.7705 102.174 12.0635C101.781 12.3564 101.585 12.7109 101.585 13.127H99.9502C99.9502 12.6523 100.117 12.1953 100.451 11.7559C100.791 11.3105 101.248 10.959 101.822 10.7012C102.402 10.4434 103.038 10.3145 103.729 10.3145C104.825 10.3145 105.684 10.5898 106.305 11.1406C106.926 11.6855 107.248 12.4385 107.271 13.3994V17.7764C107.271 18.6494 107.383 19.3438 107.605 19.8594V20H105.9ZM103.202 18.7607C103.712 18.7607 104.195 18.6289 104.652 18.3652C105.109 18.1016 105.44 17.7588 105.646 17.3369V15.3857H104.371C102.379 15.3857 101.383 15.9688 101.383 17.1348C101.383 17.6445 101.553 18.043 101.893 18.3301C102.232 18.6172 102.669 18.7607 103.202 18.7607Z" fill="white"/>
<path d="M22.0458 6.18998C21.9338 6.01087 21.6955 5.95522 21.5138 6.06562C21.332 6.17602 21.2755 6.41068 21.3876 6.58968C22.5234 8.40455 23.1537 10.4816 23.2207 12.6191H18.4701C18.2743 8.75184 15.1151 5.63997 11.1891 5.44715V0.767559C14.7519 0.875672 18.0793 2.47361 20.3675 5.18934C20.5039 5.35118 20.7477 5.37352 20.912 5.23915C21.0763 5.10478 21.099 4.86469 20.9626 4.7028C18.4444 1.71412 14.7412 0 10.8024 0C10.5889 0 10.4158 0.170473 10.4158 0.380859V2.36686C8.09733 2.44578 5.91922 3.23385 4.09491 4.65898C2.22709 6.11807 0.884856 8.16994 0.315505 10.4365C0.264209 10.6407 0.390669 10.8472 0.597964 10.8977C0.629102 10.9053 0.660343 10.909 0.69112 10.909C0.864751 10.909 1.02255 10.793 1.06612 10.6195C2.14409 6.32836 5.95706 3.2955 10.4158 3.12909V5.44705C6.36128 5.64606 3.12478 8.95766 3.12478 13C3.12478 14.8926 3.82585 16.679 5.1069 18.0716L3.44323 19.7104C1.71893 17.879 0.773296 15.5111 0.773296 13C0.773296 12.7665 0.781492 12.5341 0.797629 12.3093C0.812682 12.0994 0.652198 11.9173 0.43918 11.9025C0.225905 11.8872 0.041294 12.0457 0.0262405 12.2556C0.00886716 12.4982 0 12.7486 0 12.9999C0 15.7146 1.02591 18.2737 2.89604 20.2493L1.47009 21.6539C1.31909 21.8027 1.31909 22.0438 1.47009 22.1925C3.96268 24.6478 7.27692 26 10.8024 26C14.3276 26 17.6417 24.6478 20.1342 22.1926C20.2852 22.0438 20.2852 21.8027 20.1342 21.654L18.7084 20.2493C20.4907 18.3666 21.5054 15.9535 21.5967 13.3809H23.6134C23.8269 13.3809 24 13.2104 24 13C24 10.5875 23.3243 8.23266 22.0458 6.18998ZM10.8024 25.2383C7.61273 25.2383 4.60662 24.0625 2.29447 21.9192L5.65408 18.6099C6.82335 19.65 8.30447 20.3193 9.8654 20.5063C10.0778 20.5318 10.2701 20.383 10.2959 20.1742C10.3217 19.9654 10.1707 19.7755 9.95876 19.7501C8.44098 19.5684 7.00683 18.8789 5.92051 17.8088C5.91968 17.808 5.9188 17.8073 5.91798 17.8065C4.61544 16.5223 3.89808 14.8154 3.89808 13C3.89808 9.25077 6.99405 6.20044 10.8 6.19927C10.8008 6.19927 10.8016 6.19938 10.8024 6.19938C14.609 6.19938 17.7059 9.2497 17.7064 12.9992C17.7064 12.9995 17.7064 12.9997 17.7064 13C17.7064 14.8165 16.9882 16.5244 15.6842 17.8088C15.6839 17.8091 15.6837 17.8094 15.6834 17.8096C14.6025 18.8735 13.1767 19.5618 11.6684 19.7477C11.4565 19.7739 11.3063 19.9642 11.3328 20.173C11.3593 20.3817 11.5524 20.5292 11.7645 20.5036C13.3154 20.3123 14.7876 19.6441 15.9507 18.6099L19.3099 21.9192C16.9977 24.0625 13.9918 25.2383 10.8024 25.2383ZM18.1613 19.7103L16.4977 18.0714C17.6924 16.7726 18.3825 15.1313 18.4701 13.3808H20.8229C20.7324 15.7501 19.798 17.972 18.1613 19.7103Z" fill="white"/>
<path d="M14.656 16.8168C14.8695 16.8168 15.0427 16.6463 15.0427 16.4359V14.6918C15.0427 13.3574 13.9462 12.2709 12.5942 12.2596C13.0138 11.8233 13.2721 11.235 13.2721 10.588C13.2721 9.24656 12.1641 8.15527 10.8023 8.15527C9.44048 8.15527 8.3326 9.24656 8.3326 10.588C8.3326 11.235 8.59083 11.8233 9.01048 12.2596C7.65844 12.2709 6.56201 13.3574 6.56201 14.6918V16.4359C6.56201 16.6463 6.73513 16.8168 6.94866 16.8168H14.656ZM10.8023 8.91699C11.7377 8.91699 12.4988 9.66663 12.4988 10.588C12.4988 11.5094 11.7377 12.259 10.8023 12.259C9.86688 12.259 9.1059 11.5094 9.1059 10.588C9.1059 9.66663 9.86693 8.91699 10.8023 8.91699ZM7.33526 14.6918C7.33526 13.7704 8.09629 13.0208 9.03172 13.0208H12.573C13.5084 13.0208 14.2694 13.7704 14.2694 14.6918V16.0551H12.8554V15.41C12.8554 15.1996 12.6823 15.0291 12.4688 15.0291C12.2552 15.0291 12.0821 15.1996 12.0821 15.41V16.0551H9.5225V15.41C9.5225 15.1996 9.34939 15.0291 9.13585 15.0291C8.92232 15.0291 8.74921 15.1996 8.74921 15.41V16.0551H7.33526V14.6918Z" fill="white"/>
</svg>
