<svg width="186" height="41" viewBox="0 0 186 41" fill="none" xmlns="http://www.w3.org/2000/svg">
<rect width="186" height="41" fill="#34ADBE"/>
<path d="M26.4316 22.2637C26.321 23.7936 25.7546 24.998 24.7324 25.877C23.7168 26.7559 22.3757 27.1953 20.709 27.1953C18.8861 27.1953 17.4505 26.5833 16.4023 25.3594C15.3607 24.1289 14.8398 22.4427 14.8398 20.3008V19.4316C14.8398 18.0645 15.0807 16.86 15.5625 15.8184C16.0443 14.7767 16.7311 13.9792 17.623 13.4258C18.5215 12.8659 19.5632 12.5859 20.748 12.5859C22.3887 12.5859 23.7103 13.0254 24.7129 13.9043C25.7155 14.7832 26.2949 16.0169 26.4512 17.6055H23.5215C23.4499 16.6875 23.1927 16.0234 22.75 15.6133C22.3138 15.1966 21.6465 14.9883 20.748 14.9883C19.7715 14.9883 19.0391 15.3398 18.5508 16.043C18.069 16.7396 17.8216 17.8236 17.8086 19.2949V20.3691C17.8086 21.9056 18.0397 23.0286 18.502 23.7383C18.9707 24.4479 19.7064 24.8027 20.709 24.8027C21.6139 24.8027 22.2878 24.5977 22.7305 24.1875C23.1797 23.7708 23.4368 23.1296 23.502 22.2637H26.4316ZM40.0352 20.2129C40.0352 21.6126 39.7878 22.8398 39.293 23.8945C38.7982 24.9492 38.0885 25.763 37.1641 26.3359C36.2461 26.9089 35.1914 27.1953 34 27.1953C32.8216 27.1953 31.7702 26.9121 30.8457 26.3457C29.9212 25.7793 29.2051 24.972 28.6973 23.9238C28.1895 22.8691 27.9323 21.6582 27.9258 20.291V19.5879C27.9258 18.1882 28.1764 16.9577 28.6777 15.8965C29.1855 14.8288 29.8984 14.0117 30.8164 13.4453C31.7409 12.8724 32.7956 12.5859 33.9805 12.5859C35.1654 12.5859 36.2168 12.8724 37.1348 13.4453C38.0592 14.0117 38.7721 14.8288 39.2734 15.8965C39.7812 16.9577 40.0352 18.1849 40.0352 19.5781V20.2129ZM37.0664 19.5684C37.0664 18.0775 36.7995 16.9447 36.2656 16.1699C35.7318 15.3952 34.9701 15.0078 33.9805 15.0078C32.9974 15.0078 32.2389 15.3919 31.7051 16.1602C31.1712 16.9219 30.901 18.0417 30.8945 19.5195V20.2129C30.8945 21.6647 31.1615 22.791 31.6953 23.5918C32.2292 24.3926 32.9974 24.793 34 24.793C34.9831 24.793 35.7383 24.4089 36.2656 23.6406C36.793 22.8659 37.0599 21.7396 37.0664 20.2617V19.5684ZM53.7266 27H50.7969L45.0938 17.6445V27H42.1641V12.7812H45.0938L50.8066 22.1562V12.7812H53.7266V27ZM66.6953 15.1543H62.3398V27H59.4102V15.1543H55.1133V12.7812H66.6953V15.1543ZM73.6387 21.7949H71.3047V27H68.375V12.7812H73.6582C75.3379 12.7812 76.6335 13.1556 77.5449 13.9043C78.4564 14.653 78.9121 15.7109 78.9121 17.0781C78.9121 18.0482 78.7005 18.8587 78.2773 19.5098C77.8607 20.1543 77.2259 20.6686 76.373 21.0527L79.4492 26.8633V27H76.3047L73.6387 21.7949ZM71.3047 19.4219H73.668C74.4036 19.4219 74.9733 19.2363 75.377 18.8652C75.7806 18.4876 75.9824 17.9701 75.9824 17.3125C75.9824 16.6419 75.7904 16.1146 75.4062 15.7305C75.0286 15.3464 74.446 15.1543 73.6582 15.1543H71.3047V19.4219ZM89.1758 24.0703H84.0391L83.0625 27H79.9473L85.2402 12.7812H87.9551L93.2773 27H90.1621L89.1758 24.0703ZM84.8301 21.6973H88.3848L86.5977 16.375L84.8301 21.6973ZM104.137 15.1543H99.7812V27H96.8516V15.1543H92.5547V12.7812H104.137V15.1543ZM112.672 24.0703H107.535L106.559 27H103.443L108.736 12.7812H111.451L116.773 27H113.658L112.672 24.0703ZM108.326 21.6973H111.881L110.094 16.375L108.326 21.6973ZM123.365 21.7949H121.031V27H118.102V12.7812H123.385C125.064 12.7812 126.36 13.1556 127.271 13.9043C128.183 14.653 128.639 15.7109 128.639 17.0781C128.639 18.0482 128.427 18.8587 128.004 19.5098C127.587 20.1543 126.952 20.6686 126.1 21.0527L129.176 26.8633V27H126.031L123.365 21.7949ZM121.031 19.4219H123.395C124.13 19.4219 124.7 19.2363 125.104 18.8652C125.507 18.4876 125.709 17.9701 125.709 17.3125C125.709 16.6419 125.517 16.1146 125.133 15.7305C124.755 15.3464 124.173 15.1543 123.385 15.1543H121.031V19.4219Z" fill="white"/>
<path d="M152.339 30.5762C152.081 30.8482 151.729 31 151.364 31C150.999 31 150.647 30.8482 150.39 30.5762L142.606 22.4069C141.798 21.5593 141.798 20.1848 142.606 19.3387L143.58 18.3157C144.389 17.468 145.697 17.468 146.505 18.3157L151.364 23.4154L164.495 9.63574C165.303 8.78809 166.613 8.78809 167.42 9.63574L168.394 10.6587C169.202 11.5064 169.202 12.8807 168.394 13.727L152.339 30.5762Z" fill="white"/>
</svg>
