<svg width="19" height="18" viewBox="0 0 19 18" fill="none" xmlns="http://www.w3.org/2000/svg">
<g clip-path="url(#clip0)">
<path d="M12.1208 6.52142C11.875 6.52142 11.6758 6.71013 11.6758 6.94297V14.9102C11.6758 15.1429 11.875 15.3317 12.1208 15.3317C12.3665 15.3317 12.5657 15.1429 12.5657 14.9102V6.94297C12.5657 6.71013 12.3665 6.52142 12.1208 6.52142Z" fill="white"/>
<path d="M6.87018 6.52142C6.62441 6.52142 6.42522 6.71013 6.42522 6.94297V14.9102C6.42522 15.1429 6.62441 15.3317 6.87018 15.3317C7.11596 15.3317 7.31515 15.1429 7.31515 14.9102V6.94297C7.31515 6.71013 7.11596 6.52142 6.87018 6.52142Z" fill="white"/>
<path d="M3.04353 5.35853V15.7445C3.04353 16.3584 3.28113 16.9349 3.6962 17.3485C4.10936 17.7633 4.68433 17.9988 5.28608 17.9998H13.7049C14.3068 17.9988 14.8818 17.7633 15.2948 17.3485C15.7099 16.9349 15.9475 16.3584 15.9475 15.7445V5.35853C16.7726 5.15105 17.3072 4.39589 17.1968 3.59381C17.0863 2.79188 16.3651 2.19201 15.5114 2.19184H13.2332V1.66491C13.2358 1.2218 13.0509 0.796299 12.7197 0.48327C12.3886 0.170405 11.9388 -0.0038114 11.4711 -0.000188753H7.51993C7.0522 -0.0038114 6.60237 0.170405 6.27126 0.48327C5.94014 0.796299 5.7552 1.2218 5.75781 1.66491V2.19184H3.47963C2.62586 2.19201 1.9047 2.79188 1.79416 3.59381C1.68379 4.39589 2.21844 5.15105 3.04353 5.35853ZM13.7049 17.1567H5.28608C4.52529 17.1567 3.93346 16.5375 3.93346 15.7445V5.39558H15.0575V15.7445C15.0575 16.5375 14.4657 17.1567 13.7049 17.1567ZM6.64774 1.66491C6.64478 1.44541 6.73586 1.23415 6.90029 1.0792C7.06454 0.924245 7.28807 0.839112 7.51993 0.8429H11.4711C11.7029 0.839112 11.9265 0.924245 12.0907 1.0792C12.2551 1.23398 12.3462 1.44541 12.3433 1.66491V2.19184H6.64774V1.66491ZM3.47963 3.03493H15.5114C15.9537 3.03493 16.3123 3.37463 16.3123 3.79371C16.3123 4.21278 15.9537 4.55249 15.5114 4.55249H3.47963C3.03727 4.55249 2.6787 4.21278 2.6787 3.79371C2.6787 3.37463 3.03727 3.03493 3.47963 3.03493Z" fill="white"/>
<path d="M9.49549 6.52142C9.24971 6.52142 9.05052 6.71013 9.05052 6.94297V14.9102C9.05052 15.1429 9.24971 15.3317 9.49549 15.3317C9.74126 15.3317 9.94045 15.1429 9.94045 14.9102V6.94297C9.94045 6.71013 9.74126 6.52142 9.49549 6.52142Z" fill="white"/>
</g>
<defs>
<clipPath id="clip0">
<rect width="19" height="18" fill="white"/>
</clipPath>
</defs>
</svg>
