<svg width="30" height="30" viewBox="0 0 30 30" fill="none" xmlns="http://www.w3.org/2000/svg">
<path d="M28.344 3.39346e-08H1.65454C0.740662 0.000549353 -0.000183072 0.74176 3.39346e-08 1.65601V28.3455C0.000549353 29.2593 0.74176 30.0002 1.65601 30H16.0254V18.3984H12.1289V13.8574H16.0254V10.5156C16.0254 6.64014 18.3913 4.53076 21.8483 4.53076C23.5042 4.53076 24.9271 4.65417 25.3418 4.70929V8.75977H22.9579C21.0771 8.75977 20.7129 9.6535 20.7129 10.9653V13.8574H25.21L24.624 18.3984H20.7129V30H28.344C29.2584 30.0002 29.9998 29.2592 30 28.3447C30 28.3445 30 28.3444 30 28.344V1.65454C29.9996 0.740662 29.2582 -0.000183072 28.344 3.39346e-08Z" fill="#333333"/>
</svg>
