<svg width="213" height="197" viewBox="0 0 213 197" fill="none" xmlns="http://www.w3.org/2000/svg">
<rect width="212.356" height="197" fill="#34ADBE" fill-opacity="0.9"/>
<path d="M148.68 58.3652C139.577 58.3652 132.172 65.7709 132.172 74.8732C132.172 83.9755 139.577 91.3811 148.68 91.3811C157.782 91.3811 165.188 83.9758 165.188 74.8732C165.188 65.7702 157.782 58.3652 148.68 58.3652ZM148.68 84.9749C143.11 84.9749 138.578 80.4434 138.578 74.8732C138.578 69.3029 143.11 64.7715 148.68 64.7715C154.25 64.7715 158.782 69.3029 158.782 74.8732C158.782 80.4428 154.25 84.9749 148.68 84.9749Z" fill="white"/>
<path d="M148.792 160.904C148.712 160.708 148.613 160.523 148.498 160.35C148.382 160.173 148.248 160.01 148.101 159.863C147.953 159.715 147.79 159.581 147.614 159.466C147.441 159.35 147.255 159.251 147.06 159.171C146.867 159.091 146.666 159.027 146.461 158.988C146.047 158.905 145.625 158.905 145.211 158.988C145.006 159.027 144.805 159.091 144.612 159.171C144.417 159.251 144.231 159.35 144.058 159.466C143.882 159.581 143.719 159.715 143.571 159.863C143.424 160.01 143.289 160.173 143.174 160.35C143.059 160.523 142.96 160.708 142.879 160.904C142.799 161.096 142.735 161.298 142.697 161.503C142.655 161.708 142.633 161.919 142.633 162.127C142.633 162.336 142.655 162.547 142.697 162.752C142.735 162.957 142.799 163.159 142.879 163.351C142.96 163.546 143.059 163.732 143.174 163.905C143.289 164.081 143.424 164.245 143.571 164.392C143.645 164.465 143.722 164.535 143.803 164.602C143.885 164.668 143.97 164.731 144.058 164.789C144.231 164.904 144.417 165.004 144.612 165.084C144.805 165.164 145.006 165.228 145.211 165.266C145.416 165.308 145.628 165.33 145.836 165.33C146.044 165.33 146.256 165.308 146.461 165.266C146.666 165.228 146.867 165.164 147.06 165.084C147.255 165.004 147.441 164.904 147.614 164.789C147.702 164.731 147.787 164.668 147.869 164.602C147.95 164.535 148.027 164.465 148.101 164.392C148.248 164.245 148.382 164.081 148.498 163.905C148.613 163.732 148.712 163.546 148.792 163.351C148.873 163.159 148.937 162.957 148.978 162.752C149.02 162.547 149.039 162.336 149.039 162.127C149.039 161.919 149.02 161.708 148.978 161.503C148.937 161.297 148.873 161.096 148.792 160.904Z" fill="white"/>
<path d="M98.3818 34.1459C98.3017 33.9537 98.2024 33.7679 98.0871 33.5918C97.9718 33.4188 97.8372 33.2522 97.6899 33.1049C97.5426 32.9575 97.3792 32.823 97.203 32.7077C97.0301 32.5924 96.8443 32.4931 96.6489 32.413C96.4567 32.3329 96.2549 32.2721 96.0499 32.2304C95.6367 32.1471 95.2139 32.1471 94.8007 32.2304C94.5957 32.2721 94.3939 32.3329 94.1985 32.413C94.0063 32.4931 93.8205 32.5924 93.6476 32.7077C93.4714 32.823 93.308 32.9575 93.1607 33.1049C93.0133 33.2522 92.8788 33.4188 92.7603 33.5918C92.645 33.7679 92.5489 33.9537 92.4688 34.1459C92.3887 34.3381 92.3247 34.5399 92.2862 34.7449C92.2446 34.9531 92.2222 35.1613 92.2222 35.3727C92.2222 35.5809 92.2446 35.7891 92.2862 35.9973C92.3247 36.2023 92.3887 36.4041 92.4688 36.5963C92.5489 36.7885 92.645 36.9743 92.7603 37.1504C92.8788 37.3234 93.0133 37.49 93.1607 37.6373C93.308 37.7846 93.4714 37.9192 93.6476 38.0345C93.8205 38.1498 94.0063 38.2491 94.1985 38.3292C94.3939 38.4093 94.5957 38.4701 94.8007 38.5118C95.0057 38.5534 95.2171 38.5758 95.4253 38.5758C95.6335 38.5758 95.8449 38.5534 96.0499 38.5118C96.2549 38.4701 96.4567 38.4093 96.6489 38.3292C96.8443 38.2491 97.0301 38.1498 97.203 38.0345C97.3792 37.9192 97.5426 37.7846 97.6899 37.6373C97.8372 37.49 97.9718 37.3234 98.0871 37.1504C98.2024 36.9743 98.3017 36.7885 98.3818 36.5963C98.4619 36.4041 98.5259 36.2023 98.5644 35.9973C98.606 35.7891 98.6284 35.5809 98.6284 35.3727C98.6284 35.1613 98.606 34.9531 98.5644 34.7449C98.5259 34.5399 98.4619 34.3381 98.3818 34.1459Z" fill="white"/>
<path d="M173.104 32.1815C171.183 24.0619 163.878 18 155.18 18H54.6804C39.4176 17.9997 27 30.4172 27 45.6801V146.18C27 156.161 34.9812 164.308 44.8965 164.587C46.8171 172.707 54.1215 178.769 62.8199 178.769H172.579C182.736 178.769 191 170.505 191 160.348V136.178V50.5889C191 40.608 183.019 32.4611 173.104 32.1815ZM184.594 160.348C184.594 166.973 179.204 172.363 172.579 172.363H62.8199C57.6917 172.363 53.306 169.133 51.5849 164.601C51.0824 163.278 50.805 161.846 50.805 160.348V158.195V143.355L87.5528 81.0468C88.6717 79.1499 90.6669 78.0423 92.8559 78.0775C95.0581 78.1153 97.0014 79.2921 98.0546 81.2265L113.877 110.279L136.876 152.51C137.457 153.578 138.556 154.182 139.691 154.182C140.209 154.182 140.734 154.056 141.221 153.791C142.774 152.945 143.348 151 142.502 149.446L135.039 135.742C138.315 135.893 141.538 134.832 144.105 132.703L158.51 120.753C160.82 118.837 164.231 118.921 166.444 120.949L167.196 121.639L173.602 127.511L184.594 137.587V160.348ZM184.594 128.896L173.602 118.82L167.195 113.942C163.021 112.196 158.058 112.804 154.419 115.822L140.015 127.772C138.43 129.086 136.362 129.617 134.34 129.229C132.318 128.841 130.594 127.581 129.609 125.773L119.503 107.215L113.859 96.8526V96.8523L103.681 78.1621C101.51 74.1758 97.504 71.7494 92.9655 71.6719C88.4282 71.6008 84.3407 73.8824 82.0348 77.7921L50.8047 130.745V50.5889C50.8047 43.9639 56.1946 38.574 62.8196 38.574H82.6123C84.3814 38.574 85.8155 37.14 85.8155 35.3709C85.8155 33.6018 84.3814 32.1677 82.6123 32.1677H62.8196C52.6622 32.1677 44.3984 40.4315 44.3984 50.5889V142.481V158.148C38.2507 157.627 33.4062 152.46 33.4062 146.18V45.6801C33.4062 33.9493 42.95 24.4059 54.6804 24.4059H155.18C160.308 24.4059 164.694 27.6363 166.415 32.1681H108.237C106.468 32.1681 105.034 33.6021 105.034 35.3712C105.034 37.1403 106.468 38.5743 108.237 38.5743H167.195L173.601 38.6211C179.749 39.1419 184.594 44.3085 184.594 50.5889V128.896Z" fill="white"/>
</svg>
