<svg width="213" height="197" viewBox="0 0 213 197" fill="none" xmlns="http://www.w3.org/2000/svg">
<rect width="212.356" height="197" fill="#34ADBE" fill-opacity="0.9"/>
<path d="M110.073 14.0713C62.4605 14.0713 23.7251 52.8067 23.7251 100.419C23.7251 121.272 31.1567 140.421 43.5102 155.359C43.5418 155.402 43.5447 155.457 43.5792 155.497C52.4989 166.253 63.7011 174.499 76.184 179.827C76.3279 179.887 76.469 179.953 76.6129 180.014C77.6231 180.44 78.6449 180.834 79.6696 181.22C80.0725 181.372 80.4755 181.528 80.8842 181.674C81.7678 181.991 82.6572 182.29 83.5523 182.578C84.1251 182.762 84.6979 182.944 85.2764 183.116C86.0679 183.352 86.8623 183.58 87.6625 183.796C88.3648 183.986 89.0728 184.161 89.7809 184.331C90.4975 184.504 91.2171 184.676 91.9396 184.829C92.7455 185.002 93.56 185.154 94.3774 185.304C95.0337 185.425 95.687 185.551 96.349 185.658C97.2557 185.805 98.1681 185.92 99.0834 186.038C99.6734 186.113 100.261 186.199 100.853 186.262C101.89 186.372 102.934 186.449 103.982 186.521C104.469 186.556 104.952 186.608 105.441 186.634C106.97 186.72 108.515 186.766 110.073 186.766C111.63 186.766 113.175 186.72 114.709 186.639C115.199 186.614 115.682 186.562 116.169 186.527C117.216 186.452 118.261 186.378 119.297 186.268C119.89 186.205 120.477 186.118 121.067 186.044C121.983 185.926 122.895 185.811 123.802 185.664C124.461 185.557 125.117 185.431 125.773 185.31C126.588 185.16 127.402 185.007 128.211 184.835C128.934 184.679 129.65 184.51 130.37 184.337C131.078 184.164 131.786 183.989 132.488 183.801C133.288 183.589 134.083 183.358 134.874 183.122C135.453 182.95 136.026 182.768 136.598 182.584C137.494 182.296 138.383 181.997 139.267 181.68C139.672 181.533 140.075 181.378 140.481 181.225C141.509 180.84 142.528 180.443 143.538 180.019C143.682 179.959 143.823 179.893 143.967 179.832C156.447 174.505 167.652 166.259 176.572 155.503C176.606 155.462 176.609 155.405 176.641 155.364C188.988 140.421 196.42 121.272 196.42 100.419C196.42 52.8067 157.684 14.0713 110.073 14.0713ZM145.063 173.008C145.02 173.028 144.98 173.051 144.937 173.071C143.909 173.566 142.864 174.033 141.811 174.488C141.572 174.588 141.336 174.692 141.097 174.793C140.176 175.178 139.244 175.544 138.305 175.895C137.914 176.042 137.522 176.186 137.128 176.324C136.296 176.62 135.462 176.905 134.618 177.176C134.094 177.343 133.568 177.501 133.041 177.656C132.293 177.881 131.541 178.097 130.781 178.298C130.143 178.468 129.498 178.624 128.853 178.776C128.177 178.937 127.503 179.101 126.821 179.245C126.076 179.404 125.324 179.539 124.576 179.674C123.969 179.786 123.364 179.904 122.751 180.002C121.908 180.135 121.056 180.241 120.207 180.348C119.669 180.417 119.133 180.497 118.589 180.555C117.619 180.658 116.641 180.725 115.665 180.794C115.23 180.823 114.799 180.871 114.358 180.894C112.933 180.969 111.506 181.01 110.073 181.01C108.639 181.01 107.212 180.969 105.79 180.894C105.352 180.871 104.92 180.825 104.483 180.794C103.504 180.728 102.529 180.658 101.559 180.555C101.015 180.497 100.479 180.417 99.9411 180.348C99.092 180.241 98.24 180.135 97.3967 180.002C96.7836 179.904 96.1792 179.786 95.5719 179.674C94.8207 179.539 94.0695 179.401 93.3269 179.245C92.6447 179.101 91.9683 178.937 91.2948 178.776C90.6501 178.621 90.0054 178.468 89.3664 178.298C88.6094 178.097 87.8553 177.878 87.107 177.656C86.5802 177.501 86.0535 177.343 85.5297 177.176C84.6864 176.905 83.8488 176.62 83.0199 176.324C82.6255 176.183 82.2341 176.039 81.8427 175.895C80.9043 175.544 79.9718 175.178 79.0508 174.793C78.8119 174.695 78.5787 174.591 78.3398 174.49C77.2864 174.038 76.2416 173.569 75.2112 173.074C75.168 173.054 75.1277 173.034 75.0845 173.011C65.0423 168.152 56.1716 161.256 48.9731 152.88C54.5367 132.393 70.2865 115.878 90.5493 109.307C90.9494 109.551 91.3668 109.77 91.7784 110C92.0201 110.136 92.259 110.28 92.5037 110.409C93.3614 110.864 94.2306 111.29 95.12 111.673C95.8022 111.972 96.5073 112.225 97.2096 112.484C97.3478 112.533 97.4859 112.588 97.6241 112.637C101.527 114.018 105.703 114.81 110.073 114.81C114.442 114.81 118.618 114.018 122.518 112.637C122.656 112.588 122.794 112.533 122.933 112.484C123.635 112.225 124.34 111.972 125.022 111.673C125.911 111.29 126.781 110.864 127.638 110.409C127.883 110.277 128.122 110.136 128.364 110C128.775 109.77 129.196 109.551 129.599 109.304C149.861 115.878 165.608 132.393 171.175 152.878C163.976 161.25 155.106 168.147 145.063 173.008ZM78.4118 77.3927C78.4118 59.9361 92.6159 45.732 110.073 45.732C127.529 45.732 141.733 59.9361 141.733 77.3927C141.733 88.497 135.974 98.2686 127.296 103.922C126.162 104.658 124.982 105.317 123.77 105.893C123.626 105.962 123.485 106.034 123.341 106.1C115.006 109.891 105.139 109.891 96.8038 106.1C96.6599 106.034 96.516 105.962 96.3749 105.893C95.1603 105.317 93.9831 104.658 92.8491 103.922C84.1712 98.2686 78.4118 88.497 78.4118 77.3927ZM175.492 147.4C168.967 128.133 154.081 112.562 135.061 105.165C142.669 98.3118 147.49 88.4164 147.49 77.3927C147.49 56.7614 130.704 39.9755 110.073 39.9755C89.4412 39.9755 72.6553 56.7614 72.6553 77.3927C72.6553 88.4164 77.4764 98.3118 85.0864 105.165C66.067 112.565 51.1807 128.133 44.6557 147.4C35.1201 134.163 29.4816 117.941 29.4816 100.419C29.4816 55.9814 65.6353 19.8278 110.073 19.8278C154.51 19.8278 190.663 55.9814 190.663 100.419C190.663 117.941 185.025 134.163 175.492 147.4Z" fill="white"/>
</svg>
