<svg width="25" height="25" viewBox="0 0 25 25" fill="none" xmlns="http://www.w3.org/2000/svg">
<g clip-path="url(#clip0)">
<path d="M22.6563 0H5.46876C5.03692 0 4.6875 0.349418 4.6875 0.781258V3.12499H6.25002V1.56252H21.875V23.4375H6.25002V21.875H4.6875V24.2187C4.6875 24.6506 5.03692 25 5.46876 25H22.6563C23.0881 25 23.4375 24.6506 23.4375 24.2187V0.781258C23.4375 0.349418 23.0881 0 22.6563 0V0Z" fill="white"/>
<path d="M9.28037 16.6348L10.3851 17.7395L15.625 12.4996L10.3851 7.25977L9.28037 8.3645L12.6343 11.7184H1.5625V13.2809H12.6343L9.28037 16.6348Z" fill="white"/>
</g>
<defs>
<clipPath id="clip0">
<rect width="25" height="25" fill="white"/>
</clipPath>
</defs>
</svg>
