<svg width="295" height="269" viewBox="0 0 295 269" fill="none" xmlns="http://www.w3.org/2000/svg">
<rect width="295" height="269" fill="#34ADBE" fill-opacity="0.9"/>
<path d="M152.91 19.2139C86.7686 19.2139 32.9583 72.1064 32.9583 137.12C32.9583 165.594 43.2821 191.742 60.4432 212.139C60.4872 212.198 60.4912 212.273 60.5391 212.328C72.9302 227.015 88.4919 238.275 105.833 245.55C106.033 245.632 106.229 245.723 106.429 245.805C107.832 246.387 109.252 246.925 110.675 247.452C111.235 247.66 111.795 247.873 112.362 248.073C113.59 248.505 114.825 248.914 116.069 249.307C116.864 249.559 117.66 249.806 118.464 250.042C119.563 250.364 120.667 250.675 121.778 250.97C122.754 251.229 123.738 251.469 124.721 251.701C125.717 251.936 126.716 252.172 127.72 252.381C128.84 252.616 129.971 252.825 131.107 253.029C132.018 253.194 132.926 253.367 133.846 253.512C135.105 253.713 136.373 253.87 137.644 254.031C138.464 254.133 139.279 254.251 140.103 254.338C141.543 254.487 142.994 254.593 144.449 254.691C145.125 254.739 145.797 254.809 146.477 254.845C148.6 254.963 150.747 255.026 152.91 255.026C155.073 255.026 157.22 254.963 159.351 254.853C160.031 254.817 160.703 254.747 161.379 254.699C162.834 254.597 164.285 254.495 165.725 254.346C166.548 254.259 167.364 254.141 168.184 254.039C169.455 253.878 170.723 253.721 171.982 253.52C172.898 253.375 173.81 253.202 174.721 253.037C175.853 252.833 176.984 252.624 178.108 252.388C179.111 252.176 180.107 251.944 181.107 251.708C182.09 251.473 183.074 251.233 184.049 250.977C185.161 250.687 186.265 250.372 187.364 250.05C188.168 249.814 188.963 249.567 189.759 249.315C191.003 248.922 192.238 248.513 193.466 248.081C194.029 247.88 194.589 247.668 195.153 247.46C196.58 246.933 197.996 246.391 199.399 245.813C199.599 245.731 199.795 245.64 199.995 245.558C217.332 238.283 232.898 227.023 245.289 212.336C245.337 212.281 245.341 212.202 245.385 212.147C262.538 191.742 272.862 165.594 272.862 137.12C272.862 72.1064 219.051 19.2139 152.91 19.2139ZM201.518 236.239C201.458 236.267 201.402 236.298 201.342 236.326C199.915 237.002 198.464 237.638 197 238.259C196.668 238.397 196.34 238.538 196.009 238.676C194.729 239.203 193.434 239.702 192.13 240.181C191.586 240.382 191.043 240.578 190.495 240.767C189.339 241.172 188.18 241.561 187.008 241.93C186.281 242.158 185.549 242.374 184.817 242.586C183.778 242.893 182.734 243.188 181.678 243.463C180.791 243.695 179.895 243.907 178.999 244.115C178.06 244.335 177.124 244.559 176.177 244.756C175.141 244.972 174.097 245.157 173.058 245.342C172.214 245.495 171.375 245.656 170.523 245.79C169.351 245.97 168.168 246.116 166.988 246.261C166.241 246.356 165.497 246.466 164.741 246.544C163.394 246.686 162.034 246.776 160.679 246.87C160.075 246.91 159.475 246.977 158.864 247.008C156.884 247.11 154.901 247.165 152.91 247.165C150.919 247.165 148.936 247.11 146.96 247.008C146.353 246.977 145.753 246.914 145.145 246.87C143.786 246.78 142.43 246.686 141.083 246.544C140.327 246.466 139.583 246.356 138.836 246.261C137.656 246.116 136.473 245.97 135.301 245.79C134.449 245.656 133.61 245.495 132.766 245.342C131.722 245.157 130.679 244.968 129.647 244.756C128.7 244.559 127.76 244.335 126.824 244.115C125.929 243.903 125.033 243.695 124.146 243.463C123.094 243.188 122.046 242.889 121.007 242.586C120.275 242.374 119.543 242.158 118.816 241.93C117.644 241.561 116.481 241.172 115.329 240.767C114.781 240.574 114.238 240.378 113.694 240.181C112.39 239.702 111.095 239.203 109.815 238.676C109.483 238.542 109.16 238.401 108.828 238.263C107.364 237.646 105.913 237.006 104.481 236.33C104.421 236.302 104.366 236.275 104.306 236.243C90.3551 229.609 78.0321 220.192 68.0321 208.755C75.761 180.78 97.6402 158.229 125.789 149.256C126.345 149.59 126.924 149.889 127.496 150.203C127.832 150.388 128.164 150.585 128.504 150.761C129.695 151.382 130.903 151.964 132.138 152.487C133.086 152.896 134.066 153.241 135.041 153.595C135.233 153.662 135.425 153.737 135.617 153.803C141.039 155.69 146.84 156.771 152.91 156.771C158.98 156.771 164.781 155.69 170.199 153.803C170.391 153.737 170.583 153.662 170.775 153.595C171.75 153.241 172.73 152.896 173.678 152.487C174.913 151.964 176.121 151.382 177.312 150.761C177.652 150.581 177.984 150.388 178.32 150.203C178.891 149.889 179.475 149.59 180.035 149.252C208.184 158.229 230.059 180.78 237.792 208.751C227.792 220.184 215.469 229.601 201.518 236.239ZM108.928 105.678C108.928 81.8415 128.66 62.446 152.91 62.446C177.16 62.446 196.892 81.8415 196.892 105.678C196.892 120.841 188.891 134.184 176.836 141.903C175.261 142.909 173.622 143.809 171.938 144.595C171.738 144.689 171.542 144.788 171.343 144.878C159.763 150.054 146.057 150.054 134.477 144.878C134.277 144.788 134.078 144.689 133.882 144.595C132.194 143.809 130.559 142.909 128.984 141.903C116.928 134.184 108.928 120.841 108.928 105.678ZM243.789 201.272C234.725 174.964 214.045 153.701 187.624 143.601C198.192 134.243 204.889 120.731 204.889 105.678C204.889 77.5065 181.57 54.5856 152.91 54.5856C124.249 54.5856 100.931 77.5065 100.931 105.678C100.931 120.731 107.628 134.243 118.2 143.601C91.7786 153.705 71.0989 174.964 62.0345 201.272C48.7879 183.197 40.955 161.047 40.955 137.12C40.955 76.4414 91.1788 27.0743 152.91 27.0743C214.641 27.0743 264.865 76.4414 264.865 137.12C264.865 161.047 257.032 183.197 243.789 201.272Z" fill="white"/>
</svg>
