<svg id="Camada_1" data-name="Camada 1" xmlns="http://www.w3.org/2000/svg" viewBox="0 0 30 30.01">
  <path d="M29.92,8.82a11,11,0,0,0-.69-3.64,7.27,7.27,0,0,0-1.74-2.66A7.51,7.51,0,0,0,24.84.79,11,11,0,0,0,21.2.09C19.59,0,19.08,0,15,0S10.42,0,8.82.09a11,11,0,0,0-3.64.7A7.25,7.25,0,0,0,2.52,2.52,7.46,7.46,0,0,0,.79,5.18a10.9,10.9,0,0,0-.7,3.64C0,10.42,0,10.93,0,15s0,4.58.09,6.18a11,11,0,0,0,.7,3.64,7.66,7.66,0,0,0,4.39,4.39,10.9,10.9,0,0,0,3.64.7c1.6.07,2.11.09,6.18.09s4.58,0,6.18-.09a10.9,10.9,0,0,0,3.64-.7,7.66,7.66,0,0,0,4.39-4.39,11,11,0,0,0,.7-3.64C30,19.59,30,19.08,30,15S30,10.42,29.92,8.82Zm-2.7,12.25a8.31,8.31,0,0,1-.51,2.79,5.06,5.06,0,0,1-2.85,2.85,8.37,8.37,0,0,1-2.79.51c-1.58.07-2.05.09-6.06.09s-4.48,0-6.06-.09a8.24,8.24,0,0,1-2.78-.51,4.74,4.74,0,0,1-1.73-1.12,4.7,4.7,0,0,1-1.12-1.73,8.24,8.24,0,0,1-.51-2.78C2.74,19.5,2.72,19,2.72,15s0-4.49.09-6.06a8.31,8.31,0,0,1,.51-2.79A4.49,4.49,0,0,1,4.45,4.45,4.66,4.66,0,0,1,6.17,3.33,8.3,8.3,0,0,1,9,2.81c1.58-.07,2-.08,6.06-.08s4.48,0,6.06.08a8.17,8.17,0,0,1,2.78.52,4.62,4.62,0,0,1,1.73,1.12,4.79,4.79,0,0,1,1.12,1.72A8.37,8.37,0,0,1,27.22,9c.07,1.58.09,2,.09,6.06S27.29,19.49,27.22,21.07Z" style="fill: #fff"/>
  <path d="M15,7.3A7.71,7.71,0,1,0,22.71,15,7.71,7.71,0,0,0,15,7.3ZM15,20a5,5,0,1,1,5-5A5,5,0,0,1,15,20Z" style="fill: #fff"/>
  <path d="M24.82,7A1.8,1.8,0,1,1,23,5.19,1.8,1.8,0,0,1,24.82,7Z" style="fill: #fff"/>
</svg>
