<svg width="256" height="256" xmlns="http://www.w3.org/2000/svg" preserveAspectRatio="xMidYMid">

 <g>
  <title>Layer 1</title>
  <g id="svg_1">
   <path id="svg_2" fill="#ffffff" d="m127.99975,23.06353c34.17763,0 38.22564,0.13007 51.72273,0.74589c12.47987,0.56957 19.25737,2.6548 23.76826,4.40723c5.9742,2.322 10.23866,5.09621 14.71753,9.57508c4.47887,4.47888 7.25308,8.74333 9.57457,14.71753c1.75294,4.51089 3.83817,11.28839 4.40774,23.76776c0.61582,13.49759 0.74589,17.54559 0.74589,51.72323c0,34.17764 -0.13007,38.22565 -0.74589,51.72273c-0.56957,12.47988 -2.6548,19.25738 -4.40774,23.76826c-2.32149,5.97421 -5.0957,10.23866 -9.57457,14.71754c-4.47887,4.47887 -8.74333,7.25308 -14.71753,9.57457c-4.51089,1.75294 -11.28839,3.83817 -23.76826,4.40774c-13.49505,0.61582 -17.54306,0.74589 -51.72273,0.74589c-34.17968,0 -38.22768,-0.13007 -51.72273,-0.74589c-12.47988,-0.56957 -19.25738,-2.6548 -23.76776,-4.40774c-5.97471,-2.32149 -10.23916,-5.0957 -14.71804,-9.57457c-4.47887,-4.47888 -7.25308,-8.74333 -9.57457,-14.71754c-1.75294,-4.51088 -3.83817,-11.28838 -4.40774,-23.76775c-0.61582,-13.49759 -0.74589,-17.5456 -0.74589,-51.72324c0,-34.17764 0.13007,-38.22564 0.74589,-51.72273c0.56957,-12.47987 2.6548,-19.25737 4.40774,-23.76826c2.32149,-5.9742 5.0957,-10.23865 9.57457,-14.71753c4.47888,-4.47887 8.74333,-7.25308 14.71804,-9.57508c4.51038,-1.75243 11.28788,-3.83766 23.76725,-4.40723c13.49759,-0.61582 17.5456,-0.74589 51.72324,-0.74589m0,-23.06353c-34.76297,0 -39.12143,0.14735 -52.77399,0.77027c-13.62461,0.62192 -22.92888,2.78539 -31.07113,5.94982c-8.41713,3.27113 -15.55539,7.64787 -22.67128,14.76377c-7.1159,7.11589 -11.49264,14.25414 -14.76377,22.67128c-3.16443,8.14225 -5.3279,17.44652 -5.94981,31.07113c-0.62293,13.65205 -0.76977,18.01102 -0.76977,52.77398c0,34.76297 0.14684,39.12193 0.76977,52.77399c0.62191,13.62461 2.78538,22.92888 5.94981,31.07113c3.27113,8.41663 7.64787,15.55539 14.76377,22.67128c7.11589,7.1159 14.25415,11.49264 22.67128,14.76377c8.14225,3.16443 17.44652,5.3279 31.07113,5.94981c13.65256,0.62293 18.01102,0.76977 52.77399,0.76977c34.76296,0 39.12193,-0.14684 52.77398,-0.76977c13.62461,-0.62191 22.92888,-2.78538 31.07113,-5.94981c8.41714,-3.27113 15.55539,-7.64787 22.67128,-14.76377c7.1159,-7.11589 11.49264,-14.25415 14.76377,-22.67128c3.16443,-8.14225 5.3279,-17.44652 5.94982,-31.07113c0.62292,-13.65206 0.77027,-18.01102 0.77027,-52.77399c0,-34.76296 -0.14735,-39.12193 -0.77027,-52.77398c-0.62192,-13.62461 -2.78539,-22.92888 -5.94982,-31.07113c-3.27113,-8.41714 -7.64787,-15.55539 -14.76377,-22.67128c-7.11589,-7.1159 -14.25414,-11.49264 -22.67128,-14.76377c-8.14225,-3.16443 -17.44652,-5.3279 -31.07113,-5.94982c-13.65205,-0.62292 -18.01102,-0.77027 -52.77398,-0.77027zm0,62.27031c-36.30149,0 -65.72995,29.42846 -65.72995,65.72994c0,36.30149 29.42846,65.72995 65.72995,65.72995c36.30148,0 65.72994,-29.42846 65.72994,-65.72995c0,-36.30148 -29.42846,-65.72994 -65.72994,-65.72994zm0,108.39686c-23.56401,0 -42.66692,-19.10291 -42.66692,-42.66692c0,-23.564 19.10291,-42.66692 42.66692,-42.66692c23.564,0 42.66692,19.10292 42.66692,42.66692c0,23.56401 -19.10292,42.66692 -42.66692,42.66692zm83.68659,-110.99374c0,8.48318 -6.87659,15.36027 -15.35977,15.36027c-8.48318,0 -15.36027,-6.87709 -15.36027,-15.36027c0,-8.48319 6.87709,-15.35977 15.36027,-15.35977c8.48318,0 15.35977,6.87658 15.35977,15.35977z"/>
  </g>
 </g>
</svg>