<svg width="30" height="29" viewBox="0 0 30 29" fill="none" xmlns="http://www.w3.org/2000/svg">
<path d="M3.63812 0C1.43829 0 0 1.44452 0 3.34314C0 5.19983 1.39545 6.68555 3.55371 6.68555H3.59546C5.83832 6.68555 7.23413 5.19983 7.23413 3.34314C7.1922 1.44452 5.83832 0 3.63812 0Z" fill="#333333"/>
<path d="M0.380127 9.32715H6.81116V28.6752H0.380127V9.32715Z" fill="#333333"/>
<path d="M22.5963 8.87305C19.127 8.87305 16.8007 12.1331 16.8007 12.1331V9.32715H10.3694V28.6752H16.8003V17.8705C16.8003 17.2921 16.8422 16.7145 17.0121 16.3009C17.4771 15.1459 18.535 13.9493 20.3117 13.9493C22.6388 13.9493 23.5695 15.7236 23.5695 18.3246V28.6752H30V17.5814C30 11.6385 26.8271 8.87305 22.5963 8.87305Z" fill="#333333"/>
</svg>
