<svg width="144" height="22" viewBox="0 0 144 22" fill="none" xmlns="http://www.w3.org/2000/svg">
<path d="M33.1816 16.6201H39.2461V18H31.4854V5.20312H33.1816V16.6201ZM40.4854 13.1572C40.4854 12.2256 40.667 11.3877 41.0303 10.6436C41.3994 9.89941 41.9092 9.3252 42.5596 8.9209C43.2158 8.5166 43.9629 8.31445 44.8008 8.31445C46.0957 8.31445 47.1416 8.7627 47.9385 9.65918C48.7412 10.5557 49.1426 11.748 49.1426 13.2363V13.3506C49.1426 14.2764 48.9639 15.1084 48.6064 15.8467C48.2549 16.5791 47.748 17.1504 47.0859 17.5605C46.4297 17.9707 45.6738 18.1758 44.8184 18.1758C43.5293 18.1758 42.4834 17.7275 41.6807 16.8311C40.8838 15.9346 40.4854 14.748 40.4854 13.2715V13.1572ZM42.1201 13.3506C42.1201 14.4053 42.3633 15.252 42.8496 15.8906C43.3418 16.5293 43.998 16.8486 44.8184 16.8486C45.6445 16.8486 46.3008 16.5264 46.7871 15.8818C47.2734 15.2314 47.5166 14.3232 47.5166 13.1572C47.5166 12.1143 47.2676 11.2705 46.7695 10.626C46.2773 9.97559 45.6211 9.65039 44.8008 9.65039C43.998 9.65039 43.3506 9.96973 42.8584 10.6084C42.3662 11.2471 42.1201 12.1611 42.1201 13.3506ZM54.9961 16.8486C55.5762 16.8486 56.083 16.6729 56.5166 16.3213C56.9502 15.9697 57.1904 15.5303 57.2373 15.0029H58.7754C58.7461 15.5479 58.5586 16.0664 58.2129 16.5586C57.8672 17.0508 57.4043 17.4434 56.8242 17.7363C56.25 18.0293 55.6406 18.1758 54.9961 18.1758C53.7012 18.1758 52.6699 17.7451 51.9023 16.8838C51.1406 16.0166 50.7598 14.833 50.7598 13.333V13.0605C50.7598 12.1348 50.9297 11.3115 51.2695 10.5908C51.6094 9.87012 52.0957 9.31055 52.7285 8.91211C53.3672 8.51367 54.1201 8.31445 54.9873 8.31445C56.0537 8.31445 56.9385 8.63379 57.6416 9.27246C58.3506 9.91113 58.7285 10.7402 58.7754 11.7598H57.2373C57.1904 11.1445 56.9561 10.6406 56.5342 10.248C56.1182 9.84961 55.6025 9.65039 54.9873 9.65039C54.1611 9.65039 53.5195 9.94922 53.0625 10.5469C52.6113 11.1387 52.3857 11.9971 52.3857 13.1221V13.4297C52.3857 14.5254 52.6113 15.3691 53.0625 15.9609C53.5137 16.5527 54.1582 16.8486 54.9961 16.8486ZM66.4746 18C66.3809 17.8125 66.3047 17.4785 66.2461 16.998C65.4902 17.7832 64.5879 18.1758 63.5391 18.1758C62.6016 18.1758 61.8311 17.9121 61.2275 17.3848C60.6299 16.8516 60.3311 16.1777 60.3311 15.3633C60.3311 14.373 60.7061 13.6055 61.4561 13.0605C62.2119 12.5098 63.2725 12.2344 64.6377 12.2344H66.2197V11.4873C66.2197 10.9189 66.0498 10.4678 65.71 10.1338C65.3701 9.79395 64.8691 9.62402 64.207 9.62402C63.627 9.62402 63.1406 9.77051 62.748 10.0635C62.3555 10.3564 62.1592 10.7109 62.1592 11.127H60.5244C60.5244 10.6523 60.6914 10.1953 61.0254 9.75586C61.3652 9.31055 61.8223 8.95898 62.3965 8.70117C62.9766 8.44336 63.6123 8.31445 64.3037 8.31445C65.3994 8.31445 66.2578 8.58984 66.8789 9.14062C67.5 9.68555 67.8223 10.4385 67.8457 11.3994V15.7764C67.8457 16.6494 67.957 17.3438 68.1797 17.8594V18H66.4746ZM63.7764 16.7607C64.2861 16.7607 64.7695 16.6289 65.2266 16.3652C65.6836 16.1016 66.0146 15.7588 66.2197 15.3369V13.3857H64.9453C62.9531 13.3857 61.957 13.9688 61.957 15.1348C61.957 15.6445 62.127 16.043 62.4668 16.3301C62.8066 16.6172 63.2432 16.7607 63.7764 16.7607ZM72.1611 18H70.5352V4.5H72.1611V18ZM76.5381 18H74.9121V8.49023H76.5381V18ZM74.7803 5.96777C74.7803 5.7041 74.8594 5.48145 75.0176 5.2998C75.1816 5.11816 75.4219 5.02734 75.7383 5.02734C76.0547 5.02734 76.2949 5.11816 76.459 5.2998C76.623 5.48145 76.7051 5.7041 76.7051 5.96777C76.7051 6.23145 76.623 6.45117 76.459 6.62695C76.2949 6.80273 76.0547 6.89062 75.7383 6.89062C75.4219 6.89062 75.1816 6.80273 75.0176 6.62695C74.8594 6.45117 74.7803 6.23145 74.7803 5.96777ZM80.6777 16.6729H86.2412V18H78.6914V16.8047L83.9385 9.83496H78.7705V8.49023H85.9775V9.6416L80.6777 16.6729ZM93.9492 18C93.8555 17.8125 93.7793 17.4785 93.7207 16.998C92.9648 17.7832 92.0625 18.1758 91.0137 18.1758C90.0762 18.1758 89.3057 17.9121 88.7021 17.3848C88.1045 16.8516 87.8057 16.1777 87.8057 15.3633C87.8057 14.373 88.1807 13.6055 88.9307 13.0605C89.6865 12.5098 90.7471 12.2344 92.1123 12.2344H93.6943V11.4873C93.6943 10.9189 93.5244 10.4678 93.1846 10.1338C92.8447 9.79395 92.3438 9.62402 91.6816 9.62402C91.1016 9.62402 90.6152 9.77051 90.2227 10.0635C89.8301 10.3564 89.6338 10.7109 89.6338 11.127H87.999C87.999 10.6523 88.166 10.1953 88.5 9.75586C88.8398 9.31055 89.2969 8.95898 89.8711 8.70117C90.4512 8.44336 91.0869 8.31445 91.7783 8.31445C92.874 8.31445 93.7324 8.58984 94.3535 9.14062C94.9746 9.68555 95.2969 10.4385 95.3203 11.3994V15.7764C95.3203 16.6494 95.4316 17.3438 95.6543 17.8594V18H93.9492ZM91.251 16.7607C91.7607 16.7607 92.2441 16.6289 92.7012 16.3652C93.1582 16.1016 93.4893 15.7588 93.6943 15.3369V13.3857H92.4199C90.4277 13.3857 89.4316 13.9688 89.4316 15.1348C89.4316 15.6445 89.6016 16.043 89.9414 16.3301C90.2812 16.6172 90.7178 16.7607 91.251 16.7607ZM101.684 16.8486C102.264 16.8486 102.771 16.6729 103.204 16.3213C103.638 15.9697 103.878 15.5303 103.925 15.0029H105.463C105.434 15.5479 105.246 16.0664 104.9 16.5586C104.555 17.0508 104.092 17.4434 103.512 17.7363C102.938 18.0293 102.328 18.1758 101.684 18.1758C100.389 18.1758 99.3574 17.7451 98.5898 16.8838C97.8281 16.0166 97.4473 14.833 97.4473 13.333V13.0605C97.4473 12.1348 97.6172 11.3115 97.957 10.5908C98.2969 9.87012 98.7832 9.31055 99.416 8.91211C100.055 8.51367 100.808 8.31445 101.675 8.31445C102.741 8.31445 103.626 8.63379 104.329 9.27246C105.038 9.91113 105.416 10.7402 105.463 11.7598H103.925C103.878 11.1445 103.644 10.6406 103.222 10.248C102.806 9.84961 102.29 9.65039 101.675 9.65039C100.849 9.65039 100.207 9.94922 99.75 10.5469C99.2988 11.1387 99.0732 11.9971 99.0732 13.1221V13.4297C99.0732 14.5254 99.2988 15.3691 99.75 15.9609C100.201 16.5527 100.846 16.8486 101.684 16.8486ZM101.947 18.0791L101.842 18.5361C102.738 18.6943 103.187 19.2012 103.187 20.0566C103.187 20.625 102.952 21.0732 102.483 21.4014C102.015 21.7354 101.361 21.9023 100.523 21.9023L100.462 20.9619C100.925 20.9619 101.282 20.8857 101.534 20.7334C101.792 20.5811 101.921 20.3672 101.921 20.0918C101.921 19.834 101.827 19.6436 101.64 19.5205C101.452 19.3975 101.071 19.3096 100.497 19.2568L100.778 18.0791H101.947ZM113.162 18C113.068 17.8125 112.992 17.4785 112.934 16.998C112.178 17.7832 111.275 18.1758 110.227 18.1758C109.289 18.1758 108.519 17.9121 107.915 17.3848C107.317 16.8516 107.019 16.1777 107.019 15.3633C107.019 14.373 107.394 13.6055 108.144 13.0605C108.899 12.5098 109.96 12.2344 111.325 12.2344H112.907V11.4873C112.907 10.9189 112.737 10.4678 112.397 10.1338C112.058 9.79395 111.557 9.62402 110.895 9.62402C110.314 9.62402 109.828 9.77051 109.436 10.0635C109.043 10.3564 108.847 10.7109 108.847 11.127H107.212C107.212 10.6523 107.379 10.1953 107.713 9.75586C108.053 9.31055 108.51 8.95898 109.084 8.70117C109.664 8.44336 110.3 8.31445 110.991 8.31445C112.087 8.31445 112.945 8.58984 113.566 9.14062C114.188 9.68555 114.51 10.4385 114.533 11.3994V15.7764C114.533 16.6494 114.645 17.3438 114.867 17.8594V18H113.162ZM110.464 16.7607C110.974 16.7607 111.457 16.6289 111.914 16.3652C112.371 16.1016 112.702 15.7588 112.907 15.3369V13.3857H111.633C109.641 13.3857 108.645 13.9688 108.645 15.1348C108.645 15.6445 108.814 16.043 109.154 16.3301C109.494 16.6172 109.931 16.7607 110.464 16.7607ZM114.287 4.78125C114.287 5.41406 114.105 5.92676 113.742 6.31934C113.385 6.71191 112.937 6.9082 112.397 6.9082C112.157 6.9082 111.949 6.87891 111.773 6.82031C111.598 6.76172 111.366 6.6416 111.079 6.45996C110.798 6.27832 110.593 6.16992 110.464 6.13477C110.341 6.09375 110.197 6.07324 110.033 6.07324C109.793 6.07324 109.588 6.16699 109.418 6.35449C109.248 6.53613 109.163 6.77051 109.163 7.05762L108.073 6.99609C108.073 6.36914 108.249 5.85059 108.601 5.44043C108.958 5.03027 109.409 4.8252 109.954 4.8252C110.159 4.8252 110.344 4.85449 110.508 4.91309C110.672 4.97168 110.895 5.08594 111.176 5.25586C111.457 5.42578 111.671 5.53711 111.817 5.58984C111.97 5.64258 112.137 5.66895 112.318 5.66895C112.57 5.66895 112.778 5.56934 112.942 5.37012C113.112 5.1709 113.197 4.93945 113.197 4.67578L114.287 4.78125ZM116.651 13.1572C116.651 12.2256 116.833 11.3877 117.196 10.6436C117.565 9.89941 118.075 9.3252 118.726 8.9209C119.382 8.5166 120.129 8.31445 120.967 8.31445C122.262 8.31445 123.308 8.7627 124.104 9.65918C124.907 10.5557 125.309 11.748 125.309 13.2363V13.3506C125.309 14.2764 125.13 15.1084 124.772 15.8467C124.421 16.5791 123.914 17.1504 123.252 17.5605C122.596 17.9707 121.84 18.1758 120.984 18.1758C119.695 18.1758 118.649 17.7275 117.847 16.8311C117.05 15.9346 116.651 14.748 116.651 13.2715V13.1572ZM118.286 13.3506C118.286 14.4053 118.529 15.252 119.016 15.8906C119.508 16.5293 120.164 16.8486 120.984 16.8486C121.811 16.8486 122.467 16.5264 122.953 15.8818C123.439 15.2314 123.683 14.3232 123.683 13.1572C123.683 12.1143 123.434 11.2705 122.936 10.626C122.443 9.97559 121.787 9.65039 120.967 9.65039C120.164 9.65039 119.517 9.96973 119.024 10.6084C118.532 11.2471 118.286 12.1611 118.286 13.3506Z" fill="white"/>
<path d="M21.9565 3.0418C21.877 2.97485 21.7733 2.95111 21.6755 2.97711L14.6125 4.86391L9.64668 3.53739C9.47085 3.49051 9.29306 3.60589 9.24946 3.79533C9.20587 3.98473 9.31309 4.17634 9.48887 4.22331L14.2843 5.50437V9.51518C14.2843 9.71032 14.4312 9.86853 14.6123 9.86853C14.7934 9.86853 14.9402 9.71032 14.9402 9.51518V5.50446L21.4264 3.77173V19.462L14.9402 21.1948V17.0294C14.9402 16.8342 14.7934 16.676 14.6123 16.676C14.4312 16.676 14.2843 16.8342 14.2843 17.0294V21.1949L11.1234 20.3504C10.9475 20.3036 10.7698 20.4189 10.7262 20.6084C10.6826 20.7978 10.7898 20.9894 10.9656 21.0364L14.5332 21.9895C14.5337 21.9896 14.5345 21.9891 14.5353 21.9887C14.5606 21.9953 14.5862 21.9998 14.6123 21.9998C14.6386 21.9998 14.6651 21.9963 14.6912 21.9894L21.8333 20.0814C21.9796 20.0423 22.0823 19.9009 22.0823 19.7385V3.32015C22.0823 3.21141 22.0359 3.10879 21.9565 3.0418Z" fill="white"/>
<path d="M10.0435 20.0619L7.7979 19.4619V11.7752C7.7979 11.5801 7.65106 11.4219 7.46995 11.4219C7.28883 11.4219 7.14199 11.5801 7.14199 11.7752V19.4619L0.655907 21.1947V14.3206C0.655907 14.1254 0.509071 13.9672 0.327953 13.9672C0.146836 13.9672 0 14.1254 0 14.3206V21.6464C0 21.7551 0.0464382 21.8578 0.12589 21.9247C0.184179 21.9738 0.255454 21.9998 0.327997 21.9998C0.354321 21.9998 0.380819 21.9963 0.406925 21.9894L7.46995 20.1024L9.88569 20.7478C9.91219 20.7549 9.93874 20.7583 9.96488 20.7583C10.1121 20.7583 10.2459 20.6507 10.2829 20.4899C10.3265 20.3004 10.2193 20.1088 10.0435 20.0619Z" fill="white"/>
<path d="M0.327953 13.4957C0.509071 13.4957 0.655907 13.3375 0.655907 13.1424V5.50391L1.88035 5.17689C2.05618 5.12992 2.16336 4.93836 2.1198 4.74891C2.07621 4.55947 1.89833 4.444 1.72259 4.49092L0.24907 4.88446C0.102759 4.92356 0 5.06505 0 5.22745V13.1424C0 13.3375 0.146836 13.4957 0.327953 13.4957Z" fill="white"/>
<path d="M1.99634 7.04157C1.99634 9.45745 3.82055 11.4229 6.06278 11.4229C8.30502 11.4229 10.1292 9.45745 10.1292 7.04157C10.1292 5.05121 8.89097 3.36682 7.20087 2.83514C7.46371 2.53376 7.62524 2.12868 7.62524 1.68346C7.62524 0.755181 6.92434 0 6.06278 0C5.20123 0 4.50033 0.755181 4.50033 1.68346C4.50033 2.12868 4.66185 2.53376 4.9247 2.83514C3.2346 3.36682 1.99634 5.05121 1.99634 7.04157ZM5.15619 1.68346C5.15619 1.14486 5.56285 0.706701 6.06274 0.706701C6.56263 0.706701 6.96929 1.14486 6.96929 1.68346C6.96929 2.22206 6.56263 2.66021 6.06274 2.66021C5.56285 2.66021 5.15619 2.22206 5.15619 1.68346ZM6.06274 3.36696C7.94331 3.36696 9.47328 5.01541 9.47328 7.04161C9.47328 9.06782 7.94331 10.7163 6.06274 10.7163C4.18217 10.7163 2.6522 9.06782 2.6522 7.04161C2.6522 5.01541 4.18221 3.36696 6.06274 3.36696Z" fill="white"/>
<path d="M5.75538 9.66289C5.80313 9.8013 5.92574 9.89318 6.06278 9.89318C6.19982 9.89318 6.32243 9.80135 6.37018 9.66289L7.23174 7.16489C7.25911 7.0855 7.25911 6.99811 7.23174 6.91872L6.37018 4.42072C6.32243 4.2823 6.19982 4.19043 6.06278 4.19043C5.92574 4.19043 5.80313 4.28225 5.75538 4.42072L4.89382 6.91872C4.86645 6.99811 4.86645 7.0855 4.89382 7.16489L5.75538 9.66289ZM6.06278 5.55818L6.57447 7.04178L6.06278 8.52538L5.55108 7.04178L6.06278 5.55818Z" fill="white"/>
<path d="M6.33538 7.23719C6.49865 6.96996 6.26209 6.61445 5.97528 6.70066C5.84043 6.74118 5.74191 6.87286 5.735 7.02381C5.7284 7.16812 5.80733 7.30513 5.92972 7.36369C6.07498 7.43318 6.2463 7.37787 6.33538 7.23719Z" fill="white"/>
<path d="M14.6813 10.7232C14.1505 11.2113 13.857 11.9041 13.8326 12.7265C13.8308 12.7892 13.8298 12.852 13.8298 12.9152C13.8298 14.866 14.7325 16.6755 16.2444 17.7553C16.2993 17.7946 16.3625 17.8142 16.4256 17.8142C16.4887 17.8142 16.5519 17.7945 16.6068 17.7553C16.9692 17.4965 17.3026 17.1903 17.5976 16.8453C17.7204 16.7018 17.7118 16.4782 17.5786 16.346C17.4454 16.2137 17.2379 16.2229 17.1152 16.3665C16.9059 16.6113 16.6745 16.8339 16.4256 17.0303C15.2069 16.0701 14.4857 14.549 14.4857 12.9152C14.4857 12.8596 14.4866 12.8042 14.4882 12.7491C14.5175 11.7607 15.128 10.7633 16.4256 10.7633C17.7233 10.7633 18.3337 11.7607 18.363 12.7491C18.3647 12.8042 18.3655 12.8596 18.3655 12.9151C18.3655 13.7714 18.1646 14.6182 17.7845 15.3639C17.6973 15.5349 17.7553 15.7497 17.914 15.8437C18.0727 15.9376 18.2722 15.8751 18.3594 15.7041C18.7925 14.8545 19.0214 13.8901 19.0214 12.9152C19.0214 12.852 19.0205 12.7892 19.0186 12.7266C18.9942 11.9041 18.7008 11.2113 18.17 10.7232C17.7026 10.2933 17.0831 10.0566 16.4256 10.0566C15.7681 10.0566 15.1486 10.2934 14.6813 10.7232Z" fill="white"/>
<path d="M16.4257 11.2588C15.5577 11.2588 14.8516 12.0196 14.8516 12.9548C14.8516 13.89 15.5577 14.6509 16.4257 14.6509C17.2937 14.6509 17.9998 13.89 17.9998 12.9548C17.9998 12.0196 17.2937 11.2588 16.4257 11.2588ZM16.4257 13.9441C15.9194 13.9441 15.5075 13.5003 15.5075 12.9548C15.5075 12.4093 15.9194 11.9654 16.4257 11.9654C16.932 11.9654 17.3439 12.4093 17.3439 12.9548C17.3439 13.5003 16.932 13.9441 16.4257 13.9441Z" fill="white"/>
<path d="M10.609 14.0072C10.4043 13.8891 10.1917 13.7777 9.97697 13.6761C9.76992 13.5782 9.55855 13.493 9.34883 13.4231C9.1758 13.3654 8.99211 13.4698 8.93858 13.6562C8.88502 13.8426 8.98187 14.0405 9.1549 14.0982C9.341 14.1602 9.52886 14.236 9.7133 14.3232C9.91243 14.4174 10.1096 14.5207 10.2992 14.6302C10.3484 14.6586 10.4015 14.6721 10.4538 14.6721C10.5707 14.6721 10.684 14.6045 10.7431 14.4856C10.8286 14.3136 10.7686 14.0994 10.609 14.0072Z" fill="white"/>
<path d="M12.7815 15.7345C12.65 15.6003 12.4424 15.6064 12.3179 15.7481C12.1933 15.8898 12.199 16.1134 12.3305 16.2476C12.6286 16.5519 12.9076 16.8618 13.1773 17.1616L13.2461 17.2381C13.3105 17.3095 13.3959 17.3454 13.4816 17.3454C13.5638 17.3454 13.6462 17.3123 13.7099 17.2457C13.8399 17.1098 13.8431 16.8861 13.7169 16.7461L13.6483 16.6697C13.3737 16.3646 13.0898 16.0491 12.7815 15.7345Z" fill="white"/>
<path d="M15.6357 18.496C15.4769 18.4019 15.2775 18.4643 15.1903 18.6353C15.103 18.8064 15.1609 19.0212 15.3197 19.1152C15.7384 19.3634 16.1695 19.5333 16.6375 19.6347C16.6594 19.6394 16.6811 19.6417 16.7025 19.6417C16.8555 19.6417 16.9924 19.5257 17.0237 19.3579C17.0594 19.1666 16.9444 18.9803 16.7668 18.9418C16.3652 18.8548 15.9952 18.709 15.6357 18.496Z" fill="white"/>
<path d="M3.03712 15.4219C2.44799 16.008 2.11282 16.4802 2.09882 16.5001C1.98929 16.6554 2.01732 16.8768 2.16135 16.9949C2.22069 17.0436 2.29048 17.0671 2.3597 17.0671C2.45857 17.0671 2.5563 17.0191 2.62088 16.9279C2.62399 16.9235 2.93843 16.4819 3.48209 15.9411C3.61515 15.8087 3.62341 15.5851 3.50054 15.4418C3.37767 15.2984 3.17018 15.2895 3.03712 15.4219Z" fill="white"/>
<path d="M6.59072 13.2972C6.15572 13.3991 5.71578 13.5593 5.2831 13.7737C5.11851 13.8552 5.04645 14.065 5.1221 14.2423C5.17737 14.3718 5.29613 14.4481 5.42027 14.4481C5.4661 14.4481 5.51267 14.4377 5.55705 14.4157C5.94662 14.2227 6.34125 14.0788 6.7299 13.9878C6.90691 13.9464 7.01924 13.7582 6.98076 13.5675C6.94233 13.3768 6.76751 13.2556 6.59072 13.2972Z" fill="white"/>
<path d="M18.1043 7.38829L19.1014 6.31396L20.0985 7.38829C20.1625 7.45726 20.2465 7.4918 20.3304 7.4918C20.4143 7.4918 20.4982 7.45731 20.5623 7.38829C20.6903 7.25029 20.6903 7.02655 20.5623 6.8886L19.3333 5.56443C19.2052 5.42644 18.9975 5.42644 18.8695 5.56443L17.6405 6.8886C17.5124 7.0266 17.5124 7.25034 17.6405 7.38829C17.7686 7.52628 17.9762 7.52628 18.1043 7.38829Z" fill="white"/>
<path d="M17.6405 8.91661C17.7686 9.0546 17.9762 9.0546 18.1043 8.91661L18.7734 8.19563V9.55933C18.7734 9.75447 18.9203 9.91268 19.1014 9.91268C19.2825 9.91268 19.4293 9.75447 19.4293 9.55933V8.19563L20.0985 8.91661C20.1625 8.98558 20.2465 9.02012 20.3304 9.02012C20.4143 9.02012 20.4982 8.98563 20.5623 8.91661C20.6903 8.77861 20.6903 8.55487 20.5623 8.41692L19.3333 7.09275C19.2052 6.95476 18.9975 6.95476 18.8695 7.09275L17.6405 8.41692C17.5124 8.55492 17.5124 8.77866 17.6405 8.91661Z" fill="white"/>
<path d="M10.8811 10.692L11.8782 9.61768L12.8753 10.692C12.9394 10.761 13.0233 10.7955 13.1072 10.7955C13.1911 10.7955 13.2751 10.761 13.3391 10.692C13.4672 10.554 13.4672 10.3303 13.3391 10.1923L12.1101 8.86816C12.0486 8.80187 11.9652 8.76465 11.8782 8.76465C11.7913 8.76465 11.7078 8.80187 11.6463 8.86816L10.4173 10.1923C10.2893 10.3303 10.2893 10.5541 10.4173 10.692C10.5454 10.83 10.753 10.83 10.8811 10.692Z" fill="white"/>
<path d="M10.4173 12.2193C10.5454 12.3573 10.7531 12.3573 10.8811 12.2193L11.5503 11.4984V12.8621C11.5503 13.0572 11.6971 13.2154 11.8782 13.2154C12.0593 13.2154 12.2062 13.0572 12.2062 12.8621V11.4984L12.8753 12.2193C12.9394 12.2883 13.0233 12.3229 13.1072 12.3229C13.1911 12.3229 13.2751 12.2884 13.3391 12.2193C13.4672 12.0813 13.4672 11.8576 13.3391 11.7197L12.1101 10.3955C11.982 10.2575 11.7744 10.2575 11.6463 10.3955L10.4173 11.7197C10.2893 11.8576 10.2893 12.0813 10.4173 12.2193Z" fill="white"/>
</svg>
