<svg width="30" height="23" viewBox="0 0 30 23" fill="none" xmlns="http://www.w3.org/2000/svg">
<path d="M23.75 8.78168V2.50002C23.75 1.12125 22.6288 0 21.25 0H2.49996C1.12119 0 0 1.12119 0 2.50002V15C0 16.3788 1.12119 17.5 2.50002 17.5H16.5165C17.3354 20.3813 19.9847 22.5 23.125 22.5C24.3335 22.5 25.5219 22.182 26.5631 21.5796C26.8616 21.4069 26.9641 21.0248 26.7908 20.7257C26.618 20.4267 26.2354 20.3235 25.9369 20.4981C25.086 20.99 24.1137 21.25 23.125 21.25C20.0231 21.25 17.5 18.7268 17.5 15.625C17.5 12.5232 20.0232 10 23.125 10C26.2267 10 28.75 12.5232 28.75 15.625V16.25C28.75 16.9391 28.189 17.5 27.5 17.5C26.8109 17.5 26.25 16.9391 26.25 16.25V13.75C26.25 13.4046 25.9704 13.125 25.625 13.125C25.4569 13.125 25.3058 13.193 25.1936 13.3008C24.6412 12.8085 23.9213 12.5 23.125 12.5C21.402 12.5 20 13.902 20 15.625C20 17.348 21.402 18.75 23.125 18.75C24.0564 18.75 24.8846 18.3322 25.4576 17.6835C25.9104 18.3267 26.6553 18.75 27.5 18.75C28.8788 18.75 30 17.6288 30 16.25V15.625C30 12.0451 27.2487 9.09891 23.75 8.78168ZM2.50002 1.24998H21.25C21.276 1.24998 21.2978 1.26328 21.3235 1.26486L12.3889 8.59863C12.071 8.79885 11.6101 8.75731 11.4032 8.63039L2.4273 1.26475C2.45268 1.26322 2.47424 1.24998 2.50002 1.24998ZM22.5 8.78168C19.0013 9.09891 16.25 12.0451 16.25 15.625C16.25 15.836 16.2629 16.0438 16.2816 16.25H2.50002C1.81096 16.25 1.25004 15.6891 1.25004 15.0001V2.50002C1.25004 2.32301 1.28912 2.15584 1.3558 2.00314L10.6654 9.6375C11.0291 9.87492 11.4472 10.0001 11.8751 10.0001C12.2865 10.0001 12.6887 9.88412 13.0427 9.66439C13.0781 9.64547 13.1116 9.62291 13.1434 9.59666L22.3942 2.00303C22.4609 2.15584 22.5001 2.32301 22.5001 2.50008V8.78168H22.5ZM23.125 17.5C22.0911 17.5 21.25 16.659 21.25 15.625C21.25 14.5911 22.0911 13.75 23.125 13.75C24.159 13.75 25 14.5911 25 15.625C25 16.659 24.159 17.5 23.125 17.5Z" fill="white"/>
</svg>
