<svg width="433" height="300" viewBox="0 0 433 300" fill="none" xmlns="http://www.w3.org/2000/svg">
<g clip-path="url(#clip0)">
<path opacity="0.1" d="M244.758 41.0822C217.022 41.1194 190.324 33.2566 164.787 24.5219C139.251 15.7871 113.912 6.00598 86.6906 1.86124C69.184 -0.802963 49.2767 -0.558064 35.592 9.11546C22.4194 18.4216 18.6049 33.8243 16.7644 48.0545C15.3804 58.7595 14.7422 69.9952 19.9259 79.7875C23.5251 86.5853 29.6847 92.1883 34.0261 98.667C49.1802 121.205 40.067 149.996 25.3396 173.057C18.4342 183.877 10.3451 194.248 5.1243 205.688C-0.0965092 217.128 -2.23752 230.1 3.08718 241.391C8.36365 252.582 20.2821 260.705 33.0725 266.252C59.0467 277.54 89.288 279.959 118.717 280.891C183.86 282.957 249.129 278.742 314.224 274.527C338.313 272.968 362.51 271.399 386.102 266.883C399.201 264.378 412.689 260.66 421.976 252.512C433.765 242.167 436.177 225.276 427.598 213.135C413.212 192.771 375.278 188.931 364.963 166.897C359.275 154.767 364.18 140.856 371.405 129.164C386.9 104.077 413.572 81.6057 414.021 53.5461C414.329 34.277 400.459 15.4791 379.742 7.10432C358.028 -1.66753 328.421 0.588511 313.208 16.9374C297.564 33.7798 269.248 41.0563 244.758 41.0822Z" fill="#34ADBE"/>
<path d="M368.288 239.878C368.288 239.878 363.727 236.868 359.208 239.009C359.208 239.009 360.599 241.688 366.321 241.436L368.288 239.878Z" fill="#34ADBE"/>
<path d="M368.867 240.037C368.867 240.037 370.254 245.321 366.774 248.917C366.774 248.917 364.681 246.738 366.774 241.403L368.867 240.037Z" fill="#34ADBE"/>
<path d="M374.536 234.964C374.536 234.964 374.199 230.471 364.05 231.963C364.05 231.963 364.002 234.861 367.564 236.233C371.126 237.606 372.759 236.449 374.536 234.964Z" fill="#34ADBE"/>
<path d="M375.175 234.935C375.175 234.935 379.464 236.311 375.639 245.829C375.639 245.829 372.807 245.198 372.299 241.41C371.791 237.621 373.297 236.315 375.175 234.935Z" fill="#34ADBE"/>
<path d="M380.904 228.56C380.904 228.56 381.486 221.165 371.115 221.922C371.115 221.922 370.373 228.601 379.074 230.337L380.904 228.56Z" fill="#34ADBE"/>
<path d="M387.757 220.211C387.757 220.211 386.336 211.829 375.969 214.326C375.969 214.326 375.932 221.573 386.065 222.207L387.757 220.211Z" fill="#34ADBE"/>
<path d="M392.766 211.58C392.766 211.58 390.384 203.417 380.113 205.858C380.113 205.858 382.559 213.201 392.084 213.086L392.766 211.58Z" fill="#34ADBE"/>
<path d="M397.524 203.149C397.524 203.149 395.197 194.678 385.279 197.212C385.279 197.212 388.588 205.261 396.867 204.582L397.524 203.149Z" fill="#34ADBE"/>
<path d="M400.589 195.142C400.589 195.142 398.8 184.782 389.553 187.076C389.553 187.076 392.24 196.5 399.91 196.653L400.589 195.142Z" fill="#34ADBE"/>
<path d="M403.464 185.469C403.464 185.469 401.316 175.027 391.961 178.047C391.961 178.047 395.627 187.918 402.8 186.897L403.464 185.469Z" fill="#34ADBE"/>
<path d="M405.23 176.467C405.23 176.467 401.82 166.021 394.588 166.303C394.588 166.303 398.073 177.335 404.626 178.548L405.23 176.467Z" fill="#34ADBE"/>
<path d="M406.373 167.68C406.373 167.68 402.663 155.108 396.778 156.077C396.778 156.077 399.345 165.687 406.165 169.639L406.373 167.68Z" fill="#34ADBE"/>
<path d="M407.019 157.198C407.019 157.198 403.538 146.723 397.742 146.304C397.742 146.304 400.11 156.612 406.904 159.922L407.019 157.198Z" fill="#34ADBE"/>
<path d="M407.72 147.417C407.72 147.417 403.383 136.931 399.557 136.693C399.557 136.693 401.442 147.02 407.349 149.139L407.72 147.417Z" fill="#34ADBE"/>
<path d="M408.199 138.318C408.199 138.318 405.531 126.931 401.698 125.984C401.698 125.984 402.221 135.302 407.813 139.172L408.199 138.318Z" fill="#34ADBE"/>
<path d="M409.646 126.399C409.646 126.399 406.841 117.32 403.735 115.936C403.735 115.936 404.347 126.641 408.93 128.618L409.646 126.399Z" fill="#34ADBE"/>
<path d="M410.844 118.607L411.408 102.6C411.408 102.6 405.601 114.666 410.425 121.416L410.844 118.607Z" fill="#34ADBE"/>
<path d="M415.327 102.685C415.327 102.685 419.509 90.9968 420.522 90.3438C420.522 90.3438 412.321 97.9282 413.123 107.683L415.327 102.685Z" fill="#34ADBE"/>
<path d="M381.186 228.504C381.186 228.504 388.54 227.543 388.321 237.936C388.321 237.936 381.676 239.02 379.505 230.422L381.186 228.504Z" fill="#34ADBE"/>
<path d="M388.106 219.929C388.106 219.929 396.603 219.903 395.898 230.541C395.898 230.541 388.763 231.817 386.41 221.94L388.106 219.929Z" fill="#34ADBE"/>
<path d="M392.848 212.267C392.848 212.267 400.563 208.649 405.498 217.988C405.498 217.988 398.373 221.001 392.166 213.777L392.848 212.267Z" fill="#34ADBE"/>
<path d="M397.694 203.228C397.694 203.228 405.594 199.38 410.232 208.5C410.232 208.5 402.002 211.335 397.041 204.671L397.694 203.228Z" fill="#34ADBE"/>
<path d="M400.488 195.368C400.488 195.368 408.091 188.107 414.158 195.45C414.158 195.45 406.392 201.428 400.139 196.986L400.488 195.368Z" fill="#34ADBE"/>
<path d="M403.034 185.22C403.034 185.22 410.681 177.799 416.7 185.561C416.7 185.561 408.117 191.658 402.759 186.778L403.034 185.22Z" fill="#34ADBE"/>
<path d="M404.462 176.169C404.462 176.169 410.355 166.893 417.293 168.963C417.293 168.963 411.178 178.785 404.529 178.348L404.462 176.169Z" fill="#34ADBE"/>
<path d="M406.199 167.621C406.199 167.621 412.136 155.94 417.754 157.973C417.754 157.973 413.472 166.953 406.047 169.591L406.199 167.621Z" fill="#34ADBE"/>
<path d="M406.611 156.589C406.611 156.589 412.715 147.394 418.433 148.518C418.433 148.518 413.442 157.843 406.017 159.249L406.611 156.589Z" fill="#34ADBE"/>
<path d="M407.086 147.212C407.086 147.212 411.817 136.893 415.661 136.822C415.661 136.822 413.39 147.067 407.405 148.963L407.086 147.212Z" fill="#34ADBE"/>
<path d="M408.013 138.095C408.013 138.095 413.271 127.646 417.223 127.624C417.223 127.624 414.533 136.559 408.188 139.012L408.013 138.095Z" fill="#34ADBE"/>
<path d="M408.804 127.053C408.804 127.053 412.737 118.407 415.995 117.428C415.995 117.428 414.028 127.966 409.238 129.346L408.804 127.053Z" fill="#34ADBE"/>
<path d="M411.312 118.292L420.103 104.9C420.103 104.9 417.85 118.11 410.028 120.856L411.312 118.292Z" fill="#34ADBE"/>
<path d="M417.345 103.765C417.345 103.765 427.561 96.7153 427.932 95.5762C427.932 95.5762 422.737 105.45 413.089 107.194L417.345 103.765Z" fill="#34ADBE"/>
<path d="M417.958 100.593C417.958 100.593 429.687 89.316 432.681 89.3272C432.681 89.3272 423.008 89.7687 417.676 99.9914L417.958 100.593Z" fill="#34ADBE"/>
<path d="M408.919 128.726L409.345 128.782C411.55 111.532 414.763 101.324 418.392 100.073L418.251 99.665C414.403 101.001 411.167 111.053 408.919 128.726Z" fill="#444053"/>
<path d="M405.676 169.981L406.321 170.033C406.458 168.422 406.562 166.775 406.633 165.131C407.249 150.853 408.202 137.739 409.457 127.91L409.086 127.446C407.828 137.298 406.603 150.804 405.987 165.105C405.917 166.738 405.813 168.378 405.676 169.981Z" fill="#444053"/>
<path d="M356.251 248.107C356.362 248.059 367.728 242.983 379.524 230.879C386.435 223.79 392.177 215.649 396.537 206.76C401.991 195.655 405.316 182.007 406.429 168.749L405.757 169.064C403.253 198.823 389.705 219.157 378.934 230.234C367.253 242.23 356.013 247.254 355.902 247.302L356.251 248.107Z" fill="#444053"/>
<path d="M385.679 32.0352H29.1357C28.2933 32.0352 27.4854 32.3698 26.8898 32.9655C26.2941 33.5611 25.9595 34.369 25.9595 35.2114V44.4657H388.856V35.2114C388.856 34.369 388.521 33.5611 387.925 32.9655C387.33 32.3698 386.522 32.0352 385.679 32.0352Z" fill="#3F3D56"/>
<path d="M25.9595 44.4658V252.719C25.9595 254.418 26.6342 256.047 27.8353 257.248C29.0364 258.449 30.6654 259.124 32.364 259.124H382.451C384.15 259.124 385.779 258.449 386.98 257.248C388.181 256.047 388.856 254.418 388.856 252.719V44.4658H25.9595Z" fill="white"/>
<path opacity="0.8" d="M31.7071 39.6423C32.5269 39.6423 33.1914 38.9778 33.1914 38.1581C33.1914 37.3383 32.5269 36.6738 31.7071 36.6738C30.8874 36.6738 30.2229 37.3383 30.2229 38.1581C30.2229 38.9778 30.8874 39.6423 31.7071 39.6423Z" fill="#FA5959"/>
<path opacity="0.8" d="M35.7887 39.6423C36.6084 39.6423 37.2729 38.9778 37.2729 38.1581C37.2729 37.3383 36.6084 36.6738 35.7887 36.6738C34.969 36.6738 34.3044 37.3383 34.3044 38.1581C34.3044 38.9778 34.969 39.6423 35.7887 39.6423Z" fill="#FED253"/>
<path opacity="0.8" d="M39.8705 39.6423C40.6902 39.6423 41.3547 38.9778 41.3547 38.1581C41.3547 37.3383 40.6902 36.6738 39.8705 36.6738C39.0507 36.6738 38.3862 37.3383 38.3862 38.1581C38.3862 38.9778 39.0507 39.6423 39.8705 39.6423Z" fill="#8CCF4D"/>
<path opacity="0.05" d="M351.345 79.1895H59.6924V207.435H351.345V79.1895Z" fill="black"/>
<path d="M349.119 80.1621H61.9187V205.58H349.119V80.1621Z" fill="#3F3D56"/>
<path d="M140.212 112.44C134.561 112.44 129.037 114.116 124.339 117.256C119.64 120.395 115.978 124.857 113.816 130.078C111.653 135.299 111.087 141.044 112.19 146.586C113.292 152.128 116.013 157.219 120.009 161.215C124.005 165.211 129.096 167.932 134.638 169.035C140.181 170.137 145.925 169.571 151.146 167.409C156.367 165.246 160.829 161.584 163.969 156.886C167.108 152.187 168.784 146.663 168.784 141.012C168.784 137.26 168.045 133.545 166.609 130.078C165.173 126.612 163.068 123.462 160.415 120.809C157.762 118.156 154.613 116.051 151.146 114.615C147.68 113.179 143.964 112.44 140.212 112.44ZM145.337 141.698V155.227H135.236V141.698C133.839 140.64 132.808 139.17 132.291 137.495C131.774 135.82 131.796 134.025 132.354 132.363C132.912 130.701 133.978 129.257 135.401 128.234C136.825 127.21 138.533 126.66 140.286 126.66C142.039 126.66 143.748 127.21 145.171 128.234C146.595 129.257 147.66 130.701 148.219 132.363C148.777 134.025 148.799 135.82 148.281 137.495C147.764 139.17 146.734 140.64 145.337 141.698Z" fill="#34ADBE"/>
<path opacity="0.05" d="M140.212 112.44C134.561 112.44 129.037 114.116 124.339 117.256C119.64 120.395 115.978 124.857 113.816 130.078C111.653 135.299 111.087 141.044 112.19 146.586C113.292 152.128 116.013 157.219 120.009 161.215C124.005 165.211 129.096 167.932 134.638 169.035C140.181 170.137 145.925 169.571 151.146 167.409C156.367 165.246 160.829 161.584 163.969 156.886C167.108 152.187 168.784 146.663 168.784 141.012C168.784 137.26 168.045 133.545 166.609 130.078C165.173 126.612 163.068 123.462 160.415 120.809C157.762 118.156 154.613 116.051 151.146 114.615C147.68 113.179 143.964 112.44 140.212 112.44ZM145.337 141.698V155.227H135.236V141.698C133.839 140.64 132.808 139.17 132.291 137.495C131.774 135.82 131.796 134.025 132.354 132.363C132.912 130.701 133.978 129.257 135.401 128.234C136.825 127.21 138.533 126.66 140.286 126.66C142.039 126.66 143.748 127.21 145.171 128.234C146.595 129.257 147.66 130.701 148.219 132.363C148.777 134.025 148.799 135.82 148.281 137.495C147.764 139.17 146.734 140.64 145.337 141.698Z" fill="black"/>
<path d="M140.212 104.277C132.947 104.277 125.844 106.432 119.803 110.468C113.762 114.505 109.054 120.242 106.274 126.954C103.493 133.667 102.766 141.053 104.183 148.179C105.601 155.305 109.099 161.85 114.237 166.988C119.374 172.125 125.92 175.624 133.046 177.041C140.171 178.459 147.558 177.731 154.27 174.951C160.982 172.17 166.72 167.462 170.756 161.421C174.793 155.38 176.947 148.278 176.947 141.012C176.947 131.27 173.077 121.926 166.188 115.037C159.299 108.148 149.955 104.277 140.212 104.277ZM146.799 141.895V159.287H133.811V141.895C132.014 140.535 130.689 138.644 130.023 136.49C129.358 134.336 129.386 132.027 130.104 129.89C130.821 127.753 132.192 125.895 134.022 124.578C135.853 123.262 138.05 122.554 140.305 122.554C142.559 122.554 144.757 123.262 146.587 124.578C148.418 125.895 149.789 127.753 150.506 129.89C151.224 132.027 151.252 134.336 150.587 136.49C149.921 138.644 148.596 140.535 146.799 141.895Z" fill="#34ADBE"/>
<path d="M310.9 136.192H192.161V148.808H310.9V136.192Z" fill="white"/>
<path d="M310.9 159.197H285.296V171.813H310.9V159.197Z" fill="#34ADBE"/>
<path d="M203.849 142.31H201.7L203.611 140.403C203.646 140.368 203.665 140.321 203.665 140.271C203.665 140.222 203.646 140.175 203.611 140.14C203.594 140.122 203.574 140.108 203.551 140.099C203.528 140.09 203.504 140.085 203.48 140.085C203.455 140.085 203.431 140.09 203.408 140.099C203.386 140.108 203.365 140.122 203.348 140.14L201.437 142.051V139.898C201.437 139.849 201.417 139.802 201.383 139.767C201.348 139.732 201.301 139.713 201.251 139.713C201.203 139.714 201.156 139.734 201.121 139.768C201.087 139.803 201.067 139.85 201.066 139.898V142.051L199.159 140.128C199.141 140.111 199.121 140.097 199.098 140.088C199.076 140.078 199.051 140.074 199.027 140.074C199.002 140.074 198.978 140.078 198.956 140.088C198.933 140.097 198.912 140.111 198.895 140.128C198.861 140.164 198.842 140.211 198.842 140.26C198.842 140.309 198.861 140.357 198.895 140.392L200.806 142.299H198.654C198.605 142.3 198.558 142.32 198.524 142.355C198.489 142.389 198.469 142.436 198.469 142.485C198.469 142.534 198.488 142.581 198.523 142.616C198.558 142.651 198.605 142.67 198.654 142.67H200.806L198.895 144.581C198.861 144.616 198.842 144.664 198.842 144.713C198.842 144.762 198.861 144.809 198.895 144.845C198.931 144.878 198.978 144.897 199.027 144.897C199.076 144.897 199.123 144.878 199.159 144.845L201.066 142.934V145.082C201.066 145.131 201.085 145.179 201.12 145.213C201.155 145.248 201.202 145.268 201.251 145.268C201.301 145.268 201.348 145.248 201.383 145.213C201.417 145.179 201.437 145.131 201.437 145.082V142.934L203.348 144.845C203.384 144.878 203.431 144.897 203.48 144.897C203.529 144.897 203.576 144.878 203.611 144.845C203.646 144.809 203.665 144.762 203.665 144.713C203.665 144.664 203.646 144.616 203.611 144.581L201.7 142.67H203.849C203.898 142.67 203.945 142.651 203.98 142.616C204.015 142.581 204.034 142.534 204.034 142.485C204.032 142.437 204.011 142.393 203.976 142.361C203.942 142.328 203.896 142.31 203.849 142.31Z" fill="#34ADBE"/>
<path d="M211.641 142.31H209.493L211.404 140.403C211.438 140.368 211.457 140.321 211.457 140.271C211.457 140.222 211.438 140.175 211.404 140.14C211.386 140.122 211.366 140.108 211.343 140.099C211.321 140.09 211.296 140.085 211.272 140.085C211.247 140.085 211.223 140.09 211.201 140.099C211.178 140.108 211.157 140.122 211.14 140.14L209.229 142.051V139.898C209.229 139.849 209.21 139.802 209.175 139.767C209.14 139.732 209.093 139.713 209.044 139.713C208.995 139.714 208.948 139.734 208.914 139.768C208.879 139.803 208.859 139.85 208.858 139.898V142.051L206.951 140.128C206.934 140.111 206.913 140.097 206.891 140.088C206.868 140.078 206.844 140.074 206.819 140.074C206.795 140.074 206.77 140.078 206.748 140.088C206.725 140.097 206.705 140.111 206.687 140.128C206.653 140.164 206.634 140.211 206.634 140.26C206.634 140.309 206.653 140.357 206.687 140.392L208.598 142.299H206.446C206.397 142.3 206.351 142.32 206.316 142.355C206.282 142.389 206.262 142.436 206.261 142.485C206.261 142.534 206.28 142.581 206.315 142.616C206.35 142.651 206.397 142.67 206.446 142.67H208.598L206.687 144.581C206.653 144.616 206.634 144.664 206.634 144.713C206.634 144.762 206.653 144.809 206.687 144.845C206.723 144.878 206.77 144.897 206.819 144.897C206.868 144.897 206.915 144.878 206.951 144.845L208.858 142.934V145.082C208.858 145.131 208.878 145.179 208.912 145.213C208.947 145.248 208.994 145.268 209.044 145.268C209.093 145.268 209.14 145.248 209.175 145.213C209.21 145.179 209.229 145.131 209.229 145.082V142.934L211.14 144.845C211.176 144.878 211.223 144.897 211.272 144.897C211.321 144.897 211.368 144.878 211.404 144.845C211.438 144.809 211.457 144.762 211.457 144.713C211.457 144.664 211.438 144.616 211.404 144.581L209.493 142.67H211.641C211.69 142.67 211.737 142.651 211.772 142.616C211.807 142.581 211.827 142.534 211.827 142.485C211.824 142.437 211.803 142.393 211.768 142.361C211.734 142.328 211.688 142.31 211.641 142.31Z" fill="#34ADBE"/>
<path d="M219.433 142.31H217.285L219.196 140.403C219.23 140.368 219.249 140.321 219.249 140.271C219.249 140.222 219.23 140.175 219.196 140.14C219.179 140.122 219.158 140.108 219.135 140.099C219.113 140.09 219.089 140.085 219.064 140.085C219.04 140.085 219.015 140.09 218.993 140.099C218.97 140.108 218.95 140.122 218.932 140.14L217.021 142.051V139.898C217.021 139.849 217.002 139.802 216.967 139.767C216.932 139.732 216.885 139.713 216.836 139.713C216.787 139.714 216.74 139.734 216.706 139.768C216.671 139.803 216.651 139.85 216.65 139.898V142.051L214.743 140.128C214.726 140.111 214.705 140.097 214.683 140.088C214.66 140.078 214.636 140.074 214.611 140.074C214.587 140.074 214.563 140.078 214.54 140.088C214.517 140.097 214.497 140.111 214.48 140.128C214.445 140.164 214.426 140.211 214.426 140.26C214.426 140.309 214.445 140.357 214.48 140.392L216.391 142.299H214.239C214.19 142.3 214.143 142.32 214.108 142.355C214.074 142.389 214.054 142.436 214.053 142.485C214.053 142.534 214.073 142.581 214.107 142.616C214.142 142.651 214.189 142.67 214.239 142.67H216.391L214.48 144.581C214.445 144.616 214.426 144.664 214.426 144.713C214.426 144.762 214.445 144.809 214.48 144.845C214.515 144.878 214.562 144.897 214.611 144.897C214.66 144.897 214.707 144.878 214.743 144.845L216.65 142.934V145.082C216.65 145.131 216.67 145.179 216.705 145.213C216.74 145.248 216.787 145.268 216.836 145.268C216.885 145.268 216.932 145.248 216.967 145.213C217.002 145.179 217.021 145.131 217.021 145.082V142.934L218.932 144.845C218.968 144.878 219.015 144.897 219.064 144.897C219.113 144.897 219.16 144.878 219.196 144.845C219.23 144.809 219.249 144.762 219.249 144.713C219.249 144.664 219.23 144.616 219.196 144.581L217.285 142.67H219.433C219.483 142.67 219.53 142.651 219.565 142.616C219.599 142.581 219.619 142.534 219.619 142.485C219.616 142.437 219.595 142.393 219.561 142.361C219.526 142.328 219.481 142.31 219.433 142.31Z" fill="#34ADBE"/>
<path d="M227.226 142.31H225.077L226.988 140.403C227.022 140.368 227.041 140.321 227.041 140.271C227.041 140.222 227.022 140.175 226.988 140.14C226.971 140.122 226.95 140.108 226.928 140.099C226.905 140.09 226.881 140.085 226.856 140.085C226.832 140.085 226.808 140.09 226.785 140.099C226.762 140.108 226.742 140.122 226.725 140.14L224.814 142.051V139.898C224.814 139.849 224.794 139.802 224.759 139.767C224.725 139.732 224.677 139.713 224.628 139.713C224.579 139.714 224.533 139.734 224.498 139.768C224.463 139.803 224.444 139.85 224.443 139.898V142.051L222.535 140.128C222.518 140.111 222.498 140.097 222.475 140.088C222.452 140.078 222.428 140.074 222.404 140.074C222.379 140.074 222.355 140.078 222.332 140.088C222.31 140.097 222.289 140.111 222.272 140.128C222.238 140.164 222.219 140.211 222.219 140.26C222.219 140.309 222.238 140.357 222.272 140.392L224.183 142.299H222.031C221.982 142.3 221.935 142.32 221.901 142.355C221.866 142.389 221.846 142.436 221.845 142.485C221.845 142.534 221.865 142.581 221.9 142.616C221.934 142.651 221.982 142.67 222.031 142.67H224.183L222.272 144.581C222.238 144.616 222.219 144.664 222.219 144.713C222.219 144.762 222.238 144.809 222.272 144.845C222.308 144.878 222.355 144.897 222.404 144.897C222.453 144.897 222.5 144.878 222.535 144.845L224.443 142.934V145.082C224.443 145.131 224.462 145.179 224.497 145.213C224.532 145.248 224.579 145.268 224.628 145.268C224.677 145.268 224.725 145.248 224.759 145.213C224.794 145.179 224.814 145.131 224.814 145.082V142.934L226.725 144.845C226.76 144.878 226.807 144.897 226.856 144.897C226.905 144.897 226.952 144.878 226.988 144.845C227.022 144.809 227.041 144.762 227.041 144.713C227.041 144.664 227.022 144.616 226.988 144.581L225.077 142.67H227.226C227.275 142.67 227.322 142.651 227.357 142.616C227.392 142.581 227.411 142.534 227.411 142.485C227.408 142.437 227.387 142.393 227.353 142.361C227.318 142.328 227.273 142.31 227.226 142.31Z" fill="#34ADBE"/>
<path d="M235.018 142.31H232.87L234.781 140.403C234.815 140.368 234.834 140.321 234.834 140.271C234.834 140.222 234.815 140.175 234.781 140.14C234.763 140.122 234.743 140.108 234.72 140.099C234.698 140.09 234.673 140.085 234.649 140.085C234.624 140.085 234.6 140.09 234.577 140.099C234.555 140.108 234.534 140.122 234.517 140.14L232.606 142.051V139.898C232.606 139.849 232.587 139.802 232.552 139.767C232.517 139.732 232.47 139.713 232.421 139.713C232.372 139.714 232.325 139.734 232.29 139.768C232.256 139.803 232.236 139.85 232.235 139.898V142.051L230.328 140.128C230.311 140.111 230.29 140.097 230.267 140.088C230.245 140.078 230.221 140.074 230.196 140.074C230.172 140.074 230.147 140.078 230.125 140.088C230.102 140.097 230.082 140.111 230.064 140.128C230.03 140.164 230.011 140.211 230.011 140.26C230.011 140.309 230.03 140.357 230.064 140.392L231.975 142.299H229.823C229.774 142.3 229.728 142.32 229.693 142.355C229.658 142.389 229.639 142.436 229.638 142.485C229.638 142.534 229.657 142.581 229.692 142.616C229.727 142.651 229.774 142.67 229.823 142.67H231.975L230.064 144.581C230.03 144.616 230.011 144.664 230.011 144.713C230.011 144.762 230.03 144.809 230.064 144.845C230.1 144.878 230.147 144.897 230.196 144.897C230.245 144.897 230.292 144.878 230.328 144.845L232.235 142.934V145.082C232.235 145.131 232.255 145.179 232.289 145.213C232.324 145.248 232.371 145.268 232.421 145.268C232.47 145.268 232.517 145.248 232.552 145.213C232.587 145.179 232.606 145.131 232.606 145.082V142.934L234.517 144.845C234.553 144.878 234.6 144.897 234.649 144.897C234.698 144.897 234.745 144.878 234.781 144.845C234.815 144.809 234.834 144.762 234.834 144.713C234.834 144.664 234.815 144.616 234.781 144.581L232.87 142.67H235.018C235.067 142.67 235.114 142.651 235.149 142.616C235.184 142.581 235.204 142.534 235.204 142.485C235.201 142.437 235.18 142.393 235.145 142.361C235.111 142.328 235.065 142.31 235.018 142.31Z" fill="#34ADBE"/>
<path d="M242.81 142.31H240.662L242.573 140.403C242.607 140.368 242.626 140.321 242.626 140.271C242.626 140.222 242.607 140.175 242.573 140.14C242.556 140.122 242.535 140.108 242.512 140.099C242.49 140.09 242.466 140.085 242.441 140.085C242.417 140.085 242.392 140.09 242.37 140.099C242.347 140.108 242.327 140.122 242.309 140.14L240.398 142.051V139.898C240.398 139.849 240.379 139.802 240.344 139.767C240.309 139.732 240.262 139.713 240.213 139.713C240.164 139.714 240.117 139.734 240.083 139.768C240.048 139.803 240.028 139.85 240.027 139.898V142.051L238.12 140.128C238.103 140.111 238.082 140.097 238.06 140.088C238.037 140.078 238.013 140.074 237.988 140.074C237.964 140.074 237.94 140.078 237.917 140.088C237.894 140.097 237.874 140.111 237.857 140.128C237.822 140.164 237.803 140.211 237.803 140.26C237.803 140.309 237.822 140.357 237.857 140.392L239.768 142.299H237.615C237.567 142.3 237.52 142.32 237.485 142.355C237.451 142.389 237.431 142.436 237.43 142.485C237.43 142.534 237.449 142.581 237.484 142.616C237.519 142.651 237.566 142.67 237.615 142.67H239.768L237.857 144.581C237.822 144.616 237.803 144.664 237.803 144.713C237.803 144.762 237.822 144.809 237.857 144.845C237.892 144.878 237.939 144.897 237.988 144.897C238.037 144.897 238.084 144.878 238.12 144.845L240.027 142.934V145.082C240.027 145.131 240.047 145.179 240.082 145.213C240.117 145.248 240.164 145.268 240.213 145.268C240.262 145.268 240.309 145.248 240.344 145.213C240.379 145.179 240.398 145.131 240.398 145.082V142.934L242.309 144.845C242.345 144.878 242.392 144.897 242.441 144.897C242.49 144.897 242.537 144.878 242.573 144.845C242.607 144.809 242.626 144.762 242.626 144.713C242.626 144.664 242.607 144.616 242.573 144.581L240.662 142.67H242.81C242.86 142.67 242.907 142.651 242.942 142.616C242.976 142.581 242.996 142.534 242.996 142.485C242.993 142.437 242.972 142.393 242.938 142.361C242.903 142.328 242.858 142.31 242.81 142.31Z" fill="#34ADBE"/>
<path d="M250.603 142.31H248.454L250.365 140.403C250.399 140.368 250.418 140.321 250.418 140.271C250.418 140.222 250.399 140.175 250.365 140.14C250.348 140.122 250.327 140.108 250.305 140.099C250.282 140.09 250.258 140.085 250.233 140.085C250.209 140.085 250.185 140.09 250.162 140.099C250.139 140.108 250.119 140.122 250.102 140.14L248.191 142.051V139.898C248.191 139.849 248.171 139.802 248.136 139.767C248.101 139.732 248.054 139.713 248.005 139.713C247.956 139.714 247.91 139.734 247.875 139.768C247.84 139.803 247.821 139.85 247.82 139.898V142.051L245.912 140.128C245.895 140.111 245.875 140.097 245.852 140.088C245.829 140.078 245.805 140.074 245.781 140.074C245.756 140.074 245.732 140.078 245.709 140.088C245.687 140.097 245.666 140.111 245.649 140.128C245.615 140.164 245.595 140.211 245.595 140.26C245.595 140.309 245.615 140.357 245.649 140.392L247.56 142.299H245.408C245.359 142.3 245.312 142.32 245.278 142.355C245.243 142.389 245.223 142.436 245.222 142.485C245.222 142.534 245.242 142.581 245.276 142.616C245.311 142.651 245.358 142.67 245.408 142.67H247.56L245.649 144.581C245.615 144.616 245.595 144.664 245.595 144.713C245.595 144.762 245.615 144.809 245.649 144.845C245.685 144.878 245.732 144.897 245.781 144.897C245.829 144.897 245.877 144.878 245.912 144.845L247.82 142.934V145.082C247.82 145.131 247.839 145.179 247.874 145.213C247.909 145.248 247.956 145.268 248.005 145.268C248.054 145.268 248.101 145.248 248.136 145.213C248.171 145.179 248.191 145.131 248.191 145.082V142.934L250.102 144.845C250.137 144.878 250.184 144.897 250.233 144.897C250.282 144.897 250.329 144.878 250.365 144.845C250.399 144.809 250.418 144.762 250.418 144.713C250.418 144.664 250.399 144.616 250.365 144.581L248.454 142.67H250.603C250.652 142.67 250.699 142.651 250.734 142.616C250.768 142.581 250.788 142.534 250.788 142.485C250.785 142.437 250.764 142.393 250.73 142.361C250.695 142.328 250.65 142.31 250.603 142.31Z" fill="#34ADBE"/>
<path d="M258.395 142.31H256.246L258.157 140.403C258.191 140.368 258.211 140.321 258.211 140.271C258.211 140.222 258.191 140.175 258.157 140.14C258.14 140.122 258.119 140.108 258.097 140.099C258.074 140.09 258.05 140.085 258.026 140.085C258.001 140.085 257.977 140.09 257.954 140.099C257.932 140.108 257.911 140.122 257.894 140.14L255.983 142.051V139.898C255.983 139.849 255.963 139.802 255.929 139.767C255.894 139.732 255.847 139.713 255.797 139.713C255.748 139.714 255.702 139.734 255.667 139.768C255.633 139.803 255.613 139.85 255.612 139.898V142.051L253.705 140.128C253.687 140.111 253.667 140.097 253.644 140.088C253.622 140.078 253.597 140.074 253.573 140.074C253.548 140.074 253.524 140.078 253.501 140.088C253.479 140.097 253.458 140.111 253.441 140.128C253.407 140.164 253.388 140.211 253.388 140.26C253.388 140.309 253.407 140.357 253.441 140.392L255.352 142.299H253.2C253.151 142.3 253.104 142.32 253.07 142.355C253.035 142.389 253.015 142.436 253.014 142.485C253.014 142.534 253.034 142.581 253.069 142.616C253.104 142.651 253.151 142.67 253.2 142.67H255.352L253.441 144.581C253.407 144.616 253.388 144.664 253.388 144.713C253.388 144.762 253.407 144.809 253.441 144.845C253.477 144.878 253.524 144.897 253.573 144.897C253.622 144.897 253.669 144.878 253.705 144.845L255.612 142.934V145.082C255.612 145.131 255.631 145.179 255.666 145.213C255.701 145.248 255.748 145.268 255.797 145.268C255.847 145.268 255.894 145.248 255.929 145.213C255.963 145.179 255.983 145.131 255.983 145.082V142.934L257.894 144.845C257.93 144.878 257.977 144.897 258.026 144.897C258.074 144.897 258.122 144.878 258.157 144.845C258.191 144.809 258.211 144.762 258.211 144.713C258.211 144.664 258.191 144.616 258.157 144.581L256.246 142.67H258.395C258.444 142.67 258.491 142.651 258.526 142.616C258.561 142.581 258.58 142.534 258.58 142.485C258.577 142.437 258.557 142.393 258.522 142.361C258.488 142.328 258.442 142.31 258.395 142.31Z" fill="#34ADBE"/>
<path d="M266.187 142.31H264.039L265.95 140.403C265.984 140.368 266.003 140.321 266.003 140.271C266.003 140.222 265.984 140.175 265.95 140.14C265.932 140.122 265.912 140.108 265.889 140.099C265.867 140.09 265.842 140.085 265.818 140.085C265.793 140.085 265.769 140.09 265.746 140.099C265.724 140.108 265.703 140.122 265.686 140.14L263.775 142.051V139.898C263.775 139.849 263.756 139.802 263.721 139.767C263.686 139.732 263.639 139.713 263.59 139.713C263.541 139.714 263.494 139.734 263.459 139.768C263.425 139.803 263.405 139.85 263.404 139.898V142.051L261.497 140.128C261.48 140.111 261.459 140.097 261.436 140.088C261.414 140.078 261.39 140.074 261.365 140.074C261.341 140.074 261.316 140.078 261.294 140.088C261.271 140.097 261.251 140.111 261.233 140.128C261.199 140.164 261.18 140.211 261.18 140.26C261.18 140.309 261.199 140.357 261.233 140.392L263.144 142.299H260.992C260.943 142.3 260.897 142.32 260.862 142.355C260.827 142.389 260.808 142.436 260.807 142.485C260.807 142.534 260.826 142.581 260.861 142.616C260.896 142.651 260.943 142.67 260.992 142.67H263.144L261.233 144.581C261.199 144.616 261.18 144.664 261.18 144.713C261.18 144.762 261.199 144.809 261.233 144.845C261.269 144.878 261.316 144.897 261.365 144.897C261.414 144.897 261.461 144.878 261.497 144.845L263.404 142.934V145.082C263.404 145.131 263.424 145.179 263.458 145.213C263.493 145.248 263.54 145.268 263.59 145.268C263.639 145.268 263.686 145.248 263.721 145.213C263.756 145.179 263.775 145.131 263.775 145.082V142.934L265.686 144.845C265.722 144.878 265.769 144.897 265.818 144.897C265.867 144.897 265.914 144.878 265.95 144.845C265.984 144.809 266.003 144.762 266.003 144.713C266.003 144.664 265.984 144.616 265.95 144.581L264.039 142.67H266.187C266.236 142.67 266.283 142.651 266.318 142.616C266.353 142.581 266.373 142.534 266.373 142.485C266.37 142.437 266.349 142.393 266.314 142.361C266.28 142.328 266.234 142.31 266.187 142.31Z" fill="#34ADBE"/>
<path d="M273.979 142.31H271.831L273.742 140.403C273.776 140.368 273.795 140.321 273.795 140.271C273.795 140.222 273.776 140.175 273.742 140.14C273.725 140.122 273.704 140.108 273.681 140.099C273.659 140.09 273.635 140.085 273.61 140.085C273.586 140.085 273.561 140.09 273.539 140.099C273.516 140.108 273.496 140.122 273.478 140.14L271.567 142.051V139.898C271.567 139.849 271.548 139.802 271.513 139.767C271.478 139.732 271.431 139.713 271.382 139.713C271.333 139.714 271.286 139.734 271.252 139.768C271.217 139.803 271.197 139.85 271.196 139.898V142.051L269.289 140.128C269.272 140.111 269.251 140.097 269.229 140.088C269.206 140.078 269.182 140.074 269.157 140.074C269.133 140.074 269.109 140.078 269.086 140.088C269.063 140.097 269.043 140.111 269.026 140.128C268.991 140.164 268.972 140.211 268.972 140.26C268.972 140.309 268.991 140.357 269.026 140.392L270.937 142.299H268.784C268.735 142.3 268.689 142.32 268.654 142.355C268.62 142.389 268.6 142.436 268.599 142.485C268.599 142.534 268.618 142.581 268.653 142.616C268.688 142.651 268.735 142.67 268.784 142.67H270.937L269.026 144.581C268.991 144.616 268.972 144.664 268.972 144.713C268.972 144.762 268.991 144.809 269.026 144.845C269.061 144.878 269.108 144.897 269.157 144.897C269.206 144.897 269.253 144.878 269.289 144.845L271.196 142.934V145.082C271.196 145.131 271.216 145.179 271.251 145.213C271.285 145.248 271.333 145.268 271.382 145.268C271.431 145.268 271.478 145.248 271.513 145.213C271.548 145.179 271.567 145.131 271.567 145.082V142.934L273.478 144.845C273.514 144.878 273.561 144.897 273.61 144.897C273.659 144.897 273.706 144.878 273.742 144.845C273.776 144.809 273.795 144.762 273.795 144.713C273.795 144.664 273.776 144.616 273.742 144.581L271.831 142.67H273.979C274.028 142.67 274.076 142.651 274.11 142.616C274.145 142.581 274.165 142.534 274.165 142.485C274.162 142.437 274.141 142.393 274.107 142.361C274.072 142.328 274.027 142.31 273.979 142.31Z" fill="#34ADBE"/>
<path d="M281.771 142.31H279.623L281.534 140.403C281.568 140.368 281.587 140.321 281.587 140.271C281.587 140.222 281.568 140.175 281.534 140.14C281.517 140.122 281.496 140.108 281.474 140.099C281.451 140.09 281.427 140.085 281.402 140.085C281.378 140.085 281.354 140.09 281.331 140.099C281.308 140.108 281.288 140.122 281.271 140.14L279.36 142.051V139.898C279.36 139.849 279.34 139.802 279.305 139.767C279.27 139.732 279.223 139.713 279.174 139.713C279.125 139.714 279.078 139.734 279.044 139.768C279.009 139.803 278.989 139.85 278.989 139.898V142.051L277.081 140.128C277.064 140.111 277.044 140.097 277.021 140.088C276.998 140.078 276.974 140.074 276.95 140.074C276.925 140.074 276.901 140.078 276.878 140.088C276.856 140.097 276.835 140.111 276.818 140.128C276.784 140.164 276.764 140.211 276.764 140.26C276.764 140.309 276.784 140.357 276.818 140.392L278.729 142.299H276.577C276.528 142.3 276.481 142.32 276.446 142.355C276.412 142.389 276.392 142.436 276.391 142.485C276.391 142.534 276.411 142.581 276.445 142.616C276.48 142.651 276.527 142.67 276.577 142.67H278.729L276.818 144.581C276.784 144.616 276.764 144.664 276.764 144.713C276.764 144.762 276.784 144.809 276.818 144.845C276.854 144.878 276.901 144.897 276.95 144.897C276.998 144.897 277.046 144.878 277.081 144.845L278.989 142.934V145.082C278.989 145.131 279.008 145.179 279.043 145.213C279.078 145.248 279.125 145.268 279.174 145.268C279.223 145.268 279.27 145.248 279.305 145.213C279.34 145.179 279.36 145.131 279.36 145.082V142.934L281.271 144.845C281.306 144.878 281.353 144.897 281.402 144.897C281.451 144.897 281.498 144.878 281.534 144.845C281.568 144.809 281.587 144.762 281.587 144.713C281.587 144.664 281.568 144.616 281.534 144.581L279.623 142.67H281.771C281.821 142.67 281.868 142.651 281.903 142.616C281.937 142.581 281.957 142.534 281.957 142.485C281.954 142.437 281.933 142.393 281.899 142.361C281.864 142.328 281.819 142.31 281.771 142.31Z" fill="#34ADBE"/>
<path d="M341.508 187.45C341.498 187.002 341.442 186.555 341.341 186.118C341.007 184.864 340.254 183.346 339.015 182.968C337.735 182.576 336.499 182.054 335.326 181.409C335.104 177.432 336.017 173.361 335.022 169.506C334.651 168.096 334.039 166.745 333.876 165.302C333.672 163.506 334.161 161.591 333.445 159.936C332.881 158.63 331.642 157.71 330.31 157.227C328.978 156.745 327.542 156.615 326.128 156.485C324.347 156.34 318.581 155.658 316.569 157.25C316.431 157.357 316.306 157.482 316.198 157.621C316.154 157.682 316.114 157.746 316.08 157.814L316.061 157.843C316.021 157.921 315.987 158.001 315.961 158.084C315.933 158.176 315.912 158.269 315.898 158.363C315.898 158.392 315.898 158.422 315.898 158.452C315.898 158.482 315.898 158.582 315.898 158.648V158.749C315.898 158.815 315.898 158.882 315.898 158.953C315.898 159.023 315.898 159.005 315.898 159.031C315.924 159.365 315.972 159.699 315.972 160.029C315.976 160.193 315.961 160.358 315.928 160.519C315.804 160.956 315.595 161.365 315.312 161.721L315.245 161.817C315.204 161.877 315.163 161.932 315.126 161.992C315.089 162.051 315.059 162.096 315.03 162.148C315 162.2 314.97 162.233 314.944 162.281C314.908 162.342 314.876 162.405 314.848 162.47C314.848 162.507 314.807 162.541 314.792 162.578C314.746 162.678 314.708 162.783 314.681 162.89C314.594 163.212 314.586 163.551 314.658 163.877C314.759 164.293 314.931 164.689 315.167 165.046C315.26 165.198 315.36 165.346 315.464 165.495L315.723 165.847C315.675 166.191 315.649 166.538 315.646 166.886C315.646 168.048 315.91 169.195 316.417 170.24C316.925 171.285 317.664 172.201 318.577 172.919C318.724 174.486 318.708 176.064 318.529 177.628C318.495 177.955 318.454 178.285 318.41 178.611C318.365 178.938 318.332 179.153 318.287 179.424C317.744 179.502 317.191 179.46 316.666 179.302C316.424 179.194 316.176 179.098 315.924 179.016C314.844 178.745 313.742 179.821 312.673 179.495C312.673 179.547 312.644 179.595 312.625 179.643C312.402 179.504 312.146 179.429 311.883 179.424C311.248 179.394 310.733 178.934 310.273 178.5L308.859 177.168C308.767 177.087 308.684 176.994 308.614 176.893C308.538 176.749 308.481 176.596 308.443 176.437C308.206 175.669 307.631 175.057 307.074 174.474C306.969 174.341 306.829 174.24 306.67 174.181C306.608 174.172 306.546 174.172 306.484 174.181C306.446 174.129 306.405 174.08 306.362 174.033C306.266 173.922 306.163 173.818 306.054 173.721C305.378 173.098 305.312 172.563 304.725 171.866C304.214 171.2 303.75 170.5 303.338 169.769C303.289 169.38 303.222 168.979 303.141 168.574C302.954 167.648 302.682 166.742 302.328 165.866L301.586 164.222L301.501 164.307C300.963 163.506 300.388 163.068 299.872 163.172C299.007 163.35 298.581 165.027 298.718 167.22L299.015 169.446C299.015 169.502 299.041 169.558 299.055 169.613C299.002 169.877 298.975 170.146 298.974 170.415C298.974 170.726 299.263 170.957 299.415 171.235C299.659 171.612 299.788 172.051 299.786 172.5C299.768 172.66 299.72 172.812 299.712 172.968C299.732 173.316 299.854 173.651 300.061 173.932L301.916 177.049L302.287 177.702L302.31 177.732C302.427 177.96 302.597 178.156 302.807 178.304C302.88 179.084 303.087 179.846 303.419 180.556C303.482 180.697 303.553 180.83 303.627 180.964C304.126 181.784 304.713 182.547 305.378 183.239L306.261 184.229C307.133 185.201 308.005 186.177 308.952 187.075C309.29 187.436 309.7 187.722 310.154 187.918C310.376 188.007 310.618 188.035 310.856 188.001C311.093 187.966 311.317 187.87 311.504 187.721C311.504 188.181 311.504 188.641 311.504 189.101C311.642 189.11 311.775 189.155 311.89 189.232C312.004 189.309 312.096 189.415 312.156 189.54C312.216 189.664 312.241 189.802 312.23 189.94C312.218 190.077 312.17 190.209 312.091 190.322C311.312 192.322 310.525 194.341 309.345 196.133C310.178 196.626 310.95 197.215 311.646 197.888C312.097 198.388 312.498 198.931 312.844 199.51C312.877 199.784 312.903 200.055 312.918 200.326C313.193 204.749 311.482 209.139 309.95 213.354C309.508 214.549 309.026 215.799 309.063 217.042C308.772 217.221 308.494 217.421 308.232 217.64C308.536 218.434 308.417 219.142 308.384 219.992C308.373 220.501 308.268 221.005 308.076 221.476C307.915 221.803 307.736 222.122 307.542 222.43C306.581 224.126 306.369 226.141 306.176 228.077C306.061 229.246 306.514 230.675 305.983 231.721C305.067 233.517 304.254 235.432 304.128 237.428C304.123 237.877 304.066 238.324 303.957 238.76C303.842 239.131 303.638 239.447 303.534 239.81C303.427 240.298 303.402 240.799 303.46 241.295C303.531 243.073 303.266 244.849 302.681 246.53C302.217 247.855 301.705 249.272 302.068 250.634C301.173 251.574 300.62 252.789 300.499 254.081C300.489 254.412 300.45 254.741 300.38 255.065C300.267 255.395 300.117 255.713 299.935 256.011C299.188 257.371 298.838 258.914 298.926 260.464C297.812 261.974 297.256 263.836 296.926 265.688C296.595 267.54 296.451 269.425 296.028 271.254C295.464 273.673 294.443 276.119 294.243 278.597C293.041 279.365 292.521 280.853 292.291 282.26C292.061 283.666 292.024 285.143 291.434 286.441C291.13 287.117 290.692 287.722 290.402 288.412C290.199 288.961 290.05 289.529 289.957 290.107C289.779 291.013 289.623 292.022 289.842 292.89C289.527 293.224 289.16 293.503 288.755 293.718C288.814 293.488 288.862 293.258 288.903 293.024C287.946 293.892 286.209 293.588 285.445 294.631C285.216 294.967 285.126 295.379 285.195 295.78C285.264 296.181 285.487 296.539 285.816 296.779C286.055 296.925 286.314 297.036 286.584 297.109C288.439 297.703 290.347 298.3 292.254 297.985C292.479 297.961 292.698 297.891 292.896 297.781C293.144 297.598 293.348 297.363 293.493 297.091C293.779 296.638 294.065 296.185 294.347 295.733C295.03 295.937 295.725 296.099 296.428 296.219C296.499 296.812 296.551 297.406 296.577 298C296.948 298.074 297.445 298.096 297.619 297.751C297.672 297.621 297.694 297.48 297.683 297.339C297.683 297.076 297.72 296.727 297.742 296.371H297.816C298.948 296.417 300.075 296.189 301.1 295.707C300.703 292.419 302.013 289.206 303.148 286.096C304.347 282.824 305.375 279.491 306.41 276.159C307.152 273.814 307.972 271.543 308.699 269.195C309.615 266.226 310.534 263.258 311.456 260.289C311.857 258.983 312.261 257.692 312.722 256.393C313.69 253.765 314.839 251.207 316.161 248.738C316.532 248.037 316.903 247.343 317.208 246.616C317.579 245.729 317.842 244.801 318.139 243.885C318.786 242.004 319.565 240.171 320.469 238.4C320.495 238.352 320.514 238.308 320.54 238.263C320.84 239.491 321.141 240.738 321.341 241.974C321.612 243.489 321.634 245.038 321.404 246.56C321.226 247.595 320.889 248.619 320.929 249.669C320.985 251.12 321.761 252.437 322.143 253.836C322.389 254.883 322.528 255.952 322.558 257.027C322.662 258.697 323.568 260.571 322.929 262.118C320.944 267.02 321.905 272.556 320.774 277.703C320.191 280.345 318.406 282.827 318.547 285.529C318.646 287.446 318.814 289.358 319.052 291.265C319.109 291.867 319.266 292.455 319.516 293.005C319.664 293.295 319.834 293.573 320.024 293.837C319.861 293.9 319.723 294.067 319.605 294.419C319.3 295.347 319.605 296.497 320.428 297.017C320.764 297.196 321.126 297.321 321.501 297.388C322.005 297.531 322.527 297.604 323.052 297.603C323.215 297.594 323.377 297.574 323.538 297.543C324.111 297.784 324.697 297.995 325.293 298.174C325.293 298.326 325.323 298.479 325.341 298.631C325.342 298.71 325.36 298.789 325.393 298.861C325.426 298.933 325.475 298.997 325.534 299.05C325.627 299.093 325.729 299.111 325.831 299.102H327.846C327.846 298.935 327.846 298.764 327.846 298.597C328.077 298.621 328.31 298.597 328.53 298.525C328.751 298.454 328.954 298.337 329.126 298.182C329.305 297.955 329.431 297.691 329.497 297.41C330.046 295.547 330.592 293.683 331.134 291.818C331.783 289.756 332.053 287.594 331.931 285.436C331.215 278.597 332.788 271.736 332.276 264.879C331.968 260.758 332.18 256.614 332.907 252.545C333.074 251.625 333.278 250.69 333.352 249.773C333.516 248.044 333.315 246.296 333.438 244.578C333.479 243.977 333.56 243.38 333.634 242.783C334.143 239.075 334.409 235.338 334.432 231.595C334.421 230.355 334.344 229.116 334.202 227.884C334.589 227.786 334.94 227.58 335.215 227.291C335.545 226.86 335.46 226.256 335.456 225.706C335.456 224.393 336.009 223.153 336.455 221.914C337.026 220.205 337.494 218.463 337.857 216.697C338.24 215.274 338.45 213.81 338.48 212.337C338.48 212.189 338.473 212.04 338.458 211.892C338.598 211.795 338.715 211.668 338.8 211.521C338.896 211.303 338.957 211.071 338.978 210.834C339.111 209.888 339.249 208.938 339.382 207.988C339.481 207.308 339.579 206.629 339.675 205.951L340.855 197.717C340.955 197.001 341.059 196.289 341.16 195.576L341.468 193.446C341.501 193.194 341.538 192.942 341.564 192.704C342.469 191.19 341.605 189.172 341.508 187.45ZM331.664 218.278C331.226 217.239 330.818 216.174 330.922 215.053H330.881C330.979 214.708 330.962 214.341 330.833 214.007C330.718 213.736 330.518 213.506 330.395 213.235C330.264 212.904 330.196 212.552 330.195 212.196C330.103 209.939 330.281 207.68 330.725 205.465C330.774 205.205 330.826 204.942 330.874 204.682C331.029 204.592 331.172 204.481 331.297 204.352C331.492 204.129 331.653 203.879 331.775 203.61C332.195 202.767 332.577 201.91 332.929 201.038C333.044 200.756 333.211 200.43 333.497 200.359C333.438 202.53 333.66 204.745 332.777 206.704C332.61 207.02 332.485 207.357 332.406 207.706C332.325 208.259 332.555 208.819 332.473 209.369C332.432 209.654 332.31 209.918 332.262 210.2C332.225 210.338 332.226 210.484 332.263 210.622C332.301 210.76 332.375 210.886 332.477 210.986C332.526 211.021 332.58 211.048 332.636 211.068C332.614 211.216 332.596 211.369 332.581 211.513C332.551 211.818 332.536 212.103 332.518 212.281C332.432 213.189 332.399 214.101 332.417 215.012C332.417 215.996 332.455 216.979 332.44 217.981C332.453 218.269 332.405 218.556 332.299 218.823C332.225 218.961 332.13 219.086 332.017 219.194C331.909 218.86 331.79 218.567 331.664 218.278Z" fill="url(#paint0_linear)"/>
<path d="M302.374 175.224C303.506 174.992 303.891 172.204 303.234 168.998C302.577 165.792 301.127 163.381 299.995 163.613C298.862 163.845 298.477 166.632 299.134 169.838C299.791 173.045 301.241 175.456 302.374 175.224Z" fill="#FBBEBE"/>
<path d="M319.664 294.49C319.36 295.41 319.664 296.56 320.488 297.061C320.822 297.239 321.181 297.364 321.553 297.432C322.056 297.575 322.577 297.646 323.1 297.644C323.742 297.614 324.358 297.362 325 297.273C325.074 297.254 325.152 297.265 325.219 297.303C325.251 297.337 325.275 297.378 325.289 297.423C325.303 297.468 325.307 297.516 325.301 297.562C325.307 297.927 325.335 298.291 325.382 298.653C325.383 298.733 325.4 298.811 325.433 298.884C325.467 298.956 325.515 299.02 325.575 299.073C325.668 299.116 325.77 299.134 325.872 299.124H327.883C327.929 297.358 327.735 295.593 327.308 293.878C327.28 293.746 327.23 293.621 327.16 293.507C326.989 293.32 326.765 293.19 326.518 293.136C326.026 292.931 325.495 292.838 324.963 292.865C324.313 292.95 323.772 293.369 323.219 293.718C322.666 294.067 321.913 294.375 321.241 294.197C320.57 294.019 320.009 293.458 319.664 294.49Z" fill="#3F3D56"/>
<path d="M290.135 292.86C289.57 293.466 288.876 293.937 288.105 294.241L287.764 294.404C287.717 294.422 287.676 294.454 287.649 294.497C287.642 294.526 287.642 294.555 287.649 294.584C287.655 294.613 287.668 294.64 287.686 294.664C287.97 295.103 288.39 295.438 288.882 295.616C289.373 295.795 289.91 295.809 290.41 295.654C290.631 295.599 290.835 295.492 291.007 295.343C291.29 295.007 291.452 294.586 291.467 294.148C291.58 293.696 291.56 293.22 291.412 292.779C290.896 291.617 290.707 292.144 290.135 292.86Z" fill="#FBBEBE"/>
<path d="M297.846 297.432C297.857 297.572 297.836 297.713 297.783 297.844C297.608 298.185 297.122 298.166 296.744 298.092C296.686 296.833 296.534 295.58 296.287 294.344C295.567 294.311 295.048 294.994 294.662 295.606L293.668 297.183C293.524 297.455 293.321 297.69 293.074 297.873C292.875 297.982 292.657 298.051 292.432 298.077C290.532 298.393 288.614 297.795 286.781 297.202C286.511 297.129 286.252 297.019 286.013 296.875C285.686 296.635 285.464 296.277 285.395 295.878C285.326 295.478 285.414 295.067 285.642 294.73C286.41 293.691 288.135 293.988 289.093 293.127C288.993 293.733 288.828 294.326 288.603 294.897C289.883 294.704 290.744 293.532 291.775 292.749C292.034 292.529 292.347 292.381 292.681 292.319C292.931 292.298 293.183 292.324 293.423 292.396C294.612 292.696 295.725 293.243 296.688 294.003C297.078 294.311 297.686 294.745 297.857 295.22C298.039 295.788 297.846 296.827 297.846 297.432Z" fill="#3F3D56"/>
<path d="M323.371 175.005C327.605 175.005 331.037 171.573 331.037 167.339C331.037 163.105 327.605 159.673 323.371 159.673C319.137 159.673 315.705 163.105 315.705 167.339C315.705 171.573 319.137 175.005 323.371 175.005Z" fill="#FBBEBE"/>
<path d="M338.473 212.601C338.442 214.066 338.234 215.523 337.853 216.938C337.49 218.696 337.022 220.431 336.451 222.133C336.009 223.369 335.456 224.608 335.46 225.918C335.46 226.463 335.549 227.068 335.215 227.499C334.918 227.801 334.543 228.015 334.132 228.118C333.926 228.173 333.737 228.275 333.578 228.416C333.42 228.557 333.297 228.733 333.219 228.931C332.87 228.41 332.61 227.836 332.447 227.231C331.782 225.193 331.163 223.144 330.592 221.083C330.539 220.964 330.517 220.835 330.526 220.706C330.535 220.576 330.575 220.451 330.644 220.341C330.738 220.259 330.848 220.197 330.966 220.159C331.347 220.004 331.695 219.78 331.994 219.499C332.135 219.374 332.25 219.224 332.336 219.057C332.444 218.791 332.493 218.505 332.48 218.218C332.48 217.235 332.48 216.255 332.454 215.272C332.439 214.364 332.474 213.456 332.558 212.552C332.558 212.374 332.592 212.088 332.621 211.784C332.677 211.202 332.788 210.526 333.104 210.3C333.575 209.985 334.985 210.408 335.519 210.482C336.44 210.608 337.375 210.756 338.273 210.931C338.403 211.478 338.47 212.038 338.473 212.601Z" fill="#3F3D56"/>
<path d="M307.519 175.921C307.222 176.515 306.51 176.8 305.961 177.175L304.079 178.466C303.954 178.58 303.806 178.666 303.646 178.721C303.486 178.776 303.317 178.798 303.148 178.786C302.995 178.729 302.855 178.642 302.736 178.531C302.616 178.419 302.521 178.285 302.454 178.136C302.455 178.126 302.455 178.116 302.454 178.106L302.065 177.453L300.209 174.344C300.003 174.066 299.883 173.733 299.864 173.387C299.864 173.227 299.92 173.079 299.935 172.919C299.94 172.471 299.81 172.032 299.564 171.658C299.415 171.379 299.118 171.149 299.126 170.837C299.112 170.428 299.182 170.02 299.334 169.639C299.528 169.287 299.808 168.988 300.146 168.771C300.321 168.645 300.499 168.526 300.684 168.4C300.783 168.332 300.892 168.282 301.007 168.251C301.315 168.188 301.619 168.444 301.931 168.455C303.271 169.353 303.786 171.053 304.84 172.277C305.434 172.975 305.493 173.509 306.165 174.132C306.272 174.229 306.376 174.333 306.476 174.44C306.609 174.585 306.722 174.748 306.81 174.923C306.933 175.242 307.671 175.617 307.519 175.921Z" fill="#3F3D56"/>
<path d="M320.677 175.009C321.23 176.178 321.66 177.462 321.501 178.745C321.468 179.093 321.358 179.429 321.178 179.729C320.644 180.549 319.523 180.697 318.547 180.745C318.341 180.728 318.134 180.752 317.938 180.816C317.742 180.879 317.56 180.982 317.404 181.116C317.274 181.306 317.21 181.533 317.223 181.763C317.236 181.993 317.324 182.212 317.475 182.385C317.788 182.72 318.178 182.975 318.61 183.128C320.154 183.807 321.82 184.367 323.497 184.211C324.276 184.137 325.033 183.911 325.809 183.796C326.654 183.704 327.504 183.657 328.354 183.654C329.363 183.617 330.369 183.517 331.375 183.417L334.039 183.154C334.184 183.156 334.326 183.104 334.436 183.009C334.632 182.779 334.38 182.441 334.135 182.267C332.722 181.22 330.922 180.5 330.117 178.927C329.746 178.185 329.631 177.302 329.356 176.5C329.081 175.699 328.644 174.975 328.473 174.159C328.382 173.443 328.341 172.721 328.35 172C328.36 171.272 328.095 170.567 327.608 170.025C327.078 169.532 326.31 169.406 325.59 169.376C323.816 169.298 321.927 169.721 320.67 170.972C320.332 171.309 320.042 171.714 319.694 172.018C319.345 172.322 318.87 172.411 319.1 172.812C319.33 173.213 319.783 173.462 320.028 173.814C320.275 174.194 320.493 174.594 320.677 175.009Z" fill="#FBBEBE"/>
<path d="M335.79 185.802C335.322 188.66 334.561 191.461 333.519 194.162C332.995 195.382 332.549 196.634 332.183 197.91C331.898 199.06 331.953 200.292 331.69 201.446C331.363 202.882 331.037 204.322 330.773 205.769C330.331 207.979 330.155 210.233 330.247 212.485C330.247 212.84 330.315 213.191 330.447 213.52C330.569 213.788 330.766 214.018 330.881 214.292C330.967 214.533 331.002 214.79 330.984 215.045C330.967 215.301 330.896 215.55 330.777 215.776C330.587 216.201 330.329 216.592 330.013 216.934C326.554 217.966 322.855 217.628 319.252 217.847C315.931 218.047 312.573 218.73 309.3 218.162C308.929 216.678 309.549 215.123 310.079 213.676C311.619 209.472 313.322 205.094 313.048 200.689C313.019 200.175 312.961 199.664 312.874 199.157C312.335 196.036 312.922 192.804 313.861 189.78C314.443 187.895 314.417 185.888 314.284 183.925C314.217 183.287 314.209 182.645 314.258 182.006C314.311 181.354 314.554 180.731 314.955 180.214C314.955 180.188 314.989 180.162 315.007 180.136C315.026 180.11 315.17 180.114 315.285 180.136C315.315 180.149 315.346 180.155 315.378 180.155C315.41 180.155 315.442 180.149 315.471 180.136L315.512 180.11C315.527 180.099 315.546 180.093 315.566 180.093C315.585 180.093 315.604 180.099 315.619 180.11C315.705 180.162 315.753 180.34 315.938 180.374C316.213 180.415 316.489 180.441 316.766 180.452C317.099 180.462 317.43 180.509 317.753 180.593H317.797C318.28 180.674 318.775 180.632 319.237 180.47C319.545 180.393 319.841 180.279 320.12 180.129C320.202 180.04 320.714 179.958 320.818 179.895C321.156 179.691 321.081 178.734 321.152 178.34C321.191 177.946 321.284 177.559 321.43 177.19C321.599 176.918 321.832 176.691 322.109 176.53C322.386 176.369 322.698 176.279 323.018 176.266C323.657 176.251 324.296 176.308 324.922 176.437C326.306 176.633 327.723 176.6 329.081 176.919C329.764 177.079 330.51 177.32 331.137 177.008C331.308 177.049 331.334 177.197 331.334 177.379C331.318 177.552 331.283 177.722 331.23 177.888C330.992 178.912 331.798 179.854 332.54 180.596C332.853 180.946 333.223 181.241 333.634 181.468C334.005 181.639 334.376 181.71 334.747 181.895C335.048 182.055 335.303 182.289 335.49 182.574C335.703 182.901 335.847 183.269 335.913 183.654C335.992 184.372 335.951 185.098 335.79 185.802Z" fill="#3F3D56"/>
<path opacity="0.1" d="M335.79 185.802C335.322 188.66 334.561 191.461 333.519 194.162C332.995 195.382 332.549 196.634 332.183 197.91C331.898 199.06 331.953 200.292 331.69 201.446C331.363 202.882 331.037 204.322 330.773 205.769C330.696 205.814 330.614 205.854 330.532 205.892C330.071 206.112 329.581 206.269 329.078 206.359C328.173 206.469 327.257 206.439 326.362 206.27L321.067 205.561C318.951 205.276 316.699 204.931 315.13 203.498C314.258 202.712 313.686 201.673 313.059 200.671C313.03 200.157 312.972 199.645 312.885 199.138C312.347 196.018 312.933 192.786 313.872 189.762C314.454 187.877 314.428 185.869 314.295 183.906C314.229 183.269 314.22 182.627 314.269 181.988C314.322 181.335 314.565 180.713 314.966 180.196C315.075 180.164 315.185 180.139 315.297 180.121C315.371 180.106 315.447 180.096 315.523 180.092H315.631C315.756 180.092 315.88 180.107 316.002 180.136C316.254 180.217 316.502 180.312 316.744 180.422H316.788C317.106 180.527 317.44 180.575 317.775 180.563C318.265 180.563 318.77 180.485 319.259 180.452C319.865 180.357 320.484 180.468 321.018 180.767C321.363 181.044 321.69 181.343 321.998 181.661C322.369 181.953 322.787 182.18 323.234 182.333C326.428 183.552 329.971 183.478 333.111 182.125C333.413 181.954 333.755 181.867 334.102 181.873C334.358 181.923 334.601 182.027 334.814 182.177C335.037 182.307 335.256 182.433 335.482 182.548C335.696 182.875 335.84 183.243 335.905 183.628C335.99 184.354 335.951 185.089 335.79 185.802Z" fill="black"/>
<path d="M339.022 183.346C337.545 182.895 336.125 182.272 334.792 181.491C334.578 181.341 334.336 181.238 334.08 181.187C333.732 181.182 333.389 181.269 333.085 181.439C329.946 182.791 326.404 182.866 323.211 181.647C322.765 181.492 322.348 181.265 321.976 180.975C321.667 180.658 321.34 180.359 320.996 180.081C319.775 179.29 318.087 180.218 316.721 179.71C316.479 179.602 316.231 179.506 315.979 179.424C314.899 179.153 313.801 180.229 312.74 179.903C312.345 180.976 312.053 182.084 311.868 183.213C311.717 184.508 311.637 185.812 311.627 187.116C311.627 187.899 311.59 188.682 311.627 189.465C311.758 189.486 311.882 189.535 311.994 189.607C312.105 189.679 312.2 189.773 312.272 189.884C312.321 190.014 312.341 190.152 312.331 190.29C312.321 190.427 312.28 190.561 312.213 190.682C311.438 192.675 310.651 194.689 309.475 196.474C310.304 196.968 311.073 197.556 311.768 198.226C313.066 199.599 313.705 201.524 315.107 202.793C316.688 204.222 318.94 204.571 321.044 204.853L326.339 205.562C327.236 205.729 328.153 205.761 329.059 205.654C329.562 205.563 330.05 205.404 330.51 205.183C330.811 205.057 331.085 204.876 331.319 204.649C331.515 204.427 331.676 204.176 331.798 203.907C332.217 203.068 332.599 202.211 332.952 201.343C333.074 201.035 333.26 200.675 333.594 200.649C335.56 198.875 337.415 197.057 339.382 195.283C340.172 194.628 340.881 193.881 341.493 193.057C342.469 191.613 341.582 189.569 341.493 187.825C341.483 187.379 341.427 186.935 341.326 186.5C341.007 185.235 340.258 183.721 339.022 183.346Z" fill="#34ADBE"/>
<path opacity="0.1" d="M307.519 175.921C307.222 176.515 306.51 176.801 305.961 177.176L304.079 178.467C303.954 178.58 303.806 178.667 303.646 178.722C303.486 178.777 303.317 178.798 303.148 178.786C302.995 178.73 302.855 178.643 302.736 178.531C302.616 178.42 302.521 178.286 302.454 178.137C302.454 178.051 302.454 177.959 302.454 177.87C302.44 177.569 302.48 177.269 302.573 176.983C302.757 176.563 303.043 176.196 303.404 175.914C304.103 175.253 304.934 174.747 305.842 174.43C305.984 174.375 306.138 174.359 306.287 174.385C306.345 174.4 306.4 174.424 306.45 174.456C306.583 174.601 306.696 174.763 306.784 174.938C306.933 175.242 307.671 175.617 307.519 175.921Z" fill="black"/>
<path d="M311.95 179.833C311.319 179.803 310.803 179.347 310.343 178.913L308.937 177.606C308.843 177.527 308.76 177.434 308.692 177.332C308.616 177.188 308.558 177.034 308.521 176.875C308.223 176.126 307.756 175.455 307.156 174.916C307.051 174.783 306.911 174.683 306.751 174.627C306.6 174.599 306.445 174.614 306.302 174.671C305.394 174.988 304.563 175.494 303.864 176.156C303.503 176.438 303.218 176.805 303.033 177.224C302.94 177.51 302.9 177.811 302.914 178.111C302.923 179.091 303.143 180.058 303.56 180.946C303.623 181.083 303.694 181.221 303.768 181.354C304.263 182.172 304.848 182.933 305.512 183.621L306.395 184.608C307.263 185.58 308.131 186.553 309.074 187.447C309.412 187.807 309.821 188.093 310.276 188.286C310.505 188.379 310.754 188.407 310.998 188.368C311.241 188.329 311.469 188.223 311.657 188.063C311.834 187.857 311.968 187.617 312.05 187.358C312.621 185.874 313.163 184.33 313.196 182.731C313.204 182.09 313.177 181.45 313.115 180.812C313.059 180.137 312.58 179.874 311.95 179.833Z" fill="#34ADBE"/>
<path d="M334.436 231.781C334.414 235.513 334.149 239.24 333.642 242.938C333.568 243.536 333.486 244.133 333.445 244.731C333.323 246.463 333.523 248.204 333.36 249.925C333.275 250.857 333.082 251.781 332.918 252.69C332.193 256.747 331.981 260.88 332.288 264.99C332.8 271.829 331.23 278.671 331.942 285.491C332.029 286.818 331.955 288.149 331.724 289.458C331.591 290.27 331.398 291.071 331.148 291.855C330.607 293.713 330.062 295.568 329.516 297.421C329.451 297.703 329.325 297.967 329.145 298.193C328.955 298.356 328.733 298.478 328.493 298.549C328.253 298.62 328.001 298.639 327.753 298.605C325.612 298.538 323.597 297.614 321.653 296.712C321.429 296.624 321.222 296.499 321.041 296.341C320.636 295.922 320.67 295.261 320.492 294.709C320.313 294.156 319.831 293.636 319.556 293.068C319.331 292.531 319.194 291.961 319.152 291.38C318.905 289.48 318.736 287.573 318.647 285.658C318.506 282.965 320.287 280.486 320.874 277.866C321.987 272.716 321.044 267.194 323.022 262.308C323.646 260.764 322.74 258.894 322.651 257.232C322.619 256.159 322.48 255.093 322.236 254.048C321.864 252.653 321.082 251.339 321.026 249.892C320.985 248.846 321.323 247.825 321.497 246.794C321.729 245.276 321.707 243.73 321.434 242.218C321.237 240.972 320.937 239.725 320.636 238.508L320.569 238.645C319.665 240.412 318.888 242.241 318.243 244.118C317.946 245.027 317.686 245.955 317.315 246.838C317.011 247.58 316.636 248.259 316.269 248.957C314.951 251.417 313.804 253.965 312.837 256.582C312.376 257.866 311.972 259.18 311.571 260.467L308.822 269.373C308.08 271.714 307.267 273.977 306.54 276.315C305.512 279.655 304.484 282.964 303.289 286.23C302.176 289.328 300.851 292.538 301.248 295.811C300.225 296.291 299.102 296.519 297.972 296.475C296.06 296.306 294.183 295.85 292.406 295.124C291.697 294.861 290.963 294.564 290.484 293.981C289.66 292.976 289.864 291.503 290.113 290.222C290.207 289.645 290.356 289.079 290.558 288.53C290.84 287.848 291.3 287.243 291.59 286.567C292.172 285.272 292.209 283.807 292.439 282.4C292.67 280.994 293.182 279.51 294.384 278.746C294.588 276.274 295.605 273.836 296.165 271.421C296.588 269.592 296.729 267.71 297.063 265.855C297.397 264 297.935 262.144 299.055 260.642C298.967 259.092 299.317 257.549 300.065 256.189C300.245 255.89 300.393 255.573 300.506 255.243C300.575 254.92 300.615 254.592 300.625 254.263C300.748 252.974 301.299 251.763 302.191 250.823C301.82 249.469 302.336 248.055 302.799 246.742C303.384 245.065 303.648 243.295 303.579 241.521C303.521 241.026 303.545 240.524 303.649 240.037C303.753 239.666 303.957 239.35 304.076 238.994C304.182 238.558 304.238 238.111 304.243 237.662C304.388 235.654 305.2 233.762 306.098 231.97C306.632 230.923 306.18 229.502 306.291 228.337C306.484 226.4 306.696 224.396 307.657 222.708C307.835 222.389 308.028 222.085 308.187 221.754C308.381 221.283 308.485 220.78 308.495 220.27C308.529 219.421 308.647 218.716 308.343 217.925C310.328 216.274 313.037 215.81 315.62 215.699C318.202 215.587 320.814 215.821 323.341 215.272C324.083 215.105 324.826 214.875 325.608 214.764C327.386 214.504 329.189 214.908 330.944 215.309C330.822 216.422 331.23 217.491 331.686 218.526C333.468 222.72 334.403 227.224 334.436 231.781Z" fill="#33313F"/>
<path opacity="0.1" d="M325.697 232.63L321.434 242.218C321.237 240.971 320.937 239.725 320.636 238.507L320.569 238.645V238.444L322.892 233.335L325.697 232.63Z" fill="black"/>
<path opacity="0.1" d="M338.473 212.601C338.227 212.785 337.933 212.894 337.627 212.916C337.157 212.933 336.688 212.869 336.239 212.727L332.9 211.892C332.795 211.866 332.693 211.83 332.595 211.784C332.651 211.202 332.762 210.526 333.078 210.3C333.549 209.985 334.959 210.408 335.493 210.482C336.414 210.608 337.349 210.756 338.247 210.931C338.386 211.477 338.462 212.037 338.473 212.601Z" fill="black"/>
<path d="M341.297 190.522C341.367 190.83 341.468 191.135 341.527 191.446C341.627 192.211 341.6 192.987 341.449 193.743L341.145 195.866L340.84 197.999L339.664 206.211L339.375 208.244L338.967 211.083C338.947 211.319 338.887 211.55 338.789 211.766C338.667 211.967 338.497 212.136 338.294 212.255C338.092 212.375 337.862 212.443 337.627 212.452C337.157 212.467 336.688 212.403 336.239 212.263L332.9 211.424C332.753 211.398 332.614 211.341 332.492 211.257C332.39 211.158 332.316 211.032 332.278 210.895C332.24 210.757 332.24 210.612 332.276 210.474C332.325 210.192 332.447 209.929 332.488 209.647C332.57 209.098 332.339 208.534 332.421 207.988C332.501 207.641 332.626 207.305 332.792 206.99C333.905 204.53 333.26 201.658 333.638 198.986C333.979 196.884 334.867 194.908 336.213 193.257C337.044 192.215 337.999 191.278 339.056 190.467C339.471 190.144 340.132 189.48 340.655 189.354C341.327 189.213 341.186 190.055 341.297 190.522Z" fill="#34ADBE"/>
<path d="M316.024 158.559C315.779 159.339 316.161 160.196 315.987 160.99C315.798 161.866 314.974 162.474 314.74 163.353C314.369 164.693 315.505 165.914 316.336 167.027C319.415 171.161 319.011 176.882 317.957 181.925C317.109 185.971 315.937 189.942 314.451 193.799C313.987 194.997 313.475 196.215 312.562 197.112C314.269 196.623 316.083 196.129 317.794 196.604C319.961 197.205 321.831 199.309 324.028 198.83C325.349 198.537 326.276 197.365 327.464 196.715C329.69 195.517 332.373 196.27 334.855 196.656C335.39 196.782 335.95 196.754 336.469 196.574C336.866 196.361 337.203 196.051 337.449 195.673C338.557 194.251 339.22 192.535 339.356 190.738C339.415 189.843 339.283 188.946 338.969 188.106C338.655 187.266 338.166 186.502 337.534 185.866C337.007 185.368 336.377 184.968 335.972 184.381C335.579 183.697 335.368 182.922 335.36 182.133C335.067 178.051 336.061 173.884 335.037 169.936C334.666 168.53 334.061 167.183 333.898 165.743C333.694 163.951 334.18 162.033 333.467 160.392C332.907 159.09 331.672 158.166 330.339 157.691C329.007 157.216 327.582 157.083 326.169 156.949C324.135 156.778 316.874 155.906 316.024 158.559Z" fill="#33313F"/>
<g opacity="0.1">
<path opacity="0.1" d="M317.957 181.925C317.113 185.954 315.947 189.909 314.469 193.751C314.725 193.243 314.94 192.708 315.145 192.178C316.632 188.321 317.805 184.35 318.651 180.304C319.709 175.257 320.113 169.543 317.033 165.406C316.291 164.419 315.338 163.35 315.371 162.192C315.097 162.543 314.883 162.936 314.74 163.358C314.369 164.697 315.504 165.918 316.336 167.031C319.415 171.161 319.011 176.883 317.957 181.925Z" fill="black"/>
<path opacity="0.1" d="M316.031 160.615C316.329 160.246 316.551 159.821 316.684 159.365C316.742 158.814 316.727 158.257 316.64 157.71C316.354 157.925 316.139 158.221 316.024 158.56C315.805 159.216 316.057 159.929 316.031 160.615Z" fill="black"/>
<path opacity="0.1" d="M338.147 194.041C337.901 194.418 337.564 194.727 337.167 194.939C336.648 195.122 336.087 195.15 335.553 195.02C333.071 194.649 330.358 193.885 328.161 195.083C326.97 195.729 326.046 196.902 324.722 197.198C322.529 197.688 320.659 195.584 318.492 194.972C316.955 194.545 315.338 194.898 313.79 195.343C313.483 195.999 313.068 196.598 312.562 197.117C314.269 196.627 316.083 196.133 317.794 196.608C319.961 197.21 321.831 199.313 324.028 198.835C325.349 198.542 326.276 197.369 327.464 196.72C329.69 195.521 332.373 196.274 334.855 196.66C335.39 196.787 335.95 196.758 336.469 196.579C336.867 196.365 337.203 196.055 337.449 195.677C338.122 194.79 338.641 193.797 338.985 192.738C338.737 193.192 338.457 193.627 338.147 194.041Z" fill="black"/>
</g>
</g>
<defs>
<linearGradient id="paint0_linear" x1="285.196" y1="227.654" x2="341.968" y2="227.654" gradientUnits="userSpaceOnUse">
<stop stop-color="#808080" stop-opacity="0.25"/>
<stop offset="0.54" stop-color="#808080" stop-opacity="0.12"/>
<stop offset="1" stop-color="#808080" stop-opacity="0.1"/>
</linearGradient>
<clipPath id="clip0">
<rect width="432.718" height="298.736" fill="white" transform="translate(0 0.410156)"/>
</clipPath>
</defs>
</svg>
