<svg width="77" height="20" viewBox="0 0 77 20" fill="none" xmlns="http://www.w3.org/2000/svg">
<path d="M33.7217 14.7588L37.3779 4.20312H39.2236L34.4775 17H32.9834L28.2461 4.20312H30.083L33.7217 14.7588ZM46.1582 17C46.0645 16.8125 45.9883 16.4785 45.9297 15.998C45.1738 16.7832 44.2715 17.1758 43.2227 17.1758C42.2852 17.1758 41.5146 16.9121 40.9111 16.3848C40.3135 15.8516 40.0146 15.1777 40.0146 14.3633C40.0146 13.373 40.3896 12.6055 41.1396 12.0605C41.8955 11.5098 42.9561 11.2344 44.3213 11.2344H45.9033V10.4873C45.9033 9.91895 45.7334 9.46777 45.3936 9.13379C45.0537 8.79395 44.5527 8.62402 43.8906 8.62402C43.3105 8.62402 42.8242 8.77051 42.4316 9.06348C42.0391 9.35645 41.8428 9.71094 41.8428 10.127H40.208C40.208 9.65234 40.375 9.19531 40.709 8.75586C41.0488 8.31055 41.5059 7.95898 42.0801 7.70117C42.6602 7.44336 43.2959 7.31445 43.9873 7.31445C45.083 7.31445 45.9414 7.58984 46.5625 8.14062C47.1836 8.68555 47.5059 9.43848 47.5293 10.3994V14.7764C47.5293 15.6494 47.6406 16.3438 47.8633 16.8594V17H46.1582ZM43.46 15.7607C43.9697 15.7607 44.4531 15.6289 44.9102 15.3652C45.3672 15.1016 45.6982 14.7588 45.9033 14.3369V12.3857H44.6289C42.6367 12.3857 41.6406 12.9688 41.6406 14.1348C41.6406 14.6445 41.8105 15.043 42.1504 15.3301C42.4902 15.6172 42.9268 15.7607 43.46 15.7607ZM51.8447 17H50.2188V3.5H51.8447V17ZM54.0244 12.1572C54.0244 11.2256 54.2061 10.3877 54.5693 9.64355C54.9385 8.89941 55.4482 8.3252 56.0986 7.9209C56.7549 7.5166 57.502 7.31445 58.3398 7.31445C59.6348 7.31445 60.6807 7.7627 61.4775 8.65918C62.2803 9.55566 62.6816 10.748 62.6816 12.2363V12.3506C62.6816 13.2764 62.5029 14.1084 62.1455 14.8467C61.7939 15.5791 61.2871 16.1504 60.625 16.5605C59.9688 16.9707 59.2129 17.1758 58.3574 17.1758C57.0684 17.1758 56.0225 16.7275 55.2197 15.8311C54.4229 14.9346 54.0244 13.748 54.0244 12.2715V12.1572ZM55.6592 12.3506C55.6592 13.4053 55.9023 14.252 56.3887 14.8906C56.8809 15.5293 57.5371 15.8486 58.3574 15.8486C59.1836 15.8486 59.8398 15.5264 60.3262 14.8818C60.8125 14.2314 61.0557 13.3232 61.0557 12.1572C61.0557 11.1143 60.8066 10.2705 60.3086 9.62598C59.8164 8.97559 59.1602 8.65039 58.3398 8.65039C57.5371 8.65039 56.8896 8.96973 56.3975 9.6084C55.9053 10.2471 55.6592 11.1611 55.6592 12.3506ZM69.3174 8.94922C69.0713 8.9082 68.8047 8.8877 68.5176 8.8877C67.4512 8.8877 66.7275 9.3418 66.3467 10.25V17H64.7207V7.49023H66.3027L66.3291 8.58887C66.8623 7.73926 67.6182 7.31445 68.5967 7.31445C68.9131 7.31445 69.1533 7.35547 69.3174 7.4375V8.94922Z" fill="white"/>
<path d="M19.0823 1.84449L15.6018 0.14016C15.22 -0.0467507 14.7821 -0.0467048 14.4003 0.140206L12.7292 0.958326C12.5799 1.03151 12.5092 1.23307 12.5714 1.40864C12.6337 1.58421 12.8051 1.66731 12.9546 1.59413L14.6257 0.775961C14.8641 0.659159 15.1378 0.659113 15.3765 0.775915L18.8569 2.48015C19.1954 2.64613 19.4142 3.01935 19.4142 3.43087V18.1574C19.4142 18.7301 18.9957 19.1959 18.4814 19.1959H18.0064C17.8445 19.1959 17.7134 19.3501 17.7134 19.5403C17.7134 19.7305 17.8445 19.8846 18.0064 19.8846H18.4814C19.3188 19.8846 20.0001 19.1098 20.0001 18.1574V3.43087C20.0001 2.74052 19.6399 2.11785 19.0823 1.84449Z" fill="white"/>
<path d="M16.7293 19.1966H11.8066C12.0093 18.9258 12.1203 18.5822 12.1203 18.2187C12.1203 17.8558 12.0086 17.5233 11.8236 17.2654C11.9402 17.1955 12.0482 17.104 12.1435 16.992C12.3815 16.7123 12.5125 16.3403 12.5125 15.9446C12.5125 15.5674 12.3917 15.2228 12.1935 14.961C12.2916 14.8957 12.383 14.8147 12.4649 14.7184C12.7029 14.4387 12.8339 14.0668 12.8339 13.671C12.8339 13.2949 12.7139 12.9512 12.5168 12.6896C12.6166 12.6238 12.7096 12.5418 12.7929 12.4441C13.0307 12.1639 13.1617 11.7921 13.1617 11.3969C13.1617 10.5799 12.5964 9.91528 11.9015 9.91528H10.5878V3.43147C10.5878 3.01991 10.8066 2.64668 11.145 2.4808L11.6778 2.22002C11.8272 2.14692 11.8979 1.94537 11.8357 1.76975C11.7734 1.59418 11.602 1.51099 11.4526 1.58422L10.9195 1.84509C10.3621 2.11841 10.0019 2.74113 10.0019 3.43147V9.91532H8.77777C9.18539 8.4013 9.1507 6.82121 8.675 4.98732C8.60273 4.70959 8.45898 4.47172 8.25918 4.29941C8.06055 4.12815 7.82516 4.03757 7.5784 4.03757C7.26051 4.03757 6.96492 4.18678 6.74602 4.45771C6.52723 4.7286 6.41582 5.08323 6.4323 5.45623C6.52391 7.52676 5.71133 8.23941 4.58668 9.22585C4.21641 9.55059 3.81172 9.90577 3.41398 10.3413V9.89002C3.41398 9.69981 3.28285 9.54568 3.12102 9.54568H0.292969C0.131133 9.54568 0 9.69981 0 9.89002V19.6561C0 19.8464 0.131133 20.0005 0.292969 20.0005H3.12109C3.28293 20.0005 3.41406 19.8464 3.41406 19.6561V18.7899C3.97051 18.8521 4.37691 18.9824 4.77176 19.3381C5.03098 19.5716 5.35051 19.7002 5.67148 19.7002H10.8383C11.0494 19.8211 11.2834 19.8852 11.5207 19.8852H16.7293C16.8911 19.8852 17.0222 19.7311 17.0222 19.5409C17.0222 19.3507 16.8911 19.1966 16.7293 19.1966ZM5.1282 18.7915C4.57578 18.2939 3.98539 18.1557 3.41406 18.0977V14.0769C3.41406 13.8866 3.28293 13.7325 3.12109 13.7325C2.95926 13.7325 2.82812 13.8866 2.82812 14.0769V19.3118H0.585938V10.2344H2.82812V12.5765C2.82812 12.7667 2.95926 12.9208 3.12109 12.9208C3.28293 12.9208 3.41406 12.7667 3.41406 12.5765V11.3196C3.90414 10.6839 4.42891 10.2237 4.93719 9.77786C6.06254 8.79087 7.12543 7.85857 7.01758 5.42051C7.00949 5.238 7.06398 5.0645 7.17109 4.93195C7.2782 4.79931 7.42289 4.7263 7.57852 4.7263C7.69973 4.7263 7.81523 4.7707 7.91262 4.85472C8.00984 4.93856 8.07973 5.05408 8.11473 5.18855C8.59922 7.05652 8.59164 8.62811 8.09086 10.1345C8.05562 10.2404 8.06723 10.36 8.1218 10.454C8.17637 10.548 8.26691 10.6042 8.36371 10.6042H11.9016C12.2734 10.6042 12.5758 10.9598 12.5758 11.3971C12.5758 11.6085 12.5056 11.8076 12.3786 11.9572C12.2509 12.107 12.0815 12.1895 11.9016 12.1895H10.698C10.5362 12.1895 10.4051 12.3436 10.4051 12.5339C10.4051 12.7241 10.5362 12.8782 10.698 12.8782H11.5738C11.9456 12.8782 12.248 13.2339 12.248 13.6712C12.248 13.883 12.178 14.082 12.0506 14.2316C11.9234 14.3813 11.754 14.4636 11.5738 14.4636H10.698C10.5362 14.4636 10.4051 14.6178 10.4051 14.808C10.4051 14.9982 10.5362 15.1523 10.698 15.1523H11.2523C11.6241 15.1523 11.9266 15.5078 11.9266 15.9448C11.9266 16.1565 11.8564 16.3556 11.7292 16.5052C11.6016 16.6552 11.4322 16.7377 11.2523 16.7377H10.8601H10.3765C10.2147 16.7377 10.0836 16.8918 10.0836 17.082C10.0836 17.2723 10.2147 17.4264 10.3765 17.4264H10.8601C11.2319 17.4264 11.5344 17.7819 11.5344 18.2188C11.5344 18.4306 11.4642 18.6298 11.3372 18.7794C11.2182 18.919 11.0303 19.008 10.8896 19.0109C10.8799 19.0111 5.67148 19.0117 5.67148 19.0117C5.47867 19.0115 5.2857 18.9334 5.1282 18.7915Z" fill="white"/>
<path d="M16.0582 3.58474C16.0582 2.86115 15.5573 2.27246 14.9417 2.27246C14.3261 2.27246 13.8252 2.86115 13.8252 3.58474C13.8252 4.30833 14.3261 4.89702 14.9417 4.89702C15.5573 4.89702 16.0582 4.30833 16.0582 3.58474ZM14.4111 3.58474C14.4111 3.2409 14.6491 2.96115 14.9417 2.96115C15.2342 2.96115 15.4722 3.2409 15.4722 3.58474C15.4722 3.92858 15.2342 4.20833 14.9417 4.20833C14.6491 4.20833 14.4111 3.92863 14.4111 3.58474Z" fill="white"/>
<path d="M15.1248 15.3341H14.5994C14.3226 15.3341 14.0975 15.0694 14.0975 14.7441C14.0975 14.5539 13.9663 14.3998 13.8045 14.3998C13.6426 14.3998 13.5115 14.5539 13.5115 14.7441C13.5115 15.4373 13.9832 16.0029 14.5691 16.0219V16.7839C14.5691 16.9741 14.7002 17.1283 14.8621 17.1283C15.0239 17.1283 15.155 16.9741 15.155 16.7839V16.0219C15.7409 16.0029 16.2126 15.4373 16.2126 14.7441V14.2674C16.2126 13.8251 15.9722 13.4362 15.6143 13.2995L14.2909 12.7942C14.1752 12.75 14.0975 12.6243 14.0975 12.4813V11.7987C14.0975 11.5345 14.2803 11.3196 14.5051 11.3196H15.2191C15.4439 11.3196 15.6267 11.5345 15.6267 11.7987C15.6267 11.9889 15.7579 12.1431 15.9197 12.1431C16.0816 12.1431 16.2127 11.9889 16.2127 11.7987C16.2127 11.1548 15.767 10.6309 15.2191 10.6309H15.155V9.86974C15.155 9.67952 15.0239 9.52539 14.8621 9.52539C14.7002 9.52539 14.5691 9.67952 14.5691 9.86974V10.6309H14.505C13.9572 10.6309 13.5115 11.1547 13.5115 11.7987V12.4813C13.5115 12.9236 13.7519 13.3125 14.1098 13.4492L15.4332 13.9545C15.5489 13.9987 15.6267 14.1244 15.6267 14.2674V14.7441C15.6267 15.0694 15.4016 15.3341 15.1248 15.3341Z" fill="white"/>
</svg>
