<svg width="30" height="30" viewBox="0 0 30 30" fill="none" xmlns="http://www.w3.org/2000/svg">
<path d="M18.639 22.3589C17.1888 22.3589 14.6439 21.7604 11.4329 18.5506C8.27754 15.3938 7.37941 13.4252 7.73875 10.4502C7.77949 10.0819 7.87127 9.71388 8.0189 9.32433C8.01959 9.32227 8.02028 9.32021 8.02119 9.31815C8.17866 8.916 8.39862 8.5285 8.65726 8.198C8.67076 8.18037 8.68564 8.16367 8.7012 8.14764L9.04429 7.79929C9.47001 7.3667 10.0386 7.12729 10.6453 7.125H10.6545C11.258 7.125 11.8248 7.3596 12.2518 7.78647L13.5388 9.07347C14.4198 9.95444 14.4198 11.3877 13.5388 12.2687L13.4535 12.354C13.4491 12.3582 13.4448 12.3625 13.4404 12.3666L12.9435 12.8335C13.3319 13.5399 13.7773 14.3394 14.7126 15.275C15.6514 16.2139 16.4555 16.6556 17.1646 17.0454C17.1762 17.0518 17.1879 17.0582 17.1994 17.0644L17.7672 16.4968C18.6482 15.6161 20.0812 15.6161 20.9622 16.4968L22.2002 17.7348C22.6296 18.1642 22.8644 18.7348 22.8619 19.342C22.8594 19.949 22.6195 20.5178 22.1867 20.9433L21.8379 21.2861C21.8225 21.3013 21.8061 21.3157 21.7889 21.3292C21.4566 21.5903 21.0691 21.8112 20.6685 21.9675C20.2414 22.1328 19.8695 22.2333 19.5301 22.2751L19.5182 22.2774C19.2989 22.3212 19.0036 22.3589 18.639 22.3589ZM19.5214 22.2763C19.5191 22.2765 19.5166 22.2767 19.5143 22.277C19.5154 22.277 19.5179 22.2767 19.5214 22.2763ZM9.11731 9.74432C9.00561 10.0398 8.93695 10.3138 8.90742 10.5823C8.90719 10.5843 8.90674 10.5864 8.90651 10.5884C8.63093 12.8676 9.06306 14.5161 12.2644 17.7188C15.9822 21.4354 18.5809 21.2646 19.2888 21.1239C19.3204 21.1177 19.3479 21.1122 19.3801 21.1085C19.6205 21.0804 19.9038 21.0026 20.2423 20.8716C20.5252 20.7609 20.8004 20.6061 21.0377 20.4235L21.362 20.1047C21.5696 19.9007 21.6845 19.6281 21.6857 19.337C21.687 19.0461 21.5742 18.7723 21.3684 18.5666L20.1304 17.3283C19.7081 16.906 19.021 16.906 18.5987 17.3283L17.7205 18.2063C17.536 18.3908 17.2522 18.4315 17.0233 18.307C16.995 18.2915 16.9657 18.2761 16.9359 18.2603C16.8844 18.2333 16.8315 18.2054 16.7784 18.1756C16.7214 18.1438 16.6603 18.1104 16.5981 18.0761C15.8586 17.6698 14.9382 17.164 13.8806 16.1066C12.8144 15.04 12.3061 14.1151 11.8973 13.3719C11.8662 13.3153 11.8355 13.2595 11.8051 13.2048C11.7719 13.146 11.7492 13.0984 11.7309 13.0601C11.7213 13.04 11.7119 13.0199 11.6991 12.9965C11.5691 12.7612 11.6153 12.4678 11.811 12.2838L12.6281 11.5159L12.7071 11.4369C12.9117 11.2323 13.0243 10.9604 13.0243 10.6711C13.0243 10.3818 12.9117 10.1098 12.7071 9.90523L11.4201 8.61823C11.2143 8.41246 10.939 8.30214 10.6499 8.30099C10.359 8.30214 10.0864 8.41704 9.88223 8.62418L9.56386 8.94781C9.38373 9.18356 9.22969 9.45799 9.11731 9.74432Z" fill="white"/>
<path d="M15.0528 27.6481C15.0396 27.6481 14.9638 27.6474 14.8938 27.647C14.8395 27.6465 14.7887 27.646 14.7786 27.646C14.4541 27.6454 14.1911 27.3819 14.1915 27.0574C14.192 26.7328 14.4548 26.47 14.7791 26.47C14.7873 26.47 14.8429 26.4703 14.9029 26.471C14.9675 26.4714 15.0373 26.4719 15.0508 26.4719C21.3475 26.4456 26.4717 21.2994 26.4717 15.0003C26.4717 8.67471 21.3256 3.52853 15 3.52853C8.67435 3.52853 3.52817 8.67471 3.52817 15.0003C3.52817 17.4626 4.29607 19.8087 5.74855 21.7853L6.42123 22.7004C6.52744 22.845 6.56177 23.0302 6.51462 23.2032L5.9447 25.2961L8.16531 24.5575C8.32004 24.5058 8.48895 24.5209 8.632 24.5987L9.7533 25.2085C10.0385 25.3636 10.144 25.7207 9.98882 26.0061C9.83363 26.2913 9.47635 26.3968 9.19116 26.2416L8.2944 25.7539L5.27454 26.7587C5.06877 26.8271 4.84241 26.777 4.68471 26.6277C4.52724 26.4787 4.46452 26.2554 4.52151 26.0462L5.30544 23.1682L4.80098 22.4818C3.19904 20.3019 2.35217 17.7149 2.35217 15.0003C2.35217 8.02629 8.02592 2.35254 15 2.35254C21.974 2.35254 27.6477 8.02629 27.6477 15.0003C27.6477 21.9453 21.9982 27.6188 15.054 27.6481C15.0535 27.6481 15.0533 27.6481 15.0528 27.6481Z" fill="white"/>
<path d="M15 30C12.58 30 10.1834 29.412 8.05275 28.2976L2.19589 29.8707C1.99631 29.9242 1.78322 29.8693 1.6349 29.7258C1.48636 29.5825 1.42387 29.3715 1.47034 29.1703L2.74635 23.6536C0.948715 21.1141 0 18.1281 0 15C0 10.9934 1.56029 7.22649 4.39339 4.39339C7.22649 1.56029 10.9934 0 15 0C19.0066 0 22.7735 1.56029 25.6066 4.39339C28.4397 7.22649 30 10.9934 30 15C30 19.0066 28.4397 22.7735 25.6066 25.6066C22.7735 28.4397 19.0066 30 15 30ZM8.12462 27.0813C8.22189 27.0813 8.31848 27.1056 8.40546 27.1527C10.416 28.2461 12.6963 28.824 15 28.824C22.6225 28.824 28.824 22.6225 28.824 15C28.824 7.37755 22.6225 1.17599 15 1.17599C7.37755 1.17599 1.17599 7.37755 1.17599 15C1.17599 17.967 2.10182 20.7948 3.85323 23.1777C3.95485 23.316 3.99101 23.4915 3.95233 23.6586L2.83699 28.4807L7.97195 27.1014C8.02208 27.0879 8.07335 27.0813 8.12462 27.0813Z" fill="white"/>
</svg>
